<svg width="837" height="164" viewBox="0 0 837 164" fill="none" xmlns="http://www.w3.org/2000/svg">
<path d="M8.1 25.4H51.5V35.8H19.1V56.8H48.3V67.2H19.1V97H8.1V25.4ZM180.03 46H190.23V53.5H190.83C191.964 50.9 193.897 48.7667 196.63 47.1C199.43 45.3667 202.43 44.5 205.63 44.5C207.964 44.5 210.03 44.8333 211.83 45.5V56.7C209.097 55.5 206.464 54.9 203.93 54.9C200.13 54.9 196.997 56.3667 194.53 59.3C192.064 62.2333 190.83 65.8 190.83 70V97H180.03V46ZM649.795 55.4H640.495V46H649.795V41.8C649.795 36.4667 651.429 32.2667 654.695 29.2C658.029 26.1333 662.229 24.6 667.295 24.6C670.162 24.6 672.795 25 675.195 25.8V36.3C673.995 35.8333 672.862 35.4667 671.795 35.2C670.729 34.8667 669.529 34.7 668.195 34.7C665.995 34.7 664.162 35.4 662.695 36.8C661.229 38.2 660.495 40.1667 660.495 42.7V46H673.295V55.4H660.495V97H649.795V55.4ZM802.198 46H812.398V53.5H812.998C814.132 50.9 816.065 48.7667 818.798 47.1C821.598 45.3667 824.598 44.5 827.798 44.5C830.132 44.5 832.198 44.8333 833.998 45.5V56.7C831.265 55.5 828.632 54.9 826.098 54.9C822.298 54.9 819.165 56.3667 816.698 59.3C814.232 62.2333 812.998 65.8 812.998 70V97H802.198V46Z" fill="#4285F4"/>
<path d="M85.4758 98.6C80.3424 98.6 75.7424 97.4333 71.6758 95.1C67.6091 92.7 64.4424 89.4333 62.1758 85.3C59.9091 81.1667 58.7758 76.5667 58.7758 71.5C58.7758 66.4333 59.9091 61.8333 62.1758 57.7C64.4424 53.5667 67.6091 50.3333 71.6758 48C75.7424 45.6 80.3424 44.4 85.4758 44.4C90.5424 44.4 95.1091 45.6 99.1758 48C103.242 50.4 106.409 53.6667 108.676 57.8C110.942 61.9333 112.076 66.5 112.076 71.5C112.076 76.5667 110.942 81.1667 108.676 85.3C106.409 89.4333 103.242 92.7 99.1758 95.1C95.1758 97.4333 90.6091 98.6 85.4758 98.6ZM85.4758 88.7C88.3424 88.7 90.9758 88 93.3758 86.6C95.7758 85.2 97.7091 83.2 99.1758 80.6C100.642 78 101.376 74.9667 101.376 71.5C101.376 68.0333 100.642 65 99.1758 62.4C97.7091 59.8 95.7758 57.8 93.3758 56.4C90.9758 55 88.3424 54.3 85.4758 54.3C82.6091 54.3 79.9424 55 77.4758 56.4C75.0758 57.8 73.1424 59.8 71.6758 62.4C70.2091 65 69.4758 68.0333 69.4758 71.5C69.4758 74.9667 70.2091 78 71.6758 80.6C73.1424 83.2 75.0758 85.2 77.4758 86.6C79.9424 88 82.6091 88.7 85.4758 88.7ZM707.644 98.6C702.51 98.6 697.91 97.4333 693.844 95.1C689.777 92.7 686.61 89.4333 684.344 85.3C682.077 81.1667 680.944 76.5667 680.944 71.5C680.944 66.4333 682.077 61.8333 684.344 57.7C686.61 53.5667 689.777 50.3333 693.844 48C697.91 45.6 702.51 44.4 707.644 44.4C712.71 44.4 717.277 45.6 721.344 48C725.41 50.4 728.577 53.6667 730.844 57.8C733.11 61.9333 734.244 66.5 734.244 71.5C734.244 76.5667 733.11 81.1667 730.844 85.3C728.577 89.4333 725.41 92.7 721.344 95.1C717.344 97.4333 712.777 98.6 707.644 98.6ZM707.644 88.7C710.51 88.7 713.144 88 715.544 86.6C717.944 85.2 719.877 83.2 721.344 80.6C722.81 78 723.544 74.9667 723.544 71.5C723.544 68.0333 722.81 65 721.344 62.4C719.877 59.8 717.944 57.8 715.544 56.4C713.144 55 710.51 54.3 707.644 54.3C704.777 54.3 702.11 55 699.644 56.4C697.244 57.8 695.31 59.8 693.844 62.4C692.377 65 691.644 68.0333 691.644 71.5C691.644 74.9667 692.377 78 693.844 80.6C695.31 83.2 697.244 85.2 699.644 86.6C702.11 88 704.777 88.7 707.644 88.7Z" fill="#EA4335"/>
<path d="M140.523 98.6C134.389 98.6 129.689 96.7667 126.423 93.1C123.223 89.3667 121.623 84.2 121.623 77.6V46H132.423V76.1C132.423 80.2333 133.389 83.3667 135.323 85.5C137.256 87.6333 139.856 88.7 143.123 88.7C145.789 88.7 148.156 88 150.223 86.6C152.289 85.2 153.856 83.3333 154.923 81C156.056 78.6667 156.623 76.1333 156.623 73.4V46H167.323V97H157.223V90.1H156.623C155.156 92.5667 152.956 94.6 150.023 96.2C147.089 97.8 143.923 98.6 140.523 98.6ZM762.691 98.6C756.557 98.6 751.857 96.7667 748.591 93.1C745.391 89.3667 743.791 84.2 743.791 77.6V46H754.591V76.1C754.591 80.2333 755.557 83.3667 757.491 85.5C759.424 87.6333 762.024 88.7 765.291 88.7C767.957 88.7 770.324 88 772.391 86.6C774.457 85.2 776.024 83.3333 777.091 81C778.224 78.6667 778.791 76.1333 778.791 73.4V46H789.491V97H779.391V90.1H778.791C777.324 92.5667 775.124 94.6 772.191 96.2C769.257 97.8 766.091 98.6 762.691 98.6Z" fill="#37A855"/>
<path d="M244.167 98.6C239.034 98.6 234.434 97.4333 230.367 95.1C226.301 92.7 223.134 89.4333 220.867 85.3C218.601 81.1667 217.467 76.5667 217.467 71.5C217.467 66.4333 218.601 61.8333 220.867 57.7C223.134 53.5667 226.301 50.3333 230.367 48C234.434 45.6 239.034 44.4 244.167 44.4C249.234 44.4 253.801 45.6 257.867 48C261.934 50.4 265.101 53.6667 267.367 57.8C269.634 61.9333 270.767 66.5 270.767 71.5C270.767 76.5667 269.634 81.1667 267.367 85.3C265.101 89.4333 261.934 92.7 257.867 95.1C253.867 97.4333 249.301 98.6 244.167 98.6ZM244.167 88.7C247.034 88.7 249.667 88 252.067 86.6C254.467 85.2 256.401 83.2 257.867 80.6C259.334 78 260.067 74.9667 260.067 71.5C260.067 68.0333 259.334 65 257.867 62.4C256.401 59.8 254.467 57.8 252.067 56.4C249.667 55 247.034 54.3 244.167 54.3C241.301 54.3 238.634 55 236.167 56.4C233.767 57.8 231.834 59.8 230.367 62.4C228.901 65 228.167 68.0333 228.167 71.5C228.167 74.9667 228.901 78 230.367 80.6C231.834 83.2 233.767 85.2 236.167 86.6C238.634 88 241.301 88.7 244.167 88.7ZM304.714 98.6C299.581 98.6 294.981 97.4333 290.914 95.1C286.847 92.7 283.681 89.4333 281.414 85.3C279.147 81.1667 278.014 76.5667 278.014 71.5C278.014 66.4333 279.147 61.8333 281.414 57.7C283.681 53.5667 286.847 50.3333 290.914 48C294.981 45.6 299.581 44.4 304.714 44.4C309.781 44.4 314.347 45.6 318.414 48C322.481 50.4 325.647 53.6667 327.914 57.8C330.181 61.9333 331.314 66.5 331.314 71.5C331.314 76.5667 330.181 81.1667 327.914 85.3C325.647 89.4333 322.481 92.7 318.414 95.1C314.414 97.4333 309.847 98.6 304.714 98.6ZM304.714 88.7C307.581 88.7 310.214 88 312.614 86.6C315.014 85.2 316.947 83.2 318.414 80.6C319.881 78 320.614 74.9667 320.614 71.5C320.614 68.0333 319.881 65 318.414 62.4C316.947 59.8 315.014 57.8 312.614 56.4C310.214 55 307.581 54.3 304.714 54.3C301.847 54.3 299.181 55 296.714 56.4C294.314 57.8 292.381 59.8 290.914 62.4C289.447 65 288.714 68.0333 288.714 71.5C288.714 74.9667 289.447 78 290.914 80.6C292.381 83.2 294.314 85.2 296.714 86.6C299.181 88 301.847 88.7 304.714 88.7ZM365.261 98.6C360.128 98.6 355.528 97.4333 351.461 95.1C347.394 92.7 344.228 89.4333 341.961 85.3C339.694 81.1667 338.561 76.5667 338.561 71.5C338.561 66.4333 339.694 61.8333 341.961 57.7C344.228 53.5667 347.394 50.3333 351.461 48C355.528 45.6 360.128 44.4 365.261 44.4C370.328 44.4 374.894 45.6 378.961 48C383.028 50.4 386.194 53.6667 388.461 57.8C390.728 61.9333 391.861 66.5 391.861 71.5C391.861 76.5667 390.728 81.1667 388.461 85.3C386.194 89.4333 383.028 92.7 378.961 95.1C374.961 97.4333 370.394 98.6 365.261 98.6ZM365.261 88.7C368.128 88.7 370.761 88 373.161 86.6C375.561 85.2 377.494 83.2 378.961 80.6C380.428 78 381.161 74.9667 381.161 71.5C381.161 68.0333 380.428 65 378.961 62.4C377.494 59.8 375.561 57.8 373.161 56.4C370.761 55 368.128 54.3 365.261 54.3C362.394 54.3 359.728 55 357.261 56.4C354.861 57.8 352.928 59.8 351.461 62.4C349.994 65 349.261 68.0333 349.261 71.5C349.261 74.9667 349.994 78 351.461 80.6C352.928 83.2 354.861 85.2 357.261 86.6C359.728 88 362.394 88.7 365.261 88.7ZM425.808 98.6C420.674 98.6 416.074 97.4333 412.008 95.1C407.941 92.7 404.774 89.4333 402.508 85.3C400.241 81.1667 399.108 76.5667 399.108 71.5C399.108 66.4333 400.241 61.8333 402.508 57.7C404.774 53.5667 407.941 50.3333 412.008 48C416.074 45.6 420.674 44.4 425.808 44.4C430.874 44.4 435.441 45.6 439.508 48C443.574 50.4 446.741 53.6667 449.008 57.8C451.274 61.9333 452.408 66.5 452.408 71.5C452.408 76.5667 451.274 81.1667 449.008 85.3C446.741 89.4333 443.574 92.7 439.508 95.1C435.508 97.4333 430.941 98.6 425.808 98.6ZM425.808 88.7C428.674 88.7 431.308 88 433.708 86.6C436.108 85.2 438.041 83.2 439.508 80.6C440.974 78 441.708 74.9667 441.708 71.5C441.708 68.0333 440.974 65 439.508 62.4C438.041 59.8 436.108 57.8 433.708 56.4C431.308 55 428.674 54.3 425.808 54.3C422.941 54.3 420.274 55 417.808 56.4C415.408 57.8 413.474 59.8 412.008 62.4C410.541 65 409.808 68.0333 409.808 71.5C409.808 74.9667 410.541 78 412.008 80.6C413.474 83.2 415.408 85.2 417.808 86.6C420.274 88 422.941 88.7 425.808 88.7ZM486.355 98.6C481.221 98.6 476.621 97.4333 472.555 95.1C468.488 92.7 465.321 89.4333 463.055 85.3C460.788 81.1667 459.655 76.5667 459.655 71.5C459.655 66.4333 460.788 61.8333 463.055 57.7C465.321 53.5667 468.488 50.3333 472.555 48C476.621 45.6 481.221 44.4 486.355 44.4C491.421 44.4 495.988 45.6 500.055 48C504.121 50.4 507.288 53.6667 509.555 57.8C511.821 61.9333 512.955 66.5 512.955 71.5C512.955 76.5667 511.821 81.1667 509.555 85.3C507.288 89.4333 504.121 92.7 500.055 95.1C496.055 97.4333 491.488 98.6 486.355 98.6ZM486.355 88.7C489.221 88.7 491.855 88 494.255 86.6C496.655 85.2 498.588 83.2 500.055 80.6C501.521 78 502.255 74.9667 502.255 71.5C502.255 68.0333 501.521 65 500.055 62.4C498.588 59.8 496.655 57.8 494.255 56.4C491.855 55 489.221 54.3 486.355 54.3C483.488 54.3 480.821 55 478.355 56.4C475.955 57.8 474.021 59.8 472.555 62.4C471.088 65 470.355 68.0333 470.355 71.5C470.355 74.9667 471.088 78 472.555 80.6C474.021 83.2 475.955 85.2 478.355 86.6C480.821 88 483.488 88.7 486.355 88.7ZM546.902 98.6C541.768 98.6 537.168 97.4333 533.102 95.1C529.035 92.7 525.868 89.4333 523.602 85.3C521.335 81.1667 520.202 76.5667 520.202 71.5C520.202 66.4333 521.335 61.8333 523.602 57.7C525.868 53.5667 529.035 50.3333 533.102 48C537.168 45.6 541.768 44.4 546.902 44.4C551.968 44.4 556.535 45.6 560.602 48C564.668 50.4 567.835 53.6667 570.102 57.8C572.368 61.9333 573.502 66.5 573.502 71.5C573.502 76.5667 572.368 81.1667 570.102 85.3C567.835 89.4333 564.668 92.7 560.602 95.1C556.602 97.4333 552.035 98.6 546.902 98.6ZM546.902 88.7C549.768 88.7 552.402 88 554.802 86.6C557.202 85.2 559.135 83.2 560.602 80.6C562.068 78 562.802 74.9667 562.802 71.5C562.802 68.0333 562.068 65 560.602 62.4C559.135 59.8 557.202 57.8 554.802 56.4C552.402 55 549.768 54.3 546.902 54.3C544.035 54.3 541.368 55 538.902 56.4C536.502 57.8 534.568 59.8 533.102 62.4C531.635 65 530.902 68.0333 530.902 71.5C530.902 74.9667 531.635 78 533.102 80.6C534.568 83.2 536.502 85.2 538.902 86.6C541.368 88 544.035 88.7 546.902 88.7ZM607.448 98.6C602.315 98.6 597.715 97.4333 593.648 95.1C589.582 92.7 586.415 89.4333 584.148 85.3C581.882 81.1667 580.748 76.5667 580.748 71.5C580.748 66.4333 581.882 61.8333 584.148 57.7C586.415 53.5667 589.582 50.3333 593.648 48C597.715 45.6 602.315 44.4 607.448 44.4C612.515 44.4 617.082 45.6 621.148 48C625.215 50.4 628.382 53.6667 630.648 57.8C632.915 61.9333 634.048 66.5 634.048 71.5C634.048 76.5667 632.915 81.1667 630.648 85.3C628.382 89.4333 625.215 92.7 621.148 95.1C617.148 97.4333 612.582 98.6 607.448 98.6ZM607.448 88.7C610.315 88.7 612.948 88 615.348 86.6C617.748 85.2 619.682 83.2 621.148 80.6C622.615 78 623.348 74.9667 623.348 71.5C623.348 68.0333 622.615 65 621.148 62.4C619.682 59.8 617.748 57.8 615.348 56.4C612.948 55 610.315 54.3 607.448 54.3C604.582 54.3 601.915 55 599.448 56.4C597.048 57.8 595.115 59.8 593.648 62.4C592.182 65 591.448 68.0333 591.448 71.5C591.448 74.9667 592.182 78 593.648 80.6C595.115 83.2 597.048 85.2 599.448 86.6C601.915 88 604.582 88.7 607.448 88.7Z" fill="#FBBC03"/>
<path d="M234.454 155.464C232.965 155.464 231.641 155.126 230.481 154.449C229.321 153.753 228.422 152.796 227.784 151.578C227.146 150.341 226.827 148.92 226.827 147.315V134.236H229.292V147.431C229.292 149.113 229.737 150.486 230.626 151.549C231.515 152.593 232.791 153.115 234.454 153.115C236.117 153.115 237.393 152.593 238.282 151.549C239.191 150.486 239.645 149.113 239.645 147.431V134.236H242.11V147.315C242.11 148.92 241.801 150.341 241.182 151.578C240.583 152.815 239.703 153.772 238.543 154.449C237.383 155.126 236.02 155.464 234.454 155.464ZM245.773 134.236H248.238V140.355L248.122 142.385H248.238C248.644 141.631 249.282 141.003 250.152 140.5C251.042 139.997 252.008 139.746 253.052 139.746C254.85 139.746 256.223 140.278 257.17 141.341C258.118 142.385 258.591 143.777 258.591 145.517V155H256.126V145.894C256.126 144.56 255.788 143.574 255.111 142.936C254.435 142.298 253.555 141.979 252.472 141.979C251.699 141.979 250.984 142.211 250.326 142.675C249.688 143.139 249.176 143.738 248.789 144.473C248.422 145.208 248.238 145.971 248.238 146.764V155H245.773V134.236ZM275.698 155.464C274.248 155.464 272.943 155.116 271.783 154.42C270.623 153.724 269.714 152.777 269.057 151.578C268.419 150.379 268.1 149.055 268.1 147.605C268.1 146.155 268.419 144.831 269.057 143.632C269.714 142.433 270.623 141.486 271.783 140.79C272.943 140.094 274.248 139.746 275.698 139.746C277.148 139.746 278.453 140.094 279.613 140.79C280.773 141.486 281.672 142.433 282.31 143.632C282.967 144.831 283.296 146.155 283.296 147.605C283.296 149.055 282.967 150.379 282.31 151.578C281.672 152.777 280.773 153.724 279.613 154.42C278.453 155.116 277.148 155.464 275.698 155.464ZM275.698 153.231C276.606 153.231 277.447 153.009 278.221 152.564C279.013 152.1 279.642 151.443 280.106 150.592C280.589 149.741 280.831 148.746 280.831 147.605C280.831 146.464 280.589 145.469 280.106 144.618C279.642 143.767 279.013 143.12 278.221 142.675C277.447 142.211 276.606 141.979 275.698 141.979C274.789 141.979 273.938 142.211 273.146 142.675C272.353 143.12 271.715 143.767 271.232 144.618C270.768 145.469 270.536 146.464 270.536 147.605C270.536 148.746 270.768 149.741 271.232 150.592C271.715 151.443 272.353 152.1 273.146 152.564C273.938 153.009 274.789 153.231 275.698 153.231ZM286.016 134.236H288.481V140.355L288.365 142.385H288.481C288.887 141.631 289.525 141.003 290.395 140.5C291.285 139.997 292.251 139.746 293.295 139.746C295.093 139.746 296.466 140.278 297.413 141.341C298.361 142.385 298.834 143.777 298.834 145.517V155H296.369V145.894C296.369 144.56 296.031 143.574 295.354 142.936C294.678 142.298 293.798 141.979 292.715 141.979C291.942 141.979 291.227 142.211 290.569 142.675C289.931 143.139 289.419 143.738 289.032 144.473C288.665 145.208 288.481 145.971 288.481 146.764V155H286.016V134.236ZM302.038 157.407L303.604 155C303.256 154.942 302.937 154.758 302.647 154.449C302.376 154.14 302.241 153.763 302.241 153.318C302.241 152.815 302.415 152.39 302.763 152.042C303.13 151.675 303.575 151.491 304.097 151.491C304.619 151.491 305.054 151.675 305.402 152.042C305.769 152.39 305.953 152.815 305.953 153.318C305.953 153.647 305.885 153.966 305.75 154.275C305.614 154.565 305.411 154.903 305.141 155.29L303.227 158.19L302.038 157.407ZM321.805 155.232C321.206 155.232 320.645 155.135 320.123 154.942C319.62 154.749 319.195 154.488 318.847 154.159C318.074 153.424 317.687 152.409 317.687 151.114V142.443H315.106V140.21H317.687V136.034H320.152V140.21H323.777V142.443H320.152V150.505C320.152 151.317 320.307 151.916 320.616 152.303C320.983 152.728 321.515 152.941 322.211 152.941C322.81 152.941 323.352 152.777 323.835 152.448V154.855C323.545 154.99 323.245 155.087 322.936 155.145C322.646 155.203 322.269 155.232 321.805 155.232ZM326.883 134.236H329.348V140.355L329.232 142.385H329.348C329.754 141.631 330.392 141.003 331.262 140.5C332.151 139.997 333.118 139.746 334.162 139.746C335.96 139.746 337.332 140.278 338.28 141.341C339.227 142.385 339.701 143.777 339.701 145.517V155H337.236V145.894C337.236 144.56 336.897 143.574 336.221 142.936C335.544 142.298 334.664 141.979 333.582 141.979C332.808 141.979 332.093 142.211 331.436 142.675C330.798 143.139 330.285 143.738 329.899 144.473C329.531 145.208 329.348 145.971 329.348 146.764V155H326.883V134.236ZM347.837 155.464C346.755 155.464 345.788 155.251 344.937 154.826C344.087 154.401 343.429 153.821 342.965 153.086C342.501 152.332 342.269 151.481 342.269 150.534C342.269 148.968 342.859 147.75 344.038 146.88C345.218 145.991 346.706 145.546 348.504 145.546C349.394 145.546 350.215 145.643 350.969 145.836C351.743 146.029 352.332 146.252 352.738 146.503V145.604C352.738 144.502 352.352 143.622 351.578 142.965C350.805 142.288 349.829 141.95 348.649 141.95C347.837 141.95 347.074 142.134 346.358 142.501C345.662 142.849 345.111 143.342 344.705 143.98L342.849 142.588C343.429 141.699 344.232 141.003 345.256 140.5C346.281 139.997 347.412 139.746 348.649 139.746C350.66 139.746 352.236 140.278 353.376 141.341C354.517 142.385 355.087 143.816 355.087 145.633V155H352.738V152.883H352.622C352.197 153.598 351.559 154.207 350.708 154.71C349.858 155.213 348.901 155.464 347.837 155.464ZM348.069 153.289C348.901 153.289 349.674 153.076 350.389 152.651C351.105 152.226 351.675 151.655 352.1 150.94C352.526 150.225 352.738 149.442 352.738 148.591C352.274 148.282 351.704 148.03 351.027 147.837C350.351 147.644 349.635 147.547 348.881 147.547C347.528 147.547 346.503 147.827 345.807 148.388C345.131 148.949 344.792 149.674 344.792 150.563C344.792 151.375 345.102 152.032 345.72 152.535C346.339 153.038 347.122 153.289 348.069 153.289ZM363.917 155.232C363.318 155.232 362.757 155.135 362.235 154.942C361.733 154.749 361.307 154.488 360.959 154.159C360.186 153.424 359.799 152.409 359.799 151.114V142.443H357.218V140.21H359.799V136.034H362.264V140.21H365.889V142.443H362.264V150.505C362.264 151.317 362.419 151.916 362.728 152.303C363.096 152.728 363.627 152.941 364.323 152.941C364.923 152.941 365.464 152.777 365.947 152.448V154.855C365.657 154.99 365.358 155.087 365.048 155.145C364.758 155.203 364.381 155.232 363.917 155.232ZM375.478 140.21H377.827V142.414H377.943C378.387 141.66 379.054 141.032 379.944 140.529C380.852 140.007 381.867 139.746 382.989 139.746C384.323 139.746 385.521 140.084 386.585 140.761C387.667 141.438 388.518 142.375 389.137 143.574C389.755 144.773 390.065 146.116 390.065 147.605C390.065 149.113 389.755 150.466 389.137 151.665C388.518 152.844 387.667 153.772 386.585 154.449C385.521 155.126 384.323 155.464 382.989 155.464C381.867 155.464 380.852 155.213 379.944 154.71C379.054 154.188 378.387 153.56 377.943 152.825H377.827L377.943 154.855V161.264H375.478V140.21ZM382.728 153.231C383.578 153.231 384.381 152.999 385.135 152.535C385.889 152.071 386.488 151.414 386.933 150.563C387.377 149.712 387.6 148.726 387.6 147.605C387.6 146.484 387.377 145.498 386.933 144.647C386.488 143.796 385.889 143.139 385.135 142.675C384.381 142.211 383.578 141.979 382.728 141.979C381.858 141.979 381.046 142.211 380.292 142.675C379.557 143.139 378.958 143.796 378.494 144.647C378.049 145.498 377.827 146.484 377.827 147.605C377.827 148.726 378.049 149.712 378.494 150.563C378.958 151.414 379.557 152.071 380.292 152.535C381.046 152.999 381.858 153.231 382.728 153.231ZM397.653 155.464C396.57 155.464 395.603 155.251 394.753 154.826C393.902 154.401 393.245 153.821 392.781 153.086C392.317 152.332 392.085 151.481 392.085 150.534C392.085 148.968 392.674 147.75 393.854 146.88C395.033 145.991 396.522 145.546 398.32 145.546C399.209 145.546 400.031 145.643 400.785 145.836C401.558 146.029 402.148 146.252 402.554 146.503V145.604C402.554 144.502 402.167 143.622 401.394 142.965C400.62 142.288 399.644 141.95 398.465 141.95C397.653 141.95 396.889 142.134 396.174 142.501C395.478 142.849 394.927 143.342 394.521 143.98L392.665 142.588C393.245 141.699 394.047 141.003 395.072 140.5C396.096 139.997 397.227 139.746 398.465 139.746C400.475 139.746 402.051 140.278 403.192 141.341C404.332 142.385 404.903 143.816 404.903 145.633V155H402.554V152.883H402.438C402.012 153.598 401.374 154.207 400.524 154.71C399.673 155.213 398.716 155.464 397.653 155.464ZM397.885 153.289C398.716 153.289 399.489 153.076 400.205 152.651C400.92 152.226 401.49 151.655 401.916 150.94C402.341 150.225 402.554 149.442 402.554 148.591C402.09 148.282 401.519 148.03 400.843 147.837C400.166 147.644 399.451 147.547 398.697 147.547C397.343 147.547 396.319 147.827 395.623 148.388C394.946 148.949 394.608 149.674 394.608 150.563C394.608 151.375 394.917 152.032 395.536 152.535C396.154 153.038 396.937 153.289 397.885 153.289ZM414.686 161.728C412.946 161.728 411.506 161.322 410.365 160.51C409.244 159.698 408.49 158.722 408.103 157.581L410.365 156.624C410.675 157.475 411.206 158.161 411.96 158.683C412.734 159.224 413.642 159.495 414.686 159.495C416.214 159.495 417.393 159.05 418.224 158.161C419.075 157.272 419.5 156.015 419.5 154.391V152.738H419.384C418.901 153.492 418.215 154.111 417.325 154.594C416.455 155.058 415.46 155.29 414.338 155.29C413.062 155.29 411.893 154.961 410.829 154.304C409.785 153.647 408.954 152.728 408.335 151.549C407.717 150.37 407.407 149.026 407.407 147.518C407.407 146.029 407.717 144.695 408.335 143.516C408.954 142.317 409.785 141.389 410.829 140.732C411.893 140.075 413.062 139.746 414.338 139.746C415.46 139.746 416.455 139.988 417.325 140.471C418.215 140.935 418.901 141.554 419.384 142.327H419.5V140.21H421.849V154.42C421.849 156.798 421.192 158.606 419.877 159.843C418.563 161.1 416.832 161.728 414.686 161.728ZM414.686 153.057C415.576 153.057 416.378 152.835 417.093 152.39C417.828 151.945 418.408 151.307 418.833 150.476C419.278 149.645 419.5 148.659 419.5 147.518C419.5 146.358 419.278 145.362 418.833 144.531C418.408 143.7 417.828 143.071 417.093 142.646C416.378 142.201 415.576 141.979 414.686 141.979C413.797 141.979 412.985 142.201 412.25 142.646C411.516 143.091 410.926 143.729 410.481 144.56C410.056 145.391 409.843 146.377 409.843 147.518C409.843 148.659 410.056 149.654 410.481 150.505C410.926 151.336 411.516 151.974 412.25 152.419C412.985 152.844 413.797 153.057 414.686 153.057ZM431.935 155.464C430.524 155.464 429.258 155.126 428.136 154.449C427.015 153.772 426.135 152.844 425.497 151.665C424.879 150.466 424.569 149.123 424.569 147.634C424.569 146.223 424.859 144.918 425.439 143.719C426.039 142.501 426.88 141.534 427.962 140.819C429.064 140.104 430.321 139.746 431.732 139.746C433.182 139.746 434.439 140.075 435.502 140.732C436.566 141.37 437.378 142.259 437.938 143.4C438.518 144.541 438.808 145.846 438.808 147.315C438.808 147.547 438.789 147.798 438.75 148.069H427.034C427.092 149.19 427.363 150.138 427.846 150.911C428.33 151.684 428.939 152.264 429.673 152.651C430.427 153.038 431.21 153.231 432.022 153.231C433.956 153.231 435.415 152.342 436.401 150.563L438.489 151.578C437.871 152.757 437.01 153.705 435.908 154.42C434.806 155.116 433.482 155.464 431.935 155.464ZM436.198 146.039C436.16 145.42 435.986 144.802 435.676 144.183C435.367 143.564 434.884 143.042 434.226 142.617C433.569 142.192 432.738 141.979 431.732 141.979C430.572 141.979 429.586 142.356 428.774 143.11C427.962 143.845 427.431 144.821 427.179 146.039H436.198ZM454.726 155.464C453.392 155.464 452.184 155.126 451.101 154.449C450.038 153.772 449.197 152.844 448.578 151.665C447.96 150.466 447.65 149.113 447.65 147.605C447.65 146.116 447.96 144.773 448.578 143.574C449.197 142.375 450.038 141.438 451.101 140.761C452.184 140.084 453.392 139.746 454.726 139.746C455.848 139.746 456.853 140.007 457.742 140.529C458.632 141.032 459.308 141.66 459.772 142.414H459.888L459.772 140.355V134.236H462.237V155H459.888V152.825H459.772C459.308 153.56 458.632 154.188 457.742 154.71C456.853 155.213 455.848 155.464 454.726 155.464ZM454.987 153.231C455.857 153.231 456.66 152.999 457.394 152.535C458.148 152.071 458.748 151.414 459.192 150.563C459.656 149.712 459.888 148.726 459.888 147.605C459.888 146.484 459.656 145.498 459.192 144.647C458.748 143.796 458.148 143.139 457.394 142.675C456.66 142.211 455.857 141.979 454.987 141.979C454.137 141.979 453.334 142.211 452.58 142.675C451.826 143.139 451.217 143.806 450.753 144.676C450.309 145.527 450.086 146.503 450.086 147.605C450.086 148.707 450.309 149.693 450.753 150.563C451.217 151.414 451.826 152.071 452.58 152.535C453.334 152.999 454.137 153.231 454.987 153.231ZM472.552 155.464C471.102 155.464 469.797 155.116 468.637 154.42C467.477 153.724 466.568 152.777 465.911 151.578C465.273 150.379 464.954 149.055 464.954 147.605C464.954 146.155 465.273 144.831 465.911 143.632C466.568 142.433 467.477 141.486 468.637 140.79C469.797 140.094 471.102 139.746 472.552 139.746C474.002 139.746 475.307 140.094 476.467 140.79C477.627 141.486 478.526 142.433 479.164 143.632C479.821 144.831 480.15 146.155 480.15 147.605C480.15 149.055 479.821 150.379 479.164 151.578C478.526 152.777 477.627 153.724 476.467 154.42C475.307 155.116 474.002 155.464 472.552 155.464ZM472.552 153.231C473.461 153.231 474.302 153.009 475.075 152.564C475.868 152.1 476.496 151.443 476.96 150.592C477.443 149.741 477.685 148.746 477.685 147.605C477.685 146.464 477.443 145.469 476.96 144.618C476.496 143.767 475.868 143.12 475.075 142.675C474.302 142.211 473.461 141.979 472.552 141.979C471.643 141.979 470.793 142.211 470 142.675C469.207 143.12 468.569 143.767 468.086 144.618C467.622 145.469 467.39 146.464 467.39 147.605C467.39 148.746 467.622 149.741 468.086 150.592C468.569 151.443 469.207 152.1 470 152.564C470.793 153.009 471.643 153.231 472.552 153.231ZM489.596 155.464C488.184 155.464 486.918 155.126 485.797 154.449C484.675 153.772 483.796 152.844 483.158 151.665C482.539 150.466 482.23 149.123 482.23 147.634C482.23 146.223 482.52 144.918 483.1 143.719C483.699 142.501 484.54 141.534 485.623 140.819C486.725 140.104 487.981 139.746 489.393 139.746C490.843 139.746 492.099 140.075 493.163 140.732C494.226 141.37 495.038 142.259 495.599 143.4C496.179 144.541 496.469 145.846 496.469 147.315C496.469 147.547 496.449 147.798 496.411 148.069H484.695C484.753 149.19 485.023 150.138 485.507 150.911C485.99 151.684 486.599 152.264 487.334 152.651C488.088 153.038 488.871 153.231 489.683 153.231C491.616 153.231 493.076 152.342 494.062 150.563L496.15 151.578C495.531 152.757 494.671 153.705 493.569 154.42C492.467 155.116 491.142 155.464 489.596 155.464ZM493.859 146.039C493.82 145.42 493.646 144.802 493.337 144.183C493.027 143.564 492.544 143.042 491.887 142.617C491.229 142.192 490.398 141.979 489.393 141.979C488.233 141.979 487.247 142.356 486.435 143.11C485.623 143.845 485.091 144.821 484.84 146.039H493.859ZM504.657 155.464C503.072 155.464 501.747 155.097 500.684 154.362C499.621 153.608 498.867 152.651 498.422 151.491L500.626 150.505C500.993 151.394 501.535 152.081 502.25 152.564C502.985 153.047 503.787 153.289 504.657 153.289C505.585 153.289 506.378 153.105 507.035 152.738C507.692 152.351 508.021 151.81 508.021 151.114C508.021 150.495 507.76 150.002 507.238 149.635C506.716 149.248 505.894 148.92 504.773 148.649L502.975 148.185C501.796 147.895 500.829 147.402 500.075 146.706C499.321 146.01 498.944 145.111 498.944 144.009C498.944 143.158 499.195 142.414 499.698 141.776C500.22 141.119 500.906 140.616 501.757 140.268C502.608 139.92 503.526 139.746 504.512 139.746C505.807 139.746 506.958 140.026 507.963 140.587C508.988 141.148 509.713 141.931 510.138 142.936L507.992 143.922C507.335 142.607 506.165 141.95 504.483 141.95C503.671 141.95 502.956 142.143 502.337 142.53C501.738 142.897 501.438 143.371 501.438 143.951C501.438 144.492 501.651 144.937 502.076 145.285C502.501 145.614 503.139 145.884 503.99 146.097L506.136 146.648C507.586 147.015 508.678 147.566 509.413 148.301C510.148 149.016 510.515 149.896 510.515 150.94C510.515 151.849 510.254 152.651 509.732 153.347C509.21 154.024 508.504 154.546 507.615 154.913C506.726 155.28 505.74 155.464 504.657 155.464ZM519.942 140.21H522.291V142.385H522.407C522.813 141.65 523.461 141.032 524.35 140.529C525.24 140.007 526.187 139.746 527.192 139.746C528.971 139.746 530.324 140.268 531.252 141.312C532.2 142.337 532.673 143.738 532.673 145.517V155H530.208V145.894C530.208 144.521 529.88 143.526 529.222 142.907C528.565 142.288 527.666 141.979 526.525 141.979C525.733 141.979 525.017 142.201 524.379 142.646C523.761 143.091 523.277 143.68 522.929 144.415C522.581 145.13 522.407 145.884 522.407 146.677V155H519.942V140.21ZM543.013 155.464C541.563 155.464 540.258 155.116 539.098 154.42C537.938 153.724 537.029 152.777 536.372 151.578C535.734 150.379 535.415 149.055 535.415 147.605C535.415 146.155 535.734 144.831 536.372 143.632C537.029 142.433 537.938 141.486 539.098 140.79C540.258 140.094 541.563 139.746 543.013 139.746C544.463 139.746 545.768 140.094 546.928 140.79C548.088 141.486 548.987 142.433 549.625 143.632C550.282 144.831 550.611 146.155 550.611 147.605C550.611 149.055 550.282 150.379 549.625 151.578C548.987 152.777 548.088 153.724 546.928 154.42C545.768 155.116 544.463 155.464 543.013 155.464ZM543.013 153.231C543.922 153.231 544.763 153.009 545.536 152.564C546.329 152.1 546.957 151.443 547.421 150.592C547.904 149.741 548.146 148.746 548.146 147.605C548.146 146.464 547.904 145.469 547.421 144.618C546.957 143.767 546.329 143.12 545.536 142.675C544.763 142.211 543.922 141.979 543.013 141.979C542.104 141.979 541.254 142.211 540.461 142.675C539.668 143.12 539.03 143.767 538.547 144.618C538.083 145.469 537.851 146.464 537.851 147.605C537.851 148.746 538.083 149.741 538.547 150.592C539.03 151.443 539.668 152.1 540.461 152.564C541.254 153.009 542.104 153.231 543.013 153.231ZM558.733 155.232C558.133 155.232 557.573 155.135 557.051 154.942C556.548 154.749 556.123 154.488 555.775 154.159C555.001 153.424 554.615 152.409 554.615 151.114V142.443H552.034V140.21H554.615V136.034H557.08V140.21H560.705V142.443H557.08V150.505C557.08 151.317 557.234 151.916 557.544 152.303C557.911 152.728 558.443 152.941 559.139 152.941C559.738 152.941 560.279 152.777 560.763 152.448V154.855C560.473 154.99 560.173 155.087 559.864 155.145C559.574 155.203 559.197 155.232 558.733 155.232ZM576.992 155.464C575.581 155.464 574.314 155.126 573.193 154.449C572.072 153.772 571.192 152.844 570.554 151.665C569.935 150.466 569.626 149.123 569.626 147.634C569.626 146.223 569.916 144.918 570.496 143.719C571.095 142.501 571.936 141.534 573.019 140.819C574.121 140.104 575.378 139.746 576.789 139.746C578.239 139.746 579.496 140.075 580.559 140.732C581.622 141.37 582.434 142.259 582.995 143.4C583.575 144.541 583.865 145.846 583.865 147.315C583.865 147.547 583.846 147.798 583.807 148.069H572.091C572.149 149.19 572.42 150.138 572.903 150.911C573.386 151.684 573.995 152.264 574.73 152.651C575.484 153.038 576.267 153.231 577.079 153.231C579.012 153.231 580.472 152.342 581.458 150.563L583.546 151.578C582.927 152.757 582.067 153.705 580.965 154.42C579.863 155.116 578.539 155.464 576.992 155.464ZM581.255 146.039C581.216 145.42 581.042 144.802 580.733 144.183C580.424 143.564 579.94 143.042 579.283 142.617C578.626 142.192 577.794 141.979 576.789 141.979C575.629 141.979 574.643 142.356 573.831 143.11C573.019 143.845 572.487 144.821 572.236 146.039H581.255ZM590.237 147.489L585.133 140.21H587.917L591.716 145.691L595.399 140.21H598.299L593.108 147.489L598.386 155H595.515L591.687 149.316L587.888 155H585.017L590.237 147.489ZM602.048 137.484C601.565 137.484 601.149 137.31 600.801 136.962C600.453 136.614 600.279 136.198 600.279 135.715C600.279 135.212 600.453 134.797 600.801 134.468C601.149 134.12 601.565 133.946 602.048 133.946C602.551 133.946 602.967 134.12 603.295 134.468C603.643 134.797 603.817 135.212 603.817 135.715C603.817 136.198 603.643 136.614 603.295 136.962C602.967 137.31 602.551 137.484 602.048 137.484ZM600.83 140.21H603.295V155H600.83V140.21ZM612.302 155.464C610.717 155.464 609.393 155.097 608.329 154.362C607.266 153.608 606.512 152.651 606.067 151.491L608.271 150.505C608.639 151.394 609.18 152.081 609.895 152.564C610.63 153.047 611.432 153.289 612.302 153.289C613.23 153.289 614.023 153.105 614.68 152.738C615.338 152.351 615.666 151.81 615.666 151.114C615.666 150.495 615.405 150.002 614.883 149.635C614.361 149.248 613.54 148.92 612.418 148.649L610.62 148.185C609.441 147.895 608.474 147.402 607.72 146.706C606.966 146.01 606.589 145.111 606.589 144.009C606.589 143.158 606.841 142.414 607.343 141.776C607.865 141.119 608.552 140.616 609.402 140.268C610.253 139.92 611.171 139.746 612.157 139.746C613.453 139.746 614.603 140.026 615.608 140.587C616.633 141.148 617.358 141.931 617.783 142.936L615.637 143.922C614.98 142.607 613.81 141.95 612.128 141.95C611.316 141.95 610.601 142.143 609.982 142.53C609.383 142.897 609.083 143.371 609.083 143.951C609.083 144.492 609.296 144.937 609.721 145.285C610.147 145.614 610.785 145.884 611.635 146.097L613.781 146.648C615.231 147.015 616.324 147.566 617.058 148.301C617.793 149.016 618.16 149.896 618.16 150.94C618.16 151.849 617.899 152.651 617.377 153.347C616.855 154.024 616.15 154.546 615.26 154.913C614.371 155.28 613.385 155.464 612.302 155.464ZM626.39 155.232C625.791 155.232 625.23 155.135 624.708 154.942C624.205 154.749 623.78 154.488 623.432 154.159C622.659 153.424 622.272 152.409 622.272 151.114V142.443H619.691V140.21H622.272V136.034H624.737V140.21H628.362V142.443H624.737V150.505C624.737 151.317 624.892 151.916 625.201 152.303C625.568 152.728 626.1 152.941 626.796 152.941C627.395 152.941 627.937 152.777 628.42 152.448V154.855C628.13 154.99 627.83 155.087 627.521 155.145C627.231 155.203 626.854 155.232 626.39 155.232Z" fill="black" fill-opacity="0.75"/>
</svg>
