<svg width="197" height="34" viewBox="0 0 197 34" fill="none" xmlns="http://www.w3.org/2000/svg">
<g clip-path="url(#clip0_3504_421)">
<mask id="mask0_3504_421" style="mask-type:luminance" maskUnits="userSpaceOnUse" x="0" y="0" width="32" height="34">
<path d="M32 0.659561H0V33.3405H32V0.659561Z" fill="white"/>
</mask>
<g mask="url(#mask0_3504_421)">
<path d="M32 17.3745C31.9951 16.3366 31.9085 15.3008 31.7413 14.2766H16.3404V20.4042H25.1915C24.9957 21.3977 24.6048 22.3425 24.0415 23.1839C23.4782 24.0253 22.7537 24.7467 21.9098 25.3064V29.3915H27.1728C30.2434 26.5319 32 22.3379 32 17.3745Z" fill="#4285F4"/>
<path d="M16.3404 33.3404C20.3221 33.455 24.1962 32.0394 27.166 29.3847L21.903 25.2996C20.2474 26.3675 18.3101 26.9152 16.3404 26.8723C14.2984 26.8473 12.3155 26.1829 10.6705 24.9727C9.02549 23.7624 7.80109 22.0672 7.16936 20.1251H1.72255V24.3396C3.08429 27.0482 5.17273 29.3247 7.75429 30.9142C10.3358 32.5038 13.3087 33.3439 16.3404 33.3404Z" fill="#34A853"/>
<path d="M7.17617 20.1251C6.48621 18.0988 6.48621 15.9012 7.17617 13.8749V9.66042H1.72936C0.584511 11.9377 -0.0117435 14.4512 -0.0117435 17C-0.0117435 19.5488 0.584511 22.0623 1.72936 24.3396L7.17617 20.1251Z" fill="#FABB05"/>
<path d="M16.3404 7.12765C18.6719 7.08677 20.9253 7.96758 22.6111 9.57871L27.2749 4.92169C24.3204 2.13729 20.3999 0.609152 16.3404 0.659564C13.3122 0.659912 10.3436 1.50174 7.76602 3.09111C5.18841 4.68048 3.10316 6.95485 1.74298 9.66042L7.18979 13.8749C7.82039 11.9361 9.0417 10.2431 10.6826 9.0332C12.3235 7.82326 14.3019 7.15696 16.3404 7.12765Z" fill="#E94235"/>
</g>
<path d="M190.995 24.6617C190.96 24.743 190.92 24.8301 190.873 24.9229C190.827 25.0274 190.798 25.0913 190.786 25.1145H189.254C189.324 24.9636 189.399 24.7952 189.48 24.6095C189.562 24.4354 189.66 24.2206 189.776 23.9652C189.846 23.8143 189.91 23.675 189.968 23.5473C190.026 23.4196 190.09 23.2745 190.159 23.112C190.241 22.9611 190.334 22.7695 190.438 22.5373L191.239 20.796L187.565 12.4726H189.167L191.953 19.0721H191.988L194.669 12.4726H196.271L191.674 23.0771C191.628 23.1816 191.552 23.3441 191.448 23.5647C191.355 23.7969 191.262 24.0174 191.169 24.2264C191.088 24.447 191.03 24.5921 190.995 24.6617Z" fill="#5F6368"/>
<path d="M181.769 21.3533V12.4726H183.18V13.9005H183.249C183.366 13.5638 183.557 13.2736 183.824 13.0298C184.103 12.7744 184.416 12.5771 184.764 12.4378C185.124 12.2869 185.478 12.2114 185.827 12.2114C186.094 12.2114 186.303 12.2288 186.453 12.2636C186.604 12.2869 186.744 12.3275 186.871 12.3855V13.9875C186.686 13.8947 186.482 13.825 186.262 13.7786C186.053 13.7322 185.838 13.7089 185.618 13.7089C185.188 13.7089 184.793 13.8308 184.434 14.0746C184.074 14.3184 183.783 14.6434 183.563 15.0497C183.354 15.456 183.249 15.903 183.249 16.3905V21.3533H181.769Z" fill="#5F6368"/>
<path d="M175.286 21.6319C174.625 21.6319 174.044 21.5042 173.545 21.2488C173.046 20.9934 172.651 20.6451 172.361 20.204C172.082 19.7512 171.943 19.2405 171.943 18.6716C171.943 18.0216 172.111 17.4759 172.448 17.0348C172.785 16.5821 173.237 16.2454 173.806 16.0249C174.375 15.7927 175.002 15.6766 175.687 15.6766C176.081 15.6766 176.447 15.7114 176.784 15.7811C177.12 15.8391 177.411 15.9146 177.654 16.0074C177.91 16.0887 178.101 16.17 178.229 16.2512V15.7114C178.229 15.0381 177.991 14.5041 177.515 14.1094C177.039 13.7147 176.459 13.5174 175.774 13.5174C175.286 13.5174 174.828 13.6277 174.398 13.8482C173.98 14.0572 173.649 14.3532 173.406 14.7363L172.291 13.9005C172.523 13.5522 172.814 13.2504 173.162 12.995C173.51 12.7396 173.905 12.5422 174.346 12.4029C174.799 12.2636 175.275 12.194 175.774 12.194C176.981 12.194 177.927 12.5132 178.612 13.1517C179.297 13.7902 179.64 14.6492 179.64 15.7288V21.3532H178.229V20.0821H178.159C178.008 20.3375 177.794 20.5871 177.515 20.8309C177.237 21.063 176.906 21.2546 176.523 21.4055C176.151 21.5564 175.739 21.6319 175.286 21.6319ZM175.426 20.3259C175.936 20.3259 176.401 20.1982 176.819 19.9428C177.248 19.6874 177.591 19.3449 177.846 18.9154C178.101 18.4859 178.229 18.0157 178.229 17.505C177.962 17.3192 177.625 17.1683 177.219 17.0522C176.824 16.9361 176.389 16.8781 175.913 16.8781C175.066 16.8781 174.445 17.0522 174.05 17.4005C173.655 17.7487 173.458 18.1783 173.458 18.6891C173.458 19.1766 173.644 19.5713 174.015 19.8731C174.387 20.175 174.857 20.3259 175.426 20.3259Z" fill="#5F6368"/>
<path d="M166.118 21.3533V12.4726H167.528V13.9005H167.598C167.714 13.5638 167.906 13.2736 168.173 13.0298C168.451 12.7744 168.765 12.5771 169.113 12.4378C169.473 12.2869 169.827 12.2114 170.175 12.2114C170.442 12.2114 170.651 12.2288 170.802 12.2636C170.953 12.2869 171.092 12.3275 171.22 12.3855V13.9875C171.034 13.8947 170.831 13.825 170.61 13.7786C170.401 13.7322 170.187 13.7089 169.966 13.7089C169.537 13.7089 169.142 13.8308 168.782 14.0746C168.422 14.3184 168.132 14.6434 167.911 15.0497C167.702 15.456 167.598 15.903 167.598 16.3905V21.3533H166.118Z" fill="#5F6368"/>
<path d="M160.081 21.6319C159.605 21.6319 159.17 21.5564 158.775 21.4055C158.381 21.2546 158.032 21.0572 157.73 20.8135C157.44 20.5697 157.214 20.3143 157.051 20.0473H156.982V21.3533H155.571V8.88551H157.051V12.5597L156.982 13.796H157.051C157.214 13.5174 157.44 13.2562 157.73 13.0124C158.032 12.7686 158.381 12.5713 158.775 12.4204C159.17 12.2694 159.605 12.194 160.081 12.194C160.894 12.194 161.619 12.3971 162.258 12.8034C162.896 13.2098 163.401 13.767 163.773 14.4751C164.144 15.1832 164.33 15.9958 164.33 16.9129C164.33 17.83 164.144 18.6426 163.773 19.3508C163.401 20.0589 162.896 20.6161 162.258 21.0224C161.619 21.4287 160.894 21.6319 160.081 21.6319ZM159.924 20.2911C160.435 20.2911 160.911 20.1576 161.352 19.8906C161.805 19.6119 162.165 19.2173 162.432 18.7065C162.711 18.1957 162.85 17.5978 162.85 16.9129C162.85 16.2164 162.711 15.6186 162.432 15.1194C162.165 14.6086 161.805 14.2197 161.352 13.9527C160.911 13.6741 160.435 13.5348 159.924 13.5348C159.414 13.5348 158.932 13.6741 158.479 13.9527C158.038 14.2197 157.678 14.6086 157.4 15.1194C157.121 15.6186 156.982 16.2164 156.982 16.9129C156.982 17.6095 157.121 18.2131 157.4 18.7239C157.678 19.2231 158.038 19.6119 158.479 19.8906C158.932 20.1576 159.414 20.2911 159.924 20.2911Z" fill="#5F6368"/>
<path d="M151.827 21.3533V12.4726H153.307V21.3533H151.827ZM152.558 10.8358C152.268 10.8358 152.018 10.7313 151.809 10.5223C151.6 10.3134 151.496 10.0638 151.496 9.77358C151.496 9.47175 151.6 9.22216 151.809 9.02481C152.018 8.81586 152.268 8.71138 152.558 8.71138C152.86 8.71138 153.109 8.81586 153.307 9.02481C153.516 9.22216 153.62 9.47175 153.62 9.77358C153.62 10.0638 153.516 10.3134 153.307 10.5223C153.109 10.7313 152.86 10.8358 152.558 10.8358Z" fill="#5F6368"/>
<path d="M143.226 21.3533V8.88551H144.706V19.9428H150.156V21.3533H143.226Z" fill="#5F6368"/>
<path d="M132.406 21.3533L128.819 12.4726H130.403L133.155 19.6119H133.189L135.976 12.4726H137.525L133.903 21.3533H132.406Z" fill="#5F6368"/>
<path d="M124.085 21.6319C123.226 21.6319 122.46 21.4287 121.787 21.0224C121.125 20.6161 120.603 20.0589 120.22 19.3507C119.848 18.6426 119.662 17.8358 119.662 16.9303C119.662 16.0829 119.836 15.2993 120.185 14.5796C120.545 13.8598 121.044 13.2852 121.682 12.8557C122.332 12.4146 123.093 12.194 123.963 12.194C124.846 12.194 125.6 12.3913 126.227 12.786C126.865 13.1691 127.353 13.7031 127.69 14.388C128.038 15.0729 128.212 15.8565 128.212 16.7388C128.212 16.8201 128.206 16.9013 128.195 16.9826C128.195 17.0638 128.189 17.1335 128.177 17.1915H121.142C121.177 17.83 121.322 18.3698 121.578 18.8109C121.868 19.3101 122.239 19.6816 122.692 19.9254C123.157 20.1692 123.638 20.2911 124.137 20.2911C124.788 20.2911 125.322 20.1401 125.739 19.8383C126.169 19.5249 126.511 19.1418 126.767 18.6891L128.021 19.2985C127.672 19.9718 127.173 20.529 126.523 20.9702C125.873 21.4113 125.06 21.6319 124.085 21.6319ZM121.229 15.9726H126.645C126.633 15.7288 126.575 15.4676 126.471 15.189C126.378 14.8988 126.221 14.6318 126.001 14.388C125.792 14.1326 125.519 13.9295 125.182 13.7786C124.857 13.6161 124.451 13.5348 123.963 13.5348C123.383 13.5348 122.878 13.6857 122.448 13.9875C122.03 14.2777 121.711 14.6782 121.491 15.189C121.375 15.4328 121.288 15.694 121.229 15.9726Z" fill="#5F6368"/>
<path d="M108.113 21.3533V8.88551H111.875C113.175 8.88551 114.295 9.15251 115.235 9.68651C116.176 10.2089 116.901 10.9403 117.412 11.8806C117.923 12.8209 118.178 13.9005 118.178 15.1194C118.178 16.3383 117.923 17.4179 117.412 18.3582C116.901 19.2869 116.176 20.0183 115.235 20.5523C114.295 21.0863 113.175 21.3533 111.875 21.3533H108.113ZM109.593 19.9428H111.875C112.85 19.9428 113.697 19.7571 114.417 19.3856C115.137 19.0025 115.694 18.4511 116.089 17.7313C116.483 17.0116 116.681 16.1409 116.681 15.1194C116.681 14.0978 116.483 13.2272 116.089 12.5074C115.694 11.7877 115.137 11.2421 114.417 10.8706C113.697 10.4875 112.85 10.296 111.875 10.296H109.593V19.9428Z" fill="#5F6368"/>
<path d="M97.7511 21.6319C96.892 21.6319 96.1258 21.4287 95.4525 21.0224C94.7908 20.6161 94.2684 20.0589 93.8854 19.3507C93.5139 18.6426 93.3281 17.8358 93.3281 16.9303C93.3281 16.0829 93.5023 15.2993 93.8505 14.5796C94.2104 13.8598 94.7096 13.2852 95.3481 12.8557C95.9981 12.4146 96.7585 12.194 97.6292 12.194C98.5114 12.194 99.266 12.3913 99.8929 12.786C100.531 13.1691 101.019 13.7031 101.356 14.388C101.704 15.0729 101.878 15.8565 101.878 16.7388C101.878 16.8201 101.872 16.9013 101.861 16.9826C101.861 17.0638 101.855 17.1335 101.843 17.1915H94.8082C94.8431 17.83 94.9882 18.3698 95.2436 18.8109C95.5338 19.3101 95.9053 19.6816 96.358 19.9254C96.8224 20.1692 97.3041 20.2911 97.8033 20.2911C98.4534 20.2911 98.9874 20.1401 99.4053 19.8383C99.8348 19.5249 100.177 19.1418 100.433 18.6891L101.686 19.2985C101.338 19.9718 100.839 20.529 100.189 20.9702C99.5388 21.4113 98.7262 21.6319 97.7511 21.6319ZM94.8953 15.9726H100.311C100.299 15.7288 100.241 15.4676 100.137 15.189C100.044 14.8988 99.8871 14.6318 99.6665 14.388C99.4575 14.1326 99.1847 13.9295 98.8481 13.7786C98.523 13.6161 98.1167 13.5348 97.6292 13.5348C97.0487 13.5348 96.5438 13.6857 96.1142 13.9875C95.6963 14.2777 95.3771 14.6782 95.1565 15.189C95.0404 15.4328 94.9534 15.694 94.8953 15.9726Z" fill="#5F6368"/>
<path d="M90.0537 21.3533V8.88551H91.5338V21.3533H90.0537Z" fill="#5F6368"/>
<path d="M83.4927 25.3931C82.7381 25.3931 82.088 25.2654 81.5424 25.01C81.0084 24.7662 80.5731 24.4528 80.2365 24.0697C79.9114 23.6866 79.6792 23.2977 79.5399 22.903L80.8981 22.3284C81.0839 22.8159 81.3973 23.2222 81.8385 23.5473C82.2912 23.8839 82.8426 24.0523 83.4927 24.0523C84.4214 24.0523 85.1353 23.7795 85.6345 23.2339C86.1337 22.6999 86.3833 21.9511 86.3833 20.9876V19.995H86.3136C86.035 20.4246 85.6345 20.7902 85.1121 21.0921C84.5897 21.3823 83.9803 21.5274 83.2837 21.5274C82.5176 21.5274 81.8152 21.33 81.1768 20.9353C80.5499 20.5406 80.0507 19.995 79.6792 19.2985C79.3078 18.5904 79.122 17.7778 79.122 16.8607C79.122 15.9436 79.3078 15.1368 79.6792 14.4403C80.0507 13.7321 80.5499 13.1807 81.1768 12.786C81.8152 12.3913 82.5176 12.194 83.2837 12.194C83.9803 12.194 84.5897 12.3449 85.1121 12.6467C85.6345 12.9369 86.035 13.3026 86.3136 13.7437H86.3833V12.4726H87.7937V21.005C87.7937 21.9917 87.6022 22.8101 87.2191 23.4602C86.8476 24.1103 86.3368 24.5921 85.6867 24.9055C85.0483 25.2306 84.3169 25.3931 83.4927 25.3931ZM83.4927 20.1866C84.0151 20.1866 84.4968 20.0589 84.938 19.8035C85.3791 19.5365 85.7274 19.1534 85.9828 18.6542C86.2498 18.1551 86.3833 17.5572 86.3833 16.8607C86.3833 16.1409 86.2498 15.5373 85.9828 15.0497C85.7274 14.5506 85.3791 14.1733 84.938 13.9179C84.4968 13.6625 84.0151 13.5348 83.4927 13.5348C82.9703 13.5348 82.4885 13.6683 82.0474 13.9353C81.6063 14.1907 81.2522 14.568 80.9852 15.0671C80.7182 15.5547 80.5847 16.1526 80.5847 16.8607C80.5847 17.5688 80.7182 18.1725 80.9852 18.6716C81.2522 19.1592 81.6063 19.5365 82.0474 19.8035C82.4885 20.0589 82.9703 20.1866 83.4927 20.1866Z" fill="#5F6368"/>
<path d="M73.2397 21.6319C72.3458 21.6319 71.5565 21.4229 70.8715 21.005C70.1866 20.5871 69.6468 20.0241 69.2521 19.3159C68.869 18.5962 68.6775 17.7952 68.6775 16.9129C68.6775 16.0307 68.869 15.2355 69.2521 14.5273C69.6468 13.8076 70.1866 13.2388 70.8715 12.8209C71.5565 12.4029 72.3458 12.194 73.2397 12.194C74.1336 12.194 74.923 12.4087 75.6079 12.8383C76.2928 13.2562 76.8268 13.825 77.2099 14.5447C77.6046 15.2529 77.8019 16.0423 77.8019 16.9129C77.8019 17.7952 77.6046 18.5962 77.2099 19.3159C76.8268 20.0241 76.2928 20.5871 75.6079 21.005C74.923 21.4229 74.1336 21.6319 73.2397 21.6319ZM73.2397 20.2911C73.7737 20.2911 74.2729 20.1576 74.7372 19.8906C75.2132 19.6236 75.5963 19.2405 75.8865 18.7413C76.1767 18.2305 76.3218 17.6211 76.3218 16.9129C76.3218 16.2048 76.1767 15.6011 75.8865 15.102C75.5963 14.5912 75.2132 14.2023 74.7372 13.9353C74.2729 13.6683 73.7737 13.5348 73.2397 13.5348C72.7057 13.5348 72.2007 13.6683 71.7248 13.9353C71.2488 14.2023 70.8657 14.5912 70.5755 15.102C70.2853 15.6011 70.1402 16.2048 70.1402 16.9129C70.1402 17.6211 70.2853 18.2305 70.5755 18.7413C70.8657 19.2405 71.2488 19.6236 71.7248 19.8906C72.2007 20.1576 72.7057 20.2911 73.2397 20.2911Z" fill="#5F6368"/>
<path d="M62.7952 21.6319C61.9013 21.6319 61.1119 21.4229 60.427 21.005C59.7421 20.5871 59.2023 20.0241 58.8076 19.3159C58.4245 18.5962 58.233 17.7952 58.233 16.9129C58.233 16.0307 58.4245 15.2355 58.8076 14.5273C59.2023 13.8076 59.7421 13.2388 60.427 12.8209C61.1119 12.4029 61.9013 12.194 62.7952 12.194C63.689 12.194 64.4784 12.4087 65.1633 12.8383C65.8483 13.2562 66.3823 13.825 66.7654 14.5447C67.16 15.2529 67.3574 16.0423 67.3574 16.9129C67.3574 17.7952 67.16 18.5962 66.7654 19.3159C66.3823 20.0241 65.8483 20.5871 65.1633 21.005C64.4784 21.4229 63.689 21.6319 62.7952 21.6319ZM62.7952 20.2911C63.3292 20.2911 63.8283 20.1576 64.2927 19.8906C64.7687 19.6236 65.1517 19.2405 65.442 18.7413C65.7322 18.2305 65.8773 17.6211 65.8773 16.9129C65.8773 16.2048 65.7322 15.6011 65.442 15.102C65.1517 14.5912 64.7687 14.2023 64.2927 13.9353C63.8283 13.6683 63.3292 13.5348 62.7952 13.5348C62.2612 13.5348 61.7562 13.6683 61.2802 13.9353C60.8043 14.2023 60.4212 14.5912 60.131 15.102C59.8408 15.6011 59.6957 16.2048 59.6957 16.9129C59.6957 17.6211 59.8408 18.2305 60.131 18.7413C60.4212 19.2405 60.8043 19.6236 61.2802 19.8906C61.7562 20.1576 62.2612 20.2911 62.7952 20.2911Z" fill="#5F6368"/>
<path d="M50.4602 21.6318C49.578 21.6318 48.7422 21.4693 47.9528 21.1443C47.175 20.8192 46.4901 20.3607 45.898 19.7687C45.306 19.1766 44.8416 18.4859 44.505 17.6965C44.1683 16.9071 44 16.0481 44 15.1194C44 14.1907 44.1683 13.3316 44.505 12.5422C44.8416 11.7528 45.306 11.0621 45.898 10.4701C46.4901 9.87804 47.175 9.4195 47.9528 9.09445C48.7422 8.76941 49.578 8.60689 50.4602 8.60689C51.3773 8.60689 52.2364 8.76941 53.0374 9.09445C53.85 9.4195 54.5175 9.87804 55.0399 10.4701L53.9951 11.5149C53.7281 11.1898 53.4089 10.917 53.0374 10.6965C52.6659 10.4759 52.2654 10.3076 51.8359 10.1915C51.4063 10.0754 50.9536 10.0173 50.4777 10.0173C49.816 10.0173 49.1833 10.1392 48.5796 10.383C47.976 10.6152 47.442 10.9576 46.9776 11.4104C46.5249 11.8515 46.165 12.3855 45.898 13.0124C45.631 13.6393 45.4975 14.3416 45.4975 15.1194C45.4975 15.8972 45.631 16.5995 45.898 17.2263C46.1766 17.8532 46.5481 18.393 47.0125 18.8458C47.4768 19.2869 48.005 19.6293 48.597 19.8731C49.2007 20.1053 49.8276 20.2214 50.4777 20.2214C51.0349 20.2214 51.5747 20.1459 52.0971 19.995C52.6311 19.8325 53.107 19.5887 53.5249 19.2637C53.9545 18.927 54.3085 18.4975 54.5871 17.9751C54.8657 17.4527 55.0341 16.8258 55.0921 16.0945H50.4951V14.7189H56.4852C56.5084 14.8698 56.5258 15.0149 56.5374 15.1542C56.5606 15.2935 56.5722 15.4444 56.5722 15.6069V15.6243C56.5722 16.5182 56.4213 17.3366 56.1195 18.0796C55.8177 18.8109 55.3939 19.4436 54.8483 19.9776C54.3027 20.5 53.6584 20.9063 52.9155 21.1965C52.1725 21.4867 51.3541 21.6318 50.4602 21.6318Z" fill="#5F6368"/>
</g>
<defs>
<clipPath id="clip0_3504_421">
<rect width="197" height="34" fill="white"/>
</clipPath>
</defs>
</svg>
