<svg version="1.1" xmlns="http://www.w3.org/2000/svg" xmlns:xlink="http://www.w3.org/1999/xlink" x="0px" y="0px"
	 viewBox="0 0 370 64" style="enable-background:new 0 0 370 64;" xml:space="preserve">
<path fill="#4285f4" d="M19.58,47.48c-9.87,0-18.17-8.04-18.17-17.91c0-9.87,8.3-17.91,18.17-17.91c5.46,0,9.35,2.14,12.27,4.94
	l-3.45,3.45c-2.1-1.97-4.93-3.49-8.82-3.49c-7.21,0-12.84,5.81-12.84,13.02c0,7.21,5.64,13.02,12.84,13.02
	c4.67,0,7.34-1.88,9.04-3.58c1.4-1.4,2.32-3.41,2.66-6.16H19.58v-4.89h16.47c0.18,0.87,0.26,1.92,0.26,3.06
	c0,3.67-1.01,8.21-4.24,11.44C28.93,45.73,24.91,47.48,19.58,47.48z"/>
<path fill="#ea4335" d="M61.78,35.95c0,6.64-5.1,11.53-11.36,11.53s-11.36-4.89-11.36-11.53c0-6.68,5.1-11.53,11.36-11.53
	S61.78,29.27,61.78,35.95z M56.8,35.95c0-4.15-2.96-6.99-6.39-6.99c-3.43,0-6.39,2.84-6.39,6.99c0,4.11,2.96,6.99,6.39,6.99
	C53.84,42.94,56.8,40.06,56.8,35.95z"/>
<path fill="#fbbc04" d="M87.25,35.95c0,6.64-5.1,11.53-11.36,11.53c-6.26,0-11.36-4.89-11.36-11.53c0-6.68,5.1-11.53,11.36-11.53
	C82.15,24.42,87.25,29.27,87.25,35.95z M82.28,35.95c0-4.15-2.96-6.99-6.39-6.99c-3.43,0-6.39,2.84-6.39,6.99
	c0,4.11,2.96,6.99,6.39,6.99C79.32,42.94,82.28,40.06,82.28,35.95z"/>
<path fill="#4285f4" d="M112.09,25.12v20.7c0,8.52-5.02,12.01-10.96,12.01c-5.59,0-8.95-3.76-10.22-6.81l4.41-1.83
	c0.79,1.88,2.71,4.1,5.81,4.1c3.8,0,6.16-2.36,6.16-6.77v-1.66h-0.18c-1.14,1.4-3.32,2.62-6.07,2.62c-5.76,0-11.05-5.02-11.05-11.49
	c0-6.51,5.28-11.57,11.05-11.57c2.75,0,4.93,1.22,6.07,2.58h0.18v-1.88H112.09z M107.64,35.99c0-4.06-2.71-7.03-6.16-7.03
	c-3.49,0-6.42,2.97-6.42,7.03c0,4.02,2.93,6.94,6.42,6.94C104.93,42.94,107.64,40.01,107.64,35.99z"/>
<rect x="115.9" y="12.89" fill="#34a853" width="5.07" height="33.89"/>
<path fill="#ea4335" d="M140.89,39.75l3.93,2.62c-1.27,1.88-4.32,5.11-9.61,5.11c-6.55,0-11.28-5.07-11.28-11.53
	c0-6.86,4.77-11.53,10.71-11.53c5.98,0,8.91,4.76,9.87,7.34l0.52,1.31l-15.42,6.38c1.18,2.31,3.01,3.49,5.59,3.49
	C137.79,42.94,139.58,41.67,140.89,39.75z M128.79,35.6l10.31-4.28c-0.57-1.44-2.27-2.45-4.28-2.45
	C132.24,28.88,128.66,31.15,128.79,35.6z"/>
<path fill="#5f6368" d="M157.63,46.78V15.14h9.68c4.86,0,8.75,1.47,11.67,4.4c2.92,2.93,4.38,6.74,4.38,11.43
	c0,4.69-1.46,8.49-4.38,11.43c-2.92,2.93-6.81,4.4-11.67,4.4H157.63z M161.7,42.89h5.61c3.65,0,6.55-1.05,8.69-3.14
	c2.14-2.09,3.21-5.02,3.21-8.8c0-3.74-1.07-6.67-3.21-8.77c-2.14-2.11-5.03-3.16-8.69-3.16h-5.61V42.89z M197.23,47.49
	c-3.27,0-5.93-1.09-7.98-3.27c-2.05-2.18-3.07-4.94-3.07-8.26c0-3.15,0.99-5.86,2.98-8.13c1.99-2.27,4.53-3.4,7.62-3.4
	c3.21,0,5.78,1.05,7.71,3.14c1.93,2.09,2.9,4.89,2.9,8.4l-0.05,0.75h-17.11c0.12,2.18,0.85,3.91,2.19,5.17
	c1.34,1.27,2.91,1.9,4.71,1.9c2.92,0,4.89-1.24,5.92-3.71l3.62,1.5c-0.71,1.68-1.87,3.09-3.49,4.22
	C201.58,46.92,199.59,47.49,197.23,47.49z M203.06,33.35c-0.09-1.24-0.66-2.42-1.7-3.54c-1.05-1.12-2.6-1.68-4.66-1.68
	c-1.5,0-2.81,0.47-3.91,1.41c-1.11,0.94-1.87,2.21-2.28,3.8H203.06z M216.54,46.78l-8.75-21.66h4.42l6.36,16.79h0.09l6.45-16.79
	h4.33l-8.84,21.66H216.54z M240.83,47.49c-3.27,0-5.93-1.09-7.98-3.27c-2.05-2.18-3.07-4.94-3.07-8.26c0-3.15,0.99-5.86,2.98-8.13
	c1.99-2.27,4.53-3.4,7.62-3.4c3.21,0,5.78,1.05,7.71,3.14c1.93,2.09,2.89,4.89,2.89,8.4l-0.04,0.75h-17.11
	c0.12,2.18,0.85,3.91,2.19,5.17c1.34,1.27,2.91,1.9,4.71,1.9c2.92,0,4.89-1.24,5.92-3.71l3.62,1.5c-0.71,1.68-1.87,3.09-3.49,4.22
	C245.18,46.92,243.19,47.49,240.83,47.49z M246.66,33.35c-0.09-1.24-0.66-2.42-1.7-3.54c-1.05-1.12-2.6-1.68-4.66-1.68
	c-1.5,0-2.81,0.47-3.91,1.41c-1.11,0.94-1.86,2.21-2.28,3.8H246.66z M258.52,46.78h-4.06V15.14h4.06V46.78z M265.16,27.71
	c2.09-2.19,4.76-3.29,8-3.29c3.24,0,5.91,1.1,8,3.29c2.09,2.2,3.14,4.94,3.14,8.24c0,3.3-1.05,6.05-3.14,8.24
	c-2.09,2.2-4.76,3.29-8,3.29c-3.24,0-5.91-1.1-8-3.29c-2.09-2.19-3.14-4.94-3.14-8.24C262.02,32.66,263.07,29.91,265.16,27.71z
	 M268.19,41.63c1.4,1.43,3.06,2.14,4.97,2.14c1.92,0,3.57-0.71,4.97-2.14c1.4-1.43,2.1-3.32,2.1-5.68c0-2.36-0.7-4.25-2.1-5.68
	c-1.4-1.43-3.06-2.14-4.97-2.14c-1.92,0-3.57,0.72-4.97,2.14c-1.4,1.43-2.1,3.32-2.1,5.68C266.09,38.31,266.79,40.21,268.19,41.63z
	 M299.11,47.49c-1.65,0-3.13-0.35-4.44-1.06c-1.31-0.71-2.29-1.59-2.94-2.65h-0.18l0.18,3.01v9.55h-4.07v-31.2h3.89v3h0.18
	c0.65-1.06,1.63-1.94,2.94-2.65c1.31-0.71,2.79-1.06,4.44-1.06c2.8,0,5.22,1.1,7.25,3.31c2.03,2.21,3.05,4.95,3.05,8.22
	s-1.02,6.01-3.05,8.22C304.33,46.39,301.91,47.49,299.11,47.49z M298.45,43.78c1.88,0,3.51-0.71,4.86-2.14
	c1.35-1.43,2.03-3.32,2.03-5.68c0-2.36-0.68-4.25-2.03-5.68c-1.35-1.43-2.98-2.14-4.86-2.14c-1.92,0-3.54,0.71-4.88,2.12
	c-1.34,1.41-2.01,3.31-2.01,5.7c0,2.39,0.67,4.29,2.01,5.7C294.91,43.07,296.54,43.78,298.45,43.78z M322.8,47.49
	c-3.27,0-5.93-1.09-7.98-3.27c-2.05-2.18-3.07-4.94-3.07-8.26c0-3.15,0.99-5.86,2.98-8.13c1.99-2.27,4.53-3.4,7.62-3.4
	c3.21,0,5.78,1.05,7.71,3.14c1.93,2.09,2.9,4.89,2.9,8.4l-0.05,0.75h-17.11c0.12,2.18,0.85,3.91,2.19,5.17
	c1.34,1.27,2.91,1.9,4.71,1.9c2.92,0,4.89-1.24,5.92-3.71l3.62,1.5c-0.71,1.68-1.87,3.09-3.49,4.22
	C327.14,46.92,325.15,47.49,322.8,47.49z M328.63,33.35c-0.09-1.24-0.66-2.42-1.7-3.54c-1.05-1.12-2.6-1.68-4.66-1.68
	c-1.5,0-2.81,0.47-3.91,1.41c-1.11,0.94-1.87,2.21-2.28,3.8H328.63z M340.43,46.78h-4.07V25.13h3.89v3.54h0.18
	c0.41-1.18,1.26-2.15,2.54-2.92c1.28-0.77,2.53-1.15,3.73-1.15c1.21,0,2.23,0.18,3.05,0.53l-1.55,3.8
	c-0.53-0.21-1.25-0.31-2.17-0.31c-1.47,0-2.78,0.58-3.91,1.75c-1.14,1.17-1.7,2.69-1.7,4.58V46.78z M359.82,47.49
	c-2.42,0-4.41-0.59-5.99-1.77c-1.58-1.18-2.73-2.65-3.47-4.42l3.63-1.5c1.15,2.71,3.11,4.07,5.88,4.07c1.27,0,2.31-0.28,3.12-0.84
	c0.81-0.56,1.21-1.3,1.21-2.21c0-1.41-0.99-2.37-2.96-2.87l-4.37-1.06c-1.39-0.35-2.7-1.02-3.93-2.01c-1.24-0.99-1.86-2.32-1.86-4
	c0-1.91,0.85-3.47,2.54-4.66c1.69-1.19,3.7-1.79,6.03-1.79c1.92,0,3.63,0.44,5.13,1.3c1.5,0.87,2.58,2.11,3.23,3.74l-3.54,1.46
	c-0.8-1.92-2.45-2.87-4.95-2.87c-1.21,0-2.23,0.25-3.05,0.75c-0.83,0.5-1.24,1.18-1.24,2.03c0,1.24,0.96,2.08,2.87,2.52l4.29,1.02
	c2.03,0.47,3.54,1.28,4.51,2.43c0.97,1.15,1.46,2.45,1.46,3.89c0,1.94-0.8,3.57-2.39,4.86C364.37,46.84,362.32,47.49,359.82,47.49z"
	/>
</svg>
