<?xml version="1.0" encoding="utf-8"?>
<!-- Generator: Adobe Illustrator 25.1.0, SVG Export Plug-In . SVG Version: 6.00 Build 0)  -->
<svg version="1.1" xmlns="http://www.w3.org/2000/svg" xmlns:xlink="http://www.w3.org/1999/xlink" x="0px" y="0px"
	 viewBox="0 0 235 26" style="enable-background:new 0 0 235 26;" xml:space="preserve">
<style type="text/css">
	.st0{fill:#FFFFFF;}
	.st1{fill:#EA4335;}
	.st2{fill:#4285F4;}
	.st3{fill:#FBBC04;}
	.st4{fill:#0F9D58;}
	.st5{fill:#656C73;}
	.st6{fill:#F9FAFB;}
	.st7{fill:url(#SVGID_1_);}
	.st8{fill:url(#SVGID_2_);}
	.st9{fill:#4B84EE;}
	.st10{fill:#F3F4F6;}
	.st11{fill:none;stroke:#9DA3AE;stroke-width:3;stroke-miterlimit:10;}
	.st12{fill:#9BC9F5;}
	.st13{opacity:0.5;}
	.st14{clip-path:url(#SVGID_6_);}
	.st15{fill:none;stroke:#5CA5EF;stroke-width:1.2917;stroke-miterlimit:10;}
	.st16{clip-path:url(#SVGID_10_);}
	.st17{clip-path:url(#SVGID_14_);}
	.st18{fill:#4696EC;}
	.st19{clip-path:url(#SVGID_16_);}
	.st20{fill:none;stroke:#FCECEE;stroke-width:0.8986;stroke-miterlimit:10;}
	.st21{clip-path:url(#SVGID_18_);}
	.st22{fill:#E6F2FC;}
	.st23{clip-path:url(#SVGID_24_);}
	.st24{fill:none;stroke:#C1DEF8;stroke-width:0.7898;stroke-miterlimit:10;}
	.st25{fill:#C1DEF8;}
	.st26{fill:#1B1B1B;}
	.st27{clip-path:url(#SVGID_30_);fill:#F8F8F8;}
	.st28{clip-path:url(#SVGID_30_);}
	.st29{fill:none;stroke:#B1C8ED;stroke-width:0.943;stroke-miterlimit:10;}
	.st30{fill:#F8F8F8;}
	.st31{clip-path:url(#SVGID_34_);}
	.st32{fill:#D85040;}
	.st33{fill:#5085EB;}
	.st34{fill:#F1BC42;}
	.st35{fill:none;}
	.st36{clip-path:url(#SVGID_36_);fill:#656C73;}
	.st37{clip-path:url(#SVGID_36_);fill:#283238;}
	.st38{clip-path:url(#SVGID_36_);fill:#3A474F;}
	.st39{clip-path:url(#SVGID_36_);}
	.st40{clip-path:url(#SVGID_38_);}
	.st41{fill:#F3F3F3;}
	.st42{fill:#303030;}
	.st43{clip-path:url(#SVGID_42_);}
	.st44{clip-path:url(#SVGID_45_);}
	.st45{clip-path:url(#SVGID_46_);}
	.st46{fill:#C0DDF8;}
	.st47{opacity:0.75;clip-path:url(#SVGID_46_);}
	.st48{fill:none;stroke:#9BC9F5;stroke-width:1.21;stroke-miterlimit:10;}
	.st49{clip-path:url(#SVGID_54_);fill:none;}
	.st50{fill:#F9D567;}
	.st51{fill:#CBCBCB;}
	.st52{fill:#E5F1FB;}
	.st53{opacity:0.75;clip-path:url(#SVGID_56_);}
	.st54{fill:none;stroke:#C0DDF8;stroke-width:1.21;stroke-miterlimit:10;}
	.st55{clip-path:url(#SVGID_60_);fill:#F8F8F8;}
	.st56{clip-path:url(#SVGID_60_);}
	.st57{fill:none;stroke:#B1C8ED;stroke-width:1.4841;stroke-miterlimit:10;}
	.st58{clip-path:url(#SVGID_66_);}
	.st59{fill:none;stroke:#C1DEF8;stroke-width:1.7198;stroke-miterlimit:10;}
	.st60{fill:#76B3EF;}
	.st61{clip-path:url(#SVGID_70_);}
	.st62{fill:#686C71;}
	.st63{fill:#47995F;}
	.st64{fill:#596D79;}
	.st65{fill:#F4AD3D;}
	.st66{fill:#5CA5EF;}
	.st67{opacity:0.8;}
	.st68{clip-path:url(#SVGID_74_);}
	.st69{fill:none;stroke:#F7CB50;stroke-width:1.5108;stroke-miterlimit:10;}
	.st70{fill:#FEF8E3;}
	.st71{clip-path:url(#SVGID_80_);}
	.st72{fill:none;stroke:#FCECBA;stroke-width:0.7898;stroke-miterlimit:10;}
	.st73{fill:#FCECBA;}
	.st74{clip-path:url(#SVGID_86_);fill:#F8F8F8;}
	.st75{clip-path:url(#SVGID_86_);}
	.st76{clip-path:url(#SVGID_90_);}
	.st77{clip-path:url(#SVGID_92_);fill:#656C73;}
	.st78{clip-path:url(#SVGID_92_);fill:#283238;}
	.st79{clip-path:url(#SVGID_92_);fill:#3A474F;}
	.st80{clip-path:url(#SVGID_92_);}
	.st81{clip-path:url(#SVGID_94_);}
	.st82{fill:#F6C244;}
	.st83{clip-path:url(#SVGID_98_);fill:#FAE08F;}
	.st84{clip-path:url(#SVGID_98_);}
	.st85{fill:none;stroke:#F19336;stroke-width:0.25;stroke-miterlimit:10;}
	.st86{clip-path:url(#SVGID_100_);}
	.st87{fill:none;stroke:#9BC9F5;stroke-width:0.5;stroke-miterlimit:10;}
	.st88{opacity:0.2;filter:url(#AI_Shadow_3);}
	.st89{fill:#CACACA;}
	.st90{fill:#EFF1F2;}
	.st91{clip-path:url(#SVGID_102_);}
	.st92{clip-path:url(#SVGID_106_);}
	.st93{clip-path:url(#SVGID_108_);}
	.st94{fill:none;stroke:#C1DEF8;stroke-width:0.6869;stroke-miterlimit:10;}
	.st95{clip-path:url(#SVGID_110_);}
	.st96{clip-path:url(#SVGID_114_);}
	.st97{clip-path:url(#SVGID_116_);}
	.st98{fill:none;stroke:#76B4F0;stroke-miterlimit:10;}
	.st99{fill:#76B4F0;}
	.st100{fill:#A8DAB5;}
	.st101{clip-path:url(#SVGID_118_);fill:#FAE08F;}
	.st102{clip-path:url(#SVGID_118_);}
	.st103{clip-path:url(#SVGID_120_);fill:#FAE08F;}
	.st104{clip-path:url(#SVGID_120_);}
	.st105{fill:none;stroke:#F19336;stroke-width:0.114;stroke-miterlimit:10;}
	.st106{clip-path:url(#SVGID_122_);}
	.st107{fill:none;stroke:#B1C8ED;stroke-width:0.3481;stroke-miterlimit:10;}
	.st108{clip-path:url(#SVGID_124_);}
	.st109{opacity:0.25;}
	.st110{clip-path:url(#SVGID_128_);}
	.st111{fill:none;stroke:#E39E9C;stroke-width:0.3767;stroke-miterlimit:10;}
	.st112{clip-path:url(#SVGID_132_);}
	.st113{fill:#FDF3E2;}
	.st114{clip-path:url(#SVGID_136_);}
	.st115{fill:none;stroke:#FAE0B8;stroke-width:0.4644;stroke-miterlimit:10;}
	.st116{opacity:0.15;}
	.st117{opacity:0.48;}
	.st118{fill:none;stroke:#3E3B3C;stroke-width:0.4842;stroke-miterlimit:10;}
	.st119{fill:none;stroke:#3E3B3C;stroke-width:0.9685;stroke-miterlimit:10;}
	.st120{clip-path:url(#SVGID_140_);}
	.st121{fill:#EAF5EA;}
	.st122{clip-path:url(#SVGID_144_);}
	.st123{fill:none;stroke:#CEE5CB;stroke-width:0.7898;stroke-miterlimit:10;}
	.st124{fill:#AFD4AB;}
	.st125{clip-path:url(#SVGID_150_);}
	.st126{fill:none;stroke:#CEE5CB;stroke-width:0.2853;stroke-miterlimit:10;}
	.st127{fill:none;stroke:#B1C8ED;stroke-width:0.2656;stroke-miterlimit:10;}
	.st128{fill:none;stroke:#B1C8ED;stroke-width:0.0668;stroke-miterlimit:10;}
	.st129{fill:none;stroke:#B1C8ED;stroke-width:0.2391;stroke-miterlimit:10;}
	.st130{fill:none;stroke:#D7D9DD;stroke-width:0.9911;stroke-miterlimit:10;}
	.st131{clip-path:url(#SVGID_154_);}
	.st132{clip-path:url(#SVGID_158_);}
	.st133{clip-path:url(#SVGID_160_);}
	.st134{fill:none;stroke:#CEE5CB;stroke-width:0.6869;stroke-miterlimit:10;}
	.st135{clip-path:url(#SVGID_162_);}
	.st136{clip-path:url(#SVGID_166_);}
	.st137{fill:none;stroke:#8FC588;stroke-miterlimit:10;}
	.st138{fill:#8FC588;}
	.st139{clip-path:url(#SVGID_168_);}
	.st140{fill:#CEE5CB;}
	.st141{fill:#65AD58;}
	.st142{fill:#F6AEA9;}
	.st143{clip-path:url(#SVGID_172_);fill:#EAF5EA;}
	.st144{clip-path:url(#SVGID_172_);}
	.st145{fill:none;stroke:#AFD4AB;stroke-width:0.3054;stroke-miterlimit:10;}
	.st146{fill:none;stroke:#B1C8ED;stroke-width:0.3896;stroke-miterlimit:10;}
	.st147{clip-path:url(#SVGID_174_);fill:#EAF5EA;}
	.st148{clip-path:url(#SVGID_174_);}
	.st149{fill:none;stroke:#AFD4AB;stroke-width:0.2771;stroke-miterlimit:10;}
	.st150{fill:none;stroke:#B1C8ED;stroke-width:0.3535;stroke-miterlimit:10;}
	.st151{clip-path:url(#SVGID_176_);}
	.st152{fill:url(#SVGID_177_);}
	.st153{fill:url(#SVGID_178_);}
</style>
<g id="Layer_1">
	<g>
		<g>
			<path class="st5" d="M57.52,3.35h1.96v16.5h-1.96V3.35z"/>
			<path class="st5" d="M62.26,5.57c-0.28-0.28-0.42-0.61-0.42-0.99s0.14-0.71,0.42-0.99s0.61-0.42,0.99-0.42
				c0.38,0,0.71,0.14,0.99,0.42c0.28,0.28,0.41,0.61,0.41,0.99s-0.13,0.71-0.4,0.99c-0.27,0.28-0.6,0.41-1,0.41
				C62.87,5.98,62.54,5.84,62.26,5.57z M62.29,8.42h1.94v11.43h-1.94V8.42z"/>
			<path class="st5" d="M70.57,19.63c-0.7-0.39-1.23-0.89-1.58-1.49H68.9v1.71h-1.87V3.35h1.96v5.18L68.9,10.1h0.09
				c0.37-0.58,0.9-1.07,1.59-1.46s1.49-0.59,2.4-0.59c0.98,0,1.89,0.26,2.72,0.79c0.83,0.53,1.49,1.25,1.98,2.18
				c0.49,0.92,0.74,1.96,0.74,3.11s-0.25,2.19-0.74,3.11c-0.49,0.92-1.15,1.65-1.98,2.18c-0.83,0.53-1.74,0.79-2.72,0.79
				C72.07,20.22,71.27,20.02,70.57,19.63z M74.55,17.91c0.58-0.35,1.04-0.86,1.38-1.51c0.35-0.65,0.52-1.41,0.52-2.27
				s-0.17-1.62-0.52-2.27c-0.35-0.65-0.81-1.16-1.38-1.51c-0.58-0.35-1.2-0.53-1.88-0.53c-0.68,0-1.3,0.17-1.88,0.52
				c-0.58,0.35-1.04,0.84-1.38,1.5c-0.35,0.65-0.52,1.42-0.52,2.29c0,0.86,0.17,1.62,0.52,2.28c0.35,0.66,0.81,1.16,1.38,1.51
				c0.58,0.35,1.2,0.52,1.88,0.52C73.35,18.44,73.98,18.27,74.55,17.91z"/>
			<path class="st5" d="M80.16,8.42h1.87v1.87h0.09c0.21-0.63,0.66-1.16,1.32-1.59c0.67-0.43,1.33-0.64,1.99-0.64
				c0.48,0,0.92,0.08,1.34,0.23v2.1c-0.42-0.23-0.95-0.34-1.61-0.34c-0.54,0-1.04,0.16-1.51,0.47c-0.47,0.32-0.84,0.74-1.12,1.26
				c-0.28,0.52-0.42,1.09-0.42,1.71v6.37h-1.96V8.42z"/>
			<path class="st5" d="M89.37,19.72c-0.67-0.33-1.19-0.79-1.57-1.38c-0.38-0.59-0.56-1.26-0.56-1.99c0-1.21,0.46-2.16,1.37-2.83
				c0.91-0.68,2.08-1.01,3.51-1.01c0.71,0,1.34,0.08,1.91,0.23c0.57,0.15,1.02,0.32,1.36,0.51v-0.6c0-0.55-0.14-1.05-0.43-1.49
				c-0.28-0.44-0.66-0.78-1.14-1.01s-0.99-0.36-1.54-0.36c-1.31,0-2.3,0.53-3,1.59l-1.64-1.08c0.48-0.71,1.11-1.26,1.89-1.65
				c0.78-0.39,1.67-0.59,2.65-0.59c1.57,0,2.8,0.42,3.71,1.27c0.91,0.84,1.36,1.98,1.36,3.41v7.12h-1.87v-1.68H95.3
				c-0.37,0.58-0.87,1.07-1.5,1.46c-0.63,0.39-1.36,0.59-2.19,0.59C90.79,20.22,90.04,20.05,89.37,19.72z M93.53,18.01
				c0.55-0.32,1-0.76,1.35-1.31s0.52-1.15,0.52-1.8c-0.86-0.55-1.85-0.83-2.97-0.83c-0.97,0-1.74,0.22-2.32,0.66
				c-0.58,0.44-0.86,0.99-0.86,1.67c0,0.61,0.25,1.12,0.76,1.51c0.51,0.39,1.1,0.59,1.77,0.59C92.39,18.49,92.97,18.33,93.53,18.01z
				"/>
			<path class="st5" d="M99.7,8.42h1.87v1.87h0.09c0.21-0.63,0.66-1.16,1.32-1.59c0.67-0.43,1.33-0.64,1.99-0.64
				c0.48,0,0.92,0.08,1.34,0.23v2.1c-0.42-0.23-0.95-0.34-1.61-0.34c-0.54,0-1.04,0.16-1.51,0.47c-0.47,0.32-0.84,0.74-1.12,1.26
				c-0.28,0.52-0.42,1.09-0.42,1.71v6.37H99.7V8.42z"/>
			<path class="st5" d="M111.89,19.11l-4.75-10.69h2.12l3.55,8.41h0.05l3.43-8.41h2.12l-7.14,16.4h-2L111.89,19.11z"/>
			<path class="st5" d="M118.4,19.44c-0.28-0.27-0.43-0.6-0.43-1c0-0.38,0.14-0.71,0.43-0.98c0.28-0.27,0.63-0.41,1.05-0.41
				c0.4,0,0.74,0.14,1.03,0.41c0.28,0.27,0.43,0.6,0.43,0.98c0,0.39-0.14,0.73-0.43,1c-0.28,0.27-0.63,0.41-1.03,0.41
				C119.03,19.85,118.68,19.71,118.4,19.44z"/>
			<path class="st5" d="M125,24.2c-0.88-0.66-1.47-1.43-1.77-2.3l1.82-0.76c0.23,0.68,0.64,1.22,1.23,1.65
				c0.59,0.42,1.29,0.63,2.11,0.63c1.21,0,2.15-0.35,2.8-1.06c0.65-0.7,0.98-1.69,0.98-2.95v-1.22h-0.09
				c-0.37,0.58-0.9,1.07-1.59,1.45c-0.69,0.38-1.47,0.58-2.35,0.58c-0.97,0-1.87-0.26-2.7-0.79c-0.83-0.52-1.49-1.25-1.98-2.17
				c-0.49-0.92-0.74-1.97-0.74-3.12s0.25-2.2,0.74-3.12c0.49-0.92,1.15-1.65,1.98-2.17s1.73-0.79,2.7-0.79
				c0.88,0,1.66,0.19,2.35,0.58c0.69,0.38,1.22,0.87,1.59,1.45h0.09V8.42h1.87v10.97c0,1.26-0.25,2.33-0.74,3.2
				c-0.49,0.88-1.16,1.53-2.02,1.96c-0.85,0.43-1.82,0.64-2.89,0.64C127,25.19,125.87,24.86,125,24.2z M130.3,17.92
				c0.57-0.35,1.03-0.84,1.37-1.49c0.35-0.65,0.52-1.41,0.52-2.29c0-0.88-0.17-1.65-0.52-2.3s-0.8-1.15-1.37-1.49
				s-1.19-0.51-1.87-0.51s-1.3,0.17-1.87,0.52s-1.03,0.85-1.37,1.49c-0.35,0.65-0.52,1.41-0.52,2.29c0,0.88,0.17,1.64,0.52,2.29
				c0.35,0.65,0.8,1.15,1.37,1.49c0.57,0.35,1.19,0.52,1.87,0.52S129.73,18.27,130.3,17.92z"/>
			<path class="st5" d="M138.75,19.42c-0.89-0.53-1.59-1.26-2.08-2.19c-0.5-0.93-0.75-1.96-0.75-3.1s0.25-2.17,0.75-3.1
				c0.5-0.93,1.19-1.66,2.08-2.19c0.89-0.53,1.9-0.79,3.02-0.79s2.13,0.26,3.03,0.79c0.9,0.53,1.6,1.26,2.1,2.19
				c0.5,0.93,0.75,1.96,0.75,3.1s-0.25,2.17-0.75,3.1c-0.5,0.93-1.2,1.66-2.1,2.19c-0.9,0.53-1.91,0.79-3.03,0.79
				S139.64,19.95,138.75,19.42z M143.71,17.91c0.6-0.35,1.08-0.86,1.44-1.51c0.36-0.65,0.54-1.41,0.54-2.27s-0.18-1.62-0.54-2.27
				c-0.36-0.65-0.84-1.16-1.44-1.51s-1.24-0.53-1.94-0.53c-0.68,0-1.31,0.18-1.91,0.53s-1.08,0.86-1.44,1.51
				c-0.36,0.65-0.54,1.41-0.54,2.27s0.18,1.62,0.54,2.27c0.36,0.65,0.84,1.16,1.44,1.51c0.6,0.35,1.24,0.53,1.91,0.53
				C142.46,18.44,143.11,18.27,143.71,17.91z"/>
			<path class="st5" d="M151.82,19.42c-0.89-0.53-1.59-1.26-2.08-2.19c-0.5-0.93-0.75-1.96-0.75-3.1s0.25-2.17,0.75-3.1
				c0.5-0.93,1.19-1.66,2.08-2.19c0.89-0.53,1.9-0.79,3.02-0.79s2.13,0.26,3.03,0.79c0.9,0.53,1.6,1.26,2.1,2.19
				c0.5,0.93,0.75,1.96,0.75,3.1s-0.25,2.17-0.75,3.1c-0.5,0.93-1.2,1.66-2.1,2.19c-0.9,0.53-1.91,0.79-3.03,0.79
				S152.71,19.95,151.82,19.42z M156.77,17.91c0.6-0.35,1.08-0.86,1.44-1.51c0.36-0.65,0.54-1.41,0.54-2.27s-0.18-1.62-0.54-2.27
				c-0.36-0.65-0.84-1.16-1.44-1.51s-1.24-0.53-1.94-0.53c-0.68,0-1.31,0.18-1.91,0.53s-1.08,0.86-1.44,1.51
				c-0.36,0.65-0.54,1.41-0.54,2.27s0.18,1.62,0.54,2.27c0.36,0.65,0.84,1.16,1.44,1.51c0.6,0.35,1.24,0.53,1.91,0.53
				C155.53,18.44,156.17,18.27,156.77,17.91z"/>
			<path class="st5" d="M164.33,24.2c-0.88-0.66-1.47-1.43-1.77-2.3l1.82-0.76c0.23,0.68,0.64,1.22,1.23,1.65
				c0.59,0.42,1.29,0.63,2.11,0.63c1.21,0,2.15-0.35,2.8-1.06c0.65-0.7,0.98-1.69,0.98-2.95v-1.22h-0.09
				c-0.37,0.58-0.9,1.07-1.59,1.45c-0.69,0.38-1.47,0.58-2.35,0.58c-0.97,0-1.87-0.26-2.7-0.79c-0.83-0.52-1.49-1.25-1.98-2.17
				c-0.49-0.92-0.74-1.97-0.74-3.12s0.25-2.2,0.74-3.12c0.49-0.92,1.15-1.65,1.98-2.17s1.73-0.79,2.7-0.79
				c0.88,0,1.66,0.19,2.35,0.58c0.69,0.38,1.22,0.87,1.59,1.45h0.09V8.42h1.87v10.97c0,1.26-0.25,2.33-0.74,3.2
				c-0.49,0.88-1.16,1.53-2.02,1.96c-0.85,0.43-1.82,0.64-2.89,0.64C166.33,25.19,165.2,24.86,164.33,24.2z M169.63,17.92
				c0.57-0.35,1.03-0.84,1.37-1.49c0.35-0.65,0.52-1.41,0.52-2.29c0-0.88-0.17-1.65-0.52-2.3s-0.8-1.15-1.37-1.49
				s-1.19-0.51-1.87-0.51s-1.3,0.17-1.87,0.52s-1.03,0.85-1.37,1.49c-0.35,0.65-0.52,1.41-0.52,2.29c0,0.88,0.17,1.64,0.52,2.29
				c0.35,0.65,0.8,1.15,1.37,1.49c0.57,0.35,1.19,0.52,1.87,0.52S169.06,18.27,169.63,17.92z"/>
			<path class="st5" d="M176.01,3.35h1.96v16.5h-1.96V3.35z"/>
			<path class="st5" d="M182.61,19.43c-0.87-0.52-1.55-1.24-2.04-2.17c-0.49-0.92-0.74-1.97-0.74-3.13c0-1.11,0.23-2.12,0.69-3.05
				c0.46-0.93,1.12-1.67,1.97-2.21c0.85-0.54,1.83-0.82,2.94-0.82s2.08,0.25,2.91,0.75c0.84,0.5,1.48,1.2,1.92,2.11
				c0.45,0.91,0.67,1.95,0.67,3.13c0,0.21-0.02,0.37-0.05,0.46h-9.08c0.03,0.86,0.24,1.59,0.62,2.18c0.38,0.59,0.86,1.03,1.44,1.33
				c0.58,0.29,1.17,0.44,1.79,0.44c1.44,0,2.56-0.71,3.34-2.12l1.73,0.83c-0.49,0.92-1.17,1.66-2.04,2.22
				c-0.87,0.56-1.91,0.84-3.12,0.84C184.46,20.22,183.48,19.96,182.61,19.43z M188.86,12.87c-0.03-0.46-0.16-0.92-0.39-1.38
				s-0.6-0.85-1.12-1.17c-0.51-0.32-1.17-0.48-1.97-0.48c-0.86,0-1.61,0.28-2.23,0.83c-0.63,0.55-1.03,1.29-1.2,2.21H188.86z"/>
			<path class="st5" d="M193.16,19.44c-0.28-0.27-0.43-0.6-0.43-1c0-0.38,0.14-0.71,0.43-0.98c0.28-0.27,0.63-0.41,1.05-0.41
				c0.4,0,0.74,0.14,1.03,0.41c0.28,0.27,0.43,0.6,0.43,0.98c0,0.39-0.14,0.73-0.43,1c-0.28,0.27-0.63,0.41-1.03,0.41
				C193.79,19.85,193.45,19.71,193.16,19.44z"/>
			<path class="st5" d="M200.2,19.43c-0.83-0.52-1.49-1.25-1.98-2.18s-0.74-1.97-0.74-3.12s0.25-2.19,0.74-3.12
				c0.49-0.93,1.15-1.65,1.98-2.18s1.74-0.78,2.72-0.78c0.89,0,1.69,0.2,2.4,0.59s1.24,0.88,1.59,1.46H207l-0.09-1.57V3.35h1.94
				v16.5H207v-1.71h-0.09c-0.35,0.6-0.88,1.09-1.59,1.49s-1.51,0.59-2.4,0.59C201.93,20.22,201.03,19.96,200.2,19.43z M205.1,17.93
				c0.58-0.35,1.04-0.85,1.38-1.51c0.35-0.66,0.52-1.42,0.52-2.28c0-0.88-0.17-1.64-0.52-2.29c-0.35-0.65-0.81-1.15-1.38-1.5
				s-1.2-0.52-1.88-0.52s-1.3,0.18-1.88,0.53c-0.58,0.35-1.04,0.86-1.38,1.51c-0.35,0.65-0.52,1.41-0.52,2.27s0.17,1.62,0.52,2.27
				c0.35,0.65,0.81,1.16,1.38,1.51c0.58,0.35,1.2,0.53,1.88,0.53S204.52,18.27,205.1,17.93z"/>
			<path class="st5" d="M213.5,19.43c-0.87-0.52-1.55-1.24-2.04-2.17c-0.49-0.92-0.74-1.97-0.74-3.13c0-1.11,0.23-2.12,0.69-3.05
				c0.46-0.93,1.12-1.67,1.97-2.21c0.85-0.54,1.83-0.82,2.94-0.82s2.08,0.25,2.91,0.75c0.84,0.5,1.48,1.2,1.92,2.11
				c0.45,0.91,0.67,1.95,0.67,3.13c0,0.21-0.02,0.37-0.05,0.46h-9.08c0.03,0.86,0.24,1.59,0.62,2.18c0.38,0.59,0.86,1.03,1.44,1.33
				c0.58,0.29,1.17,0.44,1.79,0.44c1.44,0,2.56-0.71,3.34-2.12l1.73,0.83c-0.49,0.92-1.17,1.66-2.04,2.22
				c-0.87,0.56-1.91,0.84-3.12,0.84C215.36,20.22,214.37,19.96,213.5,19.43z M219.76,12.87c-0.03-0.46-0.16-0.92-0.39-1.38
				s-0.6-0.85-1.12-1.17c-0.51-0.32-1.17-0.48-1.97-0.48c-0.86,0-1.61,0.28-2.23,0.83c-0.63,0.55-1.03,1.29-1.2,2.21H219.76z"/>
			<path class="st5" d="M222.29,8.42h2.12l3.5,9.12h0.05l3.55-9.12h2.07l-4.68,11.43h-1.98L222.29,8.42z"/>
		</g>
		<g>
			<g>
				<path class="st1" d="M12.24,11.85l7.39-4.26c1.74-1,2.33-3.23,1.33-4.96c-1-1.74-3.23-2.33-4.96-1.33L3.23,8.66L12.24,11.85z"/>
			</g>
			<g>
				<path class="st2" d="M17.81,22.81c1.26,0,2.48-0.65,3.15-1.82c1-1.74,0.41-3.96-1.33-4.96L6.87,8.66
					c-1.74-1-3.96-0.41-4.96,1.33c-1,1.74-0.41,3.96,1.33,4.96L16,22.32C16.57,22.65,17.19,22.81,17.81,22.81z"/>
			</g>
			<g>
				<path class="st3" d="M30.5,22.81c0.62,0,1.24-0.16,1.81-0.49l12.76-7.37l-8.9-3.26l-7.5,4.33c-1.74,1-2.33,3.23-1.33,4.96
					C28.03,22.16,29.25,22.81,30.5,22.81z"/>
			</g>
			<g>
				<path class="st4" d="M43.26,15.44c1.26,0,2.48-0.65,3.15-1.82c1-1.74,0.41-3.96-1.33-4.96L32.32,1.29
					c-1.74-1-3.96-0.41-4.96,1.33c-1,1.74-0.41,3.96,1.33,4.96l12.76,7.37C42.02,15.29,42.64,15.44,43.26,15.44z"/>
			</g>
		</g>
	</g>
</g>
<g id="Text__x2F__Site_Elements">
</g>
</svg>
