<?xml version="1.0" encoding="UTF-8"?><svg id="Layer_1" xmlns="http://www.w3.org/2000/svg" xmlns:xlink="http://www.w3.org/1999/xlink" viewBox="0 0 515 515"><defs><style>.cls-1,.cls-2,.cls-3,.cls-4,.cls-5,.cls-6{fill:none;}.cls-7{clip-path:url(#clippath);}.cls-8{filter:url(#AI_Shadow_3);opacity:.2;}.cls-9{fill:#e3f2fe;}.cls-10{fill:#fff;}.cls-11{fill:#64b5f6;}.cls-12{fill:#9bc9f5;}.cls-13{fill:#cbcbcb;}.cls-14{fill:#2196f3;}.cls-15{clip-path:url(#clippath-1);}.cls-16{clip-path:url(#clippath-4);}.cls-17{clip-path:url(#clippath-3);}.cls-18{clip-path:url(#clippath-2);}.cls-19{clip-path:url(#clippath-7);}.cls-20{clip-path:url(#clippath-8);}.cls-21{clip-path:url(#clippath-6);}.cls-22{clip-path:url(#clippath-5);}.cls-23{filter:url(#drop-shadow-4);}.cls-24{filter:url(#drop-shadow-3);}.cls-2{stroke:#8fc588;}.cls-2,.cls-3,.cls-4,.cls-5,.cls-6{stroke-miterlimit:10;}.cls-3{stroke:#64b5f6;}.cls-4{stroke:#ec7d7c;}.cls-25{opacity:.5;}.cls-5{stroke:#c1def8;stroke-width:.69px;}.cls-6{stroke:#afc6eb;stroke-width:.5px;}</style><clipPath id="clippath"><circle class="cls-6" cx="858.99" cy="257.5" r="226.17"/></clipPath><clipPath id="clippath-1"><polygon class="cls-1" points="543.9 58.16 797.46 82.49 852.69 104.81 1099.36 136.8 1132.38 -123.32 576.03 -184.08 543.9 58.16"/></clipPath><filter id="AI_Shadow_3" x="-15%" y="-15%" width="140%" height="130%"><feGaussianBlur in="SourceAlpha" result="blur" stdDeviation="10"/><feOffset dx="0" dy="5" in="blur" result="offsetBlurredAlpha"/><feMerge><feMergeNode in="offsetBlurredAlpha"/><feMergeNode in="SourceGraphic"/></feMerge></filter><clipPath id="clippath-2"><circle class="cls-6" cx="257.5" cy="257.5" r="226.17"/></clipPath><filter id="drop-shadow-3" filterUnits="userSpaceOnUse"><feOffset dx="0" dy="0"/><feGaussianBlur result="blur" stdDeviation="1.09"/><feFlood flood-color="#000" flood-opacity=".15"/><feComposite in2="blur" operator="in"/><feComposite in="SourceGraphic"/></filter><clipPath id="clippath-3"><path class="cls-1" d="M87.1,691.53c-1.47-1.33-2.87-1.39-4.8-.6-1.23,.5-2.77,.25-4.16,.48-4.23,.7-8.46,1.55-12.7,2.19-2.38,.36-4.89,0-7.14,.67-4.34,1.28-7.49-1.36-11.6-.68-2.52,.41-5.07,.36-7.61,.49-.62,.03-1.35,.12-1.83-.09-4.09-1.72-8.48-1.31-13.08-.09-1.21,.32-2.64,.52-3.75,.28-2.44-.53-5.44,0-7.25-1.76-.81-.79-1.54-1.64-2.29-2.47-1.18-1.31-2.07-2.9-3.57-3.88-3.45-2.27-4.47-5.69-5.89-8.96-.79-1.84-1.71-3.66-2.16-5.59-.85-3.62-1.42-7.32-2.05-11-.78-4.56-1.85-9.08-1.45-13.85,.08-1,.28-2.01,.36-3.01,.28-3.47-1.58-6.28-2.74-9.32-.85-2.22-1.71-4.44-2.47-6.68-.77-2.25-1.31-4.58-2.16-6.81-1.68-4.39-2.7-8.9-2.38-13.75,.08-1.23-.24-2.57-.9-3.6-2.25-3.53-2.55-7.61-3.59-11.5-1.21-4.48-3-8.79-4.6-13.15-.86-2.34-1.55-4.65-1.08-7.33,.31-1.76-.33-3.52-.4-5.3-.09-2.6-.03-5.23-.07-7.84-.03-1.68-.07-3.36-.24-5.01-.42-4.04-.84-8.09-1.43-12.09-.22-1.52-.84-2.98-1.41-4.42-1.27-3.24-1.88-6.3,.53-10.03,1.37-2.12,1.26-4.92,1.29-7.36,.04-3.19-.27-6.37-.76-9.48-.32-2.03-1.02-4.01-1.91-5.86-1.81-3.79-2.57-7.85-3.3-11.95-.36-1.99-1.54-3.78-2.33-5.67-.86-2.04-2.27-4-2.43-6.16-.21-2.81,.2-5.8,3.89-7.95,.94-.55,1.53-1.92,1.77-2.94,.34-1.47,.11-2.96,.31-4.45,.3-2.21,.8-4.42,1.14-6.64,.21-1.38,.56-2.83,.3-4.11-.47-2.41,1.38-4.22,2.67-6.18,1.91-2.9,3.78-5.77,4.17-9.02,.25-2.06,2.51-4.05,4.96-4.7,.93-.25,1.95-.57,2.66-1.11,1.17-.88,2.21-.51,3.39-.59,3.47-.22,6.29,1.36,9.85,1.09,2.71-.2,5.47,.44,8,1.11,1.51,.4,2.78-.11,4.16-.29,2.37-.31,4.74-.67,7.11-.99,.44-.06,.97,.08,1.31-.1,2.59-1.39,5.76-1.31,8.21-3.06,.48-.34,1.19-.48,1.81-.66,3.4-.97,6.82-1.9,10.21-2.92,.62-.19,1.16-.74,1.66-1.19,1.74-1.56,3.57-2.82,6.15-3.23,1.8-.29,3.55-1.14,5.35-1.47,.8-.15,1.89,.14,2.46,.58,2.16,1.64,4.76,1.68,7.62,.87,.76-.22,1.46-.75,2.14-1.19,1.61-1.04,2.86-2.31,5.21-2.51,1.3-.11,3.07-1.53,3.92-2.67,2.4-3.24,6.12-4.64,9.83-6.13,2.11-.85,4.22-1.69,6.37-2.43,1.08-.37,2.38-.27,3.35-.75,2.35-1.17,4.58-2.53,6.81-3.88,1.8-1.09,3.46-2.38,5.32-3.39,.89-.48,2.12-.44,3.14-.78,2.95-.99,5.93-1.96,8.79-3.14,.95-.39,1.48-1.61,2.42-2.12,2.79-1.51,5.77-2.6,8.9-3.47,2.52-.7,4.65-.96,6.85-.03,.76,.32,1.98-.04,2.88,.15,1.82,.38,3.97-.3,5.56,.89,1.53,1.15,3.48,1.41,5.85,1.05,2.01-.31,4.08,.07,6.11,.18,.87,.05,1.71,.34,2.56,.26,3.08-.29,5.08,1.28,7.44,2.22,1.25,.5,4.67,.3,5.82-.81,2.12-2.04,4.55-1.66,6.96-1.75,.43-.02,.96,.27,1.26,.12,1.74-.89,3.66-1.39,5.41-2.14,3.97-1.7,7.68-3.92,11.5-5.92,.06-.03,.13-.11,.16-.1,2.9,1,4.32-2.21,6.82-2.32,2.83-2.79,7.37-2.26,10.44-4.58,.18-.13,.49-.18,.74-.19,3.25-.22,6.5-.35,9.75-.65,2.46-.23,4.92-.63,7.37-1.06,2.97-.52,5.95-1.1,8.9-1.78,1.78-.41,3.52-1.05,5.26-1.63,1.77-.58,3.34-1.36,5.41-1.4,2.22-.05,4.57-1.23,6.89-1.77,6.13-1.43,12.17-3.24,18.46-3.83,3.18-.3,6.38-1.4,9.58-2.15,.19-.04,.39-.1,.55-.2,2.01-1.35,4.01-2.73,6.04-4.06,.52-.34,1.16-.56,1.75-.81,.23-.1,.52-.09,.74-.2,2.54-1.28,5.07-2.58,7.6-3.86,.54-.28,1.09-.58,1.66-.77,4.27-1.46,6.7-5.09,10.62-6.84,3.15-1.41,4.99-3.74,7.34-5.75,1.48-1.27,3.33-2.3,5.13-3.26,2.93-1.58,5.86-3.19,8.95-4.44,1.84-.75,4.03-1.13,5.98-1.15,3.97-.04,7.63-1.54,11.41-2.48,.79-.2,1.46-.96,2.2-1.44,.82-.52,1.66-1,2.5-1.49,.16-.1,.44-.11,.52-.23,1.74-2.31,4.78-2.75,7.28-3.81,2.44-1.03,5.19-1.39,7.79-2.12,1.72-.48,2.9-.07,4.37,.52,1.77,.71,4.08,.72,6.2,.84,1.49,.08,3.07-.05,4.58-.32,.87-.15,1.7-.76,3-1.37,1.88,1.11,4.93,.37,7.62,.68,3.55,.41,6.15-1.19,9.06-2.22,10.02-3.54,20-7.16,30-10.74,11.04-3.95,22.05-7.97,33.12-11.83,10.64-3.72,21.34-7.26,32-10.91,3.32-1.14,6.61-2.39,9.91-3.58,.42-.15,.87-.23,1.55-.41,23.34,79.52,46.67,158.98,70.05,238.61-2.84,.91-5.67,1.82-8.5,2.73-9.85,3.19-19.68,6.42-29.54,9.56-17.33,5.53-34.68,10.99-52,16.53-.88,.28-1.6,1.01-2.42,1.5-.37,.22-.77,.44-1.18,.54-2.91,.7-5.88,1.18-8.71,2.09-6.2,2-12.33,4.21-18.49,6.34-.37,.13-.96,.2-1.07,.4-1.59,2.86-6.01,4.05-6.8,7.45-.15,.65-1.63,1.2-2.42,1.85-.6,.49-1,1.15-1.62,1.63-1.04,.8-2.09,1.65-3.28,2.24-1.63,.8-3.39,1.38-5.1,2.05-2.55,1-4.41,2.53-5.81,4.64-.57,.86-2,1.4-3.05,2.08-.79,.52-1.6,1.02-2.39,1.54-.15,.1-.23,.37-.34,.39-2.66,.35-3.76,2.44-5.63,3.66-2.68,1.74-5.56,3.27-8.42,4.8-1.43,.77-2.94,1.65-4.49,1.97-1.9,.4-3.88,.26-5.82,.35-.18,0-.35-.17-.51-.14-3.44,.65-6.54-1.04-9.82-.24-2.57,.62-4.85,1.14-7.31,.56-.92-.22-2.14,.16-3.22,.34-1.32,.22-2.69,.36-3.93,.81-1.6,.58-3.1,1.43-4.64,2.17-.89,.42-1.75,1.02-2.67,1.23-2.28,.51-4.59,.89-6.9,1.23-1.84,.28-3.68,.4-5.52,.64-2.44,.32-4.9,.53-7.32,1.05-3.73,.8-6.52,3.19-9.65,5.02-2.53,1.48-5.28,2.77-8.08,3.77-1.82,.65-3.25,1.44-4.45,2.72-.38,.41-.94,1.03-1.38,1.05-3.5,.18-5.99,2.34-7.63,4.36-2.08,2.56-4.23,1.9-6.6,2.1-1.72,.14-3.56-.51-5.18,.98-.25,.23-.97,.08-1.46,.19-.75,.17-1.76,.22-2.19,.65-1.8,1.76-4.38,1.7-6.5,2.66-.93,.42-2.1,.36-3.16,.55-1.35,.24-2.61,.41-3.88,1.29-1.07,.75-2.67,.95-4.05,1.35-4.82,1.41-7.78,4.37-9.97,8.07-1.12,1.9-3.39,2.42-5.52,3.03-.83,.24-1.61,.71-2.44,.89-1.13,.24-2.28,.29-3.42,.44-.6,.08-1.42,.05-1.75,.35-2.38,2.19-5.67,2.4-8.48,3.07-2.2,.52-3.66,1.93-5.71,2.36-.69,.15-1.35,.51-2.02,.76-.77,.29-1.55,.56-2.33,.85-.66,.25-1.31,.66-1.96,.73-3.21,.35-5.79,1.51-7.57,4.03-.65,.92-1.59,1.8-2.98,1.02-.05-.03-.12-.07-.17-.05-4.03,1.44-6.46-1.61-10.04-1.45-.8,.04-1.6-.17-2.37-.34-.56-.12-1.31-.24-1.55-.59-2.04-3.05-5.88-4.4-8.99-6.42-.7-.45-1.33-.98-2.05-1.41-.32-.19-.79-.31-1.21-.3-6.44,.25-9.79-3.1-12.79-6.85-1.28-1.6-3.36-2.14-5.85-1.32-2.19,.72-4.31,1.68-6.52,2.36-2.03,.62-4.12,1.18-6.19,1.42-2.23,.26-3.34,1.94-5.17,2.68-1.62,.66-2.96,1.89-4.54,2.67-2.12,1.05-4.34,1.92-6.55,2.83-.71,.29-1.49,.46-2.24,.63-3.56,.83-6.74,2.19-9.33,4.67-.95,.91-2.3,1.57-3.55,2.22-3.37,1.74-5.88,4.22-8.65,6.52-1.63,1.35-4.17,1.96-6.33,2.83-2.32,.93-4.78,1.62-7,2.7-2.34,1.15-4.4,1.17-6.4,.31-1.63-.7-2.94-.48-4.73,.48-3.32,1.79-5.38,4.26-7.38,6.92-.63,.84-2.05,1.37-3.17,1.93-3.07,1.54-5.78,3.36-7.54,6.04-.17,.26-.67,.42-1.04,.59-1.71,.77-3.73,1.27-5.07,2.35-1.79,1.44-3.08,3.32-4.56,5.03-.42,.49-.74,1.04-1.26,1.79Z"/></clipPath><clipPath id="clippath-4"><polygon class="cls-1" points="12.28 454.59 441.06 217.88 550.81 426.86 122.03 663.58 12.28 454.59"/></clipPath><filter id="drop-shadow-4" filterUnits="userSpaceOnUse"><feOffset dx="0" dy="0"/><feGaussianBlur result="blur-2" stdDeviation="2"/><feFlood flood-color="#000" flood-opacity=".15"/><feComposite in2="blur-2" operator="in"/><feComposite in="SourceGraphic"/></filter><clipPath id="clippath-5"><polygon class="cls-1" points="-12.88 437.2 240.68 412.87 295.91 390.54 542.58 358.56 575.6 618.68 19.25 679.44 -12.88 437.2"/></clipPath><clipPath id="clippath-6"><path class="cls-1" d="M253.41,96.17c23.12-11.94,51.96-15.46,75.44-4.26,2.19,1.05,4.42,2.26,5.83,4.24,2.02,2.86,1.9,6.65,1.71,10.15-2.35,43.22-2.5,81.92-.3,125.15-12.6-8.82-27.14-11.88-36.74-12.53-18.5-1.25-31.39-.34-46.76,10.02-24.49-14.12-55.29-13.73-79.45,.95-2.24-45.11-.3-86.04-2.54-131.15-.1-1.99-.17-4.1,.82-5.82,1.24-2.17,3.8-3.15,6.19-3.88,25.03-7.67,53.06-4.99,76.18,7.27v123.44"/></clipPath><clipPath id="clippath-7"><circle class="cls-6" cx="1446.1" cy="257.5" r="226.17"/></clipPath><clipPath id="clippath-8"><polygon class="cls-1" points="1716.48 457.2 1462.92 432.87 1407.69 410.54 1161.02 378.56 1128 638.68 1684.35 699.44 1716.48 457.2"/></clipPath></defs><g><g class="cls-7"><g><line class="cls-6" x1="502.13" y1="487.63" x2="1215.85" y2="487.63"/><line class="cls-6" x1="502.13" y1="441.6" x2="1215.85" y2="441.6"/><line class="cls-6" x1="502.13" y1="395.58" x2="1215.85" y2="395.58"/><line class="cls-6" x1="502.13" y1="349.55" x2="1215.85" y2="349.55"/><line class="cls-6" x1="502.13" y1="303.53" x2="1215.85" y2="303.53"/><line class="cls-6" x1="502.13" y1="257.5" x2="1215.85" y2="257.5"/><line class="cls-6" x1="502.13" y1="211.47" x2="1215.85" y2="211.47"/><line class="cls-6" x1="502.13" y1="165.45" x2="1215.85" y2="165.45"/><line class="cls-6" x1="502.13" y1="119.42" x2="1215.85" y2="119.42"/><line class="cls-6" x1="502.13" y1="73.4" x2="1215.85" y2="73.4"/><line class="cls-6" x1="502.13" y1="27.37" x2="1215.85" y2="27.37"/></g><g class="cls-25"><g class="cls-15"><g><g><line class="cls-2" x1="659.78" y1="-1055.35" x2="503.16" y2="630.23"/><line class="cls-2" x1="623.42" y1="-1058.34" x2="466.8" y2="627.24"/><line class="cls-2" x1="587.06" y1="-1061.33" x2="430.44" y2="624.25"/><line class="cls-2" x1="550.7" y1="-1064.32" x2="394.08" y2="621.26"/><line class="cls-2" x1="514.34" y1="-1067.31" x2="357.72" y2="618.27"/><line class="cls-2" x1="477.98" y1="-1070.3" x2="321.36" y2="615.28"/><line class="cls-2" x1="441.62" y1="-1073.29" x2="285" y2="612.29"/><line class="cls-2" x1="405.26" y1="-1076.28" x2="248.64" y2="609.31"/><line class="cls-2" x1="368.91" y1="-1079.27" x2="212.28" y2="606.32"/><line class="cls-2" x1="332.55" y1="-1082.25" x2="175.92" y2="603.33"/><line class="cls-2" x1="296.19" y1="-1085.24" x2="139.56" y2="600.34"/><line class="cls-2" x1="259.83" y1="-1088.23" x2="103.2" y2="597.35"/><line class="cls-2" x1="223.47" y1="-1091.22" x2="66.84" y2="594.36"/><line class="cls-2" x1="187.11" y1="-1094.21" x2="30.48" y2="591.37"/><line class="cls-2" x1="150.75" y1="-1097.2" x2="-5.88" y2="588.38"/><line class="cls-2" x1="114.39" y1="-1100.19" x2="-42.24" y2="585.39"/><line class="cls-2" x1="78.03" y1="-1103.18" x2="-78.6" y2="582.41"/><line class="cls-2" x1="41.67" y1="-1106.16" x2="-114.96" y2="579.42"/><line class="cls-2" x1="5.31" y1="-1109.15" x2="-151.32" y2="576.43"/></g><g><line class="cls-2" x1="1797.88" y1="54.7" x2="-128.99" y2="940.6"/><line class="cls-2" x1="1782.2" y1="21.75" x2="-144.67" y2="907.66"/><line class="cls-2" x1="1766.52" y1="-11.19" x2="-160.36" y2="874.72"/><line class="cls-2" x1="1750.84" y1="-44.13" x2="-176.04" y2="841.78"/><line class="cls-2" x1="1735.16" y1="-77.07" x2="-191.72" y2="808.83"/><line class="cls-2" x1="1719.48" y1="-110.01" x2="-207.4" y2="775.89"/><line class="cls-2" x1="1703.79" y1="-142.95" x2="-223.08" y2="742.95"/><line class="cls-2" x1="1688.11" y1="-175.9" x2="-238.76" y2="710.01"/><line class="cls-2" x1="1672.43" y1="-208.84" x2="-254.44" y2="677.07"/><line class="cls-2" x1="1656.75" y1="-241.78" x2="-270.12" y2="644.12"/><line class="cls-2" x1="1641.07" y1="-274.72" x2="-285.8" y2="611.18"/><line class="cls-2" x1="1625.39" y1="-307.66" x2="-301.48" y2="578.24"/><line class="cls-2" x1="1609.71" y1="-340.61" x2="-317.16" y2="545.3"/><line class="cls-2" x1="1594.03" y1="-373.55" x2="-332.84" y2="512.36"/><line class="cls-2" x1="1578.35" y1="-406.49" x2="-348.52" y2="479.41"/><line class="cls-2" x1="1562.67" y1="-439.43" x2="-364.2" y2="446.47"/><line class="cls-2" x1="1546.99" y1="-472.37" x2="-379.88" y2="413.53"/><line class="cls-2" x1="1531.31" y1="-505.32" x2="-395.56" y2="380.59"/><line class="cls-2" x1="1515.63" y1="-538.26" x2="-411.24" y2="347.65"/><line class="cls-2" x1="1499.95" y1="-571.2" x2="-426.93" y2="314.7"/><line class="cls-2" x1="1484.27" y1="-604.14" x2="-442.61" y2="281.76"/><line class="cls-2" x1="1468.59" y1="-637.08" x2="-458.29" y2="248.82"/><line class="cls-2" x1="1452.9" y1="-670.03" x2="-473.97" y2="215.88"/><line class="cls-2" x1="1437.22" y1="-702.97" x2="-489.65" y2="182.94"/><line class="cls-2" x1="1421.54" y1="-735.91" x2="-505.33" y2="149.99"/><line class="cls-2" x1="1405.86" y1="-768.85" x2="-521.01" y2="117.05"/><line class="cls-2" x1="1390.18" y1="-801.79" x2="-536.69" y2="84.11"/><line class="cls-2" x1="1374.5" y1="-834.74" x2="-552.37" y2="51.17"/><line class="cls-2" x1="1358.82" y1="-867.68" x2="-568.05" y2="18.23"/></g><g><line class="cls-2" x1="-802.38" y1="-183.01" x2="928.27" y2="1042.76"/><line class="cls-2" x1="-780.9" y1="-212.5" x2="949.75" y2="1013.27"/><line class="cls-2" x1="-759.42" y1="-241.99" x2="971.23" y2="983.78"/><line class="cls-2" x1="-737.94" y1="-271.48" x2="992.72" y2="954.29"/><line class="cls-2" x1="-716.45" y1="-300.97" x2="1014.2" y2="924.8"/><line class="cls-2" x1="-694.97" y1="-330.46" x2="1035.68" y2="895.31"/><line class="cls-2" x1="-673.49" y1="-359.94" x2="1057.16" y2="865.82"/><line class="cls-2" x1="-652.01" y1="-389.43" x2="1078.64" y2="836.33"/><line class="cls-2" x1="-630.53" y1="-418.92" x2="1100.13" y2="806.85"/><line class="cls-2" x1="-609.05" y1="-448.41" x2="1121.61" y2="777.36"/><line class="cls-2" x1="-587.56" y1="-477.9" x2="1143.09" y2="747.87"/><line class="cls-2" x1="-566.08" y1="-507.39" x2="1164.57" y2="718.38"/><line class="cls-2" x1="-544.6" y1="-536.88" x2="1186.05" y2="688.89"/><line class="cls-2" x1="-523.12" y1="-566.37" x2="1207.53" y2="659.4"/><line class="cls-2" x1="-501.64" y1="-595.85" x2="1229.02" y2="629.91"/><line class="cls-2" x1="-480.15" y1="-625.34" x2="1250.5" y2="600.42"/><line class="cls-2" x1="-458.67" y1="-654.83" x2="1271.98" y2="570.94"/><line class="cls-2" x1="-437.19" y1="-684.32" x2="1293.46" y2="541.45"/><line class="cls-2" x1="-415.71" y1="-713.81" x2="1314.94" y2="511.96"/><line class="cls-2" x1="-394.23" y1="-743.3" x2="1336.42" y2="482.47"/><line class="cls-2" x1="-372.75" y1="-772.79" x2="1357.91" y2="452.98"/><line class="cls-2" x1="-351.26" y1="-802.28" x2="1379.39" y2="423.49"/><line class="cls-2" x1="-329.78" y1="-831.76" x2="1400.87" y2="394"/><line class="cls-2" x1="-308.3" y1="-861.25" x2="1422.35" y2="364.51"/><line class="cls-2" x1="-286.82" y1="-890.74" x2="1443.83" y2="335.03"/><line class="cls-2" x1="-265.34" y1="-920.23" x2="1465.32" y2="305.54"/><line class="cls-2" x1="-243.86" y1="-949.72" x2="1486.8" y2="276.05"/><line class="cls-2" x1="-222.37" y1="-979.21" x2="1508.28" y2="246.56"/><line class="cls-2" x1="-200.89" y1="-1008.7" x2="1529.76" y2="217.07"/><line class="cls-2" x1="-179.41" y1="-1038.19" x2="1551.24" y2="187.58"/><line class="cls-2" x1="-157.93" y1="-1067.67" x2="1572.72" y2="158.09"/><line class="cls-2" x1="-136.45" y1="-1097.16" x2="1594.21" y2="128.6"/><line class="cls-2" x1="-114.96" y1="-1126.65" x2="1615.69" y2="99.12"/><line class="cls-2" x1="-93.48" y1="-1156.14" x2="1637.17" y2="69.63"/><line class="cls-2" x1="-72" y1="-1185.63" x2="1658.65" y2="40.14"/><line class="cls-2" x1="-50.52" y1="-1215.12" x2="1680.13" y2="10.65"/></g></g></g></g></g><circle class="cls-6" cx="858.99" cy="257.5" r="226.17"/></g><g><g id="svg_shadow" class="cls-8"><circle class="cls-13" cx="257.5" cy="257.5" r="241.5"/></g><g><path class="cls-10" d="M257.5,491.5c-62.5,0-121.27-24.34-165.46-68.54-44.2-44.2-68.54-102.96-68.54-165.46s24.34-121.27,68.54-165.46S195,23.5,257.5,23.5s121.27,24.34,165.46,68.54,68.54,102.96,68.54,165.46-24.34,121.27-68.54,165.46c-44.2,44.2-102.96,68.54-165.46,68.54Z"/><path class="cls-10" d="M257.5,31c30.58,0,60.25,5.99,88.16,17.79,26.97,11.41,51.19,27.74,72,48.55s37.14,45.03,48.55,72c11.81,27.91,17.79,57.58,17.79,88.16s-5.99,60.25-17.79,88.16c-11.41,26.97-27.74,51.19-48.55,72-20.81,20.81-45.03,37.14-72,48.55-27.91,11.81-57.58,17.79-88.16,17.79s-60.25-5.99-88.16-17.79c-26.97-11.41-51.19-27.74-72-48.55-20.81-20.81-37.14-45.03-48.55-72-11.81-27.91-17.79-57.58-17.79-88.16s5.99-60.25,17.79-88.16c11.41-26.97,27.74-51.19,48.55-72s45.03-37.14,72-48.55c27.91-11.81,57.58-17.79,88.16-17.79m0-15C124.12,16,16,124.12,16,257.5s108.12,241.5,241.5,241.5,241.5-108.12,241.5-241.5S390.88,16,257.5,16h0Z"/></g><g><circle class="cls-1" cx="257.5" cy="257.5" r="226.52"/><path class="cls-1" d="M257.5,484.04c-60.51,0-117.4-23.56-160.19-66.35S30.96,318.01,30.96,257.5s23.56-117.4,66.35-160.19C140.1,54.52,196.99,30.96,257.5,30.96s117.4,23.56,160.19,66.35c42.79,42.79,66.35,99.68,66.35,160.19s-23.56,117.4-66.35,160.19c-42.79,42.79-99.68,66.35-160.19,66.35Z"/><g><g class="cls-18"><g><line class="cls-6" x1="16.03" y1="-156.73" x2="16.03" y2="671.73"/><line class="cls-6" x1="62.05" y1="-156.73" x2="62.05" y2="671.73"/><line class="cls-6" x1="108.08" y1="-156.73" x2="108.08" y2="671.73"/><line class="cls-6" x1="154.1" y1="-156.73" x2="154.1" y2="671.73"/><line class="cls-6" x1="200.13" y1="-156.73" x2="200.13" y2="671.73"/><line class="cls-6" x1="246.16" y1="-156.73" x2="246.16" y2="671.73"/><line class="cls-6" x1="292.18" y1="-156.73" x2="292.18" y2="671.73"/><line class="cls-6" x1="338.21" y1="-156.73" x2="338.21" y2="671.73"/><line class="cls-6" x1="384.23" y1="-156.73" x2="384.23" y2="671.73"/><line class="cls-6" x1="430.26" y1="-156.73" x2="430.26" y2="671.73"/><line class="cls-6" x1="476.28" y1="-156.73" x2="476.28" y2="671.73"/><line class="cls-6" x1="614.36" y1="27.37" x2="-99.36" y2="27.37"/><line class="cls-6" x1="614.36" y1="73.4" x2="-99.36" y2="73.4"/><line class="cls-6" x1="614.36" y1="119.42" x2="-99.36" y2="119.42"/><line class="cls-6" x1="614.36" y1="165.45" x2="-99.36" y2="165.45"/><line class="cls-6" x1="614.36" y1="211.47" x2="-99.36" y2="211.47"/><line class="cls-6" x1="614.36" y1="257.5" x2="-99.36" y2="257.5"/><line class="cls-6" x1="614.36" y1="303.53" x2="-99.36" y2="303.53"/><line class="cls-6" x1="614.36" y1="349.55" x2="-99.36" y2="349.55"/><line class="cls-6" x1="614.36" y1="395.58" x2="-99.36" y2="395.58"/><line class="cls-6" x1="614.36" y1="441.6" x2="-99.36" y2="441.6"/><line class="cls-6" x1="614.36" y1="487.63" x2="-99.36" y2="487.63"/></g><g id="TfnBy8" class="cls-24"><path class="cls-9" d="M87.26,691.84c-1.47-1.33-2.87-1.39-4.8-.6-1.23,.5-2.77,.25-4.16,.48-4.23,.7-8.46,1.55-12.7,2.19-2.38,.36-4.89,0-7.14,.67-4.34,1.28-7.49-1.36-11.6-.68-2.52,.41-5.07,.36-7.61,.49-.62,.03-1.35,.12-1.83-.09-4.09-1.72-8.48-1.31-13.08-.09-1.21,.32-2.64,.52-3.75,.28-2.44-.53-5.44,0-7.25-1.76-.81-.79-1.54-1.64-2.29-2.47-1.18-1.31-2.07-2.9-3.57-3.88-3.45-2.27-4.47-5.69-5.89-8.96-.79-1.84-1.71-3.66-2.16-5.59-.85-3.62-1.42-7.32-2.05-11-.78-4.56-1.85-9.08-1.45-13.85,.08-1,.28-2.01,.36-3.01,.28-3.47-1.58-6.28-2.74-9.32-.85-2.22-1.71-4.44-2.47-6.68-.77-2.25-1.31-4.58-2.16-6.81-1.68-4.39-2.7-8.9-2.38-13.75,.08-1.23-.24-2.57-.9-3.6-2.25-3.53-2.55-7.61-3.59-11.5-1.21-4.48-3-8.79-4.6-13.15-.86-2.34-1.55-4.65-1.08-7.33,.31-1.76-.33-3.52-.4-5.3-.09-2.6-.03-5.23-.07-7.84-.03-1.68-.07-3.36-.24-5.01-.42-4.04-.84-8.09-1.43-12.09-.22-1.52-.84-2.98-1.41-4.42-1.27-3.24-1.88-6.3,.53-10.03,1.37-2.12,1.26-4.92,1.29-7.36,.04-3.19-.27-6.37-.76-9.48-.32-2.03-1.02-4.01-1.91-5.86-1.81-3.79-2.57-7.85-3.3-11.95-.36-1.99-1.54-3.78-2.33-5.67-.86-2.04-2.27-4-2.43-6.16-.21-2.81,.2-5.8,3.89-7.95,.94-.55,1.53-1.92,1.77-2.94,.34-1.47,.11-2.96,.31-4.45,.3-2.21,.8-4.42,1.14-6.64,.21-1.38,.56-2.83,.3-4.11-.47-2.41,1.38-4.22,2.67-6.18,1.91-2.9,3.78-5.77,4.17-9.02,.25-2.06,2.51-4.05,4.96-4.7,.93-.25,1.95-.57,2.66-1.11,1.17-.88,2.21-.51,3.39-.59,3.47-.22,6.29,1.36,9.85,1.09,2.71-.2,5.47,.44,8,1.11,1.51,.4,2.78-.11,4.16-.29,2.37-.31,4.74-.67,7.11-.99,.44-.06,.97,.08,1.31-.1,2.59-1.39,5.76-1.31,8.21-3.06,.48-.34,1.19-.48,1.81-.66,3.4-.97,6.82-1.9,10.21-2.92,.62-.19,1.16-.74,1.66-1.19,1.74-1.56,3.57-2.82,6.15-3.23,1.8-.29,3.55-1.14,5.35-1.47,.8-.15,1.89,.14,2.46,.58,2.16,1.64,4.76,1.68,7.62,.87,.76-.22,1.46-.75,2.14-1.19,1.61-1.04,2.86-2.31,5.21-2.51,1.3-.11,3.07-1.53,3.92-2.67,2.4-3.24,6.12-4.64,9.83-6.13,2.11-.85,4.22-1.69,6.37-2.43,1.08-.37,2.38-.27,3.35-.75,2.35-1.17,4.58-2.53,6.81-3.88,1.8-1.09,3.46-2.38,5.32-3.39,.89-.48,2.12-.44,3.14-.78,2.95-.99,5.93-1.96,8.79-3.14,.95-.39,1.48-1.61,2.42-2.12,2.79-1.51,5.77-2.6,8.9-3.47,2.52-.7,4.65-.96,6.85-.03,.76,.32,1.98-.04,2.88,.15,1.82,.38,3.97-.3,5.56,.89,1.53,1.15,3.48,1.41,5.85,1.05,2.01-.31,4.08,.07,6.11,.18,.87,.05,1.71,.34,2.56,.26,3.08-.29,5.08,1.28,7.44,2.22,1.25,.5,4.67,.3,5.82-.81,2.12-2.04,4.55-1.66,6.96-1.75,.43-.02,.96,.27,1.26,.12,1.74-.89,3.66-1.39,5.41-2.14,3.97-1.7,7.68-3.92,11.5-5.92,.06-.03,.13-.11,.16-.1,2.9,1,4.32-2.21,6.82-2.32,2.83-2.79,7.37-2.26,10.44-4.58,.18-.13,.49-.18,.74-.19,3.25-.22,6.5-.35,9.75-.65,2.46-.23,4.92-.63,7.37-1.06,2.97-.52,5.95-1.1,8.9-1.78,1.78-.41,3.52-1.05,5.26-1.63,1.77-.58,3.34-1.36,5.41-1.4,2.22-.05,4.57-1.23,6.89-1.77,6.13-1.43,12.17-3.24,18.46-3.83,3.18-.3,6.38-1.4,9.58-2.15,.19-.04,.39-.1,.55-.2,2.01-1.35,4.01-2.73,6.04-4.06,.52-.34,1.16-.56,1.75-.81,.23-.1,.52-.09,.74-.2,2.54-1.28,5.07-2.58,7.6-3.86,.54-.28,1.09-.58,1.66-.77,4.27-1.46,6.7-5.09,10.62-6.84,3.15-1.41,4.99-3.74,7.34-5.75,1.48-1.27,3.33-2.3,5.13-3.26,2.93-1.58,5.86-3.19,8.95-4.44,1.84-.75,4.03-1.13,5.98-1.15,3.97-.04,7.63-1.54,11.41-2.48,.79-.2,1.46-.96,2.2-1.44,.82-.52,1.66-1,2.5-1.49,.16-.1,.44-.11,.52-.23,1.74-2.31,4.78-2.75,7.28-3.81,2.44-1.03,5.19-1.39,7.79-2.12,1.72-.48,2.9-.07,4.37,.52,1.77,.71,4.08,.72,6.2,.84,1.49,.08,3.07-.05,4.58-.32,.87-.15,1.7-.76,3-1.37,1.88,1.11,4.93,.37,7.62,.68,3.55,.41,6.15-1.19,9.06-2.22,10.02-3.54,20-7.16,30-10.74,11.04-3.95,22.05-7.97,33.12-11.83,10.64-3.72,21.34-7.26,32-10.91,3.32-1.14,6.61-2.39,9.91-3.58,.42-.15,.87-.23,1.55-.41,23.34,79.52,46.67,158.98,70.05,238.61-2.84,.91-5.67,1.82-8.5,2.73-9.85,3.19-19.68,6.42-29.54,9.56-17.33,5.53-34.68,10.99-52,16.53-.88,.28-1.6,1.01-2.42,1.5-.37,.22-.77,.44-1.18,.54-2.91,.7-5.88,1.18-8.71,2.09-6.2,2-12.33,4.21-18.49,6.34-.37,.13-.96,.2-1.07,.4-1.59,2.86-6.01,4.05-6.8,7.45-.15,.65-1.63,1.2-2.42,1.85-.6,.49-1,1.15-1.62,1.63-1.04,.8-2.09,1.65-3.28,2.24-1.63,.8-3.39,1.38-5.1,2.05-2.55,1-4.41,2.53-5.81,4.64-.57,.86-2,1.4-3.05,2.08-.79,.52-1.6,1.02-2.39,1.54-.15,.1-.23,.37-.34,.39-2.66,.35-3.76,2.44-5.63,3.66-2.68,1.74-5.56,3.27-8.42,4.8-1.43,.77-2.94,1.65-4.49,1.97-1.9,.4-3.88,.26-5.82,.35-.18,0-.35-.17-.51-.14-3.44,.65-6.54-1.04-9.82-.24-2.57,.62-4.85,1.14-7.31,.56-.92-.22-2.14,.16-3.22,.34-1.32,.22-2.69,.36-3.93,.81-1.6,.58-3.1,1.43-4.64,2.17-.89,.42-1.75,1.02-2.67,1.23-2.28,.51-4.59,.89-6.9,1.23-1.84,.28-3.68,.4-5.52,.64-2.44,.32-4.9,.53-7.32,1.05-3.73,.8-6.52,3.19-9.65,5.02-2.53,1.48-5.28,2.77-8.08,3.77-1.82,.65-3.25,1.44-4.45,2.72-.38,.41-.94,1.03-1.38,1.05-3.5,.18-5.99,2.34-7.63,4.36-2.08,2.56-4.23,1.9-6.6,2.1-1.72,.14-3.56-.51-5.18,.98-.25,.23-.97,.08-1.46,.19-.75,.17-1.76,.22-2.19,.65-1.8,1.76-4.38,1.7-6.5,2.66-.93,.42-2.1,.36-3.16,.55-1.35,.24-2.61,.41-3.88,1.29-1.07,.75-2.67,.95-4.05,1.35-4.82,1.41-7.78,4.37-9.97,8.07-1.12,1.9-3.39,2.42-5.52,3.03-.83,.24-1.61,.71-2.44,.89-1.13,.24-2.28,.29-3.42,.44-.6,.08-1.42,.05-1.75,.35-2.38,2.19-5.67,2.4-8.48,3.07-2.2,.52-3.66,1.93-5.71,2.36-.69,.15-1.35,.51-2.02,.76-.77,.29-1.55,.56-2.33,.85-.66,.25-1.31,.66-1.96,.73-3.21,.35-5.79,1.51-7.57,4.03-.65,.92-1.59,1.8-2.98,1.02-.05-.03-.12-.07-.17-.05-4.03,1.44-6.46-1.61-10.04-1.45-.8,.04-1.6-.17-2.37-.34-.56-.12-1.31-.24-1.55-.59-2.04-3.05-5.88-4.4-8.99-6.42-.7-.45-1.33-.98-2.05-1.41-.32-.19-.79-.31-1.21-.3-6.44,.25-9.79-3.1-12.79-6.85-1.28-1.6-3.36-2.14-5.85-1.32-2.19,.72-4.31,1.68-6.52,2.36-2.03,.62-4.12,1.18-6.19,1.42-2.23,.26-3.34,1.94-5.17,2.68-1.62,.66-2.96,1.89-4.54,2.67-2.12,1.05-4.34,1.92-6.55,2.83-.71,.29-1.49,.46-2.24,.63-3.56,.83-6.74,2.19-9.33,4.67-.95,.91-2.3,1.57-3.55,2.22-3.37,1.74-5.88,4.22-8.65,6.52-1.63,1.35-4.17,1.96-6.33,2.83-2.32,.93-4.78,1.62-7,2.7-2.34,1.15-4.4,1.17-6.4,.31-1.63-.7-2.94-.48-4.73,.48-3.32,1.79-5.38,4.26-7.38,6.92-.63,.84-2.05,1.37-3.17,1.93-3.07,1.54-5.78,3.36-7.54,6.04-.17,.26-.67,.42-1.04,.59-1.71,.77-3.73,1.27-5.07,2.35-1.79,1.44-3.08,3.32-4.56,5.03-.42,.49-.74,1.04-1.26,1.79Z"/><g class="cls-17"><g class="cls-16"><g><line class="cls-5" x1="7.27" y1="212.16" x2="21" y2="628.38"/><line class="cls-5" x1="30.82" y1="211.39" x2="44.56" y2="627.61"/><line class="cls-5" x1="54.37" y1="210.61" x2="68.11" y2="626.83"/><line class="cls-5" x1="77.92" y1="209.83" x2="91.66" y2="626.05"/><line class="cls-5" x1="101.48" y1="209.06" x2="115.21" y2="625.27"/><line class="cls-5" x1="125.03" y1="208.28" x2="138.76" y2="624.5"/><line class="cls-5" x1="148.58" y1="207.5" x2="162.31" y2="623.72"/><line class="cls-5" x1="172.13" y1="206.72" x2="185.87" y2="622.94"/><line class="cls-5" x1="195.68" y1="205.95" x2="209.42" y2="622.17"/><line class="cls-5" x1="219.23" y1="205.17" x2="232.97" y2="621.39"/><line class="cls-5" x1="242.79" y1="204.39" x2="256.52" y2="620.61"/><line class="cls-5" x1="266.34" y1="203.62" x2="280.07" y2="619.83"/><line class="cls-5" x1="289.89" y1="202.84" x2="303.62" y2="619.06"/><line class="cls-5" x1="313.44" y1="202.06" x2="327.18" y2="618.28"/><line class="cls-5" x1="336.99" y1="201.28" x2="350.73" y2="617.5"/><line class="cls-5" x1="360.54" y1="200.51" x2="374.28" y2="616.73"/><line class="cls-5" x1="384.1" y1="199.73" x2="397.83" y2="615.95"/><line class="cls-5" x1="407.65" y1="198.95" x2="421.38" y2="615.17"/><line class="cls-5" x1="431.2" y1="198.18" x2="444.93" y2="614.39"/><line class="cls-5" x1="454.75" y1="197.4" x2="468.49" y2="613.62"/><line class="cls-5" x1="478.3" y1="196.62" x2="492.04" y2="612.84"/><line class="cls-5" x1="501.86" y1="195.84" x2="515.59" y2="612.06"/><line class="cls-5" x1="573.27" y1="216.64" x2="-180.38" y2="241.5"/><line class="cls-5" x1="574.04" y1="239.76" x2="-179.62" y2="264.63"/><line class="cls-5" x1="574.8" y1="262.88" x2="-178.86" y2="287.75"/><line class="cls-5" x1="575.56" y1="286.01" x2="-178.09" y2="310.87"/><line class="cls-5" x1="576.33" y1="309.13" x2="-177.33" y2="334"/><line class="cls-5" x1="577.09" y1="332.25" x2="-176.57" y2="357.12"/><line class="cls-5" x1="577.85" y1="355.38" x2="-175.8" y2="380.24"/><line class="cls-5" x1="578.61" y1="378.5" x2="-175.04" y2="403.37"/><line class="cls-5" x1="579.38" y1="401.62" x2="-174.28" y2="426.49"/><line class="cls-5" x1="580.14" y1="424.75" x2="-173.51" y2="449.61"/><line class="cls-5" x1="580.9" y1="447.87" x2="-172.75" y2="472.74"/><line class="cls-5" x1="581.67" y1="470.99" x2="-171.99" y2="495.86"/><line class="cls-5" x1="582.43" y1="494.11" x2="-171.22" y2="518.98"/></g></g></g></g><g><g class="cls-23"><polygon class="cls-12" points="-12.88 437.2 240.68 412.87 295.91 390.54 542.58 358.56 575.6 618.68 19.25 679.44 -12.88 437.2"/></g><g class="cls-25"><g class="cls-22"><g><g><line class="cls-3" x1="648.4" y1="1505.88" x2="491.77" y2="-179.7"/><line class="cls-3" x1="612.04" y1="1508.87" x2="455.41" y2="-176.71"/><line class="cls-3" x1="575.68" y1="1511.86" x2="419.05" y2="-173.72"/><line class="cls-3" x1="539.32" y1="1514.85" x2="382.69" y2="-170.74"/><line class="cls-3" x1="502.96" y1="1517.83" x2="346.33" y2="-167.75"/><line class="cls-3" x1="466.6" y1="1520.82" x2="309.97" y2="-164.76"/><line class="cls-3" x1="430.24" y1="1523.81" x2="273.61" y2="-161.77"/><line class="cls-3" x1="393.88" y1="1526.8" x2="237.25" y2="-158.78"/><line class="cls-3" x1="357.52" y1="1529.79" x2="200.89" y2="-155.79"/><line class="cls-3" x1="321.16" y1="1532.78" x2="164.53" y2="-152.8"/><line class="cls-3" x1="284.8" y1="1535.77" x2="128.17" y2="-149.81"/><line class="cls-3" x1="248.44" y1="1538.76" x2="91.81" y2="-146.83"/><line class="cls-3" x1="212.08" y1="1541.75" x2="55.45" y2="-143.84"/><line class="cls-3" x1="175.72" y1="1544.73" x2="19.1" y2="-140.85"/><line class="cls-3" x1="139.36" y1="1547.72" x2="-17.26" y2="-137.86"/><line class="cls-3" x1="103" y1="1550.71" x2="-53.62" y2="-134.87"/><line class="cls-3" x1="66.64" y1="1553.7" x2="-89.98" y2="-131.88"/><line class="cls-3" x1="30.28" y1="1556.69" x2="-126.34" y2="-128.89"/></g><g><line class="cls-3" x1="1241.1" y1="440.66" x2="-685.77" y2="-445.24"/><line class="cls-3" x1="1225.42" y1="473.6" x2="-701.46" y2="-412.3"/><line class="cls-3" x1="1209.74" y1="506.54" x2="-717.14" y2="-379.36"/><line class="cls-3" x1="1194.06" y1="539.49" x2="-732.82" y2="-346.42"/><line class="cls-3" x1="1178.38" y1="572.43" x2="-748.5" y2="-313.48"/><line class="cls-3" x1="1162.69" y1="605.37" x2="-764.18" y2="-280.53"/><line class="cls-3" x1="1147.01" y1="638.31" x2="-779.86" y2="-247.59"/><line class="cls-3" x1="1131.33" y1="671.25" x2="-795.54" y2="-214.65"/><line class="cls-3" x1="1115.65" y1="704.2" x2="-811.22" y2="-181.71"/><line class="cls-3" x1="1099.97" y1="737.14" x2="-826.9" y2="-148.77"/><line class="cls-3" x1="1084.29" y1="770.08" x2="-842.58" y2="-115.82"/><line class="cls-3" x1="1068.61" y1="803.02" x2="-858.26" y2="-82.88"/><line class="cls-3" x1="1052.93" y1="835.96" x2="-873.94" y2="-49.94"/><line class="cls-3" x1="1037.25" y1="868.91" x2="-889.62" y2="-17"/><line class="cls-3" x1="1021.57" y1="901.85" x2="-905.3" y2="15.94"/><line class="cls-3" x1="1005.89" y1="934.79" x2="-920.98" y2="48.89"/><line class="cls-3" x1="990.21" y1="967.73" x2="-936.66" y2="81.83"/><line class="cls-3" x1="974.53" y1="1000.67" x2="-952.35" y2="114.77"/><line class="cls-3" x1="958.85" y1="1033.62" x2="-968.03" y2="147.71"/><line class="cls-3" x1="943.17" y1="1066.56" x2="-983.71" y2="180.65"/><line class="cls-3" x1="927.49" y1="1099.5" x2="-999.39" y2="213.6"/><line class="cls-3" x1="911.8" y1="1132.44" x2="-1015.07" y2="246.54"/><line class="cls-3" x1="896.12" y1="1165.38" x2="-1030.75" y2="279.48"/><line class="cls-3" x1="880.44" y1="1198.33" x2="-1046.43" y2="312.42"/><line class="cls-3" x1="864.76" y1="1231.27" x2="-1062.11" y2="345.36"/><line class="cls-3" x1="849.08" y1="1264.21" x2="-1077.79" y2="378.3"/><line class="cls-3" x1="833.4" y1="1297.15" x2="-1093.47" y2="411.25"/><line class="cls-3" x1="817.72" y1="1330.09" x2="-1109.15" y2="444.19"/><line class="cls-3" x1="802.04" y1="1363.04" x2="-1124.83" y2="477.13"/><line class="cls-3" x1="786.36" y1="1395.98" x2="-1140.51" y2="510.07"/></g><g><line class="cls-3" x1="-1359.16" y1="678.37" x2="371.49" y2="-547.4"/><line class="cls-3" x1="-1337.68" y1="707.86" x2="392.97" y2="-517.91"/><line class="cls-3" x1="-1316.2" y1="737.35" x2="414.45" y2="-488.42"/><line class="cls-3" x1="-1294.72" y1="766.84" x2="435.94" y2="-458.93"/><line class="cls-3" x1="-1273.23" y1="796.32" x2="457.42" y2="-429.44"/><line class="cls-3" x1="-1251.75" y1="825.81" x2="478.9" y2="-399.95"/><line class="cls-3" x1="-1230.27" y1="855.3" x2="500.38" y2="-370.47"/><line class="cls-3" x1="-1208.79" y1="884.79" x2="521.86" y2="-340.98"/><line class="cls-3" x1="-1187.31" y1="914.28" x2="543.34" y2="-311.49"/><line class="cls-3" x1="-1165.83" y1="943.77" x2="564.83" y2="-282"/><line class="cls-3" x1="-1144.34" y1="973.26" x2="586.31" y2="-252.51"/><line class="cls-3" x1="-1122.86" y1="1002.75" x2="607.79" y2="-223.02"/><line class="cls-3" x1="-1101.38" y1="1032.23" x2="629.27" y2="-193.53"/><line class="cls-3" x1="-1079.9" y1="1061.72" x2="650.75" y2="-164.04"/><line class="cls-3" x1="-1058.42" y1="1091.21" x2="672.24" y2="-134.56"/><line class="cls-3" x1="-1036.94" y1="1120.7" x2="693.72" y2="-105.07"/><line class="cls-3" x1="-1015.45" y1="1150.19" x2="715.2" y2="-75.58"/><line class="cls-3" x1="-993.97" y1="1179.68" x2="736.68" y2="-46.09"/><line class="cls-3" x1="-972.49" y1="1209.17" x2="758.16" y2="-16.6"/><line class="cls-3" x1="-951.01" y1="1238.66" x2="779.64" y2="12.89"/><line class="cls-3" x1="-929.53" y1="1268.14" x2="801.13" y2="42.38"/><line class="cls-3" x1="-908.04" y1="1297.63" x2="822.61" y2="71.87"/><line class="cls-3" x1="-886.56" y1="1327.12" x2="844.09" y2="101.35"/><line class="cls-3" x1="-865.08" y1="1356.61" x2="865.57" y2="130.84"/><line class="cls-3" x1="-843.6" y1="1386.1" x2="887.05" y2="160.33"/><line class="cls-3" x1="-822.12" y1="1415.59" x2="908.53" y2="189.82"/><line class="cls-3" x1="-800.64" y1="1445.08" x2="930.02" y2="219.31"/><line class="cls-3" x1="-779.15" y1="1474.57" x2="951.5" y2="248.8"/><line class="cls-3" x1="-757.67" y1="1504.05" x2="972.98" y2="278.29"/><line class="cls-3" x1="-736.19" y1="1533.54" x2="994.46" y2="307.78"/><line class="cls-3" x1="-714.71" y1="1563.03" x2="1015.94" y2="337.26"/><line class="cls-3" x1="-693.23" y1="1592.52" x2="1037.43" y2="366.75"/><line class="cls-3" x1="-671.75" y1="1622.01" x2="1058.91" y2="396.24"/><line class="cls-3" x1="-650.26" y1="1651.5" x2="1080.39" y2="425.73"/><line class="cls-3" x1="-628.78" y1="1680.99" x2="1101.87" y2="455.22"/><line class="cls-3" x1="-607.3" y1="1710.48" x2="1123.35" y2="484.71"/><line class="cls-3" x1="-585.82" y1="1739.96" x2="1144.83" y2="514.2"/></g></g></g></g></g></g><circle class="cls-6" cx="257.5" cy="257.5" r="226.17"/></g><g><g><g><polygon class="cls-11" points="161.57 312.72 161.65 312.72 161.65 312.72 161.57 312.72"/><polygon class="cls-11" points="118 295.39 118 295.44 117.99 295.48 118 295.39"/><path class="cls-11" d="M388.88,120.99c.6-.52,1.18,1.03,1.8,8.74,1.64,20.71,2.09,41.11,2.51,61.78v-.03s.04,1.23,.04,1.23v-.03c.11,13.51,.44,27.02,.14,40.4-.26,11.83-.66,23.64-1.19,35.47-.57,11.82-1.36,23.65-2.44,35.5-.2,2.03-.4,4.07-.59,6.11-.26,2.79-.52,5.59-.77,8.39-11.95,.29-23.97,.58-36.01,.87-11.28,.28-22.57,.54-33.82,.67-31.97,.39-63.9,.59-95.84-.22-13.53-.34-27.09-.88-40.57-1.52-6.67-.28-13.42-.29-20.18-.38-6.76-.08-13.55-.19-20.33-.43-4.6-.16-9.19-.39-13.79-.71-2.3-.15-4.6-.33-6.89-.53-1.15-.09-2.3-.2-3.44-.31l-6.11-.58,.83-9.9c.2-2.4,.44-4.79,.58-7.19,.31-4.8,.71-9.6,.91-14.41,.16-3.41,.35-6.83,.43-10.25,.1-3.42,.2-6.84,.3-10.26,.07-4.13,.14-8.12,.2-12.15,.03-4.03,.15-8.1,.4-12.41,.17-3.59,.16-8.14,.03-12.95-.18-4.81-.36-9.88-.53-14.53-.42-12.9-1.02-25.84-2.04-38.64-1.05-13.14-1.91-26.51-3.67-39.4v.1c-.24-2.59-.5-5.19-.75-7.79-.34-3.35-.68-6.7-1.01-10.03,2,.04,3.99,.08,5.96,.12,1.22,.02,2.44,.03,3.65,.05,17.05,.15,33.81,.86,50.57,1.28,47.18,1.16,94.32,1.81,141.51,2.42,18.08,.16,36.11,.32,54.16,.47h-.08c14.09,.2,22.16,1.52,29.99,2.69,8.54,1.27,4.81,2-7.73,1.9-23.79-.17-47.61-.23-71.6-.63-21.77-.36-43.52-.92-65.34-1.19-11.2-.19-22.42-.39-33.64-.58h.06c-.41-.12-.81-.11-1.21-.03h.04c-15.55-.58-31.24-.6-46.87-.9-8.38-.16-16.7-.44-25.11-.8-5.72-.26-13.75-.11-20.82-.27l-8.83-.19,1.13,10.91,1.3,13.45c.82,8.97,1.6,17.95,2.26,26.94l.54,7.6,.46,7.6h-.01c.07,3.12,.25,6.24,.43,9.36,.18,3.12,.45,6.23,.57,9.35,.13,3.77,.26,7.54,.39,11.31,.14,4.67,.28,9.45,.41,13.98,.18,4.98,.29,9.91,.23,14.81,0,4.9-.15,9.78-.34,14.67-.04,1.03,.04,2.28,.07,3.42v-.08s-.08,6.1-.08,6.1c0,.16,.01,.3,.02,.45-.03,.06-.07,.12-.1,.19-.17,4.28-.34,8.52-.52,12.74-.08,2.11-.15,4.23-.23,6.34-.11,2.11-.21,4.22-.32,6.34l-.39,3.64s0,.06,0,.09v-.15s0,.16,0,.16c0,.06,.01,.11,0,.19,0,.04-.02,.14-.03,.23l-.48,6.78-.24,3.39-.05,1.07,.72,.04,2.04,.17,5.05,.38c3.37,.24,6.74,.47,10.12,.71h.04c6.67,.36,13.35,.6,20.05,.76h-.06c1.12,.1,2.24,.24,3.31,.04h-.06c.95,0,1.9-.03,2.85-.05l.77-.17c4.56,.07,9.19,.1,13.35,.48h-.09c1.02-.05,2.03-.15,3.1,.08-.04,0-.09,0-.14,0h.24c5.36,.13,10.63,.41,15.91,.62h.05c3.47,.06,6.43,.07,9.74,.61,2.49,.4,5.98-.15,9.52,.27h.02c.32,.02,.65,.03,.97,.03h-.06c14.92,.5,29.84,.79,44.77,.87h.08c18.78,.79,38.03,.29,57.09-.04,20.82-.36,41.64-1,62.46-1.63l5.27-.17,.53-6.75c.25-2.92,.44-5.84,.65-8.76h0c-.02-1.09,.02-2.18,.25-3.27v.15s0-.11,0-.11c.28-3.36,.51-6.99,.73-10.45,.23-3.47,.4-6.78,.47-9.5,.17-4.77,.33-9.48,.5-14.17,.19-4.68,.33-9.34,.44-14.01,.48-19.75,.52-39.58-.06-59.35-.15-6.24-.55-12.51-.93-18.59-.39-5.35-.18-7.09,.27-7.96,.89-1.68,1.3-4.71,.5-15.38-.48-5.8-1.22-16.36,.45-12.84,.42,.87,.14-2.06,.02-3.82-.75-10.81,.48-7.53,1.11-8.07ZM118.79,271.87l.25-1.8c-.08,.27-.16,.51-.23,.85-.01,.06-.01,.62-.02,.94Zm15.32,40.36l.57-.09h-1.04s.47,.09,.47,.09Zm29.14,.72l-2.05-.05c.65,.04,1.3,.09,1.95,.13l.11-.08Zm33.89,1.26l-2.81-.25c.77,.11,1.54,.21,2.31,.32l.5-.07Zm188.08-16.35l-.06,.37s.01-.04,.02-.07c.01-.07,.03-.2,.04-.3Z"/></g><path class="cls-11" d="M215.61,294.16c9.92,.2,19.84,.39,29.74,.44,14.64,.09,29.27,.12,43.9,.02,14.63-.09,29.25-.3,43.87-.77,5.5-.14,11-.39,16.5-.59,2.75-.1,5.5-.25,8.25-.38l6.36-.31c.32-19.41,.64-38.81,.96-58.2,.44-23.36,.81-46.78,1.55-70.07,.15-4.61,.11-9.37,.16-14.07,.02-1.9,0-4.45,.35-4.64,1.03-.58,2.09-2.82,3.09-.65,.43,.92,.56,3.14,.49,6.24-.54,25.6-1.08,51.2-1.61,76.78-.26,11.74-.74,23.5-.84,35.16l-.19,15.7-.27,17.3-17.62,.81c-5.34,.19-10.68,.44-16.02,.59-33.61,1.15-67.21,1.55-100.81,.89-22.5-.45-44.98-1.16-67.49-1.86l-25.67-.8-1.23-13.65-1.02-12.07c-2.01-24.96-3.69-49.94-4.79-74.97-.42-9.44-.72-18.89-.95-28.35-.1-4.73-.19-9.46-.23-14.2l-.06-7.1-.03-9.21c4.78,.35,9.57,.69,14.36,1.04,22.47,1.64,45.24,2.85,67.81,3.22,2.74,.04,5.53,.41,8.12,.23h-.09s1.86-.06,1.86-.06h-.09c4.53,.23,9.04,.34,13.54,.43,4.51,.07,9.01,.1,13.53,.21,18.76,.4,37.39,.34,56.32,.69,4.6,.1,9.38,.14,14.24,.11,4.87,0,9.83-.07,14.79-.21,7.95-.19,17.56-.01,25.35-.51,9.59-.63,9.19,.19,10.97,.85,.66,.24,.18,.49-.61,.76-2.02,.69-6.19,1.27-5.18,2.1,.58,.47-4.45,.53-7.08,.62-44.49,1.44-89.1,.92-133.65-.5-15.22-.51-30.43-1.06-45.64-1.79-7.6-.37-15.21-.74-22.81-1.19l-11.4-.68-9.93-.66h0s.06,8.4,.06,8.4l.14,10.99c.12,7.33,.27,14.65,.5,21.97,.44,14.64,1.1,29.27,2.05,43.86,1.16,17.66,2.41,35.21,3.73,52.69l1.03,13.18,17.87,.69,19.74,.7c11.35,.39,22.82,.77,34.18,.78h-.09Z"/><g><polygon class="cls-11" points="277.46 360.66 277.49 360.66 277.49 360.66 277.46 360.66"/><polygon class="cls-11" points="251.98 361.22 252 361.22 252.02 361.22 251.98 361.22"/><path class="cls-11" d="M430.24,336.9c.28-.12,.53-.03,.72,.55,.1,.29,.18,.7,.24,1.26,.04,.56,0,1.27-.07,2.15-.61,4.72-2.87,8.92-5.81,12.22-2.96,3.3-6.56,5.89-10.55,7.73h.02s-.47,.22-.47,.22h0c-5.23,2.2-10.72,3.44-16.12,3.78-4.77,.29-9.47,.23-14.09,.17-4.62-.05-9.24-.12-13.88-.31-10.31-.39-20.83-.21-31.24-.31-12.51-.12-24.99,.09-37.47,.37-10.58,.27-21.16,.55-31.75,.82-7.36,.15-14.73,.1-22.11,.17-2.68,.05-5.38,.1-8.06,.16-3.25,.03-6.27,.2-9.66-.23-2.83-.35-7.14,.02-10.79,.04-5.07,.03-10.15-.04-15.19,.07-5.17,.12-10.43-.07-15.52,.35h.04c-3.01,0-6.06-.09-9.01,.03-6.68,.25-13.26-.12-19.83-.21-9.25-.17-18.49-.34-27.73-.51-4.62-.08-9.24-.12-13.91-.4-4.66-.28-9.36-.83-13.96-2.05-7.02-1.78-13.89-5.45-18.69-11.29v.03c-1.84-2.29-2.74-4.53-3.17-6.48-.45-1.95-.3-3.68-.14-5.25,.32-1.73,.7-2.15,1.07-1.66,.19,.25,.37,.73,.54,1.42,.25,.68,.44,1.57,.83,2.62,1.38,4.01,4.11,7.5,7.43,10.24,1.66,1.38,3.48,2.58,5.39,3.59,1.9,1.02,3.93,1.82,6.05,2.49,7.69,2.45,16.1,2.89,24.61,2.99,4.38,.04,8.77,.16,13.16,.24h-.02c.16,.11,.32,.09,.47,.01h-.02c6.08,.38,12.22,.17,18.34,.24,3.28,.01,6.54,.11,9.83,.29,2.24,.12,5.38-.14,8.15-.16l25.58-.21,5.95-.04h0c2.44,.22,4.88-.05,7.32-.09l4.42-.02c1.82-.03,3.69-.03,5.46-.15,3.89-.26,7.69-.23,11.52-.09,.4,.01,.89-.08,1.33-.13h-.03s2.38-.13,2.38-.13c.06,0,.12-.02,.17-.03,.02,.03,.05,.05,.08,.08,3.34,.08,6.63-.16,9.93-.29l1.43,.12h.04s-.06,0-.06,0h.06s.04-.02,.07-.02c.02,0,.06,0,.09,.02,4.43-.1,8.84-.43,13.29-.3h.02s7.89-.06,7.89-.06h-.02c.44,.07,.88,.16,1.3-.04h-.02c.37-.03,.74-.06,1.12-.1l.3-.17c1.79-.03,3.6-.09,5.23,.14h-.04c.39-.07,.79-.18,1.21-.02-.02,0-.04,0-.05,.01l.09-.02,6.22-.22h.02c1.36-.14,2.52-.23,3.83,.1,.99,.25,2.34-.4,3.74-.14h0c.13,0,.26,0,.38,0h-.02s17.57-.26,17.57-.26h.03c7.37,.5,14.92,.16,22.4,.11l24.5-.12,9.76-.03h0c.43-.08,.85-.11,1.29,.02h-.06s.04,0,.04,0c2.65,.06,5.71,.12,7.86,.03,3.76-.16,7.4-.02,10.99-.14,3.8-.11,7.56-.39,11.2-1.05,3.6-.68,7.18-1.75,10.24-3.46,1.95-1.08,3.72-2.51,5.19-4.08,.66-.68,1.08-1.12,1.45-1.36,.37-.24,.66-.29,.91-.27,.5,.05,1.04-.06,1.73-.61,.32-.29,.69-.68,1.11-1.22,.36-.57,.83-1.25,1.19-2.18,.11-.25,.23-.52,.35-.81,.11-.29,.22-.59,.33-.9,.26-.6,.43-1.22,.65-1.72,.41-1,.78-1.64,1.3-.82,.23,.41,.44-.75,.5-1.45,.05-.54,.11-.99,.17-1.37,.03-.38,.06-.68,.1-.93,.09-.49,.21-.75,.36-.88,.29-.26,.67,0,.96-.12Zm-187.44,24.79l-.71-.16c.11,.06,.2,.12,.34,.18,.03,.01,.24-.01,.37-.02Zm23.88-.54l.22-.11-.41,.06,.19,.05Zm11.45-.31h-.81s.77,.07,.77,.07l.04-.07Zm13.26-.17l-1.11-.08,.91,.16,.19-.08Zm81.18-.39l-.15-.03s.01,.01,.03,.01c.03,0,.08,.01,.12,.02Z"/></g><path class="cls-11" d="M295.83,337.39c4.52,0,9.05,0,13.57-.05,13.36-.16,26.71-.1,40.06-.14,14.16-.12,28.32-.23,42.48-.35,10.65-.07,21.33-.21,31.96-.05,2.1,.03,4.27-.1,6.41-.16,.87-.02,2.03-.09,2.12,.22,.29,.91,1.33,1.8,.36,2.75-.41,.4-1.42,.56-2.84,.57-11.68,.07-23.36,.14-35.03,.14-5.36,.01-10.73-.2-16.04-.08-9.65,.23-19.29,.19-28.93,.27-15.32,.13-30.63,.5-45.95,.39-10.26-.09-20.51-.18-30.78-.17-7.34,0-14.69,.1-22.03,.06-11.41-.03-22.82-.06-34.23-.1-10.48-.05-20.96-.16-31.47-.47-10.28-.29-20.68-.55-30.99-.32-1.25,.03-2.53-.23-3.71,0h.04s-.85,.09-.85,.09h.04c-4.13-.24-8.24-.07-12.36-.14-8.56-.14-17.08-.07-25.71-.57-4.19-.24-8.72-.37-13.25-.35-3.63,.02-8.01-.41-11.57-.2-4.39,.25-4.18-.47-4.97-1.11-.29-.24-.07-.45,.3-.66,.94-.55,2.86-.94,2.43-1.71-.25-.44,2.04-.32,3.24-.32,20.28,.07,40.58,.64,60.88,1.04,13.87,.26,27.74,.32,41.61,.5,13.55,.16,27.11,.55,40.63,.5,8.08-.02,16.11,.02,24.11,.21,8.3,.18,16.6,.19,24.9,.29,5.18,.05,10.41,.12,15.6-.08h-.04Z"/></g><rect class="cls-10" x="142.92" y="89.75" width="217.45" height="60.96"/><g><path class="cls-11" d="M282.02,237.51c-.19-.02-.21-.1-.31-.15-6.21-.31-12.3-.06-18.76-.29-4.79-.19-10.32-.13-15.46-.05-9.61,.13-19.3,.26-28.9,.39-15.55,.25-31.07,.83-46.61,1.49l-4.27,.2-2.31,.12-.06-2.23-.09-4.19c-.05-2.79-.1-5.58-.14-8.36-.13-10.05-.61-20.05-.83-30.08-.14-6.98-.55-13.96-.84-20.94-.47-10.74-.88-21.49-1.58-32.22-.22-3.37-.62-6.9-.58-10.23,.03-3.37-.19-6.7-.42-10.08-.31-4.26-.46-8.47-.56-12.56l-.03-1.04-.02-.52c0-.15,0-.09,0-.15l.03-.31c.16,.01,.25,.02,.42,.03l2.56-.02c1.71-.03,3.42-.07,5.16-.1,2.31-.06,3.16-.26,3.69-.56,1.1-.61-1.55-1.16-5.82-1.21-1.54-.02-3.12,.01-4.47-.13,1.28-.2,2.96-.18,4.46-.26,2.33-.12,4.71-.3,4.97-.74,.24-.39-1.14-.7-3.02-.94-1.23-.15-2.72-.11-4.12-.09-1.05,0-2.09,.01-3.09,.02-.82,0-1.62-.01-2.41-.02-.93-.02-1.84-.04-2.73-.06,0,.44,0,.86,0,1.27,0,.65,.01,1.36,.04,2.1,.03,.6,.05,1.23,.08,1.86,.06,.81,.11,1.63,.17,2.42,.41,5.53,.74,11.05,1,16.6,.59,12.22,1.49,24.36,1.94,36.61,.26,7.13,.71,14.36,.94,21.43,.28,7.73,.56,15.37,.83,23.04,.11,3.56,.15,7.22,.47,10.62-.14,3.43-.06,6.92,.04,10.43,.06,1.76,.11,3.52,.17,5.28l.06,2.65,.03,2.96c.01,1.22,.02,2.45,.04,3.68,1.76-.07,3.51-.15,5.28-.22,1.11-.06,2.23-.11,3.35-.17,2.24-.12,4.48-.25,6.73-.37,4.51-.23,9.06-.47,13.67-.51,6.86-.09,14.17-.48,21.31-.58,13.01-.2,25.96-.55,39.03-.43,11.95,.12,23.93,.19,35.92,.61,12.46,.42,24.95,.88,37.41,1.56,5.49,.33,10.99,.61,16.49,.98l4.3,.27,3.83,.23,.96,.06c.12,.04,.05-.09,.06-.16l-.02-.24-.05-.48-.2-1.91-.33-3.18c-.07-.68-.14-1.36-.19-2.04l-.34-4.09c-.81-10.92-1.01-21.9-.89-32.88,.17-14.13,.73-28.3,1.31-42.48,.46-11.04,.76-22.13,1.12-33.19l.58-19.33c.02-.9,.04-1.78,.06-2.6,.02-1.2,.04-2.3,.03-3.23-2.63,.01-4.26,.14-4.38,.49-.11,.12-.35,.17-.73,.19-.38,.02-.89,.02-1.43,.03-4.6,.09-5.64,.36-3.82,1.16,.87,.38,1.21,.72,1.24,1.1,.02,.41,.55,.72,1.65,.95,.55,.11,1.26,.2,2.12,.27,.21,.01,.44,.03,.67,.05l.04,.02s.05,0,.09,0v.02s.02,.05,.03,.08v.02s0,.38,0,.38l-.02,.77-.07,3.1-.17,6.2c-.11,4.13-.22,8.26-.34,12.38-.23,9.96-.55,19.87-1.01,29.82-.32,6.91-.56,13.9-.72,20.78-.13,5.18-.35,10.36-.38,15.57-.02,3.36,.04,7.06-.18,10.5v-.04c.11,.78,.06,1.55-.01,2.33v-.04c-.18,1.66,.24,2.71,.14,4.48-.19,3.95,0,8.15,.19,12.27,.15,3.91-.02,7.92,.78,11.75,.07,.31,.04,1.31,.1,2,.09,1.29,.18,2.58,.28,3.87l.03,.49c0,.11,0,.07,0,.09h0s-.02,.04-.03,.05c-.02,.01-.03,.02-.06,0-.02-.02-.03-.03-.03-.03l-1.48-.06c-1.28-.04-2.56-.03-3.83,.05-.49,.03-1.71-.13-2.57-.21-1.55-.16-3.06-.32-4.72-.38l-.39,.19c-.88-.18,.1-.14,.49-.17-.87-.17-1.82-.24-2.98-.26-5.14-.09-10.34-.33-15.54-.61-1.69-.09-3.24-.27-5.09-.23-3.21,.08-6.39,.17-9.93-.31-1.3-.18-3.49-.09-4.98,.05h.11c-1.49-.04-3.05-.06-4.01-.33l.09,.02c-2.42,0-4.84-.35-7.25-.16-.21,.06-.31,.15-.94,.1Z"/><path class="cls-11" d="M170.31,212.61c0,.29-.08,.33-.13,.49,.03,2.36,.11,4.72,.19,7.07l.16,3.53c.08,1.53,.16,3.06,.24,4.59l.17,3.42,.08,1.7v.21c.05,0,.13-.06,.19-.09l.38-.21,.75-.43c1.86-1.05,3.73-2.11,5.6-3.17,.99-.61,2.09-1.03,3.14-1.55,1.07-.48,2.12-1.04,3.25-1.42,6.56-2.62,14.47-4.75,22.03-5.55,7.05-.77,14.25-.51,21.27,.75,7.02,1.27,13.84,3.57,20.18,6.76l1.9,1.01,1.26,.67,.91,.48,.45,.24c.15,.04,.3,.26,.44,.09l2.79-1.79c.6-.4,1.21-.77,1.83-1.12,2.45-1.49,5.03-2.72,7.65-3.82,5.27-2.15,10.86-3.36,16.59-3.78,5.73-.46,11.56-.22,17.41,.14,5.73,.38,11.44,1.46,16.95,3.12,2.99,.91,5.92,2,8.76,3.29,.72,.3,1.41,.65,2.11,1,.7,.33,1.4,.69,2.08,1.07,.68,.37,1.38,.73,2.04,1.14l1.62,.97,1.83,1.19,3.56,2.3,.11,.07s0-.07,.02-.1v-.27s-.04-.54-.04-.54l-.05-1.07-.1-2.14-.32-6.62c-.12-3.19-.25-6.38-.37-9.56-.48-15.24-.97-30.41-.83-45.64,.1-10.59,.14-21.19,.44-31.78,.23-8.15,.57-16.3,.96-24.45l.3-6.11c.1-2.04,.22-4.2-.11-6.46-.16-1.13-.46-2.28-.97-3.39-.49-1.11-1.23-2.16-2.09-3.01-1.74-1.7-3.77-2.69-5.65-3.54-4.79-2.2-10.12-3.69-15.09-5-5.06-1.37-10.27-1.82-15.51-1.87-6.63-.04-13.14,.55-19.38,1.64-7.36,1.3-14.42,3.55-21.31,6.66-3.26,1.5-4.32,2.32-4.95,2.92-.63,.64,.04,.64,1.6,.14,.78-.25,1.78-.62,2.95-1.11,1.2-.43,2.58-.96,4.08-1.57,1.09-.45,2.22-.81,3.3-1.21,1.09-.38,2.14-.74,3.15-.96-.91,.37-1.95,.79-3.04,1.22-1.08,.44-2.22,.82-3.26,1.3-1.6,.75-3.24,1.47-4.45,2.17-1.21,.7-2.04,1.27-2.13,1.56-.08,.25,.39,.23,1.19,.02,.81-.2,1.95-.64,3.3-1.05,.88-.28,1.82-.65,2.79-1.05,.97-.4,1.99-.75,2.97-1.12,.83-.3,1.64-.63,2.47-.89,.83-.25,1.64-.5,2.44-.75,1.6-.51,3.19-.84,4.69-1.11,2.06-.43,4.58-.95,6.88-1.42,2.03-.3,4.05-.74,6.1-.9l3.07-.33,3.08-.15,1.54-.07c.51-.01,1.03,0,1.54,0l3.08,.04c1.02,.04,2.05,.14,3.07,.21,1.02,.07,2.05,.13,3.06,.3l3.35,.46,3.31,.66c.55,.12,1.11,.2,1.65,.34l1.63,.44c1.08,.31,2.18,.54,3.24,.91l3.18,1.1c1.07,.34,2.07,.85,3.11,1.27,2.08,.85,4.16,1.8,5.6,2.96,.73,.59,1.28,1.23,1.69,1.99,.42,.75,.68,1.66,.85,2.62,.32,1.96,.18,4.17,.07,6.51-.22,4.65-.45,9.31-.67,13.97-.51,10.87-.69,21.9-.89,32.67-.21,11.78-.13,23.44,.09,35.13,.1,5.43,.16,11,.56,16.19-.07,5.23,.12,10.54,.38,15.88,.07,1.34,.14,2.67,.21,4.01l.11,1.88,.04,.48,.03,.49s.02,.1,0,.1l-.1-.07-.2-.13-.41-.27-1.09-.68c-6.47-3.82-13.62-6.4-21.01-7.98-3.69-.79-7.45-1.35-11.27-1.63-3.77-.25-7.54-.45-11.38-.52-2.65-.06-5.36,.04-8.1,.26-2.74,.27-5.51,.63-8.25,1.29-2.73,.65-5.46,1.44-8.07,2.52-1.33,.48-2.59,1.12-3.88,1.68-1.24,.65-2.52,1.24-3.72,1.95-1.1,.63-2.21,1.25-3.27,1.95l-.81,.52c-.07,.05-.15-.05-.22-.07l-.38-.2-3.36-1.77-3.47-1.54c-4.66-1.94-9.48-3.54-14.44-4.52-2.45-.61-4.98-.86-7.47-1.25-2.52-.18-5.03-.5-7.56-.47-1.26,0-2.53-.1-3.79-.01l-3.79,.17c-1.26,.06-2.52,.25-3.78,.37l-1.89,.21c-.63,.08-1.25,.21-1.88,.31l-3.43,.6-3.38,.82-1.69,.41c-.56,.15-1.11,.34-1.66,.51l-3.32,1.05c-1.09,.39-2.17,.84-3.25,1.26-1.08,.42-2.17,.84-3.21,1.36l-3.15,1.5c-.53,.23-1.03,.55-1.54,.82l-.57,.32-.47,.26-.12,.06s-.04,.03-.05,.03v-.07s-.01-.26-.01-.26l-.06-1.47c-.1-2.27-.2-4.55-.27-6.82-.17-4.55-.26-9.1-.35-13.66-.31-18.94-.23-37.95-.26-56.96-.02-8.38-.09-16.77-.25-25.17-.15-8.37-.46-16.84-.82-25.14-.02-.97,.02-1.85,.2-2.57,.18-.73,.47-1.25,.95-1.75,.97-1,2.72-1.69,4.66-2.24l2.96-.82,1.48-.41,1.5-.33,3-.67,3.03-.52c8.09-1.38,16.35-1.61,24.52-.93,5.25,.47,10.47,1.32,15.59,2.56,5.12,1.28,10.12,2.97,14.97,5.03,1.2,.54,2.43,1.02,3.6,1.62l2.37,1.19v6.59s-.06,16.18-.06,16.18c-.07,16.8,0,33.66,.04,50.49,.03,9.8,.06,19.6,.1,29.4,.02,4.69,.13,8.91,.75,9.13,.24,.08,.24,1.55,.3,3.17,.25,6.98,.55,8.54,1.29,5.74,.35-1.34,.68-1.88,1.06-1.93,.85-.12,1.2-3.44,1.12-11.18-.07-12.54-.15-25.13-.22-37.67-.11-15.15-.14-30.21-.03-45.36,.02-5.26,.04-10.54,.05-15.82,0-2.64,0-5.28-.01-7.91v-3.01s0-.46,0-.46c.03-.1-.1-.09-.15-.14l-.21-.1-.82-.41-1.47-.73c-1.21-.58-2.39-1.21-3.61-1.74-7.33-3.28-15-5.81-22.91-7.33-5.11-.94-10.8-1.5-16.09-1.92h.07c-1.2,.09-2.4,.01-3.6-.1h.07c-1.28-.11-2.33,0-3.4,.09-1.06,.09-2.15,.17-3.51,.24-6.1,.11-12.54,1.19-18.72,2.76-1.46,.4-2.93,.78-4.4,1.16-1.48,.41-3.09,.9-4.69,1.87-.79,.49-1.58,1.11-2.25,1.92-.66,.8-1.18,1.79-1.45,2.75-.55,1.94-.39,3.67-.2,5.15,.06,.48,.01,1.98,.06,3.01,.35,7.75,.05,15.63,.84,23.3,.07,.74,.02,2.6,0,3.91-.02,2.36-.08,4.66-.02,7.18l.22,.58c-.11,1.34-.15-.14-.2-.72-.11,1.33-.11,2.78-.05,4.53,.26,7.78,.26,15.69,.24,23.59,0,2.57-.13,4.94,0,7.74,.22,4.87,.47,9.68,.14,15.1-.13,1.98,.08,5.3,.29,7.56v-.17c.02,2.26,.1,4.63-.12,6.12v-.14c.12,3.67-.07,7.38,.27,11.03,.07,.31,.17,.47,.16,1.42Z"/></g></g></g><g class="cls-21"><g><circle class="cls-14" cx="372.94" cy="101.69" r="2.25"/><circle class="cls-14" cx="349.07" cy="101.69" r="2.25"/><circle class="cls-14" cx="325.2" cy="101.69" r="2.25"/><circle class="cls-14" cx="301.32" cy="101.69" r="2.25"/><circle class="cls-14" cx="277.45" cy="101.69" r="2.25"/><circle class="cls-14" cx="253.58" cy="101.69" r="2.25"/><circle class="cls-14" cx="229.71" cy="101.69" r="2.25"/><circle class="cls-14" cx="205.84" cy="101.69" r="2.25"/><circle class="cls-14" cx="181.97" cy="101.69" r="2.25"/><circle class="cls-14" cx="158.09" cy="101.69" r="2.25"/><circle class="cls-14" cx="134.22" cy="101.69" r="2.25"/><circle class="cls-14" cx="110.35" cy="101.69" r="2.25"/><circle class="cls-14" cx="372.94" cy="126.28" r="2.25"/><circle class="cls-14" cx="349.07" cy="126.28" r="2.25"/><circle class="cls-14" cx="325.2" cy="126.28" r="2.25"/><circle class="cls-14" cx="301.32" cy="126.28" r="2.25"/><circle class="cls-14" cx="277.45" cy="126.28" r="2.25"/><circle class="cls-14" cx="253.58" cy="126.28" r="2.25"/><circle class="cls-14" cx="229.71" cy="126.28" r="2.25"/><circle class="cls-14" cx="205.84" cy="126.28" r="2.25"/><circle class="cls-14" cx="181.97" cy="126.28" r="2.25"/><circle class="cls-14" cx="158.09" cy="126.28" r="2.25"/><circle class="cls-14" cx="134.22" cy="126.28" r="2.25"/><circle class="cls-14" cx="110.35" cy="126.28" r="2.25"/><circle class="cls-14" cx="372.94" cy="150.15" r="2.25"/><circle class="cls-14" cx="349.07" cy="150.15" r="2.25"/><circle class="cls-14" cx="325.2" cy="150.15" r="2.25"/><circle class="cls-14" cx="301.32" cy="150.15" r="2.25"/><circle class="cls-14" cx="277.45" cy="150.15" r="2.25"/><circle class="cls-14" cx="253.58" cy="150.15" r="2.25"/><circle class="cls-14" cx="229.71" cy="150.15" r="2.25"/><circle class="cls-14" cx="205.84" cy="150.15" r="2.25"/><circle class="cls-14" cx="181.97" cy="150.15" r="2.25"/><circle class="cls-14" cx="158.09" cy="150.15" r="2.25"/><circle class="cls-14" cx="134.22" cy="150.15" r="2.25"/><circle class="cls-14" cx="110.35" cy="150.15" r="2.25"/><circle class="cls-14" cx="372.94" cy="174.74" r="2.25"/><circle class="cls-14" cx="349.07" cy="174.74" r="2.25"/><circle class="cls-14" cx="325.2" cy="174.74" r="2.25"/><circle class="cls-14" cx="301.32" cy="174.74" r="2.25"/><circle class="cls-14" cx="277.45" cy="174.74" r="2.25"/><circle class="cls-14" cx="253.58" cy="174.74" r="2.25"/><circle class="cls-14" cx="229.71" cy="174.74" r="2.25"/><circle class="cls-14" cx="205.84" cy="174.74" r="2.25"/><circle class="cls-14" cx="181.97" cy="174.74" r="2.25"/><circle class="cls-14" cx="158.09" cy="174.74" r="2.25"/><circle class="cls-14" cx="134.22" cy="174.74" r="2.25"/><circle class="cls-14" cx="110.35" cy="174.74" r="2.25"/><circle class="cls-14" cx="372.94" cy="198.61" r="2.25"/><circle class="cls-14" cx="349.07" cy="198.61" r="2.25"/><circle class="cls-14" cx="325.2" cy="198.61" r="2.25"/><circle class="cls-14" cx="301.32" cy="198.61" r="2.25"/><circle class="cls-14" cx="277.45" cy="198.61" r="2.25"/><circle class="cls-14" cx="253.58" cy="198.61" r="2.25"/><circle class="cls-14" cx="229.71" cy="198.61" r="2.25"/><circle class="cls-14" cx="205.84" cy="198.61" r="2.25"/><circle class="cls-14" cx="181.97" cy="198.61" r="2.25"/><circle class="cls-14" cx="158.09" cy="198.61" r="2.25"/><circle class="cls-14" cx="134.22" cy="198.61" r="2.25"/><circle class="cls-14" cx="110.35" cy="198.61" r="2.25"/></g></g><g><path class="cls-10" d="M278.65,89.45c-.74,15.7-.1,31.46,1.91,47.04,3.95-4.11,8.37-7.76,13.15-10.87,2.18,4.88,6.01,9.02,10.71,11.56,3.34-15.94,4.35-32.37,2.99-48.6"/><path class="cls-11" d="M302.94,134.08c.09,.04,.24,.2,.23,0l.03-.18v-.09c.02-.06,0,.04,.04-.24,.76-4.8,1.58-9.58,2.12-14.41,.56-5.12,.74-10.28,.88-15.43,.1-3.88-.01-7.76,.07-11.65,.02-.77-.14-1.55-.22-2.33-.03-.31-.11-.73,.19-.79,.9-.17,1.78-.63,2.73-.34,.4,.12,.58,.49,.6,1.01,.21,4.34,.27,8.69,.12,13.03-.06,1.99-.36,3.98-.37,5.95,0,3.58-.36,7.15-.69,10.7-.28,2.83-.53,5.66-.9,8.48-.18,1.41-.38,2.82-.61,4.22l-.38,2.1-.05,.26c-.02,.1-.05,.28-.09,.42l-.21,.9-.41,1.78-.28,1.18-.14,.58-.07,.29c-.03,.08-.02,.25-.14,.14l-2.1-1.24c-.69-.39-1.36-.86-2.04-1.31-.17-.11-.34-.23-.49-.35l-.33-.25c-.2-.15-.4-.31-.59-.47-1.55-1.28-2.95-2.72-4.21-4.27-.66-.83-1.3-1.7-1.87-2.6l-.41-.68-.1-.15c-.07-.1-.12-.2-.18-.3-.13,.07-.27,.19-.39,.27l-.98,.7-1.23,.92c-.81,.63-1.61,1.26-2.4,1.93-.78,.66-1.56,1.34-2.31,2.03l-1.28,1.2c-.69,.66-1.39,1.35-2.08,2.07l-3.21,3.31-.52-4.16-.25-2.1-.22-2c-.15-1.53-.26-3.06-.34-4.6-.2-3.8-.37-7.64-.97-11.43-.07-.46,.15-.94-.12-1.37v.02s-.12-.31-.12-.31h0c.1-1.52-.2-3.03-.26-4.56-.1-3.17-.38-6.32-.05-9.52,.16-1.55,.22-3.23,.13-4.91-.06-1.35,.29-2.96,.06-4.29-.29-1.64,.43-1.54,1.07-1.8,.24-.1,.45,0,.66,.14,.55,.37,.96,1.09,1.73,.95,.44-.08,.34,.76,.35,1.2,.16,7.41,0,14.82,.3,22.23,.2,5.06,.7,10.1,1.21,15.14l.18,1.8,.09,.9c.01,.1,0,.09,0,.09h0s0,.01,0,.01c-.02,.03-.04,.11-.04,.21,.03,0,.09-.04,.16-.1l2.62-2.38c1.14-1.02,2.32-1.98,3.54-2.88,.61-.45,1.23-.89,1.86-1.3l.71-.48,.89-.57,1.77-1.12,.86-.53c.58,1.3,1.15,2.58,1.77,3.81l.3,.54c.08,.15,.16,.29,.25,.43,.17,.28,.34,.57,.53,.84,.73,1.11,1.56,2.16,2.47,3.14,.6,.65,1.24,1.28,1.93,1.84,.17,.14,.34,.28,.53,.41,.16,.11,.43,.3,.42,.29,.09,.03,.17,.05,.23,.03h0Z"/></g></g><g><g class="cls-19"><g class="cls-25"><g class="cls-20"><g><line class="cls-4" x1="462.5" y1="460.66" x2="2389.37" y2="-425.24"/><line class="cls-4" x1="478.18" y1="493.6" x2="2405.05" y2="-392.3"/><line class="cls-4" x1="493.86" y1="526.54" x2="2420.73" y2="-359.36"/><line class="cls-4" x1="509.54" y1="559.49" x2="2436.41" y2="-326.42"/></g></g></g></g><circle class="cls-6" cx="1446.1" cy="257.5" r="226.17"/></g></svg>