<?xml version="1.0" encoding="UTF-8"?><svg id="Layer_1" xmlns="http://www.w3.org/2000/svg" xmlns:xlink="http://www.w3.org/1999/xlink" viewBox="0 0 515 515"><defs><style>.cls-1,.cls-2,.cls-3,.cls-4,.cls-5,.cls-6,.cls-7{fill:none;}.cls-8{clip-path:url(#clippath);}.cls-9{filter:url(#AI_Shadow_3);opacity:.2;}.cls-10{fill:#eaf5ea;}.cls-11{fill:#fff;}.cls-12{fill:#a6d8b3;}.cls-13{fill:#cbcbcb;}.cls-14{fill:#aed5aa;}.cls-15{fill:#479c58;}.cls-16{fill:#48b04b;}.cls-17{clip-path:url(#clippath-1);}.cls-18{clip-path:url(#clippath-4);}.cls-19{clip-path:url(#clippath-3);}.cls-20{clip-path:url(#clippath-2);}.cls-21{clip-path:url(#clippath-7);}.cls-22{clip-path:url(#clippath-8);}.cls-23{clip-path:url(#clippath-6);}.cls-24{clip-path:url(#clippath-5);}.cls-25{clip-path:url(#clippath-9);}.cls-26{filter:url(#drop-shadow-5);}.cls-27{filter:url(#drop-shadow-2);}.cls-28{filter:url(#drop-shadow-1);}.cls-29{clip-path:url(#clippath-10);}.cls-2{stroke:#8fc588;}.cls-2,.cls-3,.cls-4,.cls-5,.cls-6,.cls-7{stroke-miterlimit:10;}.cls-3{stroke:#64b5f6;}.cls-4{stroke:#ec7d7c;}.cls-30{opacity:.5;}.cls-5{stroke:#ffcdd2;}.cls-5,.cls-6{stroke-width:.69px;}.cls-6{stroke:#aed5aa;}.cls-7{stroke:#afc6eb;stroke-width:.5px;}</style><filter id="AI_Shadow_3" x="-15%" y="-15%" width="140%" height="130%"><feGaussianBlur in="SourceAlpha" result="blur" stdDeviation="10"/><feOffset dx="0" dy="5" in="blur" result="offsetBlurredAlpha"/><feMerge><feMergeNode in="offsetBlurredAlpha"/><feMergeNode in="SourceGraphic"/></feMerge></filter><clipPath id="clippath"><circle class="cls-7" cx="257.5" cy="257.5" r="226.17"/></clipPath><filter id="drop-shadow-1" filterUnits="userSpaceOnUse"><feOffset dx="0" dy="0"/><feGaussianBlur result="blur" stdDeviation="1.09"/><feFlood flood-color="#000" flood-opacity=".15"/><feComposite in2="blur" operator="in"/><feComposite in="SourceGraphic"/></filter><clipPath id="clippath-1"><path class="cls-1" d="M427.9-188.53c1.47,1.33,2.87,1.39,4.8,.6,1.23-.5,2.77-.25,4.16-.48,4.23-.7,8.46-1.55,12.7-2.19,2.38-.36,4.89,0,7.14-.67,4.34-1.28,7.49,1.36,11.6,.68,2.52-.41,5.07-.36,7.61-.49,.62-.03,1.35-.12,1.83,.09,4.09,1.72,8.48,1.31,13.08,.09,1.21-.32,2.64-.52,3.75-.28,2.44,.53,5.44,0,7.25,1.76,.81,.79,1.54,1.64,2.29,2.47,1.18,1.31,2.07,2.9,3.57,3.88,3.45,2.27,4.47,5.69,5.89,8.96,.79,1.84,1.71,3.66,2.16,5.59,.85,3.62,1.42,7.32,2.05,11,.78,4.56,1.85,9.08,1.45,13.85-.08,1-.28,2.01-.36,3.01-.28,3.47,1.58,6.28,2.74,9.32,.85,2.22,1.71,4.44,2.47,6.68,.77,2.25,1.31,4.58,2.16,6.81,1.68,4.39,2.7,8.9,2.38,13.75-.08,1.23,.24,2.57,.9,3.6,2.25,3.53,2.55,7.61,3.59,11.5,1.21,4.48,3,8.79,4.6,13.15,.86,2.34,1.55,4.65,1.08,7.33-.31,1.76,.33,3.52,.4,5.3,.09,2.6,.03,5.23,.07,7.84,.03,1.68,.07,3.36,.24,5.01,.42,4.04,.84,8.09,1.43,12.09,.22,1.52,.84,2.98,1.41,4.42,1.27,3.24,1.88,6.3-.53,10.03-1.37,2.12-1.26,4.92-1.29,7.36-.04,3.19,.27,6.37,.76,9.48,.32,2.03,1.02,4.01,1.91,5.86,1.81,3.79,2.57,7.85,3.3,11.95,.36,1.99,1.54,3.78,2.33,5.67,.86,2.04,2.27,4,2.43,6.16,.21,2.81-.2,5.8-3.89,7.95-.94,.55-1.53,1.92-1.77,2.94-.34,1.47-.11,2.96-.31,4.45-.3,2.21-.8,4.42-1.14,6.64-.21,1.38-.56,2.83-.3,4.11,.47,2.41-1.38,4.22-2.67,6.18-1.91,2.9-3.78,5.77-4.17,9.02-.25,2.06-2.51,4.05-4.96,4.7-.93,.25-1.95,.57-2.66,1.11-1.17,.88-2.21,.51-3.39,.59-3.47,.22-6.29-1.36-9.85-1.09-2.71,.2-5.47-.44-8-1.11-1.51-.4-2.78,.11-4.16,.29-2.37,.31-4.74,.67-7.11,.99-.44,.06-.97-.08-1.31,.1-2.59,1.39-5.76,1.31-8.21,3.06-.48,.34-1.19,.48-1.81,.66-3.4,.97-6.82,1.9-10.21,2.92-.62,.19-1.16,.74-1.66,1.19-1.74,1.56-3.57,2.82-6.15,3.23-1.8,.29-3.55,1.14-5.35,1.47-.8,.15-1.89-.14-2.46-.58-2.16-1.64-4.76-1.68-7.62-.87-.76,.22-1.46,.75-2.14,1.19-1.61,1.04-2.86,2.31-5.21,2.51-1.3,.11-3.07,1.53-3.92,2.67-2.4,3.24-6.12,4.64-9.83,6.13-2.11,.85-4.22,1.69-6.37,2.43-1.08,.37-2.38,.27-3.35,.75-2.35,1.17-4.58,2.53-6.81,3.88-1.8,1.09-3.46,2.38-5.32,3.39-.89,.48-2.12,.44-3.14,.78-2.95,.99-5.93,1.96-8.79,3.14-.95,.39-1.48,1.61-2.42,2.12-2.79,1.51-5.77,2.6-8.9,3.47-2.52,.7-4.65,.96-6.85,.03-.76-.32-1.98,.04-2.88-.15-1.82-.38-3.97,.3-5.56-.89-1.53-1.15-3.48-1.41-5.85-1.05-2.01,.31-4.08-.07-6.11-.18-.87-.05-1.71-.34-2.56-.26-3.08,.29-5.08-1.28-7.44-2.22-1.25-.5-4.67-.3-5.82,.81-2.12,2.04-4.55,1.66-6.96,1.75-.43,.02-.96-.27-1.26-.12-1.74,.89-3.66,1.39-5.41,2.14-3.97,1.7-7.68,3.92-11.5,5.92-.06,.03-.13,.11-.16,.1-2.9-1-4.32,2.21-6.82,2.32-2.83,2.79-7.37,2.26-10.44,4.58-.18,.13-.49,.18-.74,.19-3.25,.22-6.5,.35-9.75,.65-2.46,.23-4.92,.63-7.37,1.06-2.97,.52-5.95,1.1-8.9,1.78-1.78,.41-3.52,1.05-5.26,1.63-1.77,.58-3.34,1.36-5.41,1.4-2.22,.05-4.57,1.23-6.89,1.77-6.13,1.43-12.17,3.24-18.46,3.83-3.18,.3-6.38,1.4-9.58,2.15-.19,.04-.39,.1-.55,.2-2.01,1.35-4.01,2.73-6.04,4.06-.52,.34-1.16,.56-1.75,.81-.23,.1-.52,.09-.74,.2-2.54,1.28-5.07,2.58-7.6,3.86-.54,.28-1.09,.58-1.66,.77-4.27,1.46-6.7,5.09-10.62,6.84-3.15,1.41-4.99,3.74-7.34,5.75-1.48,1.27-3.33,2.3-5.13,3.26-2.93,1.58-5.86,3.19-8.95,4.44-1.84,.75-4.03,1.13-5.98,1.15-3.97,.04-7.63,1.54-11.41,2.48-.79,.2-1.46,.96-2.2,1.44-.82,.52-1.66,1-2.5,1.49-.16,.1-.44,.11-.52,.23-1.74,2.31-4.78,2.75-7.28,3.81-2.44,1.03-5.19,1.39-7.79,2.12-1.72,.48-2.9,.07-4.37-.52-1.77-.71-4.08-.72-6.2-.84-1.49-.08-3.07,.05-4.58,.32-.87,.15-1.7,.76-3,1.37-1.88-1.11-4.93-.37-7.62-.68-3.55-.41-6.15,1.19-9.06,2.22-10.02,3.54-20,7.16-30,10.74-11.04,3.95-22.05,7.97-33.12,11.83-10.64,3.72-21.34,7.26-32,10.91-3.32,1.14-6.61,2.39-9.91,3.58-.42,.15-.87,.23-1.55,.41C-24.92,143.11-48.25,63.65-71.63-15.99c2.84-.91,5.67-1.82,8.5-2.73,9.85-3.19,19.68-6.42,29.54-9.56C-16.26-33.81,1.09-39.27,18.41-44.81c.88-.28,1.6-1.01,2.42-1.5,.37-.22,.77-.44,1.18-.54,2.91-.7,5.88-1.18,8.71-2.09,6.2-2,12.33-4.21,18.49-6.34,.37-.13,.96-.2,1.07-.4,1.59-2.86,6.01-4.05,6.8-7.45,.15-.65,1.63-1.2,2.42-1.85,.6-.49,1-1.15,1.62-1.63,1.04-.8,2.09-1.65,3.28-2.24,1.63-.8,3.39-1.38,5.1-2.05,2.55-1,4.41-2.53,5.81-4.64,.57-.86,2-1.4,3.05-2.08,.79-.52,1.6-1.02,2.39-1.54,.15-.1,.23-.37,.34-.39,2.66-.35,3.76-2.44,5.63-3.66,2.68-1.74,5.56-3.27,8.42-4.8,1.43-.77,2.94-1.65,4.49-1.97,1.9-.4,3.88-.26,5.82-.35,.18,0,.35,.17,.51,.14,3.44-.65,6.54,1.04,9.82,.24,2.57-.62,4.85-1.14,7.31-.56,.92,.22,2.14-.16,3.22-.34,1.32-.22,2.69-.36,3.93-.81,1.6-.58,3.1-1.43,4.64-2.17,.89-.42,1.75-1.02,2.67-1.23,2.28-.51,4.59-.89,6.9-1.23,1.84-.28,3.68-.4,5.52-.64,2.44-.32,4.9-.53,7.32-1.05,3.73-.8,6.52-3.19,9.65-5.02,2.53-1.48,5.28-2.77,8.08-3.77,1.82-.65,3.25-1.44,4.45-2.72,.38-.41,.94-1.03,1.38-1.05,3.5-.18,5.99-2.34,7.63-4.36,2.08-2.56,4.23-1.9,6.6-2.1,1.72-.14,3.56,.51,5.18-.98,.25-.23,.97-.08,1.46-.19,.75-.17,1.76-.22,2.19-.65,1.8-1.76,4.38-1.7,6.5-2.66,.93-.42,2.1-.36,3.16-.55,1.35-.24,2.61-.41,3.88-1.29,1.07-.75,2.67-.95,4.05-1.35,4.82-1.41,7.78-4.37,9.97-8.07,1.12-1.9,3.39-2.42,5.52-3.03,.83-.24,1.61-.71,2.44-.89,1.13-.24,2.28-.29,3.42-.44,.6-.08,1.42-.05,1.75-.35,2.38-2.19,5.67-2.4,8.48-3.07,2.2-.52,3.66-1.93,5.71-2.36,.69-.15,1.35-.51,2.02-.76,.77-.29,1.55-.56,2.33-.85,.66-.25,1.31-.66,1.96-.73,3.21-.35,5.79-1.51,7.57-4.03,.65-.92,1.59-1.8,2.98-1.02,.05,.03,.12,.07,.17,.05,4.03-1.44,6.46,1.61,10.04,1.45,.8-.04,1.6,.17,2.37,.34,.56,.12,1.31,.24,1.55,.59,2.04,3.05,5.88,4.4,8.99,6.42,.7,.45,1.33,.98,2.05,1.41,.32,.19,.79,.31,1.21,.3,6.44-.25,9.79,3.1,12.79,6.85,1.28,1.6,3.36,2.14,5.85,1.32,2.19-.72,4.31-1.68,6.52-2.36,2.03-.62,4.12-1.18,6.19-1.42,2.23-.26,3.34-1.94,5.17-2.68,1.62-.66,2.96-1.89,4.54-2.67,2.12-1.05,4.34-1.92,6.55-2.83,.71-.29,1.49-.46,2.24-.63,3.56-.83,6.74-2.19,9.33-4.67,.95-.91,2.3-1.57,3.55-2.22,3.37-1.74,5.88-4.22,8.65-6.52,1.63-1.35,4.17-1.96,6.33-2.83,2.32-.93,4.78-1.62,7-2.7,2.34-1.15,4.4-1.17,6.4-.31,1.63,.7,2.94,.48,4.73-.48,3.32-1.79,5.38-4.26,7.38-6.92,.63-.84,2.05-1.37,3.17-1.93,3.07-1.54,5.78-3.36,7.54-6.04,.17-.26,.67-.42,1.04-.59,1.71-.77,3.73-1.27,5.07-2.35,1.79-1.44,3.08-3.32,4.56-5.03,.42-.49,.74-1.04,1.26-1.79Z"/></clipPath><clipPath id="clippath-2"><polygon class="cls-1" points="502.72 48.41 73.94 285.12 -35.81 76.14 392.97 -160.58 502.72 48.41"/></clipPath><filter id="drop-shadow-2" filterUnits="userSpaceOnUse"><feOffset dx="0" dy="0"/><feGaussianBlur result="blur-2" stdDeviation="2"/><feFlood flood-color="#000" flood-opacity=".15"/><feComposite in2="blur-2" operator="in"/><feComposite in="SourceGraphic"/></filter><clipPath id="clippath-3"><polygon class="cls-1" points="-57.59 58.16 195.97 82.49 251.19 104.81 497.86 136.8 530.89 -123.32 -25.46 -184.08 -57.59 58.16"/></clipPath><clipPath id="clippath-4"><path class="cls-1" d="M256.7,245.64c.56,26.16,1.11,59.37,1.67,85.53,.16,7.43,.56,15.52,5.45,21.11,5.67,6.49,15.29,7.34,23.9,7.72,46.86,2.1,93.71-2.86,140.57-.77,5.91,.26,12.22,.43,17.28-2.62,9.15-5.52,9.86-18.29,9.51-28.97-.59-17.69-1.17-35.38-1.76-53.08-.23-7.08-.63-14.64-4.84-20.33-6.68-9.03-19.74-9.59-30.97-9.31-45.32,1.13-90.64,2.26-135.95,3.38-6.99,.17-14.29,.42-20.43,3.76"/></clipPath><clipPath id="clippath-5"><circle class="cls-7" cx="-343.99" cy="257.5" r="226.17"/></clipPath><clipPath id="clippath-6"><polygon class="cls-1" points="-614.37 437.2 -360.81 412.87 -305.59 390.54 -58.92 358.56 -25.89 618.68 -582.24 679.44 -614.37 437.2"/></clipPath><clipPath id="clippath-7"><circle class="cls-7" cx="844.6" cy="257.5" r="226.17"/></clipPath><filter id="drop-shadow-5" filterUnits="userSpaceOnUse"><feOffset dx="0" dy="0"/><feGaussianBlur result="blur-3" stdDeviation="1.09"/><feFlood flood-color="#000" flood-opacity=".15"/><feComposite in2="blur-3" operator="in"/><feComposite in="SourceGraphic"/></filter><clipPath id="clippath-8"><path class="cls-1" d="M714.97,687.91c-1.47-1.33-2.87-1.39-4.8-.6-1.23,.5-2.77,.25-4.16,.48-4.23,.7-8.46,1.55-12.7,2.19-2.38,.36-4.89,0-7.14,.67-4.34,1.28-7.49-1.36-11.6-.68-2.52,.41-5.07,.36-7.61,.49-.62,.03-1.35,.12-1.83-.09-4.09-1.72-8.48-1.31-13.08-.09-1.21,.32-2.64,.52-3.75,.28-2.44-.53-5.44,0-7.25-1.76-.81-.79-1.54-1.64-2.29-2.47-1.18-1.31-2.07-2.9-3.57-3.88-3.45-2.27-4.47-5.69-5.89-8.96-.79-1.84-1.71-3.66-2.16-5.59-.85-3.62-1.42-7.32-2.05-11-.78-4.56-1.85-9.08-1.45-13.85,.08-1,.28-2.01,.36-3.01,.28-3.47-1.58-6.28-2.74-9.32-.85-2.22-1.71-4.44-2.47-6.68-.77-2.25-1.31-4.58-2.16-6.81-1.68-4.39-2.7-8.9-2.38-13.75,.08-1.23-.24-2.57-.9-3.6-2.25-3.53-2.55-7.61-3.59-11.5-1.21-4.48-3-8.79-4.6-13.15-.86-2.34-1.55-4.65-1.08-7.33,.31-1.76-.33-3.52-.4-5.3-.09-2.6-.03-5.23-.07-7.84-.03-1.68-.07-3.36-.24-5.01-.42-4.04-.84-8.09-1.43-12.09-.22-1.52-.84-2.98-1.41-4.42-1.27-3.24-1.88-6.3,.53-10.03,1.37-2.12,1.26-4.92,1.29-7.36,.04-3.19-.27-6.37-.76-9.48-.32-2.03-1.02-4.01-1.91-5.86-1.81-3.79-2.57-7.85-3.3-11.95-.36-1.99-1.54-3.78-2.33-5.67-.86-2.04-2.27-4-2.43-6.16-.21-2.81,.2-5.8,3.89-7.95,.94-.55,1.53-1.92,1.77-2.94,.34-1.47,.11-2.96,.31-4.45,.3-2.21,.8-4.42,1.14-6.64,.21-1.38,.56-2.83,.3-4.11-.47-2.41,1.38-4.22,2.67-6.18,1.91-2.9,3.78-5.77,4.17-9.02,.25-2.06,2.51-4.05,4.96-4.7,.93-.25,1.95-.57,2.66-1.11,1.17-.88,2.21-.51,3.39-.59,3.47-.22,6.29,1.36,9.85,1.09,2.71-.2,5.47,.44,8,1.11,1.51,.4,2.78-.11,4.16-.29,2.37-.31,4.74-.67,7.11-.99,.44-.06,.97,.08,1.31-.1,2.59-1.39,5.76-1.31,8.21-3.06,.48-.34,1.19-.48,1.81-.66,3.4-.97,6.82-1.9,10.21-2.92,.62-.19,1.16-.74,1.66-1.19,1.74-1.56,3.57-2.82,6.15-3.23,1.8-.29,3.55-1.14,5.35-1.47,.8-.15,1.89,.14,2.46,.58,2.16,1.64,4.76,1.68,7.62,.87,.76-.22,1.46-.75,2.14-1.19,1.61-1.04,2.86-2.31,5.21-2.51,1.3-.11,3.07-1.53,3.92-2.67,2.4-3.24,6.12-4.64,9.83-6.13,2.11-.85,4.22-1.69,6.37-2.43,1.08-.37,2.38-.27,3.35-.75,2.35-1.17,4.58-2.53,6.81-3.88,1.8-1.09,3.46-2.38,5.32-3.39,.89-.48,2.12-.44,3.14-.78,2.95-.99,5.93-1.96,8.79-3.14,.95-.39,1.48-1.61,2.42-2.12,2.79-1.51,5.77-2.6,8.9-3.47,2.52-.7,4.65-.96,6.85-.03,.76,.32,1.98-.04,2.88,.15,1.82,.38,3.97-.3,5.56,.89,1.53,1.15,3.48,1.41,5.85,1.05,2.01-.31,4.08,.07,6.11,.18,.87,.05,1.71,.34,2.56,.26,3.08-.29,5.08,1.28,7.44,2.22,1.25,.5,4.67,.3,5.82-.81,2.12-2.04,4.55-1.66,6.96-1.75,.43-.02,.96,.27,1.26,.12,1.74-.89,3.66-1.39,5.41-2.14,3.97-1.7,7.68-3.92,11.5-5.92,.06-.03,.13-.11,.16-.1,2.9,1,4.32-2.21,6.82-2.32,2.83-2.79,7.37-2.26,10.44-4.58,.18-.13,.49-.18,.74-.19,3.25-.22,6.5-.35,9.75-.65,2.46-.23,4.92-.63,7.37-1.06,2.97-.52,5.95-1.1,8.9-1.78,1.78-.41,3.52-1.05,5.26-1.63,1.77-.58,3.34-1.36,5.41-1.4,2.22-.05,4.57-1.23,6.89-1.77,6.13-1.43,12.17-3.24,18.46-3.83,3.18-.3,6.38-1.4,9.58-2.15,.19-.04,.39-.1,.55-.2,2.01-1.35,4.01-2.73,6.04-4.06,.52-.34,1.16-.56,1.75-.81,.23-.1,.52-.09,.74-.2,2.54-1.28,5.07-2.58,7.6-3.86,.54-.28,1.09-.58,1.66-.77,4.27-1.46,6.7-5.09,10.62-6.84,3.15-1.41,4.99-3.74,7.34-5.75,1.48-1.27,3.33-2.3,5.13-3.26,2.93-1.58,5.86-3.19,8.95-4.44,1.84-.75,4.03-1.13,5.98-1.15,3.97-.04,7.63-1.54,11.41-2.48,.79-.2,1.46-.96,2.2-1.44,.82-.52,1.66-1,2.5-1.49,.16-.1,.44-.11,.52-.23,1.74-2.31,4.78-2.75,7.28-3.81,2.44-1.03,5.19-1.39,7.79-2.12,1.72-.48,2.9-.07,4.37,.52,1.77,.71,4.08,.72,6.2,.84,1.49,.08,3.07-.05,4.58-.32,.87-.15,1.7-.76,3-1.37,1.88,1.11,4.93,.37,7.62,.68,3.55,.41,6.15-1.19,9.06-2.22,10.02-3.54,20-7.16,30-10.74,11.04-3.95,22.05-7.97,33.12-11.83,10.64-3.72,21.34-7.26,32-10.91,3.32-1.14,6.61-2.39,9.91-3.58,.42-.15,.87-.23,1.55-.41,23.34,79.52,46.67,158.98,70.05,238.61-2.84,.91-5.67,1.82-8.5,2.73-9.85,3.19-19.68,6.42-29.54,9.56-17.33,5.53-34.68,10.99-52,16.53-.88,.28-1.6,1.01-2.42,1.5-.37,.22-.77,.44-1.18,.54-2.91,.7-5.88,1.18-8.71,2.09-6.2,2-12.33,4.21-18.49,6.34-.37,.13-.96,.2-1.07,.4-1.59,2.86-6.01,4.05-6.8,7.45-.15,.65-1.63,1.2-2.42,1.85-.6,.49-1,1.15-1.62,1.63-1.04,.8-2.09,1.65-3.28,2.24-1.63,.8-3.39,1.38-5.1,2.05-2.55,1-4.41,2.53-5.81,4.64-.57,.86-2,1.4-3.05,2.08-.79,.52-1.6,1.02-2.39,1.54-.15,.1-.23,.37-.34,.39-2.66,.35-3.76,2.44-5.63,3.66-2.68,1.74-5.56,3.27-8.42,4.8-1.43,.77-2.94,1.65-4.49,1.97-1.9,.4-3.88,.26-5.82,.35-.18,0-.35-.17-.51-.14-3.44,.65-6.54-1.04-9.82-.24-2.57,.62-4.85,1.14-7.31,.56-.92-.22-2.14,.16-3.22,.34-1.32,.22-2.69,.36-3.93,.81-1.6,.58-3.1,1.43-4.64,2.17-.89,.42-1.75,1.02-2.67,1.23-2.28,.51-4.59,.89-6.9,1.23-1.84,.28-3.68,.4-5.52,.64-2.44,.32-4.9,.53-7.32,1.05-3.73,.8-6.52,3.19-9.65,5.02-2.53,1.48-5.28,2.77-8.08,3.77-1.82,.65-3.25,1.44-4.45,2.72-.38,.41-.94,1.03-1.38,1.05-3.5,.18-5.99,2.34-7.63,4.36-2.08,2.56-4.23,1.9-6.6,2.1-1.72,.14-3.56-.51-5.18,.98-.25,.23-.97,.08-1.46,.19-.75,.17-1.76,.22-2.19,.65-1.8,1.76-4.38,1.7-6.5,2.66-.93,.42-2.1,.36-3.16,.55-1.35,.24-2.61,.41-3.88,1.29-1.07,.75-2.67,.95-4.05,1.35-4.82,1.41-7.78,4.37-9.97,8.07-1.12,1.9-3.39,2.42-5.52,3.03-.83,.24-1.61,.71-2.44,.89-1.13,.24-2.28,.29-3.42,.44-.6,.08-1.42,.05-1.75,.35-2.38,2.19-5.67,2.4-8.48,3.07-2.2,.52-3.66,1.93-5.71,2.36-.69,.15-1.35,.51-2.02,.76-.77,.29-1.55,.56-2.33,.85-.66,.25-1.31,.66-1.96,.73-3.21,.35-5.79,1.51-7.57,4.03-.65,.92-1.59,1.8-2.98,1.02-.05-.03-.12-.07-.17-.05-4.03,1.44-6.46-1.61-10.04-1.45-.8,.04-1.6-.17-2.37-.34-.56-.12-1.31-.24-1.55-.59-2.04-3.05-5.88-4.4-8.99-6.42-.7-.45-1.33-.98-2.05-1.41-.32-.19-.79-.31-1.21-.3-6.44,.25-9.79-3.1-12.79-6.85-1.28-1.6-3.36-2.14-5.85-1.32-2.19,.72-4.31,1.68-6.52,2.36-2.03,.62-4.12,1.18-6.19,1.42-2.23,.26-3.34,1.94-5.17,2.68-1.62,.66-2.96,1.89-4.54,2.67-2.12,1.05-4.34,1.92-6.55,2.83-.71,.29-1.49,.46-2.24,.63-3.56,.83-6.74,2.19-9.33,4.67-.95,.91-2.3,1.57-3.55,2.22-3.37,1.74-5.88,4.22-8.65,6.52-1.63,1.35-4.17,1.96-6.33,2.83-2.32,.93-4.78,1.62-7,2.7-2.34,1.15-4.4,1.17-6.4,.31-1.63-.7-2.94-.48-4.73,.48-3.32,1.79-5.38,4.26-7.38,6.92-.63,.84-2.05,1.37-3.17,1.93-3.07,1.54-5.78,3.36-7.54,6.04-.17,.26-.67,.42-1.04,.59-1.71,.77-3.73,1.27-5.07,2.35-1.79,1.44-3.08,3.32-4.56,5.03-.42,.49-.74,1.04-1.26,1.79Z"/></clipPath><clipPath id="clippath-9"><polygon class="cls-1" points="640.16 450.98 1068.94 214.26 1178.69 423.25 749.91 659.96 640.16 450.98"/></clipPath><clipPath id="clippath-10"><polygon class="cls-1" points="1114.98 457.2 861.43 432.87 806.2 410.54 559.53 378.56 526.51 638.68 1082.85 699.44 1114.98 457.2"/></clipPath></defs><g><g id="svg_shadow" class="cls-9"><circle class="cls-13" cx="257.5" cy="257.5" r="241.5"/></g><g><path class="cls-11" d="M257.5,491.5c-62.5,0-121.27-24.34-165.46-68.54-44.2-44.2-68.54-102.96-68.54-165.46s24.34-121.27,68.54-165.46S195,23.5,257.5,23.5s121.27,24.34,165.46,68.54c44.2,44.2,68.54,102.96,68.54,165.46s-24.34,121.27-68.54,165.46-102.96,68.54-165.46,68.54Z"/><path class="cls-11" d="M257.5,31c30.58,0,60.25,5.99,88.16,17.79,26.97,11.41,51.19,27.74,72,48.55s37.14,45.03,48.55,72c11.81,27.91,17.79,57.58,17.79,88.16s-5.99,60.25-17.79,88.16c-11.41,26.97-27.74,51.19-48.55,72-20.81,20.81-45.03,37.14-72,48.55-27.91,11.81-57.58,17.79-88.16,17.79s-60.25-5.99-88.16-17.79c-26.97-11.41-51.19-27.74-72-48.55-20.81-20.81-37.14-45.03-48.55-72-11.81-27.91-17.79-57.58-17.79-88.16s5.99-60.25,17.79-88.16c11.41-26.97,27.74-51.19,48.55-72,20.81-20.81,45.03-37.14,72-48.55,27.91-11.81,57.58-17.79,88.16-17.79m0-15C124.12,16,16,124.12,16,257.5s108.12,241.5,241.5,241.5,241.5-108.12,241.5-241.5S390.88,16,257.5,16h0Z"/></g><g><circle class="cls-1" cx="257.5" cy="257.5" r="226.52"/><path class="cls-1" d="M257.5,30.96c60.51,0,117.4,23.56,160.19,66.35,42.79,42.79,66.35,99.68,66.35,160.19s-23.56,117.4-66.35,160.19c-42.79,42.79-99.68,66.35-160.19,66.35s-117.4-23.56-160.19-66.35c-42.79-42.79-66.35-99.68-66.35-160.19s23.56-117.4,66.35-160.19C140.1,54.52,196.99,30.96,257.5,30.96Z"/><g><g class="cls-8"><g><line class="cls-7" x1="498.97" y1="671.73" x2="498.97" y2="-156.73"/><line class="cls-7" x1="452.95" y1="671.73" x2="452.95" y2="-156.73"/><line class="cls-7" x1="406.92" y1="671.73" x2="406.92" y2="-156.73"/><line class="cls-7" x1="360.9" y1="671.73" x2="360.9" y2="-156.73"/><line class="cls-7" x1="314.87" y1="671.73" x2="314.87" y2="-156.73"/><line class="cls-7" x1="268.84" y1="671.73" x2="268.84" y2="-156.73"/><line class="cls-7" x1="222.82" y1="671.73" x2="222.82" y2="-156.73"/><line class="cls-7" x1="176.79" y1="671.73" x2="176.79" y2="-156.73"/><line class="cls-7" x1="130.77" y1="671.73" x2="130.77" y2="-156.73"/><line class="cls-7" x1="84.74" y1="671.73" x2="84.74" y2="-156.73"/><line class="cls-7" x1="38.72" y1="671.73" x2="38.72" y2="-156.73"/><line class="cls-7" x1="-99.36" y1="487.63" x2="614.36" y2="487.63"/><line class="cls-7" x1="-99.36" y1="441.6" x2="614.36" y2="441.6"/><line class="cls-7" x1="-99.36" y1="395.58" x2="614.36" y2="395.58"/><line class="cls-7" x1="-99.36" y1="349.55" x2="614.36" y2="349.55"/><line class="cls-7" x1="-99.36" y1="303.53" x2="614.36" y2="303.53"/><line class="cls-7" x1="-99.36" y1="257.5" x2="614.36" y2="257.5"/><line class="cls-7" x1="-99.36" y1="211.47" x2="614.36" y2="211.47"/><line class="cls-7" x1="-99.36" y1="165.45" x2="614.36" y2="165.45"/><line class="cls-7" x1="-99.36" y1="119.42" x2="614.36" y2="119.42"/><line class="cls-7" x1="-99.36" y1="73.4" x2="614.36" y2="73.4"/><line class="cls-7" x1="-99.36" y1="27.37" x2="614.36" y2="27.37"/></g><g id="TfnBy8" class="cls-28"><path class="cls-10" d="M427.74-188.84c1.47,1.33,2.87,1.39,4.8,.6,1.23-.5,2.77-.25,4.16-.48,4.23-.7,8.46-1.55,12.7-2.19,2.38-.36,4.89,0,7.14-.67,4.34-1.28,7.49,1.36,11.6,.68,2.52-.41,5.07-.36,7.61-.49,.62-.03,1.35-.12,1.83,.09,4.09,1.72,8.48,1.31,13.08,.09,1.21-.32,2.64-.52,3.75-.28,2.44,.53,5.44,0,7.25,1.76,.81,.79,1.54,1.64,2.29,2.47,1.18,1.31,2.07,2.9,3.57,3.88,3.45,2.27,4.47,5.69,5.89,8.96,.79,1.84,1.71,3.66,2.16,5.59,.85,3.62,1.42,7.32,2.05,11,.78,4.56,1.85,9.08,1.45,13.85-.08,1-.28,2.01-.36,3.01-.28,3.47,1.58,6.28,2.74,9.32,.85,2.22,1.71,4.44,2.47,6.68,.77,2.25,1.31,4.58,2.16,6.81,1.68,4.39,2.7,8.9,2.38,13.75-.08,1.23,.24,2.57,.9,3.6,2.25,3.53,2.55,7.61,3.59,11.5,1.21,4.48,3,8.79,4.6,13.15,.86,2.34,1.55,4.65,1.08,7.33-.31,1.76,.33,3.52,.4,5.3,.09,2.6,.03,5.23,.07,7.84,.03,1.68,.07,3.36,.24,5.01,.42,4.04,.84,8.09,1.43,12.09,.22,1.52,.84,2.98,1.41,4.42,1.27,3.24,1.88,6.3-.53,10.03-1.37,2.12-1.26,4.92-1.29,7.36-.04,3.19,.27,6.37,.76,9.48,.32,2.03,1.02,4.01,1.91,5.86,1.81,3.79,2.57,7.85,3.3,11.95,.36,1.99,1.54,3.78,2.33,5.67,.86,2.04,2.27,4,2.43,6.16,.21,2.81-.2,5.8-3.89,7.95-.94,.55-1.53,1.92-1.77,2.94-.34,1.47-.11,2.96-.31,4.45-.3,2.21-.8,4.42-1.14,6.64-.21,1.38-.56,2.83-.3,4.11,.47,2.41-1.38,4.22-2.67,6.18-1.91,2.9-3.78,5.77-4.17,9.02-.25,2.06-2.51,4.05-4.96,4.7-.93,.25-1.95,.57-2.66,1.11-1.17,.88-2.21,.51-3.39,.59-3.47,.22-6.29-1.36-9.85-1.09-2.71,.2-5.47-.44-8-1.11-1.51-.4-2.78,.11-4.16,.29-2.37,.31-4.74,.67-7.11,.99-.44,.06-.97-.08-1.31,.1-2.59,1.39-5.76,1.31-8.21,3.06-.48,.34-1.19,.48-1.81,.66-3.4,.97-6.82,1.9-10.21,2.92-.62,.19-1.16,.74-1.66,1.19-1.74,1.56-3.57,2.82-6.15,3.23-1.8,.29-3.55,1.14-5.35,1.47-.8,.15-1.89-.14-2.46-.58-2.16-1.64-4.76-1.68-7.62-.87-.76,.22-1.46,.75-2.14,1.19-1.61,1.04-2.86,2.31-5.21,2.51-1.3,.11-3.07,1.53-3.92,2.67-2.4,3.24-6.12,4.64-9.83,6.13-2.11,.85-4.22,1.69-6.37,2.43-1.08,.37-2.38,.27-3.35,.75-2.35,1.17-4.58,2.53-6.81,3.88-1.8,1.09-3.46,2.38-5.32,3.39-.89,.48-2.12,.44-3.14,.78-2.95,.99-5.93,1.96-8.79,3.14-.95,.39-1.48,1.61-2.42,2.12-2.79,1.51-5.77,2.6-8.9,3.47-2.52,.7-4.65,.96-6.85,.03-.76-.32-1.98,.04-2.88-.15-1.82-.38-3.97,.3-5.56-.89-1.53-1.15-3.48-1.41-5.85-1.05-2.01,.31-4.08-.07-6.11-.18-.87-.05-1.71-.34-2.56-.26-3.08,.29-5.08-1.28-7.44-2.22-1.25-.5-4.67-.3-5.82,.81-2.12,2.04-4.55,1.66-6.96,1.75-.43,.02-.96-.27-1.26-.12-1.74,.89-3.66,1.39-5.41,2.14-3.97,1.7-7.68,3.92-11.5,5.92-.06,.03-.13,.11-.16,.1-2.9-1-4.32,2.21-6.82,2.32-2.83,2.79-7.37,2.26-10.44,4.58-.18,.13-.49,.18-.74,.19-3.25,.22-6.5,.35-9.75,.65-2.46,.23-4.92,.63-7.37,1.06-2.97,.52-5.95,1.1-8.9,1.78-1.78,.41-3.52,1.05-5.26,1.63-1.77,.58-3.34,1.36-5.41,1.4-2.22,.05-4.57,1.23-6.89,1.77-6.13,1.43-12.17,3.24-18.46,3.83-3.18,.3-6.38,1.4-9.58,2.15-.19,.04-.39,.1-.55,.2-2.01,1.35-4.01,2.73-6.04,4.06-.52,.34-1.16,.56-1.75,.81-.23,.1-.52,.09-.74,.2-2.54,1.28-5.07,2.58-7.6,3.86-.54,.28-1.09,.58-1.66,.77-4.27,1.46-6.7,5.09-10.62,6.84-3.15,1.41-4.99,3.74-7.34,5.75-1.48,1.27-3.33,2.3-5.13,3.26-2.93,1.58-5.86,3.19-8.95,4.44-1.84,.75-4.03,1.13-5.98,1.15-3.97,.04-7.63,1.54-11.41,2.48-.79,.2-1.46,.96-2.2,1.44-.82,.52-1.66,1-2.5,1.49-.16,.1-.44,.11-.52,.23-1.74,2.31-4.78,2.75-7.28,3.81-2.44,1.03-5.19,1.39-7.79,2.12-1.72,.48-2.9,.07-4.37-.52-1.77-.71-4.08-.72-6.2-.84-1.49-.08-3.07,.05-4.58,.32-.87,.15-1.7,.76-3,1.37-1.88-1.11-4.93-.37-7.62-.68-3.55-.41-6.15,1.19-9.06,2.22-10.02,3.54-20,7.16-30,10.74-11.04,3.95-22.05,7.97-33.12,11.83-10.64,3.72-21.34,7.26-32,10.91-3.32,1.14-6.61,2.39-9.91,3.58-.42,.15-.87,.23-1.55,.41C-25.08,142.79-48.41,63.33-71.79-16.31c2.84-.91,5.67-1.82,8.5-2.73,9.85-3.19,19.68-6.42,29.54-9.56C-16.42-34.13,.93-39.59,18.25-45.13c.88-.28,1.6-1.01,2.42-1.5,.37-.22,.77-.44,1.18-.54,2.91-.7,5.88-1.18,8.71-2.09,6.2-2,12.33-4.21,18.49-6.34,.37-.13,.96-.2,1.07-.4,1.59-2.86,6.01-4.05,6.8-7.45,.15-.65,1.63-1.2,2.42-1.85,.6-.49,1-1.15,1.62-1.63,1.04-.8,2.09-1.65,3.28-2.24,1.63-.8,3.39-1.38,5.1-2.05,2.55-1,4.41-2.53,5.81-4.64,.57-.86,2-1.4,3.05-2.08,.79-.52,1.6-1.02,2.39-1.54,.15-.1,.23-.37,.34-.39,2.66-.35,3.76-2.44,5.63-3.66,2.68-1.74,5.56-3.27,8.42-4.8,1.43-.77,2.94-1.65,4.49-1.97,1.9-.4,3.88-.26,5.82-.35,.18,0,.35,.17,.51,.14,3.44-.65,6.54,1.04,9.82,.24,2.57-.62,4.85-1.14,7.31-.56,.92,.22,2.14-.16,3.22-.34,1.32-.22,2.69-.36,3.93-.81,1.6-.58,3.1-1.43,4.64-2.17,.89-.42,1.75-1.02,2.67-1.23,2.28-.51,4.59-.89,6.9-1.23,1.84-.28,3.68-.4,5.52-.64,2.44-.32,4.9-.53,7.32-1.05,3.73-.8,6.52-3.19,9.65-5.02,2.53-1.48,5.28-2.77,8.08-3.77,1.82-.65,3.25-1.44,4.45-2.72,.38-.41,.94-1.03,1.38-1.05,3.5-.18,5.99-2.34,7.63-4.36,2.08-2.56,4.23-1.9,6.6-2.1,1.72-.14,3.56,.51,5.18-.98,.25-.23,.97-.08,1.46-.19,.75-.17,1.76-.22,2.19-.65,1.8-1.76,4.38-1.7,6.5-2.66,.93-.42,2.1-.36,3.16-.55,1.35-.24,2.61-.41,3.88-1.29,1.07-.75,2.67-.95,4.05-1.35,4.82-1.41,7.78-4.37,9.97-8.07,1.12-1.9,3.39-2.42,5.52-3.03,.83-.24,1.61-.71,2.44-.89,1.13-.24,2.28-.29,3.42-.44,.6-.08,1.42-.05,1.75-.35,2.38-2.19,5.67-2.4,8.48-3.07,2.2-.52,3.66-1.93,5.71-2.36,.69-.15,1.35-.51,2.02-.76,.77-.29,1.55-.56,2.33-.85,.66-.25,1.31-.66,1.96-.73,3.21-.35,5.79-1.51,7.57-4.03,.65-.92,1.59-1.8,2.98-1.02,.05,.03,.12,.07,.17,.05,4.03-1.44,6.46,1.61,10.04,1.45,.8-.04,1.6,.17,2.37,.34,.56,.12,1.31,.24,1.55,.59,2.04,3.05,5.88,4.4,8.99,6.42,.7,.45,1.33,.98,2.05,1.41,.32,.19,.79,.31,1.21,.3,6.44-.25,9.79,3.1,12.79,6.85,1.28,1.6,3.36,2.14,5.85,1.32,2.19-.72,4.31-1.68,6.52-2.36,2.03-.62,4.12-1.18,6.19-1.42,2.23-.26,3.34-1.94,5.17-2.68,1.62-.66,2.96-1.89,4.54-2.67,2.12-1.05,4.34-1.92,6.55-2.83,.71-.29,1.49-.46,2.24-.63,3.56-.83,6.74-2.19,9.33-4.67,.95-.91,2.3-1.57,3.55-2.22,3.37-1.74,5.88-4.22,8.65-6.52,1.63-1.35,4.17-1.96,6.33-2.83,2.32-.93,4.78-1.62,7-2.7,2.34-1.15,4.4-1.17,6.4-.31,1.63,.7,2.94,.48,4.73-.48,3.32-1.79,5.38-4.26,7.38-6.92,.63-.84,2.05-1.37,3.17-1.93,3.07-1.54,5.78-3.36,7.54-6.04,.17-.26,.67-.42,1.04-.59,1.71-.77,3.73-1.27,5.07-2.35,1.79-1.44,3.08-3.32,4.56-5.03,.42-.49,.74-1.04,1.26-1.79Z"/><g class="cls-17"><g class="cls-30"><g class="cls-20"><g><line class="cls-6" x1="507.73" y1="290.84" x2="494" y2="-125.38"/><line class="cls-6" x1="484.18" y1="291.61" x2="470.44" y2="-124.61"/><line class="cls-6" x1="460.63" y1="292.39" x2="446.89" y2="-123.83"/><line class="cls-6" x1="437.08" y1="293.17" x2="423.34" y2="-123.05"/><line class="cls-6" x1="413.52" y1="293.94" x2="399.79" y2="-122.27"/><line class="cls-6" x1="389.97" y1="294.72" x2="376.24" y2="-121.5"/><line class="cls-6" x1="366.42" y1="295.5" x2="352.69" y2="-120.72"/><line class="cls-6" x1="342.87" y1="296.28" x2="329.13" y2="-119.94"/><line class="cls-6" x1="319.32" y1="297.05" x2="305.58" y2="-119.17"/><line class="cls-6" x1="295.77" y1="297.83" x2="282.03" y2="-118.39"/><line class="cls-6" x1="272.21" y1="298.61" x2="258.48" y2="-117.61"/><line class="cls-6" x1="248.66" y1="299.38" x2="234.93" y2="-116.83"/><line class="cls-6" x1="225.11" y1="300.16" x2="211.38" y2="-116.06"/><line class="cls-6" x1="201.56" y1="300.94" x2="187.82" y2="-115.28"/><line class="cls-6" x1="178.01" y1="301.72" x2="164.27" y2="-114.5"/><line class="cls-6" x1="154.46" y1="302.49" x2="140.72" y2="-113.73"/><line class="cls-6" x1="130.9" y1="303.27" x2="117.17" y2="-112.95"/><line class="cls-6" x1="107.35" y1="304.05" x2="93.62" y2="-112.17"/><line class="cls-6" x1="83.8" y1="304.82" x2="70.07" y2="-111.39"/><line class="cls-6" x1="60.25" y1="305.6" x2="46.51" y2="-110.62"/><line class="cls-6" x1="36.7" y1="306.38" x2="22.96" y2="-109.84"/><line class="cls-6" x1="13.14" y1="307.16" x2="-.59" y2="-109.06"/><line class="cls-6" x1="-58.27" y1="286.36" x2="695.38" y2="261.5"/><line class="cls-6" x1="-59.04" y1="263.24" x2="694.62" y2="238.37"/><line class="cls-6" x1="-59.8" y1="240.12" x2="693.86" y2="215.25"/><line class="cls-6" x1="-60.56" y1="216.99" x2="693.09" y2="192.13"/><line class="cls-6" x1="-61.33" y1="193.87" x2="692.33" y2="169"/><line class="cls-6" x1="-62.09" y1="170.75" x2="691.57" y2="145.88"/><line class="cls-6" x1="-62.85" y1="147.62" x2="690.8" y2="122.76"/><line class="cls-6" x1="-63.61" y1="124.5" x2="690.04" y2="99.63"/><line class="cls-6" x1="-64.38" y1="101.38" x2="689.28" y2="76.51"/><line class="cls-6" x1="-65.14" y1="78.25" x2="688.51" y2="53.39"/><line class="cls-6" x1="-65.9" y1="55.13" x2="687.75" y2="30.26"/><line class="cls-6" x1="-66.67" y1="32.01" x2="686.99" y2="7.14"/><line class="cls-6" x1="-67.43" y1="8.89" x2="686.22" y2="-15.98"/></g></g></g></g></g><g><g class="cls-27"><polygon class="cls-14" points="-57.59 58.16 195.97 82.49 251.19 104.81 497.86 136.8 530.89 -123.32 -25.46 -184.08 -57.59 58.16"/></g><g class="cls-30"><g class="cls-19"><g><g><line class="cls-2" x1="640.05" y1="-1007.53" x2="483.42" y2="678.05"/><line class="cls-2" x1="603.69" y1="-1010.52" x2="447.06" y2="675.06"/><line class="cls-2" x1="567.33" y1="-1013.51" x2="410.7" y2="672.07"/><line class="cls-2" x1="530.97" y1="-1016.5" x2="374.34" y2="669.08"/><line class="cls-2" x1="494.61" y1="-1019.49" x2="337.98" y2="666.09"/><line class="cls-2" x1="458.25" y1="-1022.48" x2="301.62" y2="663.1"/><line class="cls-2" x1="421.89" y1="-1025.47" x2="265.26" y2="660.12"/><line class="cls-2" x1="385.53" y1="-1028.45" x2="228.9" y2="657.13"/><line class="cls-2" x1="349.17" y1="-1031.44" x2="192.54" y2="654.14"/><line class="cls-2" x1="312.81" y1="-1034.43" x2="156.18" y2="651.15"/><line class="cls-2" x1="276.45" y1="-1037.42" x2="119.82" y2="648.16"/><line class="cls-2" x1="240.09" y1="-1040.41" x2="83.46" y2="645.17"/><line class="cls-2" x1="203.73" y1="-1043.4" x2="47.1" y2="642.18"/><line class="cls-2" x1="167.37" y1="-1046.39" x2="10.74" y2="639.19"/><line class="cls-2" x1="131.01" y1="-1049.38" x2="-25.62" y2="636.21"/><line class="cls-2" x1="94.65" y1="-1052.37" x2="-61.98" y2="633.22"/><line class="cls-2" x1="58.29" y1="-1055.35" x2="-98.34" y2="630.23"/><line class="cls-2" x1="21.93" y1="-1058.34" x2="-134.7" y2="627.24"/></g><g><line class="cls-2" x1="1196.38" y1="54.7" x2="-730.49" y2="940.6"/><line class="cls-2" x1="1180.7" y1="21.75" x2="-746.17" y2="907.66"/><line class="cls-2" x1="1165.02" y1="-11.19" x2="-761.85" y2="874.72"/><line class="cls-2" x1="1149.34" y1="-44.13" x2="-777.53" y2="841.78"/><line class="cls-2" x1="1133.66" y1="-77.07" x2="-793.21" y2="808.83"/><line class="cls-2" x1="1117.98" y1="-110.01" x2="-808.89" y2="775.89"/><line class="cls-2" x1="1102.3" y1="-142.95" x2="-824.57" y2="742.95"/><line class="cls-2" x1="1086.62" y1="-175.9" x2="-840.25" y2="710.01"/><line class="cls-2" x1="1070.94" y1="-208.84" x2="-855.93" y2="677.07"/><line class="cls-2" x1="1055.26" y1="-241.78" x2="-871.61" y2="644.12"/><line class="cls-2" x1="1039.58" y1="-274.72" x2="-887.29" y2="611.18"/><line class="cls-2" x1="1023.9" y1="-307.66" x2="-902.97" y2="578.24"/><line class="cls-2" x1="1008.22" y1="-340.61" x2="-918.65" y2="545.3"/><line class="cls-2" x1="992.54" y1="-373.55" x2="-934.34" y2="512.36"/><line class="cls-2" x1="976.86" y1="-406.49" x2="-950.02" y2="479.41"/><line class="cls-2" x1="961.18" y1="-439.43" x2="-965.7" y2="446.47"/><line class="cls-2" x1="945.49" y1="-472.37" x2="-981.38" y2="413.53"/><line class="cls-2" x1="929.81" y1="-505.32" x2="-997.06" y2="380.59"/><line class="cls-2" x1="914.13" y1="-538.26" x2="-1012.74" y2="347.65"/><line class="cls-2" x1="898.45" y1="-571.2" x2="-1028.42" y2="314.7"/><line class="cls-2" x1="882.77" y1="-604.14" x2="-1044.1" y2="281.76"/><line class="cls-2" x1="867.09" y1="-637.08" x2="-1059.78" y2="248.82"/><line class="cls-2" x1="851.41" y1="-670.03" x2="-1075.46" y2="215.88"/><line class="cls-2" x1="835.73" y1="-702.97" x2="-1091.14" y2="182.94"/><line class="cls-2" x1="820.05" y1="-735.91" x2="-1106.82" y2="149.99"/><line class="cls-2" x1="804.37" y1="-768.85" x2="-1122.5" y2="117.05"/><line class="cls-2" x1="788.69" y1="-801.79" x2="-1138.18" y2="84.11"/><line class="cls-2" x1="773.01" y1="-834.74" x2="-1153.86" y2="51.17"/><line class="cls-2" x1="757.33" y1="-867.68" x2="-1169.54" y2="18.23"/></g><g><line class="cls-2" x1="-1403.87" y1="-183.01" x2="326.78" y2="1042.76"/><line class="cls-2" x1="-1382.39" y1="-212.5" x2="348.26" y2="1013.27"/><line class="cls-2" x1="-1360.91" y1="-241.99" x2="369.74" y2="983.78"/><line class="cls-2" x1="-1339.43" y1="-271.48" x2="391.22" y2="954.29"/><line class="cls-2" x1="-1317.95" y1="-300.97" x2="412.7" y2="924.8"/><line class="cls-2" x1="-1296.47" y1="-330.46" x2="434.19" y2="895.31"/><line class="cls-2" x1="-1274.98" y1="-359.94" x2="455.67" y2="865.82"/><line class="cls-2" x1="-1253.5" y1="-389.43" x2="477.15" y2="836.33"/><line class="cls-2" x1="-1232.02" y1="-418.92" x2="498.63" y2="806.85"/><line class="cls-2" x1="-1210.54" y1="-448.41" x2="520.11" y2="777.36"/><line class="cls-2" x1="-1189.06" y1="-477.9" x2="541.6" y2="747.87"/><line class="cls-2" x1="-1167.58" y1="-507.39" x2="563.08" y2="718.38"/><line class="cls-2" x1="-1146.09" y1="-536.88" x2="584.56" y2="688.89"/><line class="cls-2" x1="-1124.61" y1="-566.37" x2="606.04" y2="659.4"/><line class="cls-2" x1="-1103.13" y1="-595.85" x2="627.52" y2="629.91"/><line class="cls-2" x1="-1081.65" y1="-625.34" x2="649" y2="600.42"/><line class="cls-2" x1="-1060.17" y1="-654.83" x2="670.49" y2="570.94"/><line class="cls-2" x1="-1038.68" y1="-684.32" x2="691.97" y2="541.45"/><line class="cls-2" x1="-1017.2" y1="-713.81" x2="713.45" y2="511.96"/><line class="cls-2" x1="-995.72" y1="-743.3" x2="734.93" y2="482.47"/><line class="cls-2" x1="-974.24" y1="-772.79" x2="756.41" y2="452.98"/><line class="cls-2" x1="-952.76" y1="-802.28" x2="777.89" y2="423.49"/><line class="cls-2" x1="-931.28" y1="-831.76" x2="799.38" y2="394"/><line class="cls-2" x1="-909.79" y1="-861.25" x2="820.86" y2="364.51"/><line class="cls-2" x1="-888.31" y1="-890.74" x2="842.34" y2="335.03"/><line class="cls-2" x1="-866.83" y1="-920.23" x2="863.82" y2="305.54"/><line class="cls-2" x1="-845.35" y1="-949.72" x2="885.3" y2="276.05"/><line class="cls-2" x1="-823.87" y1="-979.21" x2="906.79" y2="246.56"/><line class="cls-2" x1="-802.39" y1="-1008.7" x2="928.27" y2="217.07"/><line class="cls-2" x1="-780.9" y1="-1038.19" x2="949.75" y2="187.58"/><line class="cls-2" x1="-759.42" y1="-1067.67" x2="971.23" y2="158.09"/><line class="cls-2" x1="-737.94" y1="-1097.16" x2="992.71" y2="128.6"/><line class="cls-2" x1="-716.46" y1="-1126.65" x2="1014.19" y2="99.12"/><line class="cls-2" x1="-694.98" y1="-1156.14" x2="1035.68" y2="69.63"/><line class="cls-2" x1="-673.49" y1="-1185.63" x2="1057.16" y2="40.14"/><line class="cls-2" x1="-652.01" y1="-1215.12" x2="1078.64" y2="10.65"/></g></g></g></g></g></g><circle class="cls-7" cx="257.5" cy="257.5" r="226.17"/></g></g><g><g><polygon class="cls-16" points="411.39 191.29 411.39 191.29 411.39 191.28 411.39 191.29"/><polygon class="cls-16" points="411.82 197.34 411.82 197.34 411.82 197.33 411.82 197.34"/><path class="cls-16" d="M413.39,151.9c.63-.1,1.1,.01,1.16,.73,.18,1.93-.13,3.87-.03,5.79h.01s.01,.11,.01,.11h0c-.04,1.27,.37,2.5,.38,3.75,0,2.21,.43,4.39,.29,6.63-.16,2.48,.25,4.97,.25,7.47,.01,2.99,.28,5.96,.58,8.93,.24,2.52,.6,5.03,.76,7.55,.11,1.75,0,3.52,0,5.28,0,.64,.1,1.28,.11,1.92,.01,.78,.17,1.49-.33,2.32-.42,.69-.04,1.71-.04,2.58,0,1.21-.12,2.43,0,3.63,.13,1.23-.13,2.49,.37,3.69h0c0,.71-.09,1.44,.04,2.14,.29,1.58-.05,3.17-.12,4.73-.2,4.42-.1,8.82,.14,13.23,.1,1.69,.39,3.37,.58,5.05h.01c.09,1.31-1.04,2.09-2.02,2.84-1.07,.82-1.88,.49-2.09-.68-.39-2.21-.79-4.42-.83-6.66-.04-2.03,.15-4.06,.04-6.09-.05-1.04,0-2.09-.01-3.14h0c.11-.04,.09-.07,0-.11h0c.3-1.46,.02-2.91,0-4.37,0-.78,.08-1.56,.26-2.35,.12-.54-.2-1.28-.23-1.93l-.22-6.09-.03-1.42h.01c.24-.59-.04-1.16-.07-1.74-.02-.35,.02-.7,0-1.05-.02-.43-.01-.88-.13-1.3-.26-.92-.19-1.82-.01-2.74,.02-.1-.09-.21-.13-.31h0s-.13-.55-.13-.55c0-.01-.02-.03-.03-.04l.09-.02c.12-.8-.13-1.57-.24-2.36l.15-.35h-.01s0,0,0,0h0s-.02-.02-.02-.03c0,0,.01-.01,.02-.02-.08-1.05-.41-2.09-.23-3.15h0s0-1.88,0-1.88h-.01c.09-.1,.2-.21-.02-.3h.01s-.12-.26-.12-.26l-.18-.06c-.02-.43-.08-.85,.19-1.25h.01c-.09-.08-.21-.17-.02-.28h.01s-.02,0-.02,0l-.21-1.47h0c-.15-.32-.26-.59,.12-.92,.28-.25-.44-.53-.14-.88h0s0-.06,0-.09h0s-.3-4.16-.3-4.16h0c.56-1.8,.11-3.57-.01-5.34-.13-1.94-.35-3.87-.55-5.8-.08-.77-.19-1.54-.29-2.3h0c-.1-.09-.15-.19-.02-.31h.02s0,0,0,0c-.02-.63-.05-1.36-.21-1.86-.29-.87-.31-1.74-.43-2.61-.25-1.83-.39-3.68-.62-5.51-.07-.58-.26-1.15-.47-1.7-.19-.49,.09-.67,.57-.79,.94-.23,1.48-.55,1.22-1.53-.14-.53-.22-1.52,1.22-1.3,.36,.05,.28-.22,.29-.38,.02-1.02,1.01-.78,1.68-.89Zm-1.13,47.61l-.19,.18c.07-.03,.14-.05,.21-.09,.01,0-.01-.06-.02-.09Zm-.41-5.67l-.12-.05,.07,.09,.06-.05Zm-.27-2.71v.19s.08-.19,.08-.19h-.08Zm-.13-3.16l-.09,.27,.19-.23-.09-.04Zm-1.24-19.26l-.03,.04h.02s.01-.03,.02-.04Z"/></g><g><polygon class="cls-16" points="100.7 313.31 100.69 313.39 100.69 313.39 100.7 313.31"/><polygon class="cls-16" points="99.75 251.93 99.75 251.98 99.75 252.02 99.75 251.93"/><path class="cls-16" d="M414.09,360.87c.67-.38,1,1.14,.39,8.4-.36,4.15-.72,8.28-1.08,12.36-2.99,.06-5.98,.13-8.97,.19-2.03,.03-4.05,.07-6.07,.1-4.04,.06-8.08,.11-12.12,.17-8.07,.13-16.15,.26-24.27,.39h.03s-1.15,.04-1.15,.04h.03c-12.69,.16-25.38,.71-37.96,.83-22.24,.19-44.43,.57-66.81,.04-24.84-.57-50.18-1.09-75.21-2.56-14.28-.98-28.59-.89-42.99-1.24-7.19-.16-14.39-.4-21.58-.77-3.6-.18-7.2-.4-10.79-.66l-5.39-.41-7.78-.69,.49-6.4,.71-9.49,.56-9.5c.41-6.33,.59-12.67,.86-19.01,.36-12.68,.63-25.36,.53-38.06-.06-17.65-.37-35.32-1.2-52.98-.28-6.43-.75-12.88-1.15-19.31-.22-3.89-.56-7.63-.78-11.43-.23-3.79-.43-7.63-.5-11.7-.09-6.79-1.35-17.08-2.16-25.81-.39-4.18-.78-8.36-1.16-12.54-.48-4.87-.97-9.74-1.45-14.6,4.48,.1,8.95,.19,13.4,.29,12.43,.2,25.03,.75,37.3,.53h-.09c7.22,.15,14.55,.41,21.64,.43,16.06,.04,31.84,.69,47.61,1.06,44.42,1.02,88.8,1.67,133.23,2.26,17.02,.15,33.99,.31,50.98,.46h-.08c13.26,.18,20.86,1.5,28.23,2.66,8.04,1.26,4.52,1.99-7.28,1.91-22.39-.14-44.82-.21-67.4-.6-20.5-.35-40.97-.91-61.51-1.17-10.55-.18-21.11-.37-31.66-.55h.06c-.39-.12-.76-.11-1.14-.02h.04c-14.64-.56-29.41-.54-44.12-.8-7.89-.14-15.72-.38-23.64-.71-5.39-.23-12.95-.05-19.6-.17-20.51-.34-41.02-.74-61.52-1.19l-9.94-.25,.06,.6h-.01s0,.35,0,.35c0,.13,0,.17,.03,.64l.19,2.19c.14,1.46,.3,2.92,.47,4.38,.34,2.91,.7,5.83,.99,8.75,.33,3.53,.65,7.07,.98,10.6,.4,4.37,.78,8.85,1.26,13.09,.49,4.66,.9,9.28,1.25,13.87,.31,4.6,.56,9.18,.79,13.78,.05,.97,.21,2.13,.33,3.2v-.07s.45,5.72,.45,5.72c.01,.15,.04,.28,.06,.42-.03,.06-.06,.11-.08,.19,.19,4.02,.42,8,.66,11.98,.25,3.97,.54,7.93,.72,11.91l-.03,3.44s0,.06,.01,.09v-.15s0,.15,0,.15c.01,.05,.02,.1,.03,.17,0,.04,0,.14-.01,.22,.47,10.66,.96,21.29,.86,32v.04c.03,3.17-.01,6.33-.02,9.5-.02,3.17-.02,6.33-.1,9.5v-.06c-.1,1.06-.23,2.11-.03,3.13v-.06c.01,.9,.03,1.79,.06,2.69l.17,.73c-.04,4.31-.17,8.67-.57,12.58v-.09c.05,.96,.14,1.91-.09,2.91,0-.04,0-.09,0-.13v.23c-.08,5-.34,9.99-.5,14.98v.05c0,3.28-.14,6.08-.72,9.2-.46,2.34,.08,5.66-.49,8.99v.02c-.03,.31-.06,.61-.07,.92v-.06s-.76,9.76-.76,9.76l5.2,.45c2.49,.19,4.98,.39,7.48,.54,4.99,.34,9.99,.56,14.99,.77h.08c8.8,.67,17.74,.93,26.73,1.05,8.98,.14,18.06,.14,27.06,.69,19.56,1.05,39.15,1.65,58.74,1.97l11.7,.14,11.7,.05h0c1.02-.09,2.04-.12,3.09,.04l-.14,.02h.1c6.35,.03,13.71,.11,18.84-.05,8.99-.23,17.78-.27,26.57-.42,18.63-.33,37.32-.69,55.97-1.23,5.89-.18,11.81-.46,17.55-.78,5.06-.28,6.7-.03,7.5,.44,1.56,.91,4.41,1.41,14.48,.95,.75-.03,1.58-.06,2.45-.1,.55-.01,1.12-.03,1.68-.04,.04-.36,.08-.71,.12-1.06,.06-.42,.11-.83,.16-1.21,.14-1.04,.29-1.96,.45-2.65,.32-1.38,.69-1.86,1.1-.59,.28,.87,.46-1.89,.62-3.55,.97-10.15,1.66-6.91,2.37-7.32ZM98.27,229.86l.09-1.7c-.05,.26-.11,.5-.16,.82,0,.06,.04,.58,.07,.89Zm2.2,57.46l.13,.53-.07-.98-.05,.45Zm0,27.58l.05-1.94c-.04,.62-.08,1.23-.13,1.84l.08,.1Zm-1.22,31.92c.1-.88,.16-1.77,.24-2.66-.1,.73-.2,1.46-.3,2.18l.06,.47Zm162.4,31.67l-.35-.04s.04,0,.07,.02c.06,.01,.19,.01,.28,.02Z"/></g><g><polygon class="cls-16" points="268.51 176.02 268.54 176.02 268.54 176.02 268.51 176.02"/><polygon class="cls-16" points="246.62 175.89 246.63 175.89 246.65 175.89 246.62 175.89"/><path class="cls-16" d="M409.8,181.27c.16,.64-.37,1.09-2.97,1.1-6.98,.03-13.82-.43-20.77-.48h.01s-.41,.01-.41,.01h.01c-4.54-.15-9.08,.16-13.57,.07-7.95-.16-15.88,.08-23.87-.24-8.88-.37-17.93-.16-26.88-.37-10.76-.24-21.5-.23-32.24-.19-9.11,.01-18.21,.15-27.31,.08-6.33-.05-12.67-.32-19-.48-2.31-.02-4.62-.05-6.93-.07-2.79-.06-5.39,.04-8.29-.55-2.42-.49-6.13-.2-9.27-.29-4.35-.11-8.72-.35-13.05-.35-4.45,0-8.95-.38-13.35,0h.03c-2.58-.06-5.2-.24-7.74-.18-5.75,.13-11.39-.37-17.03-.6-15.88-.66-31.75-1.03-47.64-1.28-6.09-.09-12.16,.01-18.24,.01h.03c-4.74-.04-7.44-1.26-10.06-2.32-2.85-1.16-1.58-1.93,2.64-2.01,8.01-.14,16.04-.28,24.11-.08,7.33,.19,14.64,.6,21.99,.71,3.77,.06,7.55,.22,11.32,.33h-.02c.14,.12,.27,.1,.41,.02h-.01c5.23,.45,10.51,.32,15.77,.46,2.82,.08,5.62,.24,8.45,.5,1.92,.17,4.63-.07,7.01-.03l21.99,.39,5.12,.12h0c2.09,.31,4.19,.09,6.29,.11l3.8,.11c1.57,.02,3.17,.07,4.7,0,3.35-.17,6.61-.01,9.9,.25,.35,.03,.76-.07,1.15-.1h-.03s2.05-.07,2.05-.07c.05,0,.1-.02,.15-.03,.02,.03,.04,.06,.06,.1,2.87,.19,5.7,.02,8.54-.02l1.23,.18h.03s-.05-.01-.05-.01h.05s.04-.02,.06-.02c.01,0,.05,.01,.08,.02,3.81,.02,7.6-.22,11.42,.06h.01s6.78,.17,6.78,.17h-.02c.38,.09,.75,.21,1.12,0h-.02s.96-.08,.96-.08l.26-.18c1.54,.02,3.09,0,4.49,.3h-.03c.34-.07,.68-.19,1.04,.01-.01,0-.03,0-.05,.01l.08-.02,5.35-.08h.02c1.17-.12,2.17-.2,3.29,.21,.84,.3,2.02-.39,3.21-.07h0c.11,0,.22,0,.33,0h-.02s15.1,.07,15.1,.07h.03c6.32,.71,12.81,.41,19.23,.43,7.01,.04,14.03-.03,21.04-.07l8.38-.1h0c.37-.1,.73-.14,1.11,0l-.05,.02h.04c2.27,.02,4.91,.05,6.74-.07,3.22-.22,6.36-.17,9.51-.22,6.67-.06,13.36-.12,20.03-.19,2.11-.03,4.23-.17,6.28-.34,1.81-.15,2.39,.14,2.68,.63,.55,.95,1.56,1.52,5.17,1.33,1.96-.1,5.53-.1,4.31,1.32-.3,.35,.69,.3,1.28,.32,3.65,.1,2.51,1.07,2.68,1.74Zm-171.08-5.14l-.6-.21c.09,.07,.17,.15,.29,.21,.02,.01,.21,0,.32,0Zm20.52,.12l.19-.12-.35,.06,.16,.06Zm9.84-.02l-.69-.03,.66,.11,.04-.08Zm11.39,.16l-.95-.12,.78,.21,.17-.09Zm69.72,.4l-.13-.03s.01,.01,.02,.02c.02,0,.07,.01,.1,.02Z"/></g><g><polygon class="cls-16" points="331.67 219.16 331.68 219.16 331.68 219.16 331.67 219.16"/><polygon class="cls-16" points="319.29 218.97 319.3 218.97 319.3 218.97 319.29 218.97"/><path class="cls-16" d="M411.3,226.58c.06,.64-.26,1.08-1.73,1.03-3.93-.14-7.78-.78-11.69-.97h0s-.23,0-.23,0h0c-2.56-.24-5.13-.03-7.66-.22-4.48-.32-8.96-.22-13.46-.68-5-.5-10.11-.45-15.16-.76-6.07-.38-12.13-.47-18.2-.53-5.14-.04-10.28,.02-15.42-.07-3.57-.07-7.15-.37-10.72-.53-1.3-.06-2.61-.02-3.91-.08-1.57-.06-3.04,.03-4.67-.55-1.36-.48-3.46-.19-5.23-.26-2.46-.1-4.92-.33-7.37-.3-2.51,.03-5.05-.33-7.54,.07h.02c-1.46-.05-2.94-.2-4.37-.12-3.25,.18-6.43-.28-9.61-.45-8.97-.48-17.93-.65-26.91-.61-3.44,.01-6.87,.23-10.3,.36h.02c-2.68,.05-4.21-1.11-5.69-2.12-1.62-1.1-.91-1.9,1.48-2.06,4.53-.3,9.07-.62,13.63-.55,4.14,.06,8.28,.34,12.43,.35,2.13,0,4.27,.11,6.4,.17h-.01c.08,.12,.15,.1,.23,.01h0c2.96,.39,5.94,.2,8.92,.28,1.59,.04,3.18,.19,4.77,.42,1.09,.16,2.62-.11,3.96-.09l12.43,.25,2.89,.09h0c1.18,.31,2.37,.08,3.56,.09,.72,0,1.43,.08,2.15,.1,.89,.02,1.79,.07,2.66-.01,1.9-.18,3.74-.03,5.59,.24,.19,.03,.43-.07,.65-.1h-.02s1.16-.07,1.16-.07c.03,0,.06-.02,.09-.03l.03,.1c1.62,.19,3.22,.03,4.83-.01l.69,.18h.02s-.03-.01-.03-.01h.03s.02-.02,.04-.02c0,0,.03,.01,.04,.02,2.15,.02,4.3-.19,6.46,.09h0s3.83,.19,3.83,.19h-.01c.21,.09,.42,.21,.63,0h-.01s.55-.08,.55-.08l.15-.18c.87,.03,1.75,.02,2.53,.32h-.02c.19-.07,.39-.18,.59,.02h-.03s.05,0,.05,0l3.03-.05h0c.67-.11,1.23-.18,1.85,.23,.47,.31,1.15-.38,1.82-.04h0c.06,0,.12,0,.19,0h-.01s8.53,.2,8.53,.2h.02c3.56,.76,7.23,.54,10.86,.65,3.96,.12,7.93,.16,11.89,.23l4.74,.03h0c.21-.09,.42-.12,.62,.03l-.03,.02h.02c1.28,.06,2.77,.14,3.81,.05,1.83-.16,3.6-.06,5.38-.05,3.77,.02,7.55,.18,11.32,.24,1.19,.02,2.39-.07,3.56-.19,1.03-.11,1.35,.2,1.49,.7,.27,.97,.82,1.55,2.86,1.46,1.11-.05,3.13,.03,2.38,1.42-.18,.34,.38,.32,.71,.35,2.05,.19,1.37,1.13,1.44,1.8Zm-96.48-7.38l-.34-.21c.05,.07,.09,.15,.16,.21,.01,.01,.12,0,.18,0Zm11.6,.16l.11-.12-.2,.06,.09,.06Zm5.56,.02l-.39-.03,.37,.11,.02-.08Zm6.44,.23l-.53-.12,.44,.21,.1-.09Zm39.4,1.22l-.07-.04s0,.01,.01,.02c.01,0,.04,.01,.06,.02Z"/></g><g><polygon class="cls-16" points="111.63 217.71 111.63 217.71 111.63 217.71 111.63 217.71"/><polygon class="cls-16" points="109.32 217.87 109.32 217.87 109.32 217.87 109.32 217.87"/><path class="cls-16" d="M126.57,222.15c.02,.64-.03,1.09-.3,1.1-.73,.03-1.46-.43-2.19-.47h0s-.04,.01-.04,.01h0c-.48-.14-.95,.18-1.43,.1-.84-.14-1.67,.14-2.52-.15-.94-.32-1.89-.06-2.83-.2-1.13-.16-2.26-.05-3.39,.09-.96,.12-1.91,.35-2.87,.4-.67,.04-1.34-.16-2-.22-.24-.02-.49,.05-.73,.03-.29-.02-.57,.11-.88-.42-.26-.45-.65-.1-.98-.13-.46-.04-.92-.21-1.38-.13-.47,.08-.95-.21-1.4,.24h0c-.27-.01-.55-.13-.82-.03-.6,.25-1.2-.15-1.8-.26-1.68-.31-3.35-.33-5.02-.16-.64,.06-1.27,.32-1.91,.49h0c-.5,.08-.8-1.06-1.1-2.05-.32-1.08-.2-1.89,.24-2.08,.84-.36,1.68-.72,2.53-.72,.77,0,1.55,.22,2.32,.17,.4-.03,.8,.04,1.19,.06h0c.02,.12,.03,.1,.04,0h0c.56,.33,1.11,.09,1.67,.11,.3,.01,.59,.13,.9,.32,.21,.13,.49-.16,.74-.17l2.32-.02c.18,0,.36,.01,.54,.02h0c.23,.28,.44,.02,.66,0,.13,0,.27,.05,.4,.04,.17,0,.33,.02,.49-.08,.35-.22,.7-.12,1.05,.09,.04,.02,.08-.08,.12-.12h0s.21-.1,.21-.1c0,0,.01-.02,.02-.03v.09c.31,.15,.61-.06,.91-.14l.13,.16h0s0-.01,0-.01h0s0-.02,0-.02c0,0,0,.01,0,.02,.4-.04,.8-.32,1.2-.09h0s.72,.08,.72,.08h0c.04,.08,.08,.2,.12-.02h0s.1-.1,.1-.1l.02-.18c.16,0,.33-.04,.48,.24h0c.03-.07,.07-.19,.11,0,0,0,0,0,0,.01v-.02s.57-.14,.57-.14h0c.12-.13,.23-.22,.35,.17,.09,.3,.21-.41,.34-.1h0s.02,0,.03,0h0s1.59-.07,1.59-.07h0c.68,.64,1.35,.29,2.03,.27,.74-.02,1.48-.13,2.22-.21,.29-.03,.59-.09,.88-.14h0c.04-.1,.08-.14,.12,0v.02s0,0,0,0c.24,.02,.52,.04,.71-.09,.34-.23,.67-.2,1-.26,.7-.13,1.41-.13,2.11-.23,.22-.03,.44-.17,.66-.34,.19-.15,.25,.14,.29,.63,.07,.95,.18,1.52,.56,1.33,.21-.1,.58-.11,.47,1.31-.03,.35,.08,.3,.14,.31,.39,.1,.28,1.07,.3,1.74Zm-18.08-3.93l-.07-.2c.01,.07,.02,.14,.03,.21,0,.01,.02,0,.03-.01Zm2.16-.16l.02-.12-.04,.06,.02,.06Zm1.04-.15l-.07-.02,.07,.1v-.08Zm1.2,.03l-.1-.11,.09,.2,.02-.09Zm7.35-.15v-.03s-.01,.02-.01,.02c0,0,0,.01,.01,.02Z"/></g><g><polygon class="cls-16" points="228.07 222.67 228.07 222.65 228.07 222.65 228.07 222.67"/><polygon class="cls-16" points="220.83 233.47 220.84 233.47 220.85 233.46 220.83 233.47"/><path class="cls-16" d="M132.71,202.3c-.18-.62,.19-1.11,2.19-1.29,5.37-.48,10.67-.37,16.01-.61h0s.32-.03,.32-.03h0c3.5-.04,6.97-.51,10.43-.55,6.12-.08,12.2-.5,18.34-.33,3.41,.09,6.85,.05,10.29-.01,3.43-.06,6.91-.18,10.43-.01,4.22,.19,8.53,.6,12.78,1.72,4.24,1.13,8.38,2.98,11.93,5.87,1.5,1.22,2.87,2.64,4.05,4.23,1.18,1.59,2.15,3.42,2.8,5.31,1.29,3.79,1.53,8.05,.13,12.05-.46,1.39-1.2,2.71-2.07,3.91-.88,1.23-1.96,2.2-3.1,3.12-2.35,1.73-5.02,2.79-7.62,3.38-1.9,.45-3.8,.78-5.67,.9-2.26,.15-4.34,.28-6.6-.3-1.88-.49-4.71-.24-7.12-.34-3.33-.14-6.68-.41-10-.43-3.41-.02-6.86-.42-10.23-.07h.02c-1.98-.07-3.98-.25-5.93-.21-4.41,.11-8.72-.41-13.05-.65l-9.13-.46c-3.05-.14-6.16-.29-9.27-.77-3.1-.47-6.25-1.25-9.17-2.79-2.91-1.52-5.52-3.86-7.04-6.98-1.15-2.36-1.65-4.99-1.55-7.57,.1-2.59,.74-5.16,1.96-7.5l-.02,.02c.46-.92,1.09-1.62,1.67-2.23,.65-.55,1.25-1.02,1.9-1.31,1.28-.62,2.51-.78,3.63-.8,1.24,.02,1.61,.36,1.46,.83-.16,.49-.87,1.02-1.9,1.86-3.88,3.35-5.17,9.43-3.57,13.95,.32,1.06,.9,1.96,1.52,2.84,.71,.89,1.55,1.67,2.48,2.37,1.91,1.36,4.26,2.29,6.8,2.81,2.6,.55,5.36,.87,8.17,1.04h-.02c.1,.12,.2,.11,.3,.02h0c3.92,.49,8.03,.35,12.05,.5,2.16,.08,4.31,.26,6.47,.52,1.47,.18,3.55-.05,5.38,0l16.86,.49,3.92,.14h0c1.6,.33,3.21,.12,4.82,.15l2.91,.13c1.2,.03,2.43,.1,3.6,.03,2.57-.14,4.98,.02,7.41,.1,.25,0,.56-.1,.83-.17h-.02c.49-.07,.98-.14,1.46-.24,.04,0,.07-.03,.1-.04l.06,.09c2.07-.1,4-.73,5.73-1.5,.28-.04,.54-.12,.81-.18v-.02s-.02,.01-.02,.01l.03-.02s.02-.03,.03-.04c0,0,.03,0,.05,0,2.3-1.12,3.92-2.95,5.21-4.93h0c.68-1.25,1.12-2.67,1.32-4.14h-.01c.13-.22,.27-.47,.05-.72h.01s-.08-.62-.08-.62c-.06-.06-.12-.11-.18-.17,0-1-.16-2-.06-2.97v.02c-.11-.21-.29-.39-.16-.67l.02,.03-.03-.05c-.34-1.14-.8-2.24-1.39-3.25h0c-.25-.31-.48-.58-.64-.89-.19-.3-.33-.63-.39-1.06-.06-.31-.36-.53-.66-.75-.32-.22-.66-.45-.82-.86h0c-.05-.06-.1-.11-.16-.16h.01c-2.4-2.45-5.53-4.27-8.88-5.49h-.02c-2-1.09-4.26-1.72-6.6-2.08-2.34-.36-4.73-.45-7.13-.52-5.24-.12-10.66,.19-16.03,.33l-6.41,.26h0c-.28,.1-.56,.15-.85,.01l.04-.02h-.03c-1.74,.03-3.76,.05-5.16,.22-2.46,.29-4.86,.32-7.26,.46-5.09,.29-10.2,.49-15.27,.87-1.6,.11-3.21,.35-4.76,.62-1.37,.23-1.83-.02-2.08-.5-.48-.92-1.3-1.44-4.03-1.05-1.49,.21-4.21,.44-3.39-1.05,.2-.37-.55-.25-1.01-.23-2.8,.14-2.02-.9-2.2-1.56Zm82.88,32.82l-.46-.14c.07,.06,.14,.13,.23,.18,.02,.01,.15-.03,.23-.04Zm11.43-6.64l-.05-.17-.04,.23,.1-.06Zm1.24-6.19v.46s.08-.44,.08-.44l-.08-.02Zm-2.04-7.2l.22,.59-.09-.54-.13-.05Zm-47.63-10.62l.1,.03s-.01-.01-.02-.02c-.02,0-.05-.01-.08-.02Z"/></g><g><polygon class="cls-16" points="204.08 350.22 204.1 350.21 204.11 350.21 204.08 350.22"/><polygon class="cls-16" points="181.87 351.06 181.89 351.06 181.9 351.06 181.87 351.06"/><path class="cls-16" d="M158,255.03c-.19-.63,.35-1.11,3.09-1.22,7.36-.26,14.66,.12,22.08,.87h-.01s.44,.03,.44,.03h-.01c4.83,.64,9.78,1.11,14.52,2.78,4.16,1.44,8.28,3.42,11.87,6.35,1.75,1.5,3.42,3.18,4.71,5.14,1.31,1.94,2.34,4.06,3.06,6.24,1.58,4.87,1.96,9.85,2.1,14.64,.09,4.79,.12,9.43,.1,14.14-.04,5.63,0,11.25,.06,16.87l.13,8.43,.08,4.21c.03,1.42,.04,2.9-.06,4.41-.15,2.55-.6,5.26-1.79,7.84-.61,1.28-1.39,2.5-2.32,3.6-.96,1.06-2.03,2.03-3.2,2.8-2.32,1.59-4.89,2.5-7.41,3.14-2.53,.63-5.05,.92-7.53,1.09-3.46,.22-6.85,.11-10.19-.04l-9.94-.47c-2.41-.07-4.84-.14-7.25-.21-2.92-.12-5.64-.07-8.66-.7-2.52-.53-6.41-.31-9.7-.45-4.57-.21-9.27-.56-13.95-1.69-2.4-.57-4.8-1.62-6.94-3.07-2.17-1.43-3.98-3.38-5.5-5.46l.02,.03c-1.56-2.63-2.3-5.58-2.89-8.31-.33-1.56-.52-3.12-.64-4.64-.1-1.5-.19-3.01-.22-4.5-.09-3-.06-5.98-.05-8.95,.02-8.37,.37-16.71,.79-25.02l.65-12.47c.24-4.16,.64-8.59,2.51-12.7,.7-1.56,1.6-3.05,2.67-4.41,1.06-1.36,2.37-2.62,3.76-3.6,2.79-2.03,5.93-3.44,9.25-4.27h-.03c2.6-.62,4.78-.47,6.55-.02,1.78,.42,3.15,1.27,4.35,2.05,1.29,.98,1.45,1.53,.89,1.73-.28,.1-.74,.11-1.36,.03-.64,0-1.43-.14-2.42-.19-3.74-.25-7.6,.62-11.03,2.2-1.71,.79-3.32,1.78-4.67,2.94-1.32,1.12-2.45,2.53-3.35,4.08-1.63,2.82-2.41,6.2-2.78,9.84-.19,1.81-.3,3.72-.42,5.64-.12,1.92-.22,3.83-.31,5.75-.19,3.93-.39,7.86-.58,11.79v-.02c-.12,.14-.11,.28-.02,.42h0c-.52,5.43-.36,10.92-.29,16.37,.04,2.92,.02,5.83,0,8.77-.02,1.99,.44,4.82,.75,7.12,.49,3.58,1.52,6.98,3.56,9.57,2.02,2.61,5.02,4.32,8.41,5.25,1.58,.44,3.24,.76,4.93,.99h0c2.06,.54,4.22,.42,6.38,.5l3.95,.18c1.64,.05,3.32,.13,4.92,.08,3.51-.11,6.92,.1,10.35,.43,.36,.03,.8-.05,1.21-.08h-.03s2.15-.03,2.15-.03c.06,0,.11-.02,.16-.02,.02,.03,.04,.06,.06,.1,3,.25,5.96,.13,8.94,.15l1.28,.2h.03s-.05-.01-.05-.01h.06s.04-.01,.07-.02c.01,0,.05,.01,.08,.02,4,.08,7.95,0,11.83,.13h.01c2.3-.03,4.57-.16,6.78-.47h-.02c.38,.02,.78,.09,1.08-.2l-.02,.02,.89-.29,.21-.23c1.44-.33,2.8-.82,4.08-1.09l-.02,.02c.25-.22,.48-.43,.85-.42l-.03,.03,.06-.05c1.41-.8,2.62-1.8,3.54-3h.01c.53-.86,.86-1.59,1.61-2.33,.6-.58,.25-1.79,.78-2.78h0c.03-.11,.05-.2,.06-.3v.02c.43-2.31,.45-4.78,.4-7.41l-.1-7.9v-.03c.59-6.63,.19-13.41,.12-20.13l-.17-11.01c-.06-3.67-.16-7.24-.68-10.69-.42-2.74-1.13-5.38-2.24-7.78h0c-.23-.28-.43-.56-.46-.94l.04,.03-.02-.03c-.92-1.94-2.41-3.94-3.71-5.09-2.28-1.98-4.78-3.64-7.55-4.91-2.94-1.34-6.13-2.25-9.39-2.93-3.27-.67-6.62-1.11-10.02-1.34-1.07-.07-2.15-.08-3.22-.1-1.07,0-2.15,.05-3.2,.09-1.86,.11-2.45-.19-2.74-.69-.56-.96-1.61-1.55-5.36-1.32-2.04,.12-5.76,.25-4.53-1.21,.31-.36-.73-.28-1.35-.27-3.82,.04-2.67-.97-2.87-1.63Zm15.6,96.11l-.63-.22c.09,.07,.18,.15,.29,.22,.02,.01,.22,0,.33,0Zm21.36,.38l.19-.12-.36,.07,.17,.06Zm9.69-1.24l-.65,.14,.64-.06v-.09Zm8.59-5.22c-.17,.21-.36,.41-.57,.59,.19-.13,.39-.26,.56-.42v-.17Zm-.85-69.89s.01,.08,.02,.12c0,0,0-.02,0-.03,0-.02-.01-.06-.02-.1Z"/></g><g><polygon class="cls-16" points="452.32 320.09 452.32 320.04 452.32 320.03 452.32 320.09"/><polygon class="cls-16" points="444.16 354.68 444.18 354.67 444.2 354.66 444.16 354.68"/><path class="cls-16" d="M260.17,250.15c-.29-.21-.26-.53,.46-1.11,.72-.56,2.15-1.4,4.68-2.13,3.39-.99,6.77-1.35,10.04-1.53,3.28-.17,6.43-.14,9.56-.17,6.28-.03,12.56-.06,18.88-.2h-.02s.75-.03,.75-.03h-.02c8.26-.06,16.51-.58,24.69-.7,14.47-.21,28.88-.83,43.44-.9,8.08-.04,16.23-.22,24.41-.42,4.09-.1,8.18-.2,12.26-.31,4.1-.08,8.14-.23,12.31-.2,4.99,.09,10.1,.37,15.15,1.75,2.52,.69,5.02,1.66,7.34,3.05,2.32,1.39,4.46,3.21,6.11,5.42,1.67,2.2,2.86,4.71,3.63,7.25,.79,2.54,1.19,5.12,1.47,7.65,.25,2.53,.36,5.03,.45,7.47l.29,7.33c.34,8.28,.68,16.55,1.03,24.83l.51,12.41c.14,4.15,.39,8.23,.38,12.53-.02,2.97-.19,5.98-.66,9.01-.48,3.03-1.27,6.09-2.67,9.02-1.37,2.92-3.45,5.7-6.21,7.66-2.71,2.03-5.98,3.14-9.09,3.62-4.57,.72-8.98,.43-13.12,.27-2.53-.1-4.96-.19-7.43-.28-2.47-.09-4.96-.24-7.59-.56-4.39-.5-11.13-.18-16.83-.15-7.91,.05-15.85,.04-23.72,.34-8.08,.3-16.3,.27-24.27,.94h.06c-4.7,.12-9.48,.11-14.1,.31-10.46,.45-20.78,.12-31.08-.19-3.62-.09-7.25-.25-10.87-.42-3.61-.15-7.27-.34-10.95-.83-3.67-.53-7.41-1.36-10.86-3.15-1.72-.89-3.34-2.01-4.77-3.37-1.42-1.36-2.6-2.97-3.51-4.69-1.83-3.46-2.59-7.25-2.97-10.93-.38-3.7-.38-7.35-.48-10.95l-.53-21.68c-.29-11.07-.77-22.11-1.16-33.17v.05c-.26-8.63,.78-13.61,1.67-18.45,.97-5.27,1.83-3.01,2.17,4.67,.65,14.57,1.31,29.16,1.61,43.86,.1,6.67,.2,13.34,.3,20.01l.15,9.98c.09,3.27,.3,6.47,.99,9.46,.7,3.06,1.88,5.87,3.78,8.05,1.92,2.16,4.5,3.77,7.47,4.75h-.03c.18,.17,.4,.23,.64,.21h-.02c4.14,1.44,8.81,1.84,13.52,2.05,4.76,.17,9.54,.31,14.3,.38,2.56,.06,5.11,.13,7.66,.19,2.55,.08,5.11,.16,7.68,.24,3.5,.13,8.4-.22,12.72-.31,13.32-.24,26.66-.72,40.01-1.08l9.33-.21h0c3.83,.18,7.65-.14,11.47-.21,2.31-.05,4.62,0,6.94-.02,2.86-.03,5.79,0,8.58-.08,1.53-.05,3.05-.07,4.56-.08,1.51,.01,3.02,.04,4.53,.08,1.5,.06,3,.11,4.5,.17l4.49,.3c.63,.05,1.4-.03,2.1-.04h-.05s3.72,.04,3.72,.04c.1,0,.18-.01,.27-.02,.03,.03,.07,.06,.11,.1,5.08,.34,10.08-.1,13.83-2.41,.56-.29,1.11-.62,1.67-.94l.03-.04-.06,.05,.06-.06s.03-.05,.06-.08c.02-.02,.06-.04,.1-.07,1.15-.94,2.09-2.13,2.92-3.39,.75-1.32,1.45-2.7,1.91-4.23,1.01-2.99,1.46-6.26,1.82-9.58v-.02c.3-3.96,.17-7.96,.06-12.11v.04c.06-.69,.15-1.38-.08-2.03v.04c-.04-.58-.1-1.16-.15-1.74l-.2-.47c-.09-2.8-.22-5.63-.02-8.18v.06c-.09-.62-.23-1.23-.06-1.89,0,.03,.01,.06,.02,.09l-.02-.15c-.15-3.24-.3-6.48-.45-9.72v-.03c-.2-2.12-.35-3.94-.03-5.99,.25-1.55-.53-3.65-.29-5.84h0c0-.21,0-.41-.02-.61v.04s-.48-13.73-.48-13.73c-.17-4.53-.44-8.97-1.69-12.96l-.02-.04c-.63-2.55-1.74-4.92-3.46-6.87-1.68-1.98-3.91-3.48-6.39-4.55-5-2.14-10.77-2.6-16.46-2.7-3.12-.05-6.29,.07-9.49,.16l-9.57,.28-19.14,.59c-5.08,.17-10.16,.34-15.25,.51h0c-.66,.11-1.33,.17-2.01,.04l.09-.02h-.07c-4.14,.09-8.93,.19-12.27,.4-5.85,.37-11.58,.48-17.3,.68-12.13,.37-24.3,.74-36.45,1.11-3.83,.12-7.69,.36-11.42,.62-3.29,.23-4.36-.04-4.89-.52-.51-.46-1.23-.83-2.65-1.03-1.41-.19-3.52-.28-6.74,0-1.74,.17-4.18,.41-5.93,.58-1.73,.15-2.84,.1-1.93-.86,.46-.47-1.31-.02-2.36,.3-3.22,.98-4.32,1.45-4.82,1.28-.49-.13-.27-.7-.57-.93Zm171.29,107.17l-1.07-.23c.16,.08,.31,.15,.51,.22,.04,.01,.37,0,.56,0Zm21.33-20.61l-.1-.34v.62s.1-.28,.1-.28Zm-.3-17.67l.02,1.26c.02-.4,.04-.8,.06-1.2l-.08-.06Zm-.64-20.73l-.05,1.73,.15-1.43-.1-.3Zm-82.67-49.88l.23,.03s-.02-.01-.04-.01c-.04,0-.12,0-.19-.01Z"/></g><g><path class="cls-16" d="M105.23,161.1h0s0,0,0,0Z"/><path class="cls-16" d="M104.43,157.93c-.17-.61-.23-1.07,.03-1.13,.72-.14,1.34,.39,1.82,.59h0s.03,0,.03,0h0c.29,.23,.72,.09,.97,.34,.4,.41,1,.6,1.1,1.24,.08,.65,.55,1.1,.52,1.83-.05,.81-.12,1.68-.49,2.46-.3,.65-.71,1.27-1.27,1.6-.4,.24-.89,.17-1.3,.17-.16,0-.3,.08-.46,.07-.19-.02-.39,.11-.54-.45-.1-.46-.35-.16-.56-.25-.26-.12-.45-.39-.73-.48-.31-.1-.32-.5-.85-.44h0c-.11-.15-.1-.37-.29-.47-.42-.25-.18-.79-.11-1.1,.19-.94,.39-1.54,.73-2.32,.13-.29,.2-.72,.47-1.09h0c.27-.26,.96,.7,1.34,1.62,.2,.46,.39,1.11,.33,.92h0s.07,.12,.16,.19c.08,.06,.17,.1,.19,.1,.01,0,0,0-.02,0h0s0,0,0,0c-.03,0-.1,0-.18,.01-.04,.01-.07,.01-.11,.03-.02,0-.05,.02-.07,.03-.06,.03-.05,.04-.04,.01l.02-.03s.02-.05,.03-.07c0-.02,.01-.04,.02-.05,0-.02,0-.02,.01-.06,0-.05,0-.09,0-.13h0s0-.01,0-.01v-.02s0,0,0,0h0s0-.03,0-.05h0s0,0,.01,.03l.03,.06h0s0,0,0,.01h0s0,0,0,0h0s0,0,.03,.05h0s0,0,0,.01h0s0,0,0,0l.05,.05s0,0,.04,.03c.02,.02,0,0,.03,.02h0s0,0,0,0c.05,.04,.08,.05,.08,.05h0s-.01,0-.1,0c-.08,0-.19,.05-.26,.09-.03,.02-.04,.03-.06,.04h0s0,0,0,0c0,0-.01,.01,0,0,.02-.02,.02-.03,.03-.04,.03-.04,.08-.14,.1-.22,0-.01,0-.04,.02-.08,0,0,0-.01,0-.03,0,0,0,0,0-.04-.01-.09,0,0-.17-1.15-.04-.35-.07-.29-.09-.31-.14-.08-.35-1.02-.51-1.68Zm.75,3.11h0s0,0,0,0h0Zm0-.02h0s0,0,0,0h0Zm.05,.09h0s0,0,0,0h0Zm.1,.12h0s0,0,0,0h0Zm-.28,.23h0s0,0,0,0h0Z"/></g><g><path class="cls-16" d="M122.05,162.08h0s0,0,0,0Z"/><path class="cls-16" d="M119.9,159.46c-.41-.48-.67-.87-.45-1.03,.59-.44,1.4-.23,1.92-.26h0s.03-.02,.03-.02h0c.37,.08,.7-.23,1.04-.12,.55,.2,1.19,.12,1.58,.64,.37,.56,1.01,.77,1.3,1.45,.32,.77,.64,1.59,.67,2.47,.02,.73-.07,1.48-.43,2.04-.26,.4-.73,.57-1.11,.77-.15,.07-.24,.21-.39,.28-.18,.07-.31,.28-.7-.15-.3-.36-.4,.03-.63,.04-.3,.01-.59-.14-.89-.09-.33,.05-.53-.3-.97,0h0c-.18-.08-.27-.28-.48-.28-.49-.03-.54-.62-.64-.94-.29-.95-.41-1.6-.47-2.48-.02-.33-.16-.75-.1-1.21h-.01c.12-.36,1.19,.15,1.97,.77,.21,.17,.4,.33,.57,.49,.09,.09,.17,.16,.24,.23,0,0,0,0,0,0,.01,.01,.12,.07,.25,.09,.11,.02,.21,0,.23,0,.01,0,0,0-.02,0h0s0,0,0,0c-.03,.01-.1,.05-.16,.1-.03,.03-.06,.05-.09,.09-.02,.02-.04,.04-.05,.07-.04,.06-.03,.07-.03,.03v-.04s0-.06,0-.08c0-.02,0-.04-.01-.06,0-.02,0-.02-.02-.07-.02-.05-.04-.09-.05-.12h0s0-.01,0-.01v-.02s-.01,0-.01,0h0s-.02-.03-.03-.04h0s0,0,0,0h0s0,0,.03,.03h0l.06,.04h0s0,0,.01,0h.01s0,0,0,0c0,0,0,0,.06,.03h0s0,0,.01,0h0s0,0,0,0l.07,.03h0s0,0,.05,.01c.03,0,0,0,.04,0h0s0,0,0,0c.07,.01,.11,0,.11,0,0,0-.02,0-.1,.05-.08,.05-.16,.14-.2,.21-.02,.03-.03,.05-.04,.06h0s0,0,0,0c0,0,0,.02,0,.01,0-.03,0-.04,.01-.05,.01-.06,.01-.17,0-.27,0-.01-.01-.04-.02-.08,0,0,0-.01-.01-.03,0,0,0,0-.02-.04-.06-.08,0,0-.71-1.06-.19-.3-.19-.24-.21-.24-.16-.01-.75-.77-1.18-1.3Zm2.07,2.58h0s0,0,0,0h0Zm0-.02h0s0,0,0,0h0Zm.09,.06h0s0,0,0,0h0Zm.15,.07h-.01s.01,0,.01,0h0Zm-.16,.36h0s0,0,0,0Z"/></g><g><path class="cls-16" d="M136.46,161.6h0s0,0,0,0Z"/><polygon class="cls-16" points="136.41 161.58 136.41 161.58 136.41 161.58 136.41 161.58"/><path class="cls-16" d="M135.1,157.62c-.16-.62-.23-1.07-.03-1.12,.55-.13,1.07,.33,1.51,.41h0s.03,0,.03,0h0c.28,.17,.63-.09,.9,.08,.45,.28,1.06,.25,1.37,.79,.31,.58,.91,.8,1.18,1.41,.28,.71,.67,1.37,.85,2.26,.14,.7,.2,1.45-.05,2.1-.18,.45-.6,.75-.95,1.04-.12,.11-.2,.28-.34,.38-.16,.12-.27,.36-.74,.04-.39-.28-.41,.13-.65,.2-.31,.09-.66,.01-.96,.13-.35,.12-.61-.17-1.05,.21h0c-.23-.06-.4-.23-.64-.22-.58,.03-.76-.61-.93-.95-.27-.51-.4-.96-.53-1.4-.11-.44-.21-.89-.21-1.43-.01-.39-.09-.94,.09-1.49h-.01c.23-.43,1.25,.23,1.9,.98,.18,.2,.33,.4,.46,.59,.06,.09,.12,.17,.17,.24h0s0-.01-.02-.03c-.05-.05,.06,.06,.26,.08,.17,.03,.37,0,.42-.02,.02,0,.03-.01,0,0h0s-.13,.08-.21,.16c-.04,.04-.08,.09-.11,.13-.02,.01-.05,.09-.05,.09-.02,.05-.02,.05-.02,.05h0s0,0,0,0l.02-.22h0s0,0,0,0h0s0,0,0-.02v-.05c-.04-.07-.03-.07-.04-.09,0-.02-.02-.04-.03-.06-.01-.02-.02-.03-.04-.08-.03-.05-.07-.11-.11-.15,0,0,0-.01-.01-.02h0s-.02-.02-.02-.02h0s0,0,0,0c-.04-.03-.05-.05-.08-.07h0s0,0,0,0h0s0,0,0,0h0s-.03-.02,0,0h0l.05,.02h0s0,0,.01,0h.01s0,0,0,0c0,0,0,0,.06,.02h0s0,0,.02,0h0s0,0,0,0c.03,0,.05,.01,.08,.02h0s0,0,.05,0c.04,0,.01,0,.05,0h0c.09,0,.14,0,.19-.02h0c-.15,.04-.24,.07-.31,.09-.01,0-.02,0-.03,.01-.02,0-.06,.03-.09,.06-.1,.08-.12,.1-.18,.16-.03,.02-.05,.06-.08,.1h0c-.05,.08-.07,.12,0,0v-.02s0,0,0,0c0-.02,.01-.05-.05,.07-.1,.21-.05,.12-.07,.16,0,.01,0-.02,.01-.09,0-.01,0-.04,0-.07,0,0,0-.01,0-.04,0-.17-.02-.33-.03-.47-.01-.18-.03-.34-.04-.46-.02-.24-.05-.33-.07-.24-.01,.1-.06,.11-.3-1.29-.05-.35-.08-.29-.1-.3-.15-.08-.34-1.02-.5-1.68Zm1.39,4.02h0s0,0,0,0h0Zm-.09-.08h0s0,0,0,0h0Zm.08,.03h0s0,0,0,0h0Zm.17,.04h-.02s.01,0,.01,0h0Zm-.38,.35l-.02,.03h0s0-.02,0-.03Z"/></g><g><path class="cls-16" d="M450.88,226.05c-2.35,3.14-4.73,6.25-7.05,9.41-6.84,9.34-13.92,18.48-20.92,27.69-7.43,9.76-14.74,19.62-22.2,29.35-1.41,1.86-2.84,3.6-3.72,5.38-.22,.45-.4,.87-.56,1.36l-.51,1.66-1.03,3.31c-1.32,4.43-3.05,8.73-4.37,13.03-.53,1.7-.82,3.51-1.03,5.26-.1,.71-.13,1.67-.47,1.72-1.04,.13-2.13,.99-3.09,.03-.41-.41-.51-1.37-.3-2.66,.89-5.34,2.71-10.15,4.31-14.94,.8-2.4,1.52-4.82,2.29-7.22l.28-.9c.1-.31,.17-.58,.32-.96,.26-.7,.57-1.37,.92-1.99,.69-1.25,1.49-2.35,2.28-3.39,2.86-3.69,5.89-7.2,8.6-10.93,4.92-6.76,10.05-13.35,15.06-20.02,7.97-10.61,15.66-21.41,23.77-31.91,5.43-7.03,10.87-14.05,16.18-21.18l2.93-3.92,2.64,2.19,1.07,.87,.77,.61c1.04,.81,2.09,1.61,3.14,2.39,2.12,1.56,4.28,3.06,6.48,4.51l1.53,1,2.38,1.51,.69,.44,.17,.11s.17,.05,.11,.13l-.13,.39-.53,1.55c-.16,.5-.38,1.08-.54,1.48-.12,.3-.24,.61-.37,.91-1.06,2.4-2.35,4.66-3.8,6.77-2.89,4.24-6.25,7.94-9.33,11.74-5.73,6.96-11.22,14.13-16.69,21.37-5.36,7.08-10.59,14.41-15.29,22-.57,.92-1.43,1.68-1.78,2.67l.02-.03-.32,.67,.02-.03c-2.21,2.83-4.01,5.91-6.06,8.84-2.13,3.05-4.26,6.09-6.39,9.13-1.09,1.51-2.17,3.01-3.32,4.52-.59,.77-1.24,1.57-2.03,2.34-.39,.38-.82,.76-1.29,1.11-.47,.35-.99,.67-1.43,.9-1.73,.93-3.43,1.7-5.01,2.62-.38,.23-.77,.46-1.09,.68l-1.13,.86c-.84,.64-1.72,1.22-2.61,1.79-2.88,1.83-6.8,2.89-9.81,3.98-3.72,1.34-3.7,.43-4.54-.08-.31-.2-.17-.47,.08-.78,.65-.79,2.15-1.63,1.57-2.38-.32-.42,1.58-.8,2.53-1.1,4.03-1.24,7.79-2.98,10.93-5.52,1.13-.87,2.09-1.38,3.09-1.96l2.87-1.59c.45-.26,.91-.52,1.25-.76,.33-.22,.65-.49,.96-.79,.63-.61,1.24-1.37,1.87-2.21,5.19-7.02,10.28-14.19,15.31-21.39,6.87-9.85,13.55-19.87,20.72-29.58,3.5-4.75,7.14-9.4,10.9-13.96,1.86-2.29,3.79-4.54,5.69-6.79,1.9-2.23,3.76-4.44,5.44-6.73,1.99-2.73,3.75-5.54,4.99-8.5,.22-.53,.14-.32,.16-.38,0-.01,.02-.03,.02-.04l-.03-.03h0s.02,0-.02-.03l-.14-.09-.55-.36c-1.47-.98-2.92-1.99-4.34-3.03-1.69-1.25-3.37-2.52-5.01-3.83l-2.45-1.98-.46-.39-.1-.09-.18-.17-.22,.26-1.27,1.65-2.79,3.63c-2.74,3.55-5.53,7.12-8.06,10.85l.02-.03Z"/><g><polygon class="cls-16" points="464.98 224.77 464.98 224.77 464.98 224.77 464.98 224.77"/><polygon class="cls-16" points="463.62 224 463.62 224 463.62 224 463.62 224"/><path class="cls-16" d="M470.51,234.32c-.37,.52-.67,.86-.82,.76-.4-.27-.49-.93-.86-1.25h0s-.02,0-.02,0h0c-.18-.3-.62-.23-.82-.48-.37-.45-.97-.55-1.26-1.11-.32-.63-.98-.8-1.42-1.28-.52-.58-1.21-.93-1.9-1.25-.59-.28-1.24-.46-1.8-.79-.39-.23-.64-.65-.97-.97-.12-.11-.29-.15-.42-.26-.15-.13-.38-.13-.24-.69,.11-.47-.3-.34-.46-.49-.23-.21-.39-.53-.68-.65-.31-.11-.4-.55-.91-.35h0c-.14-.12-.22-.33-.43-.34-.47-.04-.58-.6-.84-.92-.74-.92-1.65-1.6-2.66-2.15-.39-.21-.89-.26-1.34-.39h0c-.32-.14,.21-1.18,.65-2.09,.48-.99,1.04-1.58,1.38-1.56,.65,.05,1.31,.1,1.76,.43,.41,.31,.69,.8,1.14,1.05,.23,.13,.4,.35,.6,.52h0c-.05,.1-.03,.09,.02,.02h0c.1,.49,.54,.51,.83,.75,.15,.13,.25,.34,.3,.62,.03,.19,.36,.06,.5,.15l1.28,.89c.1,.07,.19,.15,.28,.23h0c-.03,.32,.24,.19,.37,.26,.08,.04,.12,.14,.19,.19,.09,.06,.17,.15,.32,.13,.32-.05,.45,.17,.52,.49,0,.03,.09-.03,.13-.05h0s.18,0,.18,0c0,0,.02-.01,.03-.02l-.05,.08c.08,.24,.36,.18,.57,.23l-.02,.19h0s0,0,0,0h0s.02-.01,.02-.01c0,0,0,.01,0,.02,.24,.13,.62,.05,.71,.39h0s.34,.35,.34,.35h0c-.03,.08-.07,.19,.07,.03h0s.12-.04,.12-.04l.12-.14c.09,.06,.2,.1,.12,.39h0c.07-.05,.15-.13,.07,.04h-.01s.01,0,.01,0l.39,.11h0c.15-.06,.25-.09,.1,.28-.12,.28,.35-.26,.24,.05h0s0,.01,.02,.01h0s.92,.56,.92,.56h0c0,.8,.57,.78,.96,1.03,.42,.28,.89,.48,1.34,.71,.18,.09,.38,.16,.57,.24h0c.08-.06,.12-.08,.06,.05h-.01s0,0,0,0c.12,.11,.26,.24,.44,.21,.32-.05,.48,.11,.7,.2,.46,.18,.85,.47,1.29,.68,.14,.07,.35,.04,.57,0,.19-.04,.05,.22-.22,.63-.53,.79-.81,1.29-.49,1.3,.17,0,.38,.16-.54,1.24-.23,.27-.14,.27-.12,.31,.15,.24-.5,.96-.89,1.51Zm-7.54-10.35l.08-.19c-.03,.06-.07,.13-.1,.18,0,.01,.02,0,.03,0Zm1.28,.71l.08-.09-.05,.04-.02,.06Zm.65,.28l-.03-.04-.02,.11,.05-.07Zm.65,.49v-.13s-.06,.19-.06,.19l.06-.07Zm4.13,2.79v-.03s0,.01,0,.01c0,0,0,.01,0,.02Z"/></g><g><polygon class="cls-16" points="456.94 235.23 456.94 235.23 456.94 235.23 456.94 235.23"/><polygon class="cls-16" points="455.64 234.58 455.64 234.58 455.64 234.58 455.64 234.58"/><path class="cls-16" d="M462.14,244.16c-.35,.53-.63,.89-.78,.8-.38-.23-.49-.88-.83-1.16h0s-.02,0-.02,0h0c-.17-.28-.58-.19-.78-.42-.34-.41-.91-.47-1.18-1-.3-.59-.92-.71-1.32-1.15-.48-.53-1.12-.81-1.77-1.08-.55-.22-1.16-.35-1.67-.62-.36-.19-.6-.57-.91-.84-.11-.1-.27-.12-.39-.21-.14-.11-.35-.09-.23-.65,.09-.47-.28-.29-.44-.42-.22-.18-.37-.48-.65-.55-.29-.07-.39-.48-.85-.22h0c-.13-.09-.22-.29-.41-.27-.43,.03-.56-.49-.82-.76-.73-.77-1.62-1.27-2.59-1.56-.37-.11-.82-.05-1.23-.04h0c-.29-.04,0-1.16,.21-2.15,.23-1.08,.61-1.8,.95-1.85,.64-.1,1.31-.21,1.81,.04,.46,.22,.8,.66,1.28,.83,.24,.09,.44,.27,.65,.42h0c-.04,.11-.02,.09,.03,.02h0c.15,.47,.58,.42,.88,.61,.16,.1,.27,.3,.34,.57,.05,.18,.35,.01,.49,.09,.43,.23,.85,.48,1.28,.72,.1,.06,.19,.13,.28,.2h0c-.01,.31,.23,.16,.36,.22,.08,.04,.12,.13,.19,.17,.09,.05,.17,.13,.31,.09,.3-.08,.43,.13,.51,.43,0,.03,.08-.04,.13-.06h0s.17-.02,.17-.02c0,0,.02-.01,.02-.02l-.04,.08c.08,.23,.35,.15,.55,.18v.18s0,0,0,0h0s0,0,0,0c0,0,.01-.02,.01-.02,0,0,0,.01,0,.02,.23,.1,.59,0,.68,.33h0s.33,.31,.33,.31h0c-.03,.08-.07,.19,.07,.02h0s.11-.05,.11-.05l.11-.15c.09,.06,.19,.08,.12,.37h0c.06-.05,.15-.14,.06,.04h-.01s.01,0,.01,0l.37,.08h0c.14-.07,.24-.11,.09,.26-.11,.28,.33-.28,.23,.03h0s0,.01,.02,0h0s.87,.49,.87,.49h0c0,.78,.54,.72,.9,.94,.39,.24,.83,.41,1.26,.61,.17,.08,.35,.13,.53,.19h0c.07-.07,.12-.09,.06,.04h-.01s0,0,0,0c.11,.1,.24,.22,.41,.18,.3-.07,.45,.07,.66,.14,.43,.14,.79,.4,1.21,.56,.13,.05,.32,.02,.53-.05,.18-.06,.05,.21-.21,.63-.5,.81-.76,1.32-.47,1.3,.16,0,.35,.12-.51,1.25-.21,.28-.13,.27-.11,.31,.14,.22-.46,.98-.83,1.54Zm-7.13-9.55l.07-.19c-.03,.06-.06,.13-.09,.19,0,.01,.02,0,.02,0Zm1.23,.59l.07-.1-.05,.04-.02,.06Zm.62,.23l-.03-.04v.11s.03-.07,.03-.07Zm.62,.44v-.12s-.06,.2-.06,.2l.06-.07Zm3.9,2.44v-.03s0,.01,0,.01c0,0,0,.01,0,.02Z"/></g><g><polygon class="cls-16" points="405.05 301.48 405.06 301.48 405.06 301.48 405.05 301.48"/><polygon class="cls-16" points="403.16 302.32 403.16 302.33 403.16 302.33 403.16 302.32"/><path class="cls-16" d="M408.82,310.47c-.6-.23-.99-.45-.9-.72,.26-.71,.95-1.25,1.23-1.98h-.01s.01-.05,.01-.05h0c.28-.44,.12-1,.32-1.46,.05-.1,.08-.2,.12-.31l.03-.08s0-.07,0-.1c0-.07,.02-.11,.2-.27,.4-.39,.24-.61,.07-.82-.2-.24-.7,.07-.93,.33-.06,.06-.08,.11-.15,.18l-.68,.49c-.48,.33-1.01,.68-1.62,.96-.72,.33-1.57,.47-2.41,.56l-5.85,.63,2.97-4.33,.13-.19c.11-.16,.11-.38,.2-.57,.11-.24,.06-.52,.66-.67,.5-.14,.27-.63,.38-.97,.08-.24,.19-.48,.28-.72,.06-.09,.11-.21,.09-.32-.04-.18,.35-.57-.1-.56h0c.05-.11,.23-.32,.14-.35-.12-.03,0-.19,.19-.44,.07-.1,.18-.22,.25-.32,0-.04-.02-.08-.05-.1-.22-.12-.68-.13-1.19-.08-.25,.02-.52,.06-.78,.1l-1.35,.23c-.74,.13-1.47,.45-2.21,.66h0c-.59,.12-.99-1.01-1.36-1.98-.4-1.06-.28-1.88,.2-2.09,.91-.39,1.8-.82,2.72-.91,.42-.04,.84-.02,1.27-.02,.06,0,.35-.02,.52-.03l.6-.05c.4-.04,.79-.1,1.2-.18,.83-.17,1.64-.25,2.45-.39h-.01c-.04,.13,0,.1,.09,0h0c.87,.17,2.16-.33,3.28-.53,.25-.04,.47-.06,.66-.06,.11,.05,.18,.14,.2,.27-.08,.12-.16,.24-.25,.36-.42,.61-.19,.81-.44,1.41l-1.09,2.56c-.14,.39-.33,.8-.43,1.17-.09,.37-.21,.74-.28,1.11l-.25,1.01h-.01c-.18,.2-.22,.4-.21,.5,0,.13,.04,.28,.02,.41-.03,.16-.12,.3-.15,.46-.04,.2-.12,.39-.07,.61,.1,.48-.12,.89-.48,1.27-.04,.04,.04,.13,.06,.19h0c0,.1,0,.2,0,.31,0,0,.01,.02,.02,.03l-.09-.02c-.25,.3-.27,.7-.36,1.1l-2.6-3.34,.08-.05,.15,.13h0s0-.01,0-.01h0s0-.02,0-.02c0,0,0,0,.01,.02,.34-.11,.57-.48,.99-.4h0c.22-.06,.43-.12,.66-.19h0c.08,.06,.16,.15,.1-.06h0s.04-.13,.04-.13l-.05-.17c.15-.07,.28-.17,.55,0h0c0-.08-.03-.2,.1-.05,0,0,0,0,0,.01v-.02s.49-.41,.49-.41h0c.07-.19,.11-.31,.45-.05,.27,.19,.19-.56,.54-.39h0s.04-.02,.06-.03h0c.91-.48,1.86-.89,2.79-1.16h0c.53,.2,1.03,.18,1.54,.16,.52-.03,1.03-.08,1.49,.07,.51,.15,1.05,.53,1.37,.97,.32,.44,.52,.9,.65,1.41l.13,.65c.04,.23,.05,.48,.07,.73h0c.11,.03,.14,.09-.02,.22h-.02s0,0,0,0c-.07,.46-.17,.97-.11,1.33,.12,.63-.06,1.32-.16,2l-.12,.77-.13,.64-.29,1.28c-.06,.27-.01,.58,.06,.89,.06,.27-.24,.25-.72,.12-.92-.25-1.5-.33-1.48,.16,0,.26-.16,.68-1.42,.02-.31-.16-.31-.03-.35,.03-.26,.36-1.1-.13-1.73-.37Zm-3.01-5.84h.22c-.07-.03-.14-.04-.21-.05-.01,0,0,.03,0,.05Zm-1.47-2.45l-.03-.12v.07s.03,.05,.03,.05Zm.86-.53l-.07,.02,.11,.06-.03-.07Zm1.17-.56l-.15-.04,.18,.13-.02-.09Zm8.86,2.36l.04-.04h-.02s-.01,.03-.02,.04Z"/></g><path class="cls-16" d="M388.66,322.9l-.66-.59,2.26-9.16,.86-.21,5.63,6.31-.2,.8-7.9,2.85Zm2.35-8.59l-1.81,7.33,6.32-2.29-4.51-5.05Z"/></g></g><g class="cls-18"><g><circle class="cls-15" cx="484.95" cy="254.25" r="2.25"/><circle class="cls-15" cx="461.08" cy="254.25" r="2.25"/><circle class="cls-15" cx="437.2" cy="254.25" r="2.25"/><circle class="cls-15" cx="413.33" cy="254.25" r="2.25"/><circle class="cls-15" cx="389.46" cy="254.25" r="2.25"/><circle class="cls-15" cx="365.59" cy="254.25" r="2.25"/><circle class="cls-15" cx="341.72" cy="254.25" r="2.25"/><circle class="cls-12" cx="317.85" cy="254.25" r="2.25"/><circle class="cls-12" cx="293.97" cy="254.25" r="2.25"/><circle class="cls-12" cx="270.1" cy="254.25" r="2.25"/><circle class="cls-12" cx="246.23" cy="254.25" r="2.25"/><circle class="cls-12" cx="222.36" cy="254.25" r="2.25"/><circle class="cls-15" cx="484.95" cy="278.84" r="2.25"/><circle class="cls-15" cx="461.08" cy="278.84" r="2.25"/><circle class="cls-15" cx="437.2" cy="278.84" r="2.25"/><circle class="cls-15" cx="413.33" cy="278.84" r="2.25"/><circle class="cls-15" cx="389.46" cy="278.84" r="2.25"/><circle class="cls-15" cx="365.59" cy="278.84" r="2.25"/><circle class="cls-15" cx="341.72" cy="278.84" r="2.25"/><circle class="cls-15" cx="317.85" cy="278.84" r="2.25"/><circle class="cls-15" cx="293.97" cy="278.84" r="2.25"/><circle class="cls-12" cx="270.1" cy="278.84" r="2.25"/><circle class="cls-12" cx="246.23" cy="278.84" r="2.25"/><circle class="cls-12" cx="222.36" cy="278.84" r="2.25"/><circle class="cls-15" cx="484.95" cy="302.71" r="2.25"/><circle class="cls-15" cx="461.08" cy="302.71" r="2.25"/><circle class="cls-15" cx="437.2" cy="302.71" r="2.25"/><circle class="cls-15" cx="413.33" cy="302.71" r="2.25"/><circle class="cls-15" cx="389.46" cy="302.71" r="2.25"/><circle class="cls-15" cx="365.59" cy="302.71" r="2.25"/><circle class="cls-15" cx="341.72" cy="302.71" r="2.25"/><circle class="cls-15" cx="317.85" cy="302.71" r="2.25"/><circle class="cls-15" cx="293.97" cy="302.71" r="2.25"/><circle class="cls-15" cx="270.1" cy="302.71" r="2.25"/><circle class="cls-15" cx="246.23" cy="302.71" r="2.25"/><circle class="cls-12" cx="222.36" cy="302.71" r="2.25"/><circle class="cls-15" cx="484.95" cy="327.3" r="2.25"/><circle class="cls-15" cx="461.08" cy="327.3" r="2.25"/><circle class="cls-15" cx="437.2" cy="327.3" r="2.25"/><circle class="cls-15" cx="413.33" cy="327.3" r="2.25"/><circle class="cls-15" cx="389.46" cy="327.3" r="2.25"/><circle class="cls-15" cx="365.59" cy="327.3" r="2.25"/><circle class="cls-15" cx="341.72" cy="327.3" r="2.25"/><circle class="cls-15" cx="317.85" cy="327.3" r="2.25"/><circle class="cls-15" cx="293.97" cy="327.3" r="2.25"/><circle class="cls-15" cx="270.1" cy="327.3" r="2.25"/><circle class="cls-15" cx="246.23" cy="327.3" r="2.25"/><circle class="cls-15" cx="222.36" cy="327.3" r="2.25"/><circle class="cls-15" cx="484.95" cy="351.17" r="2.25"/><circle class="cls-15" cx="461.08" cy="351.17" r="2.25"/><circle class="cls-15" cx="437.2" cy="351.17" r="2.25"/><circle class="cls-15" cx="413.33" cy="351.17" r="2.25"/><circle class="cls-15" cx="389.46" cy="351.17" r="2.25"/><circle class="cls-15" cx="365.59" cy="351.17" r="2.25"/><circle class="cls-15" cx="341.72" cy="351.17" r="2.25"/><circle class="cls-15" cx="317.85" cy="351.17" r="2.25"/><circle class="cls-15" cx="293.97" cy="351.17" r="2.25"/><circle class="cls-15" cx="270.1" cy="351.17" r="2.25"/><circle class="cls-15" cx="246.23" cy="351.17" r="2.25"/><circle class="cls-15" cx="222.36" cy="351.17" r="2.25"/></g></g></g><g><g class="cls-24"><g><line class="cls-7" x1="12.87" y1="27.37" x2="-700.85" y2="27.37"/><line class="cls-7" x1="12.87" y1="73.4" x2="-700.85" y2="73.4"/><line class="cls-7" x1="12.87" y1="119.42" x2="-700.85" y2="119.42"/><line class="cls-7" x1="12.87" y1="165.45" x2="-700.85" y2="165.45"/><line class="cls-7" x1="12.87" y1="211.47" x2="-700.85" y2="211.47"/><line class="cls-7" x1="12.87" y1="257.5" x2="-700.85" y2="257.5"/><line class="cls-7" x1="12.87" y1="303.53" x2="-700.85" y2="303.53"/><line class="cls-7" x1="12.87" y1="349.55" x2="-700.85" y2="349.55"/><line class="cls-7" x1="12.87" y1="395.58" x2="-700.85" y2="395.58"/><line class="cls-7" x1="12.87" y1="441.6" x2="-700.85" y2="441.6"/><line class="cls-7" x1="12.87" y1="487.63" x2="-700.85" y2="487.63"/></g><g class="cls-30"><g class="cls-23"><g><g><path class="cls-3" d="M192.34,1493.92l-.94-10.13c-.15-1.66-.33-3.52-.53-5.58-1.85-15.03-3.99-29.7-4.15-44.65-.17-1.93-.35-3.9-.53-5.91C157.2,1115.68,35.72-191.66,35.72-191.66"/><path class="cls-3" d="M155.98,1496.91c-1.27-15.68-14.62-24.61-24.3-36.23-.99-2.25-2.76-4.44-2.2-6.84,4.28-12.92,19.99-20.63,19.17-35.77-.19-2.17-.4-4.39-.61-6.65C116.18,1068.55-.64-188.67-.64-188.67"/><line class="cls-3" x1="119.63" y1="1499.9" x2="-37" y2="-185.68"/><line class="cls-3" x1="83.27" y1="1502.89" x2="-73.36" y2="-182.69"/><line class="cls-3" x1="46.91" y1="1505.88" x2="-109.72" y2="-179.7"/><line class="cls-3" x1="10.55" y1="1508.87" x2="-146.08" y2="-176.71"/></g><g><line class="cls-3" x1="639.6" y1="440.66" x2="-1287.27" y2="-445.24"/><line class="cls-3" x1="623.92" y1="473.6" x2="-1302.95" y2="-412.3"/><line class="cls-3" x1="608.24" y1="506.54" x2="-1318.63" y2="-379.36"/><line class="cls-3" x1="592.56" y1="539.49" x2="-1334.31" y2="-346.42"/><line class="cls-3" x1="576.88" y1="572.43" x2="-1349.99" y2="-313.48"/><line class="cls-3" x1="561.2" y1="605.37" x2="-1365.67" y2="-280.53"/><line class="cls-3" x1="545.52" y1="638.31" x2="-1381.35" y2="-247.59"/><line class="cls-3" x1="529.84" y1="671.25" x2="-1397.03" y2="-214.65"/><line class="cls-3" x1="514.16" y1="704.2" x2="-1412.71" y2="-181.71"/><line class="cls-3" x1="498.48" y1="737.14" x2="-1428.39" y2="-148.77"/><line class="cls-3" x1="482.8" y1="770.08" x2="-1444.07" y2="-115.82"/><line class="cls-3" x1="467.12" y1="803.02" x2="-1459.75" y2="-82.88"/><line class="cls-3" x1="451.44" y1="835.96" x2="-1475.44" y2="-49.94"/><line class="cls-3" x1="435.76" y1="868.91" x2="-1491.12" y2="-17"/><line class="cls-3" x1="420.08" y1="901.85" x2="-1506.8" y2="15.94"/><line class="cls-3" x1="404.39" y1="934.79" x2="-1522.48" y2="48.89"/><line class="cls-3" x1="388.71" y1="967.73" x2="-1538.16" y2="81.83"/><line class="cls-3" x1="373.03" y1="1000.67" x2="-1553.84" y2="114.77"/><line class="cls-3" x1="357.35" y1="1033.62" x2="-1569.52" y2="147.71"/><line class="cls-3" x1="341.67" y1="1066.56" x2="-1585.2" y2="180.65"/><line class="cls-3" x1="325.99" y1="1099.5" x2="-1600.88" y2="213.6"/><line class="cls-3" x1="310.31" y1="1132.44" x2="-1616.56" y2="246.54"/><line class="cls-3" x1="294.63" y1="1165.38" x2="-1632.24" y2="279.48"/><line class="cls-3" x1="278.95" y1="1198.33" x2="-1647.92" y2="312.42"/><line class="cls-3" x1="263.27" y1="1231.27" x2="-1663.6" y2="345.36"/><line class="cls-3" x1="247.59" y1="1264.21" x2="-1679.28" y2="378.3"/><line class="cls-3" x1="231.91" y1="1297.15" x2="-1694.96" y2="411.25"/><line class="cls-3" x1="216.23" y1="1330.09" x2="-1710.64" y2="444.19"/><line class="cls-3" x1="200.55" y1="1363.04" x2="-1726.33" y2="477.13"/><line class="cls-3" x1="184.87" y1="1395.98" x2="-1742.01" y2="510.07"/></g><g><line class="cls-3" x1="-1724.36" y1="1002.75" x2="6.3" y2="-223.02"/><line class="cls-3" x1="-1702.87" y1="1032.23" x2="27.78" y2="-193.53"/><line class="cls-3" x1="-1681.39" y1="1061.72" x2="49.26" y2="-164.04"/><line class="cls-3" x1="-1659.91" y1="1091.21" x2="70.74" y2="-134.56"/><line class="cls-3" x1="-1638.43" y1="1120.7" x2="92.22" y2="-105.07"/><line class="cls-3" x1="-1616.95" y1="1150.19" x2="113.71" y2="-75.58"/><line class="cls-3" x1="-1595.47" y1="1179.68" x2="135.19" y2="-46.09"/><line class="cls-3" x1="-1573.98" y1="1209.17" x2="156.67" y2="-16.6"/><line class="cls-3" x1="-1552.5" y1="1238.66" x2="178.15" y2="12.89"/><line class="cls-3" x1="-1531.02" y1="1268.14" x2="199.63" y2="42.38"/><line class="cls-3" x1="-1509.54" y1="1297.63" x2="221.11" y2="71.87"/><line class="cls-3" x1="-1488.06" y1="1327.12" x2="242.6" y2="101.35"/><line class="cls-3" x1="-1466.57" y1="1356.61" x2="264.08" y2="130.84"/><line class="cls-3" x1="-1445.09" y1="1386.1" x2="285.56" y2="160.33"/><line class="cls-3" x1="-1423.61" y1="1415.59" x2="307.04" y2="189.82"/><line class="cls-3" x1="-1402.13" y1="1445.08" x2="328.52" y2="219.31"/><line class="cls-3" x1="-1380.65" y1="1474.57" x2="350" y2="248.8"/><line class="cls-3" x1="-1359.17" y1="1504.05" x2="371.49" y2="278.29"/><line class="cls-3" x1="-1337.68" y1="1533.54" x2="392.97" y2="307.78"/><line class="cls-3" x1="-1316.2" y1="1563.03" x2="414.45" y2="337.26"/><line class="cls-3" x1="-1294.72" y1="1592.52" x2="435.93" y2="366.75"/><line class="cls-3" x1="-1273.24" y1="1622.01" x2="457.41" y2="396.24"/><line class="cls-3" x1="-1251.76" y1="1651.5" x2="478.9" y2="425.73"/><line class="cls-3" x1="-1230.28" y1="1680.99" x2="500.38" y2="455.22"/><line class="cls-3" x1="-1208.79" y1="1710.48" x2="521.86" y2="484.71"/><line class="cls-3" x1="-1187.31" y1="1739.96" x2="543.34" y2="514.2"/></g></g></g></g></g><circle class="cls-7" cx="-343.99" cy="257.5" r="226.17"/></g><g><g class="cls-21"><g><line class="cls-7" x1="487.74" y1="27.37" x2="1201.47" y2="27.37"/><line class="cls-7" x1="487.74" y1="73.4" x2="1201.47" y2="73.4"/><line class="cls-7" x1="487.74" y1="119.42" x2="1201.47" y2="119.42"/><line class="cls-7" x1="487.74" y1="165.45" x2="1201.47" y2="165.45"/><line class="cls-7" x1="487.74" y1="211.47" x2="1201.47" y2="211.47"/><line class="cls-7" x1="487.74" y1="257.5" x2="1201.47" y2="257.5"/><line class="cls-7" x1="487.74" y1="303.53" x2="1201.47" y2="303.53"/><line class="cls-7" x1="487.74" y1="349.55" x2="1201.47" y2="349.55"/><line class="cls-7" x1="487.74" y1="395.58" x2="1201.47" y2="395.58"/><line class="cls-7" x1="487.74" y1="441.6" x2="1201.47" y2="441.6"/><line class="cls-7" x1="487.74" y1="487.63" x2="1201.47" y2="487.63"/></g><g id="TfnBy8-2" class="cls-26"><g class="cls-22"><g class="cls-25"><g><line class="cls-5" x1="470.28" y1="213.99" x2="484.01" y2="630.21"/><line class="cls-5" x1="493.83" y1="213.21" x2="507.57" y2="629.43"/><line class="cls-5" x1="1201.15" y1="213.02" x2="447.49" y2="237.89"/><line class="cls-5" x1="1201.91" y1="236.15" x2="448.25" y2="261.01"/><line class="cls-5" x1="1202.67" y1="259.27" x2="449.02" y2="284.14"/><line class="cls-5" x1="1203.44" y1="282.39" x2="449.78" y2="307.26"/><line class="cls-5" x1="1204.2" y1="305.51" x2="450.54" y2="330.38"/><line class="cls-5" x1="1204.96" y1="328.64" x2="451.31" y2="353.51"/><line class="cls-5" x1="1205.72" y1="351.76" x2="452.07" y2="376.63"/><line class="cls-5" x1="1206.49" y1="374.88" x2="452.83" y2="399.75"/><line class="cls-5" x1="1207.25" y1="398.01" x2="453.6" y2="422.88"/><line class="cls-5" x1="1208.01" y1="421.13" x2="454.36" y2="446"/><line class="cls-5" x1="1208.78" y1="444.25" x2="455.12" y2="469.12"/><line class="cls-5" x1="1209.54" y1="467.38" x2="455.88" y2="492.25"/><line class="cls-5" x1="1210.3" y1="490.5" x2="456.65" y2="515.37"/><line class="cls-5" x1="1211.07" y1="513.62" x2="457.41" y2="538.49"/></g></g></g></g><g class="cls-30"><g class="cls-29"><g><g><path class="cls-4" d="M308.27,1513.92l.94-10.13c.15-1.66,.33-3.52,.53-5.58,1.85-15.03,3.99-29.7,4.15-44.65,.17-1.93,.35-3.9,.53-5.91,28.99-311.98,150.47-1619.32,150.47-1619.32"/><path class="cls-4" d="M344.63,1516.91c1.27-15.68,14.62-24.61,24.3-36.23,.99-2.25,2.76-4.44,2.2-6.84-4.28-12.92-19.99-20.63-19.17-35.77,.19-2.17,.4-4.39,.61-6.65,31.86-342.88,148.68-1600.1,148.68-1600.1"/><line class="cls-4" x1="380.99" y1="1519.9" x2="537.61" y2="-165.68"/><line class="cls-4" x1="417.35" y1="1522.89" x2="573.97" y2="-162.69"/><line class="cls-4" x1="453.71" y1="1525.88" x2="610.33" y2="-159.7"/><line class="cls-4" x1="490.06" y1="1528.87" x2="646.69" y2="-156.71"/></g><g><line class="cls-4" x1="-138.99" y1="460.66" x2="1787.88" y2="-425.24"/><line class="cls-4" x1="-123.31" y1="493.6" x2="1803.56" y2="-392.3"/><line class="cls-4" x1="-107.63" y1="526.54" x2="1819.24" y2="-359.36"/><line class="cls-4" x1="-91.95" y1="559.49" x2="1834.92" y2="-326.42"/><line class="cls-4" x1="-76.27" y1="592.43" x2="1850.6" y2="-293.48"/><line class="cls-4" x1="-60.59" y1="625.37" x2="1866.28" y2="-260.53"/><line class="cls-4" x1="-44.91" y1="658.31" x2="1881.96" y2="-227.59"/><line class="cls-4" x1="-29.23" y1="691.25" x2="1897.64" y2="-194.65"/><line class="cls-4" x1="-13.55" y1="724.2" x2="1913.32" y2="-161.71"/><line class="cls-4" x1="2.13" y1="757.14" x2="1929" y2="-128.77"/><line class="cls-4" x1="17.81" y1="790.08" x2="1944.69" y2="-95.82"/><line class="cls-4" x1="33.49" y1="823.02" x2="1960.37" y2="-62.88"/><line class="cls-4" x1="49.17" y1="855.96" x2="1976.05" y2="-29.94"/><line class="cls-4" x1="64.85" y1="888.91" x2="1991.73" y2="3"/><line class="cls-4" x1="80.54" y1="921.85" x2="2007.41" y2="35.94"/><line class="cls-4" x1="96.22" y1="954.79" x2="2023.09" y2="68.89"/><line class="cls-4" x1="111.9" y1="987.73" x2="2038.77" y2="101.83"/><line class="cls-4" x1="127.58" y1="1020.67" x2="2054.45" y2="134.77"/><line class="cls-4" x1="143.26" y1="1053.62" x2="2070.13" y2="167.71"/><line class="cls-4" x1="158.94" y1="1086.56" x2="2085.81" y2="200.65"/><line class="cls-4" x1="174.62" y1="1119.5" x2="2101.49" y2="233.6"/><line class="cls-4" x1="190.3" y1="1152.44" x2="2117.17" y2="266.54"/><line class="cls-4" x1="205.98" y1="1185.38" x2="2132.85" y2="299.48"/><line class="cls-4" x1="221.66" y1="1218.33" x2="2148.53" y2="332.42"/><line class="cls-4" x1="237.34" y1="1251.27" x2="2164.21" y2="365.36"/><line class="cls-4" x1="253.02" y1="1284.21" x2="2179.89" y2="398.3"/><line class="cls-4" x1="268.7" y1="1317.15" x2="2195.57" y2="431.25"/><line class="cls-4" x1="284.38" y1="1350.09" x2="2211.26" y2="464.19"/><line class="cls-4" x1="300.06" y1="1383.04" x2="2226.94" y2="497.13"/></g><g><line class="cls-4" x1="2224.97" y1="1022.75" x2="494.31" y2="-203.02"/><line class="cls-4" x1="2203.48" y1="1052.23" x2="472.83" y2="-173.53"/><line class="cls-4" x1="2182" y1="1081.72" x2="451.35" y2="-144.04"/><line class="cls-4" x1="2160.52" y1="1111.21" x2="429.87" y2="-114.56"/><line class="cls-4" x1="2139.04" y1="1140.7" x2="408.39" y2="-85.07"/><line class="cls-4" x1="2117.56" y1="1170.19" x2="386.91" y2="-55.58"/><line class="cls-4" x1="2096.08" y1="1199.68" x2="365.42" y2="-26.09"/><line class="cls-4" x1="2074.59" y1="1229.17" x2="343.94" y2="3.4"/><line class="cls-4" x1="2053.11" y1="1258.66" x2="322.46" y2="32.89"/><line class="cls-4" x1="2031.63" y1="1288.14" x2="300.98" y2="62.38"/><line class="cls-4" x1="2010.15" y1="1317.63" x2="279.5" y2="91.87"/><line class="cls-4" x1="1988.67" y1="1347.12" x2="258.01" y2="121.35"/><line class="cls-4" x1="1967.19" y1="1376.61" x2="236.53" y2="150.84"/><line class="cls-4" x1="1945.7" y1="1406.1" x2="215.05" y2="180.33"/><line class="cls-4" x1="1924.22" y1="1435.59" x2="193.57" y2="209.82"/><line class="cls-4" x1="1902.74" y1="1465.08" x2="172.09" y2="239.31"/><line class="cls-4" x1="1881.26" y1="1494.57" x2="150.61" y2="268.8"/><line class="cls-4" x1="1859.78" y1="1524.05" x2="129.12" y2="298.29"/><line class="cls-4" x1="1838.29" y1="1553.54" x2="107.64" y2="327.78"/><line class="cls-4" x1="1816.81" y1="1583.03" x2="86.16" y2="357.26"/><line class="cls-4" x1="1795.33" y1="1612.52" x2="64.68" y2="386.75"/><line class="cls-4" x1="1773.85" y1="1642.01" x2="43.2" y2="416.24"/><line class="cls-4" x1="1752.37" y1="1671.5" x2="21.72" y2="445.73"/><line class="cls-4" x1="1730.89" y1="1700.99" x2=".23" y2="475.22"/><line class="cls-4" x1="1709.4" y1="1730.48" x2="-21.25" y2="504.71"/></g></g></g></g></g><circle class="cls-7" cx="844.6" cy="257.5" r="226.17"/></g></svg>