<?xml version="1.0" encoding="UTF-8"?><svg id="Layer_1" xmlns="http://www.w3.org/2000/svg" xmlns:xlink="http://www.w3.org/1999/xlink" viewBox="0 0 515 515"><defs><style>.cls-1,.cls-2,.cls-3,.cls-4,.cls-5,.cls-6,.cls-7{fill:none;}.cls-8{clip-path:url(#clippath);}.cls-9{filter:url(#AI_Shadow_3);opacity:.2;}.cls-10{fill:#ef9a9a;}.cls-11{fill:#fff;}.cls-12{fill:#ffebee;}.cls-13{fill:#ef5350;}.cls-14{fill:#cbcbcb;}.cls-15{clip-path:url(#clippath-1);}.cls-16{clip-path:url(#clippath-4);}.cls-17{clip-path:url(#clippath-3);}.cls-18{clip-path:url(#clippath-2);}.cls-19{clip-path:url(#clippath-7);}.cls-20{clip-path:url(#clippath-8);}.cls-21{clip-path:url(#clippath-6);}.cls-22{clip-path:url(#clippath-5);}.cls-23{clip-path:url(#clippath-9);}.cls-24{filter:url(#drop-shadow-5);}.cls-25{filter:url(#drop-shadow-7);}.cls-26{filter:url(#drop-shadow-6);}.cls-27{filter:url(#drop-shadow-1);}.cls-28{clip-path:url(#clippath-10);}.cls-29{clip-path:url(#clippath-11);}.cls-2{stroke:#8fc588;}.cls-2,.cls-3,.cls-4,.cls-5,.cls-6,.cls-7{stroke-miterlimit:10;}.cls-3{stroke:#64b5f6;}.cls-4{stroke:#ec7d7c;}.cls-30{opacity:.5;}.cls-5{stroke:#ffcdd2;}.cls-5,.cls-6{stroke-width:.69px;}.cls-6{stroke:#aed5aa;}.cls-7{stroke:#afc6eb;stroke-width:.5px;}</style><clipPath id="clippath"><circle class="cls-7" cx="-329.6" cy="257.5" r="226.17"/></clipPath><filter id="drop-shadow-1" filterUnits="userSpaceOnUse"><feOffset dx="0" dy="0"/><feGaussianBlur result="blur" stdDeviation="1.09"/><feFlood flood-color="#000" flood-opacity=".15"/><feComposite in2="blur" operator="in"/><feComposite in="SourceGraphic"/></filter><clipPath id="clippath-1"><path class="cls-1" d="M-159.2-188.53c1.47,1.33,2.87,1.39,4.8,.6,1.23-.5,2.77-.25,4.16-.48,4.23-.7,8.46-1.55,12.7-2.19,2.38-.36,4.89,0,7.14-.67,4.34-1.28,7.49,1.36,11.6,.68,2.52-.41,5.07-.36,7.61-.49,.62-.03,1.35-.12,1.83,.09,4.09,1.72,8.48,1.31,13.08,.09,1.21-.32,2.64-.52,3.75-.28,2.44,.53,5.44,0,7.25,1.76,.81,.79,1.54,1.64,2.29,2.47,1.18,1.31,2.07,2.9,3.57,3.88,3.45,2.27,4.47,5.69,5.89,8.96,.79,1.84,1.71,3.66,2.16,5.59,.85,3.62,1.42,7.32,2.05,11,.78,4.56,1.85,9.08,1.45,13.85-.08,1-.28,2.01-.36,3.01-.28,3.47,1.58,6.28,2.74,9.32,.85,2.22,1.71,4.44,2.47,6.68,.77,2.25,1.31,4.58,2.16,6.81,1.68,4.39,2.7,8.9,2.38,13.75-.08,1.23,.24,2.57,.9,3.6,2.25,3.53,2.55,7.61,3.59,11.5,1.21,4.48,3,8.79,4.6,13.15,.86,2.34,1.55,4.65,1.08,7.33-.31,1.76,.33,3.52,.4,5.3,.09,2.6,.03,5.23,.07,7.84,.03,1.68,.07,3.36,.24,5.01,.42,4.04,.84,8.09,1.43,12.09,.22,1.52,.84,2.98,1.41,4.42,1.27,3.24,1.88,6.3-.53,10.03-1.37,2.12-1.26,4.92-1.29,7.36-.04,3.19,.27,6.37,.76,9.48,.32,2.03,1.02,4.01,1.91,5.86,1.81,3.79,2.57,7.85,3.3,11.95,.36,1.99,1.54,3.78,2.33,5.67,.86,2.04,2.27,4,2.43,6.16,.21,2.81-.2,5.8-3.89,7.95-.94,.55-1.53,1.92-1.77,2.94-.34,1.47-.11,2.96-.31,4.45-.3,2.21-.8,4.42-1.14,6.64-.21,1.38-.56,2.83-.3,4.11,.47,2.41-1.38,4.22-2.67,6.18-1.91,2.9-3.78,5.77-4.17,9.02-.25,2.06-2.51,4.05-4.96,4.7-.93,.25-1.95,.57-2.66,1.11-1.17,.88-2.21,.51-3.39,.59-3.47,.22-6.29-1.36-9.85-1.09-2.71,.2-5.47-.44-8-1.11-1.51-.4-2.78,.11-4.16,.29-2.37,.31-4.74,.67-7.11,.99-.44,.06-.97-.08-1.31,.1-2.59,1.39-5.76,1.31-8.21,3.06-.48,.34-1.19,.48-1.81,.66-3.4,.97-6.82,1.9-10.21,2.92-.62,.19-1.16,.74-1.66,1.19-1.74,1.56-3.57,2.82-6.15,3.23-1.8,.29-3.55,1.14-5.35,1.47-.8,.15-1.89-.14-2.46-.58-2.16-1.64-4.76-1.68-7.62-.87-.76,.22-1.46,.75-2.14,1.19-1.61,1.04-2.86,2.31-5.21,2.51-1.3,.11-3.07,1.53-3.92,2.67-2.4,3.24-6.12,4.64-9.83,6.13-2.11,.85-4.22,1.69-6.37,2.43-1.08,.37-2.38,.27-3.35,.75-2.35,1.17-4.58,2.53-6.81,3.88-1.8,1.09-3.46,2.38-5.32,3.39-.89,.48-2.12,.44-3.14,.78-2.95,.99-5.93,1.96-8.79,3.14-.95,.39-1.48,1.61-2.42,2.12-2.79,1.51-5.77,2.6-8.9,3.47-2.52,.7-4.65,.96-6.85,.03-.76-.32-1.98,.04-2.88-.15-1.82-.38-3.97,.3-5.56-.89-1.53-1.15-3.48-1.41-5.85-1.05-2.01,.31-4.08-.07-6.11-.18-.87-.05-1.71-.34-2.56-.26-3.08,.29-5.08-1.28-7.44-2.22-1.25-.5-4.67-.3-5.82,.81-2.12,2.04-4.55,1.66-6.96,1.75-.43,.02-.96-.27-1.26-.12-1.74,.89-3.66,1.39-5.41,2.14-3.97,1.7-7.68,3.92-11.5,5.92-.06,.03-.13,.11-.16,.1-2.9-1-4.32,2.21-6.82,2.32-2.83,2.79-7.37,2.26-10.44,4.58-.18,.13-.49,.18-.74,.19-3.25,.22-6.5,.35-9.75,.65-2.46,.23-4.92,.63-7.37,1.06-2.97,.52-5.95,1.1-8.9,1.78-1.78,.41-3.52,1.05-5.26,1.63-1.77,.58-3.34,1.36-5.41,1.4-2.22,.05-4.57,1.23-6.89,1.77-6.13,1.43-12.17,3.24-18.46,3.83-3.18,.3-6.38,1.4-9.58,2.15-.19,.04-.39,.1-.55,.2-2.01,1.35-4.01,2.73-6.04,4.06-.52,.34-1.16,.56-1.75,.81-.23,.1-.52,.09-.74,.2-2.54,1.28-5.07,2.58-7.6,3.86-.54,.28-1.09,.58-1.66,.77-4.27,1.46-6.7,5.09-10.62,6.84-3.15,1.41-4.99,3.74-7.34,5.75-1.48,1.27-3.33,2.3-5.13,3.26-2.93,1.58-5.86,3.19-8.95,4.44-1.84,.75-4.03,1.13-5.98,1.15-3.97,.04-7.63,1.54-11.41,2.48-.79,.2-1.46,.96-2.2,1.44-.82,.52-1.66,1-2.5,1.49-.16,.1-.44,.11-.52,.23-1.74,2.31-4.78,2.75-7.28,3.81-2.44,1.03-5.19,1.39-7.79,2.12-1.72,.48-2.9,.07-4.37-.52-1.77-.71-4.08-.72-6.2-.84-1.49-.08-3.07,.05-4.58,.32-.87,.15-1.7,.76-3,1.37-1.88-1.11-4.93-.37-7.62-.68-3.55-.41-6.15,1.19-9.06,2.22-10.02,3.54-20,7.16-30,10.74-11.04,3.95-22.05,7.97-33.12,11.83-10.64,3.72-21.34,7.26-32,10.91-3.32,1.14-6.61,2.39-9.91,3.58-.42,.15-.87,.23-1.55,.41-23.34-79.52-46.67-158.98-70.05-238.61,2.84-.91,5.67-1.82,8.5-2.73,9.85-3.19,19.68-6.42,29.54-9.56,17.33-5.53,34.68-10.99,52-16.53,.88-.28,1.6-1.01,2.42-1.5,.37-.22,.77-.44,1.18-.54,2.91-.7,5.88-1.18,8.71-2.09,6.2-2,12.33-4.21,18.49-6.34,.37-.13,.96-.2,1.07-.4,1.59-2.86,6.01-4.05,6.8-7.45,.15-.65,1.63-1.2,2.42-1.85,.6-.49,1-1.15,1.62-1.63,1.04-.8,2.09-1.65,3.28-2.24,1.63-.8,3.39-1.38,5.1-2.05,2.55-1,4.41-2.53,5.81-4.64,.57-.86,2-1.4,3.05-2.08,.79-.52,1.6-1.02,2.39-1.54,.15-.1,.23-.37,.34-.39,2.66-.35,3.76-2.44,5.63-3.66,2.68-1.74,5.56-3.27,8.42-4.8,1.43-.77,2.94-1.65,4.49-1.97,1.9-.4,3.88-.26,5.82-.35,.18,0,.35,.17,.51,.14,3.44-.65,6.54,1.04,9.82,.24,2.57-.62,4.85-1.14,7.31-.56,.92,.22,2.14-.16,3.22-.34,1.32-.22,2.69-.36,3.93-.81,1.6-.58,3.1-1.43,4.64-2.17,.89-.42,1.75-1.02,2.67-1.23,2.28-.51,4.59-.89,6.9-1.23,1.84-.28,3.68-.4,5.52-.64,2.44-.32,4.9-.53,7.32-1.05,3.73-.8,6.52-3.19,9.65-5.02,2.53-1.48,5.28-2.77,8.08-3.77,1.82-.65,3.25-1.44,4.45-2.72,.38-.41,.94-1.03,1.38-1.05,3.5-.18,5.99-2.34,7.63-4.36,2.08-2.56,4.23-1.9,6.6-2.1,1.72-.14,3.56,.51,5.18-.98,.25-.23,.97-.08,1.46-.19,.75-.17,1.76-.22,2.19-.65,1.8-1.76,4.38-1.7,6.5-2.66,.93-.42,2.1-.36,3.16-.55,1.35-.24,2.61-.41,3.88-1.29,1.07-.75,2.67-.95,4.05-1.35,4.82-1.41,7.78-4.37,9.97-8.07,1.12-1.9,3.39-2.42,5.52-3.03,.83-.24,1.61-.71,2.44-.89,1.13-.24,2.28-.29,3.42-.44,.6-.08,1.42-.05,1.75-.35,2.38-2.19,5.67-2.4,8.48-3.07,2.2-.52,3.66-1.93,5.71-2.36,.69-.15,1.35-.51,2.02-.76,.77-.29,1.55-.56,2.33-.85,.66-.25,1.31-.66,1.96-.73,3.21-.35,5.79-1.51,7.57-4.03,.65-.92,1.59-1.8,2.98-1.02,.05,.03,.12,.07,.17,.05,4.03-1.44,6.46,1.61,10.04,1.45,.8-.04,1.6,.17,2.37,.34,.56,.12,1.31,.24,1.55,.59,2.04,3.05,5.88,4.4,8.99,6.42,.7,.45,1.33,.98,2.05,1.41,.32,.19,.79,.31,1.21,.3,6.44-.25,9.79,3.1,12.79,6.85,1.28,1.6,3.36,2.14,5.85,1.32,2.19-.72,4.31-1.68,6.52-2.36,2.03-.62,4.12-1.18,6.19-1.42,2.23-.26,3.34-1.94,5.17-2.68,1.62-.66,2.96-1.89,4.54-2.67,2.12-1.05,4.34-1.92,6.55-2.83,.71-.29,1.49-.46,2.24-.63,3.56-.83,6.74-2.19,9.33-4.67,.95-.91,2.3-1.57,3.55-2.22,3.37-1.74,5.88-4.22,8.65-6.52,1.63-1.35,4.17-1.96,6.33-2.83,2.32-.93,4.78-1.62,7-2.7,2.34-1.15,4.4-1.17,6.4-.31,1.63,.7,2.94,.48,4.73-.48,3.32-1.79,5.38-4.26,7.38-6.92,.63-.84,2.05-1.37,3.17-1.93,3.07-1.54,5.78-3.36,7.54-6.04,.17-.26,.67-.42,1.04-.59,1.71-.77,3.73-1.27,5.07-2.35,1.79-1.44,3.08-3.32,4.56-5.03,.42-.49,.74-1.04,1.26-1.79Z"/></clipPath><clipPath id="clippath-2"><polygon class="cls-1" points="-84.39 48.41 -513.17 285.12 -622.92 76.14 -194.14 -160.58 -84.39 48.41"/></clipPath><clipPath id="clippath-3"><polygon class="cls-1" points="-644.7 58.16 -391.14 82.49 -335.91 104.81 -89.24 136.8 -56.22 -123.32 -612.56 -184.08 -644.7 58.16"/></clipPath><clipPath id="clippath-4"><circle class="cls-7" cx="-931.1" cy="257.5" r="226.17"/></clipPath><clipPath id="clippath-5"><polygon class="cls-1" points="-1201.48 437.2 -947.92 412.87 -892.69 390.54 -646.02 358.56 -613 618.68 -1169.35 679.44 -1201.48 437.2"/></clipPath><filter id="AI_Shadow_3" x="-15%" y="-15%" width="140%" height="130%"><feGaussianBlur in="SourceAlpha" result="blur" stdDeviation="10"/><feOffset dx="0" dy="5" in="blur" result="offsetBlurredAlpha"/><feMerge><feMergeNode in="offsetBlurredAlpha"/><feMergeNode in="SourceGraphic"/></feMerge></filter><clipPath id="clippath-6"><circle class="cls-7" cx="257.5" cy="257.5" r="226.17"/></clipPath><filter id="drop-shadow-5" filterUnits="userSpaceOnUse"><feOffset dx="0" dy="0"/><feGaussianBlur result="blur-2" stdDeviation="1.09"/><feFlood flood-color="#000" flood-opacity=".15"/><feComposite in2="blur-2" operator="in"/><feComposite in="SourceGraphic"/></filter><clipPath id="clippath-7"><path class="cls-1" d="M127.87,687.91c-1.47-1.33-2.87-1.39-4.8-.6-1.23,.5-2.77,.25-4.16,.48-4.23,.7-8.46,1.55-12.7,2.19-2.38,.36-4.89,0-7.14,.67-4.34,1.28-7.49-1.36-11.6-.68-2.52,.41-5.07,.36-7.61,.49-.62,.03-1.35,.12-1.83-.09-4.09-1.72-8.48-1.31-13.08-.09-1.21,.32-2.64,.52-3.75,.28-2.44-.53-5.44,0-7.25-1.76-.81-.79-1.54-1.64-2.29-2.47-1.18-1.31-2.07-2.9-3.57-3.88-3.45-2.27-4.47-5.69-5.89-8.96-.79-1.84-1.71-3.66-2.16-5.59-.85-3.62-1.42-7.32-2.05-11-.78-4.56-1.85-9.08-1.45-13.85,.08-1,.28-2.01,.36-3.01,.28-3.47-1.58-6.28-2.74-9.32-.85-2.22-1.71-4.44-2.47-6.68-.77-2.25-1.31-4.58-2.16-6.81-1.68-4.39-2.7-8.9-2.38-13.75,.08-1.23-.24-2.57-.9-3.6-2.25-3.53-2.55-7.61-3.59-11.5-1.21-4.48-3-8.79-4.6-13.15-.86-2.34-1.55-4.65-1.08-7.33,.31-1.76-.33-3.52-.4-5.3-.09-2.6-.03-5.23-.07-7.84-.03-1.68-.07-3.36-.24-5.01-.42-4.04-.84-8.09-1.43-12.09-.22-1.52-.84-2.98-1.41-4.42-1.27-3.24-1.88-6.3,.53-10.03,1.37-2.12,1.26-4.92,1.29-7.36,.04-3.19-.27-6.37-.76-9.48-.32-2.03-1.02-4.01-1.91-5.86-1.81-3.79-2.57-7.85-3.3-11.95-.36-1.99-1.54-3.78-2.33-5.67-.86-2.04-2.27-4-2.43-6.16-.21-2.81,.2-5.8,3.89-7.95,.94-.55,1.53-1.92,1.77-2.94,.34-1.47,.11-2.96,.31-4.45,.3-2.21,.8-4.42,1.14-6.64,.21-1.38,.56-2.83,.3-4.11-.47-2.41,1.38-4.22,2.67-6.18,1.91-2.9,3.78-5.77,4.17-9.02,.25-2.06,2.51-4.05,4.96-4.7,.93-.25,1.95-.57,2.66-1.11,1.17-.88,2.21-.51,3.39-.59,3.47-.22,6.29,1.36,9.85,1.09,2.71-.2,5.47,.44,8,1.11,1.51,.4,2.78-.11,4.16-.29,2.37-.31,4.74-.67,7.11-.99,.44-.06,.97,.08,1.31-.1,2.59-1.39,5.76-1.31,8.21-3.06,.48-.34,1.19-.48,1.81-.66,3.4-.97,6.82-1.9,10.21-2.92,.62-.19,1.16-.74,1.66-1.19,1.74-1.56,3.57-2.82,6.15-3.23,1.8-.29,3.55-1.14,5.35-1.47,.8-.15,1.89,.14,2.46,.58,2.16,1.64,4.76,1.68,7.62,.87,.76-.22,1.46-.75,2.14-1.19,1.61-1.04,2.86-2.31,5.21-2.51,1.3-.11,3.07-1.53,3.92-2.67,2.4-3.24,6.12-4.64,9.83-6.13,2.11-.85,4.22-1.69,6.37-2.43,1.08-.37,2.38-.27,3.35-.75,2.35-1.17,4.58-2.53,6.81-3.88,1.8-1.09,3.46-2.38,5.32-3.39,.89-.48,2.12-.44,3.14-.78,2.95-.99,5.93-1.96,8.79-3.14,.95-.39,1.48-1.61,2.42-2.12,2.79-1.51,5.77-2.6,8.9-3.47,2.52-.7,4.65-.96,6.85-.03,.76,.32,1.98-.04,2.88,.15,1.82,.38,3.97-.3,5.56,.89,1.53,1.15,3.48,1.41,5.85,1.05,2.01-.31,4.08,.07,6.11,.18,.87,.05,1.71,.34,2.56,.26,3.08-.29,5.08,1.28,7.44,2.22,1.25,.5,4.67,.3,5.82-.81,2.12-2.04,4.55-1.66,6.96-1.75,.43-.02,.96,.27,1.26,.12,1.74-.89,3.66-1.39,5.41-2.14,3.97-1.7,7.68-3.92,11.5-5.92,.06-.03,.13-.11,.16-.1,2.9,1,4.32-2.21,6.82-2.32,2.83-2.79,7.37-2.26,10.44-4.58,.18-.13,.49-.18,.74-.19,3.25-.22,6.5-.35,9.75-.65,2.46-.23,4.92-.63,7.37-1.06,2.97-.52,5.95-1.1,8.9-1.78,1.78-.41,3.52-1.05,5.26-1.63,1.77-.58,3.34-1.36,5.41-1.4,2.22-.05,4.57-1.23,6.89-1.77,6.13-1.43,12.17-3.24,18.46-3.83,3.18-.3,6.38-1.4,9.58-2.15,.19-.04,.39-.1,.55-.2,2.01-1.35,4.01-2.73,6.04-4.06,.52-.34,1.16-.56,1.75-.81,.23-.1,.52-.09,.74-.2,2.54-1.28,5.07-2.58,7.6-3.86,.54-.28,1.09-.58,1.66-.77,4.27-1.46,6.7-5.09,10.62-6.84,3.15-1.41,4.99-3.74,7.34-5.75,1.48-1.27,3.33-2.3,5.13-3.26,2.93-1.58,5.86-3.19,8.95-4.44,1.84-.75,4.03-1.13,5.98-1.15,3.97-.04,7.63-1.54,11.41-2.48,.79-.2,1.46-.96,2.2-1.44,.82-.52,1.66-1,2.5-1.49,.16-.1,.44-.11,.52-.23,1.74-2.31,4.78-2.75,7.28-3.81,2.44-1.03,5.19-1.39,7.79-2.12,1.72-.48,2.9-.07,4.37,.52,1.77,.71,4.08,.72,6.2,.84,1.49,.08,3.07-.05,4.58-.32,.87-.15,1.7-.76,3-1.37,1.88,1.11,4.93,.37,7.62,.68,3.55,.41,6.15-1.19,9.06-2.22,10.02-3.54,20-7.16,30-10.74,11.04-3.95,22.05-7.97,33.12-11.83,10.64-3.72,21.34-7.26,32-10.91,3.32-1.14,6.61-2.39,9.91-3.58,.42-.15,.87-.23,1.55-.41,23.34,79.52,46.67,158.98,70.05,238.61-2.84,.91-5.67,1.82-8.5,2.73-9.85,3.19-19.68,6.42-29.54,9.56-17.33,5.53-34.68,10.99-52,16.53-.88,.28-1.6,1.01-2.42,1.5-.37,.22-.77,.44-1.18,.54-2.91,.7-5.88,1.18-8.71,2.09-6.2,2-12.33,4.21-18.49,6.34-.37,.13-.96,.2-1.07,.4-1.59,2.86-6.01,4.05-6.8,7.45-.15,.65-1.63,1.2-2.42,1.85-.6,.49-1,1.15-1.62,1.63-1.04,.8-2.09,1.65-3.28,2.24-1.63,.8-3.39,1.38-5.1,2.05-2.55,1-4.41,2.53-5.81,4.64-.57,.86-2,1.4-3.05,2.08-.79,.52-1.6,1.02-2.39,1.54-.15,.1-.23,.37-.34,.39-2.66,.35-3.76,2.44-5.63,3.66-2.68,1.74-5.56,3.27-8.42,4.8-1.43,.77-2.94,1.65-4.49,1.97-1.9,.4-3.88,.26-5.82,.35-.18,0-.35-.17-.51-.14-3.44,.65-6.54-1.04-9.82-.24-2.57,.62-4.85,1.14-7.31,.56-.92-.22-2.14,.16-3.22,.34-1.32,.22-2.69,.36-3.93,.81-1.6,.58-3.1,1.43-4.64,2.17-.89,.42-1.75,1.02-2.67,1.23-2.28,.51-4.59,.89-6.9,1.23-1.84,.28-3.68,.4-5.52,.64-2.44,.32-4.9,.53-7.32,1.05-3.73,.8-6.52,3.19-9.65,5.02-2.53,1.48-5.28,2.77-8.08,3.77-1.82,.65-3.25,1.44-4.45,2.72-.38,.41-.94,1.03-1.38,1.05-3.5,.18-5.99,2.34-7.63,4.36-2.08,2.56-4.23,1.9-6.6,2.1-1.72,.14-3.56-.51-5.18,.98-.25,.23-.97,.08-1.46,.19-.75,.17-1.76,.22-2.19,.65-1.8,1.76-4.38,1.7-6.5,2.66-.93,.42-2.1,.36-3.16,.55-1.35,.24-2.61,.41-3.88,1.29-1.07,.75-2.67,.95-4.05,1.35-4.82,1.41-7.78,4.37-9.97,8.07-1.12,1.9-3.39,2.42-5.52,3.03-.83,.24-1.61,.71-2.44,.89-1.13,.24-2.28,.29-3.42,.44-.6,.08-1.42,.05-1.75,.35-2.38,2.19-5.67,2.4-8.48,3.07-2.2,.52-3.66,1.93-5.71,2.36-.69,.15-1.35,.51-2.02,.76-.77,.29-1.55,.56-2.33,.85-.66,.25-1.31,.66-1.96,.73-3.21,.35-5.79,1.51-7.57,4.03-.65,.92-1.59,1.8-2.98,1.02-.05-.03-.12-.07-.17-.05-4.03,1.44-6.46-1.61-10.04-1.45-.8,.04-1.6-.17-2.37-.34-.56-.12-1.31-.24-1.55-.59-2.04-3.05-5.88-4.4-8.99-6.42-.7-.45-1.33-.98-2.05-1.41-.32-.19-.79-.31-1.21-.3-6.44,.25-9.79-3.1-12.79-6.85-1.28-1.6-3.36-2.14-5.85-1.32-2.19,.72-4.31,1.68-6.52,2.36-2.03,.62-4.12,1.18-6.19,1.42-2.23,.26-3.34,1.94-5.17,2.68-1.62,.66-2.96,1.89-4.54,2.67-2.12,1.05-4.34,1.92-6.55,2.83-.71,.29-1.49,.46-2.24,.63-3.56,.83-6.74,2.19-9.33,4.67-.95,.91-2.3,1.57-3.55,2.22-3.37,1.74-5.88,4.22-8.65,6.52-1.63,1.35-4.17,1.96-6.33,2.83-2.32,.93-4.78,1.62-7,2.7-2.34,1.15-4.4,1.17-6.4,.31-1.63-.7-2.94-.48-4.73,.48-3.32,1.79-5.38,4.26-7.38,6.92-.63,.84-2.05,1.37-3.17,1.93-3.07,1.54-5.78,3.36-7.54,6.04-.17,.26-.67,.42-1.04,.59-1.71,.77-3.73,1.27-5.07,2.35-1.79,1.44-3.08,3.32-4.56,5.03-.42,.49-.74,1.04-1.26,1.79Z"/></clipPath><clipPath id="clippath-8"><polygon class="cls-1" points="53.05 450.98 481.83 214.26 591.58 423.25 162.8 659.96 53.05 450.98"/></clipPath><filter id="drop-shadow-6" filterUnits="userSpaceOnUse"><feOffset dx="0" dy="0"/><feGaussianBlur result="blur-3" stdDeviation="2"/><feFlood flood-color="#000" flood-opacity=".15"/><feComposite in2="blur-3" operator="in"/><feComposite in="SourceGraphic"/></filter><clipPath id="clippath-9"><polygon class="cls-1" points="527.88 457.2 274.32 432.87 219.09 410.54 -27.58 378.56 -60.6 638.68 495.75 699.44 527.88 457.2"/></clipPath><clipPath id="clippath-10"><circle class="cls-1" cx="257.5" cy="257.5" r="226.17"/></clipPath><filter id="drop-shadow-7" filterUnits="userSpaceOnUse"><feOffset dx="0" dy="0"/><feGaussianBlur result="blur-4" stdDeviation="2"/><feFlood flood-color="#000" flood-opacity=".15"/><feComposite in2="blur-4" operator="in"/><feComposite in="SourceGraphic"/></filter><clipPath id="clippath-11"><circle class="cls-1" cx="257.5" cy="145.41" r="81.88"/></clipPath></defs><g><g class="cls-8"><g><line class="cls-7" x1="-686.47" y1="487.63" x2="27.26" y2="487.63"/><line class="cls-7" x1="-686.47" y1="441.6" x2="27.26" y2="441.6"/><line class="cls-7" x1="-686.47" y1="395.58" x2="27.26" y2="395.58"/><line class="cls-7" x1="-686.47" y1="349.55" x2="27.26" y2="349.55"/><line class="cls-7" x1="-686.47" y1="303.53" x2="27.26" y2="303.53"/><line class="cls-7" x1="-686.47" y1="257.5" x2="27.26" y2="257.5"/><line class="cls-7" x1="-686.47" y1="211.47" x2="27.26" y2="211.47"/><line class="cls-7" x1="-686.47" y1="165.45" x2="27.26" y2="165.45"/><line class="cls-7" x1="-686.47" y1="119.42" x2="27.26" y2="119.42"/><line class="cls-7" x1="-686.47" y1="73.4" x2="27.26" y2="73.4"/><line class="cls-7" x1="-686.47" y1="27.37" x2="27.26" y2="27.37"/></g><g id="TfnBy8" class="cls-27"><g class="cls-15"><g class="cls-30"><g class="cls-18"><g><line class="cls-6" x1="85.49" y1="285.4" x2="71.75" y2="-130.82"/><line class="cls-6" x1="61.94" y1="286.17" x2="48.2" y2="-130.05"/><line class="cls-6" x1="38.38" y1="286.95" x2="24.65" y2="-129.27"/><line class="cls-6" x1="14.83" y1="287.73" x2="1.1" y2="-128.49"/><line class="cls-6" x1="-645.38" y1="286.36" x2="108.28" y2="261.5"/><line class="cls-6" x1="-646.14" y1="263.24" x2="107.51" y2="238.37"/><line class="cls-6" x1="-646.9" y1="240.12" x2="106.75" y2="215.25"/><line class="cls-6" x1="-647.67" y1="216.99" x2="105.99" y2="192.13"/><line class="cls-6" x1="-648.43" y1="193.87" x2="105.22" y2="169"/><line class="cls-6" x1="-649.19" y1="170.75" x2="104.46" y2="145.88"/><line class="cls-6" x1="-649.96" y1="147.62" x2="103.7" y2="122.76"/><line class="cls-6" x1="-650.72" y1="124.5" x2="102.94" y2="99.63"/><line class="cls-6" x1="-651.48" y1="101.38" x2="102.17" y2="76.51"/><line class="cls-6" x1="-652.24" y1="78.25" x2="101.41" y2="53.39"/><line class="cls-6" x1="-653.01" y1="55.13" x2="100.65" y2="30.26"/><line class="cls-6" x1="-653.77" y1="32.01" x2="99.88" y2="7.14"/><line class="cls-6" x1="-654.53" y1="8.89" x2="99.12" y2="-15.98"/></g></g></g></g></g><g class="cls-30"><g class="cls-17"><g><g><path class="cls-2" d="M162.02-998.57l-.94,10.13c-.15,1.66-.33,3.52-.53,5.58-1.85,15.03-3.99,29.7-4.15,44.65-.17,1.93-.35,3.9-.53,5.91C126.87-620.32,5.39,687.02,5.39,687.02"/><path class="cls-2" d="M125.66-1001.55c-1.27,15.68-14.62,24.61-24.3,36.23-.99,2.25-2.76,4.44-2.2,6.84,4.28,12.92,19.99,20.63,19.17,35.77-.19,2.17-.4,4.39-.61,6.65C85.86-573.19-30.97,684.03-30.97,684.03"/><line class="cls-2" x1="89.3" y1="-1004.54" x2="-67.33" y2="681.04"/><line class="cls-2" x1="52.94" y1="-1007.53" x2="-103.69" y2="678.05"/><line class="cls-2" x1="16.58" y1="-1010.52" x2="-140.04" y2="675.06"/></g><g><line class="cls-2" x1="609.28" y1="54.7" x2="-1317.59" y2="940.6"/><line class="cls-2" x1="593.6" y1="21.75" x2="-1333.27" y2="907.66"/><line class="cls-2" x1="577.92" y1="-11.19" x2="-1348.95" y2="874.72"/><line class="cls-2" x1="562.24" y1="-44.13" x2="-1364.63" y2="841.78"/><line class="cls-2" x1="546.56" y1="-77.07" x2="-1380.31" y2="808.83"/><line class="cls-2" x1="530.88" y1="-110.01" x2="-1395.99" y2="775.89"/><line class="cls-2" x1="515.2" y1="-142.95" x2="-1411.68" y2="742.95"/><line class="cls-2" x1="499.52" y1="-175.9" x2="-1427.36" y2="710.01"/><line class="cls-2" x1="483.84" y1="-208.84" x2="-1443.04" y2="677.07"/><line class="cls-2" x1="468.15" y1="-241.78" x2="-1458.72" y2="644.12"/><line class="cls-2" x1="452.47" y1="-274.72" x2="-1474.4" y2="611.18"/><line class="cls-2" x1="436.79" y1="-307.66" x2="-1490.08" y2="578.24"/><line class="cls-2" x1="421.11" y1="-340.61" x2="-1505.76" y2="545.3"/><line class="cls-2" x1="405.43" y1="-373.55" x2="-1521.44" y2="512.36"/><line class="cls-2" x1="389.75" y1="-406.49" x2="-1537.12" y2="479.41"/><line class="cls-2" x1="374.07" y1="-439.43" x2="-1552.8" y2="446.47"/><line class="cls-2" x1="358.39" y1="-472.37" x2="-1568.48" y2="413.53"/><line class="cls-2" x1="342.71" y1="-505.32" x2="-1584.16" y2="380.59"/><line class="cls-2" x1="327.03" y1="-538.26" x2="-1599.84" y2="347.65"/><line class="cls-2" x1="311.35" y1="-571.2" x2="-1615.52" y2="314.7"/><line class="cls-2" x1="295.67" y1="-604.14" x2="-1631.2" y2="281.76"/><line class="cls-2" x1="279.99" y1="-637.08" x2="-1646.88" y2="248.82"/><line class="cls-2" x1="264.31" y1="-670.03" x2="-1662.57" y2="215.88"/><line class="cls-2" x1="248.63" y1="-702.97" x2="-1678.25" y2="182.94"/><line class="cls-2" x1="232.95" y1="-735.91" x2="-1693.93" y2="149.99"/><line class="cls-2" x1="217.27" y1="-768.85" x2="-1709.61" y2="117.05"/><line class="cls-2" x1="201.58" y1="-801.79" x2="-1725.29" y2="84.11"/><line class="cls-2" x1="185.9" y1="-834.74" x2="-1740.97" y2="51.17"/><line class="cls-2" x1="170.22" y1="-867.68" x2="-1756.65" y2="18.23"/></g><g><line class="cls-2" x1="-1711.72" y1="-566.37" x2="18.94" y2="659.4"/><line class="cls-2" x1="-1690.23" y1="-595.85" x2="40.42" y2="629.91"/><line class="cls-2" x1="-1668.75" y1="-625.34" x2="61.9" y2="600.42"/><line class="cls-2" x1="-1647.27" y1="-654.83" x2="83.38" y2="570.94"/><line class="cls-2" x1="-1625.79" y1="-684.32" x2="104.86" y2="541.45"/><line class="cls-2" x1="-1604.31" y1="-713.81" x2="126.35" y2="511.96"/><line class="cls-2" x1="-1582.83" y1="-743.3" x2="147.83" y2="482.47"/><line class="cls-2" x1="-1561.34" y1="-772.79" x2="169.31" y2="452.98"/><line class="cls-2" x1="-1539.86" y1="-802.28" x2="190.79" y2="423.49"/><line class="cls-2" x1="-1518.38" y1="-831.76" x2="212.27" y2="394"/><line class="cls-2" x1="-1496.9" y1="-861.25" x2="233.75" y2="364.51"/><line class="cls-2" x1="-1475.42" y1="-890.74" x2="255.24" y2="335.03"/><line class="cls-2" x1="-1453.93" y1="-920.23" x2="276.72" y2="305.54"/><line class="cls-2" x1="-1432.45" y1="-949.72" x2="298.2" y2="276.05"/><line class="cls-2" x1="-1410.97" y1="-979.21" x2="319.68" y2="246.56"/><line class="cls-2" x1="-1389.49" y1="-1008.7" x2="341.16" y2="217.07"/><line class="cls-2" x1="-1368.01" y1="-1038.19" x2="362.64" y2="187.58"/><line class="cls-2" x1="-1346.53" y1="-1067.67" x2="384.13" y2="158.09"/><line class="cls-2" x1="-1325.04" y1="-1097.16" x2="405.61" y2="128.6"/><line class="cls-2" x1="-1303.56" y1="-1126.65" x2="427.09" y2="99.12"/><line class="cls-2" x1="-1282.08" y1="-1156.14" x2="448.57" y2="69.63"/><line class="cls-2" x1="-1260.6" y1="-1185.63" x2="470.05" y2="40.14"/><line class="cls-2" x1="-1239.12" y1="-1215.12" x2="491.54" y2="10.65"/></g></g></g></g></g><circle class="cls-7" cx="-329.6" cy="257.5" r="226.17"/></g><g><g class="cls-16"><g class="cls-30"><g class="cls-22"><g><line class="cls-3" x1="52.5" y1="440.66" x2="-1874.37" y2="-445.24"/><line class="cls-3" x1="36.82" y1="473.6" x2="-1890.05" y2="-412.3"/><line class="cls-3" x1="21.14" y1="506.54" x2="-1905.73" y2="-379.36"/><line class="cls-3" x1="5.46" y1="539.49" x2="-1921.41" y2="-346.42"/></g></g></g></g><circle class="cls-7" cx="-931.1" cy="257.5" r="226.17"/></g><g><g id="svg_shadow" class="cls-9"><circle class="cls-14" cx="257.5" cy="257.5" r="241.5"/></g><g><path class="cls-11" d="M257.5,491.5c-62.5,0-121.27-24.34-165.46-68.54-44.2-44.2-68.54-102.96-68.54-165.46s24.34-121.27,68.54-165.46S195,23.5,257.5,23.5s121.27,24.34,165.46,68.54c44.2,44.2,68.54,102.96,68.54,165.46s-24.34,121.27-68.54,165.46-102.96,68.54-165.46,68.54Z"/><path class="cls-11" d="M257.5,31c30.58,0,60.25,5.99,88.16,17.79,26.97,11.41,51.19,27.74,72,48.55s37.14,45.03,48.55,72c11.81,27.91,17.79,57.58,17.79,88.16s-5.99,60.25-17.79,88.16c-11.41,26.97-27.74,51.19-48.55,72-20.81,20.81-45.03,37.14-72,48.55-27.91,11.81-57.58,17.79-88.16,17.79s-60.25-5.99-88.16-17.79c-26.97-11.41-51.19-27.74-72-48.55-20.81-20.81-37.14-45.03-48.55-72-11.81-27.91-17.79-57.58-17.79-88.16s5.99-60.25,17.79-88.16c11.41-26.97,27.74-51.19,48.55-72s45.03-37.14,72-48.55c27.91-11.81,57.58-17.79,88.16-17.79m0-15C124.12,16,16,124.12,16,257.5s108.12,241.5,241.5,241.5,241.5-108.12,241.5-241.5S390.88,16,257.5,16h0Z"/></g><g><circle class="cls-1" cx="257.5" cy="257.5" r="226.52"/><path class="cls-1" d="M257.5,484.04c60.51,0,117.4-23.56,160.19-66.35,42.79-42.79,66.35-99.68,66.35-160.19s-23.56-117.4-66.35-160.19c-42.79-42.79-99.68-66.35-160.19-66.35s-117.4,23.56-160.19,66.35C54.52,140.1,30.96,196.99,30.96,257.5s23.56,117.4,66.35,160.19c42.79,42.79,99.68,66.35,160.19,66.35Z"/><g><g class="cls-21"><g><line class="cls-7" x1="498.97" y1="-156.73" x2="498.97" y2="671.73"/><line class="cls-7" x1="452.95" y1="-156.73" x2="452.95" y2="671.73"/><line class="cls-7" x1="406.92" y1="-156.73" x2="406.92" y2="671.73"/><line class="cls-7" x1="360.9" y1="-156.73" x2="360.9" y2="671.73"/><line class="cls-7" x1="314.87" y1="-156.73" x2="314.87" y2="671.73"/><line class="cls-7" x1="268.84" y1="-156.73" x2="268.84" y2="671.73"/><line class="cls-7" x1="222.82" y1="-156.73" x2="222.82" y2="671.73"/><line class="cls-7" x1="176.79" y1="-156.73" x2="176.79" y2="671.73"/><line class="cls-7" x1="130.77" y1="-156.73" x2="130.77" y2="671.73"/><line class="cls-7" x1="84.74" y1="-156.73" x2="84.74" y2="671.73"/><line class="cls-7" x1="38.72" y1="-156.73" x2="38.72" y2="671.73"/><line class="cls-7" x1="-99.36" y1="27.37" x2="614.36" y2="27.37"/><line class="cls-7" x1="-99.36" y1="73.4" x2="614.36" y2="73.4"/><line class="cls-7" x1="-99.36" y1="119.42" x2="614.36" y2="119.42"/><line class="cls-7" x1="-99.36" y1="165.45" x2="614.36" y2="165.45"/><line class="cls-7" x1="-99.36" y1="211.47" x2="614.36" y2="211.47"/><line class="cls-7" x1="-99.36" y1="257.5" x2="614.36" y2="257.5"/><line class="cls-7" x1="-99.36" y1="303.53" x2="614.36" y2="303.53"/><line class="cls-7" x1="-99.36" y1="349.55" x2="614.36" y2="349.55"/><line class="cls-7" x1="-99.36" y1="395.58" x2="614.36" y2="395.58"/><line class="cls-7" x1="-99.36" y1="441.6" x2="614.36" y2="441.6"/><line class="cls-7" x1="-99.36" y1="487.63" x2="614.36" y2="487.63"/></g><g id="TfnBy8-2" class="cls-24"><path class="cls-12" d="M128.03,688.23c-1.47-1.33-2.87-1.39-4.8-.6-1.23,.5-2.77,.25-4.16,.48-4.23,.7-8.46,1.55-12.7,2.19-2.38,.36-4.89,0-7.14,.67-4.34,1.28-7.49-1.36-11.6-.68-2.52,.41-5.07,.36-7.61,.49-.62,.03-1.35,.12-1.83-.09-4.09-1.72-8.48-1.31-13.08-.09-1.21,.32-2.64,.52-3.75,.28-2.44-.53-5.44,0-7.25-1.76-.81-.79-1.54-1.64-2.29-2.47-1.18-1.31-2.07-2.9-3.57-3.88-3.45-2.27-4.47-5.69-5.89-8.96-.79-1.84-1.71-3.66-2.16-5.59-.85-3.62-1.42-7.32-2.05-11-.78-4.56-1.85-9.08-1.45-13.85,.08-1,.28-2.01,.36-3.01,.28-3.47-1.58-6.28-2.74-9.32-.85-2.22-1.71-4.44-2.47-6.68-.77-2.25-1.31-4.58-2.16-6.81-1.68-4.39-2.7-8.9-2.38-13.75,.08-1.23-.24-2.57-.9-3.6-2.25-3.53-2.55-7.61-3.59-11.5-1.21-4.48-3-8.79-4.6-13.15-.86-2.34-1.55-4.65-1.08-7.33,.31-1.76-.33-3.52-.4-5.3-.09-2.6-.03-5.23-.07-7.84-.03-1.68-.07-3.36-.24-5.01-.42-4.04-.84-8.09-1.43-12.09-.22-1.52-.84-2.98-1.41-4.42-1.27-3.24-1.88-6.3,.53-10.03,1.37-2.12,1.26-4.92,1.29-7.36,.04-3.19-.27-6.37-.76-9.48-.32-2.03-1.02-4.01-1.91-5.86-1.81-3.79-2.57-7.85-3.3-11.95-.36-1.99-1.54-3.78-2.33-5.67-.86-2.04-2.27-4-2.43-6.16-.21-2.81,.2-5.8,3.89-7.95,.94-.55,1.53-1.92,1.77-2.94,.34-1.47,.11-2.96,.31-4.45,.3-2.21,.8-4.42,1.14-6.64,.21-1.38,.56-2.83,.3-4.11-.47-2.41,1.38-4.22,2.67-6.18,1.91-2.9,3.78-5.77,4.17-9.02,.25-2.06,2.51-4.05,4.96-4.7,.93-.25,1.95-.57,2.66-1.11,1.17-.88,2.21-.51,3.39-.59,3.47-.22,6.29,1.36,9.85,1.09,2.71-.2,5.47,.44,8,1.11,1.51,.4,2.78-.11,4.16-.29,2.37-.31,4.74-.67,7.11-.99,.44-.06,.97,.08,1.31-.1,2.59-1.39,5.76-1.31,8.21-3.06,.48-.34,1.19-.48,1.81-.66,3.4-.97,6.82-1.9,10.21-2.92,.62-.19,1.16-.74,1.66-1.19,1.74-1.56,3.57-2.82,6.15-3.23,1.8-.29,3.55-1.14,5.35-1.47,.8-.15,1.89,.14,2.46,.58,2.16,1.64,4.76,1.68,7.62,.87,.76-.22,1.46-.75,2.14-1.19,1.61-1.04,2.86-2.31,5.21-2.51,1.3-.11,3.07-1.53,3.92-2.67,2.4-3.24,6.12-4.64,9.83-6.13,2.11-.85,4.22-1.69,6.37-2.43,1.08-.37,2.38-.27,3.35-.75,2.35-1.17,4.58-2.53,6.81-3.88,1.8-1.09,3.46-2.38,5.32-3.39,.89-.48,2.12-.44,3.14-.78,2.95-.99,5.93-1.96,8.79-3.14,.95-.39,1.48-1.61,2.42-2.12,2.79-1.51,5.77-2.6,8.9-3.47,2.52-.7,4.65-.96,6.85-.03,.76,.32,1.98-.04,2.88,.15,1.82,.38,3.97-.3,5.56,.89,1.53,1.15,3.48,1.41,5.85,1.05,2.01-.31,4.08,.07,6.11,.18,.87,.05,1.71,.34,2.56,.26,3.08-.29,5.08,1.28,7.44,2.22,1.25,.5,4.67,.3,5.82-.81,2.12-2.04,4.55-1.66,6.96-1.75,.43-.02,.96,.27,1.26,.12,1.74-.89,3.66-1.39,5.41-2.14,3.97-1.7,7.68-3.92,11.5-5.92,.06-.03,.13-.11,.16-.1,2.9,1,4.32-2.21,6.82-2.32,2.83-2.79,7.37-2.26,10.44-4.58,.18-.13,.49-.18,.74-.19,3.25-.22,6.5-.35,9.75-.65,2.46-.23,4.92-.63,7.37-1.06,2.97-.52,5.95-1.1,8.9-1.78,1.78-.41,3.52-1.05,5.26-1.63,1.77-.58,3.34-1.36,5.41-1.4,2.22-.05,4.57-1.23,6.89-1.77,6.13-1.43,12.17-3.24,18.46-3.83,3.18-.3,6.38-1.4,9.58-2.15,.19-.04,.39-.1,.55-.2,2.01-1.35,4.01-2.73,6.04-4.06,.52-.34,1.16-.56,1.75-.81,.23-.1,.52-.09,.74-.2,2.54-1.28,5.07-2.58,7.6-3.86,.54-.28,1.09-.58,1.66-.77,4.27-1.46,6.7-5.09,10.62-6.84,3.15-1.41,4.99-3.74,7.34-5.75,1.48-1.27,3.33-2.3,5.13-3.26,2.93-1.58,5.86-3.19,8.95-4.44,1.84-.75,4.03-1.13,5.98-1.15,3.97-.04,7.63-1.54,11.41-2.48,.79-.2,1.46-.96,2.2-1.44,.82-.52,1.66-1,2.5-1.49,.16-.1,.44-.11,.52-.23,1.74-2.31,4.78-2.75,7.28-3.81,2.44-1.03,5.19-1.39,7.79-2.12,1.72-.48,2.9-.07,4.37,.52,1.77,.71,4.08,.72,6.2,.84,1.49,.08,3.07-.05,4.58-.32,.87-.15,1.7-.76,3-1.37,1.88,1.11,4.93,.37,7.62,.68,3.55,.41,6.15-1.19,9.06-2.22,10.02-3.54,20-7.16,30-10.74,11.04-3.95,22.05-7.97,33.12-11.83,10.64-3.72,21.34-7.26,32-10.91,3.32-1.14,6.61-2.39,9.91-3.58,.42-.15,.87-.23,1.55-.41,23.34,79.52,46.67,158.98,70.05,238.61-2.84,.91-5.67,1.82-8.5,2.73-9.85,3.19-19.68,6.42-29.54,9.56-17.33,5.53-34.68,10.99-52,16.53-.88,.28-1.6,1.01-2.42,1.5-.37,.22-.77,.44-1.18,.54-2.91,.7-5.88,1.18-8.71,2.09-6.2,2-12.33,4.21-18.49,6.34-.37,.13-.96,.2-1.07,.4-1.59,2.86-6.01,4.05-6.8,7.45-.15,.65-1.63,1.2-2.42,1.85-.6,.49-1,1.15-1.62,1.63-1.04,.8-2.09,1.65-3.28,2.24-1.63,.8-3.39,1.38-5.1,2.05-2.55,1-4.41,2.53-5.81,4.64-.57,.86-2,1.4-3.05,2.08-.79,.52-1.6,1.02-2.39,1.54-.15,.1-.23,.37-.34,.39-2.66,.35-3.76,2.44-5.63,3.66-2.68,1.74-5.56,3.27-8.42,4.8-1.43,.77-2.94,1.65-4.49,1.97-1.9,.4-3.88,.26-5.82,.35-.18,0-.35-.17-.51-.14-3.44,.65-6.54-1.04-9.82-.24-2.57,.62-4.85,1.14-7.31,.56-.92-.22-2.14,.16-3.22,.34-1.32,.22-2.69,.36-3.93,.81-1.6,.58-3.1,1.43-4.64,2.17-.89,.42-1.75,1.02-2.67,1.23-2.28,.51-4.59,.89-6.9,1.23-1.84,.28-3.68,.4-5.52,.64-2.44,.32-4.9,.53-7.32,1.05-3.73,.8-6.52,3.19-9.65,5.02-2.53,1.48-5.28,2.77-8.08,3.77-1.82,.65-3.25,1.44-4.45,2.72-.38,.41-.94,1.03-1.38,1.05-3.5,.18-5.99,2.34-7.63,4.36-2.08,2.56-4.23,1.9-6.6,2.1-1.72,.14-3.56-.51-5.18,.98-.25,.23-.97,.08-1.46,.19-.75,.17-1.76,.22-2.19,.65-1.8,1.76-4.38,1.7-6.5,2.66-.93,.42-2.1,.36-3.16,.55-1.35,.24-2.61,.41-3.88,1.29-1.07,.75-2.67,.95-4.05,1.35-4.82,1.41-7.78,4.37-9.97,8.07-1.12,1.9-3.39,2.42-5.52,3.03-.83,.24-1.61,.71-2.44,.89-1.13,.24-2.28,.29-3.42,.44-.6,.08-1.42,.05-1.75,.35-2.38,2.19-5.67,2.4-8.48,3.07-2.2,.52-3.66,1.93-5.71,2.36-.69,.15-1.35,.51-2.02,.76-.77,.29-1.55,.56-2.33,.85-.66,.25-1.31,.66-1.96,.73-3.21,.35-5.79,1.51-7.57,4.03-.65,.92-1.59,1.8-2.98,1.02-.05-.03-.12-.07-.17-.05-4.03,1.44-6.46-1.61-10.04-1.45-.8,.04-1.6-.17-2.37-.34-.56-.12-1.31-.24-1.55-.59-2.04-3.05-5.88-4.4-8.99-6.42-.7-.45-1.33-.98-2.05-1.41-.32-.19-.79-.31-1.21-.3-6.44,.25-9.79-3.1-12.79-6.85-1.28-1.6-3.36-2.14-5.85-1.32-2.19,.72-4.31,1.68-6.52,2.36-2.03,.62-4.12,1.18-6.19,1.42-2.23,.26-3.34,1.94-5.17,2.68-1.62,.66-2.96,1.89-4.54,2.67-2.12,1.05-4.34,1.92-6.55,2.83-.71,.29-1.49,.46-2.24,.63-3.56,.83-6.74,2.19-9.33,4.67-.95,.91-2.3,1.57-3.55,2.22-3.37,1.74-5.88,4.22-8.65,6.52-1.63,1.35-4.17,1.96-6.33,2.83-2.32,.93-4.78,1.62-7,2.7-2.34,1.15-4.4,1.17-6.4,.31-1.63-.7-2.94-.48-4.73,.48-3.32,1.79-5.38,4.26-7.38,6.92-.63,.84-2.05,1.37-3.17,1.93-3.07,1.54-5.78,3.36-7.54,6.04-.17,.26-.67,.42-1.04,.59-1.71,.77-3.73,1.27-5.07,2.35-1.79,1.44-3.08,3.32-4.56,5.03-.42,.49-.74,1.04-1.26,1.79Z"/><g class="cls-19"><g class="cls-20"><g><line class="cls-5" x1=".93" y1="210.1" x2="14.67" y2="626.32"/><line class="cls-5" x1="24.49" y1="209.33" x2="38.22" y2="625.55"/><line class="cls-5" x1="48.04" y1="208.55" x2="61.77" y2="624.77"/><line class="cls-5" x1="71.59" y1="207.77" x2="85.32" y2="623.99"/><line class="cls-5" x1="95.14" y1="207" x2="108.88" y2="623.21"/><line class="cls-5" x1="118.69" y1="206.22" x2="132.43" y2="622.44"/><line class="cls-5" x1="142.24" y1="205.44" x2="155.98" y2="621.66"/><line class="cls-5" x1="165.8" y1="204.66" x2="179.53" y2="620.88"/><line class="cls-5" x1="189.35" y1="203.89" x2="203.08" y2="620.11"/><line class="cls-5" x1="212.9" y1="203.11" x2="226.63" y2="619.33"/><line class="cls-5" x1="236.45" y1="202.33" x2="250.19" y2="618.55"/><line class="cls-5" x1="260" y1="201.56" x2="273.74" y2="617.77"/><line class="cls-5" x1="283.55" y1="200.78" x2="297.29" y2="617"/><line class="cls-5" x1="307.11" y1="200" x2="320.84" y2="616.22"/><line class="cls-5" x1="330.66" y1="199.22" x2="344.39" y2="615.44"/><line class="cls-5" x1="354.21" y1="198.45" x2="367.94" y2="614.67"/><line class="cls-5" x1="377.76" y1="197.67" x2="391.5" y2="613.89"/><line class="cls-5" x1="401.31" y1="196.89" x2="415.05" y2="613.11"/><line class="cls-5" x1="424.87" y1="196.12" x2="438.6" y2="612.33"/><line class="cls-5" x1="448.42" y1="195.34" x2="462.15" y2="611.56"/><line class="cls-5" x1="471.97" y1="194.56" x2="485.7" y2="610.78"/><line class="cls-5" x1="495.52" y1="193.78" x2="509.25" y2="610"/><line class="cls-5" x1="614.04" y1="213.02" x2="-139.61" y2="237.89"/><line class="cls-5" x1="614.8" y1="236.15" x2="-138.85" y2="261.01"/><line class="cls-5" x1="615.57" y1="259.27" x2="-138.09" y2="284.14"/><line class="cls-5" x1="616.33" y1="282.39" x2="-137.32" y2="307.26"/><line class="cls-5" x1="617.09" y1="305.51" x2="-136.56" y2="330.38"/><line class="cls-5" x1="617.86" y1="328.64" x2="-135.8" y2="353.51"/><line class="cls-5" x1="618.62" y1="351.76" x2="-135.03" y2="376.63"/><line class="cls-5" x1="619.38" y1="374.88" x2="-134.27" y2="399.75"/><line class="cls-5" x1="620.15" y1="398.01" x2="-133.51" y2="422.88"/><line class="cls-5" x1="620.91" y1="421.13" x2="-132.75" y2="446"/><line class="cls-5" x1="621.67" y1="444.25" x2="-131.98" y2="469.12"/><line class="cls-5" x1="622.43" y1="467.38" x2="-131.22" y2="492.25"/><line class="cls-5" x1="623.2" y1="490.5" x2="-130.46" y2="515.37"/><line class="cls-5" x1="623.96" y1="513.62" x2="-129.69" y2="538.49"/></g></g></g></g><g><g class="cls-26"><polygon class="cls-10" points="527.88 457.2 274.32 432.87 219.09 410.54 -27.58 378.56 -60.6 638.68 495.75 699.44 527.88 457.2"/></g><g class="cls-30"><g class="cls-23"><g><g><line class="cls-4" x1="-133.4" y1="1525.88" x2="23.23" y2="-159.7"/><line class="cls-4" x1="-97.04" y1="1528.87" x2="59.59" y2="-156.71"/><line class="cls-4" x1="-60.68" y1="1531.86" x2="95.95" y2="-153.72"/><line class="cls-4" x1="-24.32" y1="1534.85" x2="132.31" y2="-150.74"/><line class="cls-4" x1="12.04" y1="1537.83" x2="168.67" y2="-147.75"/><line class="cls-4" x1="48.4" y1="1540.82" x2="205.03" y2="-144.76"/><line class="cls-4" x1="84.76" y1="1543.81" x2="241.39" y2="-141.77"/><line class="cls-4" x1="121.12" y1="1546.8" x2="277.75" y2="-138.78"/><line class="cls-4" x1="157.48" y1="1549.79" x2="314.11" y2="-135.79"/><line class="cls-4" x1="193.84" y1="1552.78" x2="350.47" y2="-132.8"/><line class="cls-4" x1="230.2" y1="1555.77" x2="386.83" y2="-129.81"/><line class="cls-4" x1="266.56" y1="1558.76" x2="423.19" y2="-126.83"/><line class="cls-4" x1="302.92" y1="1561.75" x2="459.55" y2="-123.84"/><line class="cls-4" x1="339.28" y1="1564.73" x2="495.9" y2="-120.85"/><line class="cls-4" x1="375.64" y1="1567.72" x2="532.26" y2="-117.86"/><line class="cls-4" x1="412" y1="1570.71" x2="568.62" y2="-114.87"/><line class="cls-4" x1="448.36" y1="1573.7" x2="604.98" y2="-111.88"/><line class="cls-4" x1="484.72" y1="1576.69" x2="641.34" y2="-108.89"/></g><g><line class="cls-4" x1="-726.1" y1="460.66" x2="1200.77" y2="-425.24"/><line class="cls-4" x1="-710.42" y1="493.6" x2="1216.46" y2="-392.3"/><line class="cls-4" x1="-694.74" y1="526.54" x2="1232.14" y2="-359.36"/><line class="cls-4" x1="-679.06" y1="559.49" x2="1247.82" y2="-326.42"/><line class="cls-4" x1="-663.38" y1="592.43" x2="1263.5" y2="-293.48"/><line class="cls-4" x1="-647.69" y1="625.37" x2="1279.18" y2="-260.53"/><line class="cls-4" x1="-632.01" y1="658.31" x2="1294.86" y2="-227.59"/><line class="cls-4" x1="-616.33" y1="691.25" x2="1310.54" y2="-194.65"/><line class="cls-4" x1="-600.65" y1="724.2" x2="1326.22" y2="-161.71"/><line class="cls-4" x1="-584.97" y1="757.14" x2="1341.9" y2="-128.77"/><line class="cls-4" x1="-569.29" y1="790.08" x2="1357.58" y2="-95.82"/><line class="cls-4" x1="-553.61" y1="823.02" x2="1373.26" y2="-62.88"/><line class="cls-4" x1="-537.93" y1="855.96" x2="1388.94" y2="-29.94"/><line class="cls-4" x1="-522.25" y1="888.91" x2="1404.62" y2="3"/><line class="cls-4" x1="-506.57" y1="921.85" x2="1420.3" y2="35.94"/><line class="cls-4" x1="-490.89" y1="954.79" x2="1435.98" y2="68.89"/><line class="cls-4" x1="-475.21" y1="987.73" x2="1451.66" y2="101.83"/><line class="cls-4" x1="-459.53" y1="1020.67" x2="1467.35" y2="134.77"/><line class="cls-4" x1="-443.85" y1="1053.62" x2="1483.03" y2="167.71"/><line class="cls-4" x1="-428.17" y1="1086.56" x2="1498.71" y2="200.65"/><line class="cls-4" x1="-412.49" y1="1119.5" x2="1514.39" y2="233.6"/><line class="cls-4" x1="-396.8" y1="1152.44" x2="1530.07" y2="266.54"/><line class="cls-4" x1="-381.12" y1="1185.38" x2="1545.75" y2="299.48"/><line class="cls-4" x1="-365.44" y1="1218.33" x2="1561.43" y2="332.42"/><line class="cls-4" x1="-349.76" y1="1251.27" x2="1577.11" y2="365.36"/><line class="cls-4" x1="-334.08" y1="1284.21" x2="1592.79" y2="398.3"/><line class="cls-4" x1="-318.4" y1="1317.15" x2="1608.47" y2="431.25"/><line class="cls-4" x1="-302.72" y1="1350.09" x2="1624.15" y2="464.19"/><line class="cls-4" x1="-287.04" y1="1383.04" x2="1639.83" y2="497.13"/></g><g><line class="cls-4" x1="1874.16" y1="698.37" x2="143.51" y2="-527.4"/><line class="cls-4" x1="1852.68" y1="727.86" x2="122.03" y2="-497.91"/><line class="cls-4" x1="1831.2" y1="757.35" x2="100.55" y2="-468.42"/><line class="cls-4" x1="1809.72" y1="786.84" x2="79.06" y2="-438.93"/><line class="cls-4" x1="1788.23" y1="816.32" x2="57.58" y2="-409.44"/><line class="cls-4" x1="1766.75" y1="845.81" x2="36.1" y2="-379.95"/><line class="cls-4" x1="1745.27" y1="875.3" x2="14.62" y2="-350.47"/><line class="cls-4" x1="1723.79" y1="904.79" x2="-6.86" y2="-320.98"/><line class="cls-4" x1="1702.31" y1="934.28" x2="-28.34" y2="-291.49"/><line class="cls-4" x1="1680.83" y1="963.77" x2="-49.83" y2="-262"/><line class="cls-4" x1="1659.34" y1="993.26" x2="-71.31" y2="-232.51"/><line class="cls-4" x1="1637.86" y1="1022.75" x2="-92.79" y2="-203.02"/><line class="cls-4" x1="1616.38" y1="1052.23" x2="-114.27" y2="-173.53"/><line class="cls-4" x1="1594.9" y1="1081.72" x2="-135.75" y2="-144.04"/><line class="cls-4" x1="1573.42" y1="1111.21" x2="-157.24" y2="-114.56"/><line class="cls-4" x1="1551.94" y1="1140.7" x2="-178.72" y2="-85.07"/><line class="cls-4" x1="1530.45" y1="1170.19" x2="-200.2" y2="-55.58"/><line class="cls-4" x1="1508.97" y1="1199.68" x2="-221.68" y2="-26.09"/><line class="cls-4" x1="1487.49" y1="1229.17" x2="-243.16" y2="3.4"/><line class="cls-4" x1="1466.01" y1="1258.66" x2="-264.64" y2="32.89"/><line class="cls-4" x1="1444.53" y1="1288.14" x2="-286.13" y2="62.38"/><line class="cls-4" x1="1423.04" y1="1317.63" x2="-307.61" y2="91.87"/><line class="cls-4" x1="1401.56" y1="1347.12" x2="-329.09" y2="121.35"/><line class="cls-4" x1="1380.08" y1="1376.61" x2="-350.57" y2="150.84"/><line class="cls-4" x1="1358.6" y1="1406.1" x2="-372.05" y2="180.33"/><line class="cls-4" x1="1337.12" y1="1435.59" x2="-393.53" y2="209.82"/><line class="cls-4" x1="1315.64" y1="1465.08" x2="-415.02" y2="239.31"/><line class="cls-4" x1="1294.15" y1="1494.57" x2="-436.5" y2="268.8"/><line class="cls-4" x1="1272.67" y1="1524.05" x2="-457.98" y2="298.29"/><line class="cls-4" x1="1251.19" y1="1553.54" x2="-479.46" y2="327.78"/><line class="cls-4" x1="1229.71" y1="1583.03" x2="-500.94" y2="357.26"/><line class="cls-4" x1="1208.23" y1="1612.52" x2="-522.43" y2="386.75"/><line class="cls-4" x1="1186.75" y1="1642.01" x2="-543.91" y2="416.24"/><line class="cls-4" x1="1165.26" y1="1671.5" x2="-565.39" y2="445.73"/><line class="cls-4" x1="1143.78" y1="1700.99" x2="-586.87" y2="475.22"/><line class="cls-4" x1="1122.3" y1="1730.48" x2="-608.35" y2="504.71"/></g></g></g></g></g></g><circle class="cls-7" cx="257.5" cy="257.5" r="226.17"/></g></g><g class="cls-28"><g><path class="cls-13" d="M393.83,129.13c.62-.59,1.13,1.35,1.37,10.89,.69,25.6,.63,50.74,.85,76.24v-.04s.03,1.52,.03,1.52v-.04c.03,16.66,.41,33.32,.33,49.82-.14,29.18-.13,58.29-.95,87.64-.89,32.58-1.55,65.79-2.9,98.64-.68,15.79-1.37,31.56-2.05,47.33l-1.12,23.64-1.3,25.71-25.63,2.2c-33.3,2.82-66.66,5.45-100.18,6-11.65,.18-23.31,.13-34.97-.28-5.83-.14-11.66-.48-17.48-.77-2.91-.14-5.82-.39-8.73-.57-2.91-.2-5.82-.37-8.73-.65-2.12-.18-4.24-.36-6.36-.54l-6.29-.49c-4.14-.26-8.35-.3-12.57-.35-10.2-.1-19.83,.05-30.54-1.2-4.46-.5-10.11-1.06-16.07-1.86-1.49-.2-3-.39-4.51-.65l-3.07-.5c-1.06-.31-2.98,.06-2.36-1.61,.16-3.47,.32-6.92,.48-10.21,.88-15.94,1.71-31.94,2.24-47.82,.28-8.15,.56-16.36,.84-24.54,.23-8.18,.41-16.34,.39-24.38v.12c.19-9.47,.53-19.08,.56-28.39,.04-21.06,.64-41.77,.71-62.47,.33-58.29-.91-116.53-2.94-174.78-.4-11.16-.84-22.3-1.36-33.43l-.38-8.35-.23-5.2-.07-1.64-.03-.82v-.05s.03,0,.05,0h.1s.2,0,.2,0h.41s3.28,.04,3.28,.04l17.21,.14h-.1c17.39,.2,27.38,1.51,37.07,2.66,10.57,1.25,5.98,1.99-9.53,1.92-14.5-.07-29.01-.15-43.55-.22-.15,.01-.35,0-.48,.03l.04,.51,.23,5.06c.16,3.69,.32,7.38,.47,11.07,.32,7.38,.57,14.78,.82,22.19,.89,26.91,1.43,53.78,2.04,80.76,.18,6.92,.29,13.85,.38,20.78l.27,20.79v-.07c-.11,.51-.09,1.01,0,1.5v-.05c-.05,9.62,.05,19.27,.1,28.94l.13,14.5c0,4.84,.02,9.67,.03,14.5,.02,10.36-.17,20.65-.44,31.04-.15,7.08-.01,17-.11,25.73-.4,26.93-.99,53.86-2.01,80.77-.19,6.26-.51,12.52-.77,18.78h-.01c-.58,7.69-.65,15.39-1.04,23.09-.25,4.64-.49,9.3-.74,13.94l-.05,.96c0,.12-.02,.26,0,.36l.37,.06c1.04,.17,2.08,.35,3.11,.52,2.83,.39,5.65,.79,8.41,1.02,12.11,1.14,24,1.46,36.05,1.73,1.27,.03,2.8-.06,4.22-.09h-.1c2.51,0,5.03-.02,7.57,.03,.2,0,.37,0,.56-.01,.07,.03,.15,.06,.23,.1,1.33,.05,2.67,.15,4,.22,1.33,.1,2.67,.21,3.99,.31,2.6,.21,5.19,.41,7.78,.62,5.18,.44,10.36,.62,15.55,.93,1.49,.16,2.98,.29,4.48,.4,.04,0,.08,0,.11,0h-.19s.2,0,.2,0c.07,0,.14-.01,.23-.01,.05,0,.18,.02,.28,.03,13.92,.7,27.8,.65,41.79,.81h.05c4.13,.01,8.27-.04,12.41-.12,4.14-.04,8.27-.15,12.41-.27h-.07c1.38,.04,2.77,.11,4.09-.15h-.07c1.17-.05,2.34-.13,3.51-.23l.94-.22c5.62-.24,11.31-.52,16.44-.53l-.11,.02c1.24-.15,2.47-.34,3.8-.21-.05,0-.11,.01-.17,.02l.29-.03c6.52-.43,13.03-.86,19.55-1.37h.06c4.27-.43,7.91-.77,12.04-.69,3.11,.06,7.33-.95,11.74-1h.03c.4-.03,.8-.06,1.2-.1h-.08s32.07-2.66,32.07-2.66l.99-19.11v-.1c1.83-23.16,2.57-46.95,3.41-70.49,.5-12.86,.85-25.72,1.24-38.58,.31-12.86,.66-25.72,.87-38.59,.09-5.12,.18-10.25,.27-15.37l.18-15.37h0c-.08-1.35-.09-2.69,.07-4.06v.18s0-.13,0-.13c.18-8.33,.27-18,.23-24.74-.07-11.81-.01-23.35,0-34.89-.06-24.46-.12-49-.48-73.48-.1-7.73-.38-15.5-.65-23.03-.24-6.64,.01-8.78,.48-9.83,.91-2.04,1.41-5.76,.97-18.98-.23-7.2-.59-20.28,.95-15.83,.38,1.1,.24-2.54,.2-4.71-.23-13.38,.84-9.24,1.5-9.86Zm-216.28,421.52c-.75-.1-1.5-.21-2.24-.29,.34,.08,.64,.16,1.06,.24,.08,.02,.77,.03,1.18,.04Zm75.13,3.14l.69-.12-1.28,.07,.59,.06Zm36.02-1l-2.53,.09c.81,0,1.61,0,2.41,0l.13-.09Zm41.69-2.37l-3.48,.13c.96,0,1.92,0,2.88,0l.6-.13Zm60.23-202.54l-.04,.46s0-.05,.02-.09c0-.08,.02-.25,.02-.37Z"/><g><polygon class="cls-13" points="367.18 134.2 367.17 134.2 367.17 134.2 367.18 134.2"/><polygon class="cls-13" points="371.49 134.14 371.49 134.14 371.48 134.14 371.49 134.14"/><path class="cls-13" d="M339.42,129.1c-.02-.64,.09-1.09,.6-1.09,1.37,0,2.72,.5,4.08,.56h0s.08-.01,.08-.01h0c.89,.16,1.79-.14,2.67-.04,1.56,.18,3.13-.06,4.7,.26,1.74,.36,3.53,.15,5.29,.33,2.12,.21,4.23,.15,6.35,.06,1.79-.08,3.59-.26,5.38-.27,1.25,0,2.49,.22,3.74,.31,.45,.03,.91-.02,1.37,0,.55,.03,1.06-.09,1.63,.46,.47,.46,1.21,.13,1.82,.17,.86,.06,1.71,.25,2.57,.19,.88-.06,1.76,.25,2.63-.18h0c.51,.02,1.02,.16,1.52,.06,1.14-.22,2.24,.2,3.35,.33,3.12,.39,6.25,.47,9.38,.38,1.2-.04,2.4-.27,3.6-.41h0c.94-.06,1.45,1.09,1.94,2.09,.54,1.09,.28,1.9-.56,2.06-1.58,.32-3.17,.65-4.76,.61-1.44-.03-2.88-.29-4.33-.27-.74,.01-1.48-.07-2.23-.11h0c-.02-.12-.05-.1-.08,0h0c-1.02-.36-2.07-.14-3.1-.19-.56-.02-1.1-.15-1.66-.36-.38-.14-.91,.14-1.38,.14l-4.33-.08-1.01-.05h0c-.41-.29-.83-.04-1.24-.03-.25,0-.5-.06-.75-.06-.31,0-.62-.04-.93,.06-.66,.21-1.3,.09-1.95-.14-.07-.02-.15,.07-.23,.11h0s-.41,.09-.41,.09c-.01,0-.02,.02-.03,.03v-.09c-.57-.16-1.13,.03-1.69,.1l-.24-.17h0s.01,.01,.01,.01h-.01s0,.02-.01,.02c0,0,0-.01-.01-.02-.75,.02-1.5,.28-2.25,.04h0s-1.33-.11-1.33-.11h0c-.07-.09-.15-.2-.22,.01h0s-.19,.09-.19,.09l-.05,.18c-.3,0-.61,.02-.88-.27h0c-.07,.07-.14,.19-.2,0h0s-.02,0-.02,0l-1.05,.11h0c-.23,.13-.43,.21-.64-.18-.16-.3-.4,.4-.63,.09h0s-.04,0-.06,0h0s-2.97,0-2.97,0h0c-1.24-.67-2.52-.35-3.78-.36-1.38-.01-2.76,.06-4.14,.11-.55,.02-1.1,.07-1.65,.1h0c-.07,.09-.15,.14-.22,0v-.02s0,0,0,0c-.45-.03-.97-.06-1.33,.06-.64,.21-1.25,.17-1.88,.22-1.31,.1-2.63,.07-3.94,.14-.41,.02-.83,.15-1.24,.31-.36,.14-.47-.15-.52-.65-.1-.96-.29-1.52-1-1.36-.39,.09-1.09,.08-.83-1.33,.06-.35-.13-.3-.25-.32-.72-.11-.48-1.08-.51-1.75Zm33.63,4.72l.12,.2c-.02-.07-.03-.14-.05-.21,0-.01-.04,0-.06,.01Zm-4.04,.07l-.04,.12,.07-.06-.03-.06Zm-1.94,.1l.14,.02-.13-.1v.08Zm-2.25-.08l.19,.11-.15-.2-.03,.09Zm-13.73-.17l.02,.03s0-.02,0-.02c0,0-.01-.01-.02-.02Z"/></g><g class="cls-25"><polygon class="cls-13" points="196.4 204.07 196.38 204.05 196.35 204.03 196.4 204.07"/><polygon class="cls-13" points="205.6 212.37 205.55 212.33 205.54 212.32 205.6 212.37"/><polygon class="cls-13" points="218.22 70.53 218.23 70.53 218.28 70.51 218.22 70.53"/><path class="cls-13" d="M230.64,70.11s.02-.01,.03-.01l-.08,.02h.05Z"/><polygon class="cls-13" points="322.65 91.34 322.67 91.37 322.7 91.4 322.65 91.34"/><path class="cls-13" d="M340.04,145.41c-.12,.04-.2-.27-.26-1.45-.09-1.79-.18-1.59-.29-1.28-.33,.96-.67,1.34-1.04,1.02-.13-.11-.14-1.1-.16-1.83-.05-1.36-.21-2.72-.3-4.09-.11-1.36-.34-2.72-.5-4.07-.4-2.47-.85-5.06-1.35-5.76-.22-.3-.7-2.6-1.19-4.29-.5-2.05-1.15-3.99-1.65-4.71-.16-.22-.45-1.24-.75-1.91-1.89-4.75-4.15-9.39-6.83-13.79-.34-.54-.68-1.08-1.01-1.62-.62-.99-1.13-1.7-1.54-2.25-.4-.55-.69-.94-.93-1.22-.46-.58-.71-.75-1.2-1.05-.34-.21-.71-.62-1.71-1.91-4.05-5.07-8.82-9.57-13.96-13.56-3.5-2.67-7.41-5.05-11.3-7.13-3.81-2.04-7.9-3.79-11.94-5.05-5.03-1.61-10.21-2.77-15.44-3.34-6.1-.67-12.25-.76-18.34-.06-1.43,.19-2.95,.36-4.4,.66-1.46,.26-2.87,.48-4.12,.67-.78,.29-1.77,.5-2.78,.78-1.01,.28-2.08,.56-3.04,.85-1.36,.46-2.3,.74-3.35,1.04,.31-.16,.94-.37,1.49-.57,.29-.1,.85-.32,.74-.29-.49,.15-1.11,.34-1.66,.5-1.05,.3-1.77,.63-2.38,.94-.06,.03,.67-.18,1.03-.27h-.02c-1.53,.69-3.13,1.23-4.71,1.98-1.21,.54-1.46,.59-1.79,.66-1.14,1.02-4.3,2.64-8.49,5.29-7.97,5.06-15.06,11.55-20.74,19.1-.23,.29-.47,.58-.68,.88,0,0,0,0,0,0-2.05,2.94-4.04,6.04-5.82,9.21-1.77,3.34-3.34,6.78-4.67,10.32-1.27,3.56-2.38,7.18-3.16,10.87-1.51,6.9-1.84,13.86-1.58,20.83,.07,.89,.13,1.79,.2,2.67l.1,1.33,.17,1.32,.34,2.64,.47,2.62c.23,1.44,.5,2.48,.56,1.99,.07-.51,.41,.56,.94,2.8,.37,1.29,.73,2.59,1.1,3.88,.42,1.27,.84,2.53,1.26,3.78,3.39,9.52,8.76,18.4,15.54,25.92,3.82,4.24,8.28,8.16,13.03,11.49,5.52,3.93,11.54,7.14,17.9,9.54h0c4,1.48,8.13,2.65,12.31,3.49,4.19,.85,8.45,1.27,12.7,1.42,10.04,.32,20.16-1.21,29.57-4.69,4.12-1.53,8.18-3.35,12.04-5.54,3.44-1.92,6.65-4.15,9.71-6.58,2.55-1.96,4.89-4.16,7.19-6.4,2.21-2.32,4.4-4.68,6.32-7.25,3.95-5.05,7.22-10.61,9.77-16.46,.59-1.26,1.06-2.55,1.55-3.84,.52-1.28,.9-2.61,1.34-3.92,.99-3.23,1.03-3.46,1.53-4.06,.19-.25,.38,.03,1.01-2.71,.5-2.03,.67-2.25,.8-2.39,.25-.3,.53-1.49,.85-3.49,.62-4.49,.54-4.56,.95-4.76,.2-.1,.4-.47,.67-2.65,.05-.42,.09-.92,.13-1.01,.39-.84,.79-3.5,1.17-2.57,.15,.37,.32,.73,.52-.21,.29-1.33,.39-.03,.32,3.45-.07,1.48-.18,2.95-.28,4.42-.17,1.46-.37,2.93-.64,4.42-.28,1.2-.54,3.1-.79,4.53v-.06c-.41,1.51-.62,3.04-1.08,4.54-.51,1.77-.5,2.2-.57,2.84-.22,1.31-.41,2.15-1.46,4.73-.51,1.21-1,2.35-1.48,3.46-.49,1.09-.93,2.15-1.29,3.21-.25,.68-.9,1.83-1.37,2.76-1.31,2.55-2.8,5.01-4.36,7.41-1.37,2.04-2.01,3.05-1.69,2.95,.26-.09,.13,.37,.09,.7-.03,.42-1,1.75-2.27,3.21-.57,.68-1.16,1.25-1.66,1.9-.68,.86,.31-.2,.32-.12,0,.16-1.08,1.72-2.38,3.06-1.1,1.17-2.08,2.17-3.11,3.05-1.02,.9-1.99,1.78-3.11,2.67h-.01c-.51,.52-1.05,1.04-1.62,1.57-.57,.52-1.19,1.01-1.82,1.52-1.25,1.04-2.66,2.01-4.16,2.99-.25,.23-.53,.53-.73,.67-1.62,1.01-3.2,2.01-4.76,2.99-.72,.35-1.42,.72-2.12,1.11l-2.13,1.09c-1.4,.77-2.84,1.46-4.28,2.14-.19,.05-.54,.19-.82,.34-.3,.17,0,.06,.38-.1-1.15,.6-2.36,1-3.51,1.41-1.09,.4-2.16,.64-3.54,1.13,.13-.1,.12-.15-.49,.01l-.17,.21c-1.38,.53-2.8,.83-4.19,1.22-1.05,.29-2.16,.47-2.96,.74-.68,.21-1.43,.41-2.11,.49-2.05,.26-4.02,.68-6.12,.96-2.27,.38-3.6,.42-4.61,.48-1.02,.05-1.74,.02-2.83-.13-.45,.16-.99,.34-3.99,.3-.99-.03-2.06-.06-3.15-.09-1.09-.05-2.21-.15-3.28-.23-.6-.05-1.47-.07-1.62-.18-.15-.08,.84,0,1.42,0-2.12-.19-2.51-.32-2.61-.16-.11,.16-2.87-.19-3.03-.09-.57-.11-1.83-.31-1.51-.32,.95-.03-.26-.19-1.63-.41-1.53-.24-3.09-.65-4.61-.96-.2-.04,1.31,.38,.04,.12-.45-.08-1.05-.29-1.54-.44-.66-.21-.76-.27-.86-.37-.36-.34-.49-.31-2.68-.86h0c-1.63-.49-3.27-1-5.05-1.77-3.34-1.31-6.52-2.96-9.86-4.61-1.66-.88-3.45-1.9-5.33-3.21-.97-.62-1.97-1.34-2.95-2.06-.49-.36-.98-.72-1.46-1.08-.47-.37-.91-.75-1.33-1.11-.71-.69-1.65-1.39-2.15-1.68-.42-.25-1.14-.82-1.74-1.28-.42-.32-.91-.69-1.38-1.09-.45-.42-.9-.87-1.25-1.33-.28-.36-1-1.11-1.51-1.69l.02,.03c-.32-.47-.72-.87-1.18-1.24-.08-.08-.18-.17-.22-.21-.63-.53,.04,.43-1.65-1.3-1.43-1.59-1.84-2.21-2.18-2.8-.2-.3-.8-1.12-1.28-1.7-.96-1.18-.05,.08-.18,0-.22-.14-.56-.54-1.1-1.25-.73-.95-1.38-1.95-2.07-2.92h.01c-1.08-1.39-2.02-2.94-3.01-4.45-.89-1.58-1.85-3.12-2.6-4.73-2.43-4.81-4.47-9.76-6.03-14.89-.34-1.21-.65-2.28-.87-3.31v-.02c-1.51-5.51-2.26-11.19-2.52-16.87-.23-5.16,.09-10.26,.72-15.42,.08-.66,.16-1.46,.28-2.01,1.43-7.06,3.37-14.52,6.51-21.33,.11-.25,.24-.53,.33-.74,2.97-6.06,6.62-12.17,10.97-17.54,.58-.75,1.15-1.35,1.75-1.97,.59-.62,1.19-1.3,1.9-2.15,.03-.05-.25,.37-.41,.62,.91-1.05,1.9-2.01,2.86-3,.98-.97,2.01-1.9,2.99-2.89,.25-.26,.7-.59,.88-.77,.74-.71,1.47-1.39,2.17-2.02,.72-.61,1.45-1.17,2.15-1.7,1.38-1.09,2.82-1.92,4.17-2.76,.58-.37,1.64-1.04,1.83-1.22,.49-.4,1.29-.96,2.08-1.5,.81-.51,1.6-1,2.02-1.34,.58-.46,1.43-.92,2.35-1.33,.13,.05-.03,.18-1.39,.92-.5,.28-.99,.56-.96,.61,.03,.05,.79-.37,1.02-.51,3.49-1.94,7.18-3.59,10.88-5.04,1.72-.69,.92-.47,.26-.29l.07-.02c1.12-.6,2.86-1.28,4.8-1.92,.98-.29,2.01-.6,3.03-.9,1.03-.29,2.07-.51,3.05-.76,1.74-.44-.84,.35,.82,0-.73,.19-1.44,.37-2.26,.55-.45,.1-1.02,.17-1.33,.3-.27,.11,.23,0,.67-.06,1.5-.24,2.97-.54,4.46-.7,.82-.24,1.82-.51-.37-.19-.25,.04-.31,0-.46,0,1.08-.26,2.39-.52,3.67-.78,1.29-.24,2.57-.41,3.58-.63,.43-.09,1.2-.15,1.75-.15l.2,.05c1.6-.1,3.18-.2,1.85,.08-.37,.08,.48,.07,.37,.12-.27,.14-.63,.25,1.31-.02,.18-.02,.61-.01,.98-.02-.44-.04-1.6,0-1.34-.08,.25-.11,1.05-.07,1.68-.09,.27,0,.61,0,.79,0,1.34-.1,2.52-.11,3.65-.02,1.13,.08,2.22,.12,3.39,.22,.51,.04,1.1,.27,1.28,.08,.1-.11-.02-.25,2.36,.04,.38,.06,1.25,.13,1.88,.19,.49,.04,.94,.08,1.42,.12,1.14,.08,2.13,.32,3.1,.52,.97,.2,1.91,.4,2.91,.61,1.78,.37,3.11,.46,5.42,1.23,.54,.17,1.24,.38,1.89,.59,.65,.22,1.28,.41,1.7,.46,2.25,.62,4.1,1.53,5.77,2.25,2.55,1.21,4.29,1.91,5.81,2.57,.85,.37,1.61,.63,2.74,1.31,.52,.31,1.32,.72,1.51,.91,.13,.14-.62-.3-.93-.45-.87-.42-.28,.03-.43,.03,.97,.53,1.87,1.01,2.78,1.51,.89,.53,1.79,1.07,2.78,1.7,.2,.13,.53,.32,.6,.36,.87,.4,2.07,1.19,3.37,2.11,1.25,.99,2.64,2.06,3.81,3.08,.75,.65,1.53,1.32,2.3,1.98,.75,.69,1.47,1.41,2.14,2.1,.25,.26,.64,.65,.67,.71,.07,.15-.45-.36-.78-.65-.37-.33-.77-.69-1.1-.98-.34-.29-.67-.52-.14,0l1.84,1.81c.6,.62,1.17,1.26,1.76,1.89,1.2,1.24,2.3,2.57,3.52,3.83,.13,.13,.2,.18,.28,.25,.35,.41,.68,.85,.83,.97,.82,.64,1.28,1.45,1.76,2.24,.58,.86,.78,1.03,1.17,1.5,.59,.78,1.28,1.32,1.93,2.73,.12,.26,.51,.8,.78,1.16,1.8,2.38,3.45,5.53,4.98,8.62,.55,1.26,1.1,2.51,1.65,3.76,.49,1.28,1,2.56,1.57,3.87,.4,1.04,.78,2.32,.85,2.86,.05,.44,.12,.92,.12,1.23-.01,.49,.22,1.63,.68,3.3,1.19,4.71,1.84,9.42,2.48,14.43,.23,2.08,.09,3,.02,3.18-.48,1.41-.91,3.99-1.45,4.18Zm-27.33,64.01c.11-.1,.27-.24,.42-.37-.12,.09-.24,.17-.37,.28-.22,.19-.26,.25-.06,.09Zm-61.25,20.32l-1.37-.08c.42,.05,.85,.11,1.37,.13,.26,0,.23-.03,0-.05Zm-19.93-3.58c-.14-.12,.09-.12-.55-.39-.8-.18-1.7-.39,.55,.39Zm-1.58-6.52l-.09-.08c-.12-.03-.29-.08,.09,.08Zm-6.83,3.1c0,.07,.71,.37,1.1,.55,2.22,.9,4.44,1.76,6.72,2.47-2.09-.93-4.67-1.73-7.01-2.7-.3-.13-.82-.33-.82-.31Zm-35.39-28.84c.16,.17,.41,.48,.33,.29-.01-.01-.16-.22-.21-.29-.38-.48-.22-.19-.12,0Zm-12.53-27.39c.05,.22,.12,.45,.16,.57,.07,.2,.05,.04-.04-.26-.04-.13-.08-.21-.12-.3Zm18.04-67.99l.18-.19s.03-.1-.18,.19Zm1.38-9.33c-.12,.14-.26,.29-.35,.4-.15,.19-.09,.16,.08-.05,.1-.12,.18-.23,.26-.35Zm30.31-16.98s-.02,.01-.04,.02c-.69,.32-1.07,.55-1.45,.77,.73-.34,1.78-.78,1.49-.79Zm23.16-11.01s.07,.01,.15,0c.76-.07,.98-.12,1.33-.18-.51,.03-1.13,.08-1.48,.18Zm7.29-.05l-.91,.02c.18,.02,.42,.03,.82,0,.06,0,.07-.02,.1-.03Zm43.22,10.36c.11,.05,0-.01,0,0h0Zm26.21,22.5l.39,.46c-.15-.2-.32-.44-.39-.46Z"/><polygon class="cls-13" points="284.37 65.04 284.37 65.04 284.41 65.05 284.37 65.04"/><polygon class="cls-13" points="249.52 60.94 249.53 60.94 249.58 60.94 249.52 60.94"/></g><g><g><polygon class="cls-13" points="147.75 288.49 147.75 288.5 147.75 288.5 147.75 288.49"/><polygon class="cls-13" points="147.21 284.91 147.21 284.91 147.21 284.92 147.21 284.91"/><path class="cls-13" d="M144.17,311.75c-.64,.02-1.09-.08-1.1-.49-.02-1.12,.48-2.22,.51-3.33h-.01s0-.06,0-.06h0c.13-.73-.19-1.46-.12-2.18,.13-1.28-.18-2.55,.08-3.84,.26-1.44-.03-2.89,.02-4.33,.08-1.74-.16-3.46-.42-5.18-.25-1.45-.58-2.89-.8-4.34-.14-1.01-.05-2.05-.11-3.07-.02-.37-.13-.73-.16-1.1-.04-.45-.21-.85,.25-1.38,.39-.45-.03-1-.07-1.5-.06-.7,.02-1.43-.17-2.11-.19-.7-.01-1.47-.57-2.09h0c-.04-.41,0-.85-.18-1.23-.4-.87-.16-1.84-.22-2.76-.17-2.58-.65-5.12-1.39-7.59-.27-.95-.75-1.84-1.15-2.75h0c-.25-.72,.75-1.43,1.61-2.1,.93-.73,1.76-.74,2.11-.11,.66,1.2,1.34,2.4,1.62,3.7,.27,1.18,.31,2.42,.61,3.6,.16,.6,.22,1.23,.32,1.85h0c-.1,.04-.08,.06,.01,.06h0c-.17,.92,.23,1.72,.37,2.58,.08,.46,.04,.94-.07,1.43-.08,.34,.29,.72,.36,1.11,.23,1.19,.41,2.39,.6,3.58l.11,.84h-.01c-.22,.39,.09,.69,.15,1.03,.04,.21,0,.42,.04,.63,.04,.26,.05,.52,.18,.76,.3,.52,.27,1.07,.12,1.63-.02,.06,.09,.11,.14,.17h0s.15,.32,.15,.32c0,0,.02,.01,.03,.02l-.09,.02c-.09,.49,.17,.93,.31,1.38l-.14,.22h.01s0,0,0,0h0s.02,.01,.02,.02c0,0,0,0-.02,.01,.11,.62,.45,1.21,.29,1.86h0s.03,1.12,.03,1.12h.01c-.09,.07-.2,.14,.03,.18h-.01s.12,.14,.12,.14l.18,.02c.03,.25,.08,.51-.18,.76h-.01c.09,.04,.21,.09,.02,.17,0,0,0,0-.01,0h.02s.22,.88,.22,.88h0c.15,.18,.26,.34-.12,.56-.28,.17,.44,.29,.15,.52h0s0,.04,0,.05h0c.1,.82,.17,1.65,.26,2.48h0c-.57,1.1-.16,2.13-.09,3.19,.09,1.15,.24,2.3,.36,3.46,.05,.46,.13,.92,.19,1.38h0c.1,.06,.14,.12,0,.18h-.02s0,0,0,0c-.01,.38-.02,.81,.11,1.11,.24,.53,.22,1.05,.29,1.57,.15,1.1,.14,2.21,.25,3.31,.03,.35,.17,.7,.34,1.04,.15,.3-.15,.4-.64,.44-.95,.09-1.52,.25-1.34,.85,.1,.32,.09,.91-1.33,.69-.35-.05-.3,.11-.32,.21-.11,.59-1.07,.39-1.74,.41Zm2.53-28.09l.18-.12c-.07,.03-.14,.05-.2,.07-.01,0,.01,.03,.02,.05Zm.54,3.34l.12,.02-.07-.05-.06,.03Zm.31,1.6v-.12s-.08,.12-.08,.12h.08Zm.14,1.87l.09-.17-.18,.15,.09,.02Zm.81,11.48l.03-.02s-.02,0-.02,0c0,0-.01,.01-.02,.02Z"/></g><g><polygon class="cls-13" points="197.26 292.29 197.26 292.31 197.26 292.31 197.26 292.29"/><polygon class="cls-13" points="196.42 281.59 196.41 281.59 196.41 281.6 196.42 281.59"/><path class="cls-13" d="M145.22,307.64c-.12-.63,.11-1.1,1.41-1.2,3.48-.26,6.93,.04,10.4-.02h0s.21-.02,.21-.02h0c2.27,.07,4.53-.28,6.78-.22,3.97,.12,7.94-.1,11.93,.32,4.42,.47,8.94,.47,13.39,.97l3.86,.41c.36,.04,.78,.1,1.11,.1l-.22-1.11-.63-3.89c-.7-4.5-1.38-9.01-1.76-13.56-.26-3.16-.25-6.34-.28-9.51-.02-1.15-.11-2.31-.12-3.47-.02-1.4-.14-2.7,.37-4.15,.46-1.21,.1-3.06,.17-4.63,.04-1.09,.11-2.17,.18-3.26l.09-1.63c.02-.33,.02-.5,.01-.74-.01-.23,0-.46,.02-.71,.03-.09-.04-.07-.1-.08h-.17s-.35-.03-.35-.03c-.24,0-.49,0-.73,.03h-.09s-.2,.03-.2,.03l-.41,.04c-.27,.03-.55,.08-.82,.13h.02c-1.28-.02-2.58-.16-3.83-.06-2.85,.22-5.64-.19-8.44-.32-7.87-.38-15.73-.45-23.6-.35-3.01,.04-6.02,.28-9.03,.42h.01c-2.35,.07-3.69-1.09-5-2.09-1.42-1.09-.8-1.9,1.29-2.07,3.97-.32,7.94-.66,11.95-.63,3.63,.03,7.26,.28,10.9,.25,1.87-.02,3.74,.07,5.61,.11h-.01c.07,.12,.14,.1,.2,0h0c2.59,.35,5.21,.13,7.82,.18,1.4,.02,2.78,.15,4.19,.36,.95,.14,2.29-.14,3.47-.14l5.45,.03,4.27,.02h1.15s.57,.01,.57,.01h.14s0,.09,0,.14v.29s-.11,2.3-.11,2.3l-.17,3.71h-.01c-.29,1.02-.08,2.06-.08,3.09,0,.62-.07,1.24-.08,1.87-.01,.77-.03,1.56,.06,2.31,.21,1.64,.13,3.24-.06,4.86-.02,.17,.09,.37,.13,.56h0s.13,.99,.13,.99c0,.03,.02,.05,.03,.07l-.09,.03c-.13,1.41,.15,2.79,.28,4.18l-.14,.61h.01s0-.01,0-.01v.03s.02,.02,.02,.03c0,0,0,.02-.02,.04,.12,1.87,.5,3.71,.4,5.59h0s.16,3.33,.16,3.33h.01c-.08,.18-.18,.38,.05,.53h-.01s.15,.45,.15,.45l.19,.11c.07,.75,.17,1.51-.05,2.22h-.01c.1,.14,.24,.3,.06,.49l-.02-.02,.02,.04,.4,2.6h0c.2,.56,.35,1.04,.02,1.63-.25,.45,.52,.93,.28,1.55h0c0,.06,0,.11,.02,.16h0s.52,3.66,.52,3.66l.31,2.06,.52,3.2v.03c.03,.63,.06,1.24,.1,1.84l.07,.9,.02,.22v.06s-.03,0-.05,0l-.13-.02-.51-.08c-1.35-.19-2.62-.34-3.89-.46l-1.92-.17-1.29-.08-2.37-.15c-3.44-.26-6.89-.37-10.34-.45-1.37-.04-2.75-.02-4.12-.02h0c-.18,.09-.36,.13-.54-.02l.02-.02h-.02c-1.12-.04-2.41-.09-3.32,.02-1.58,.21-3.13,.15-4.67,.21-3.27,.12-6.55,.16-9.82,.37-1.03,.06-2.07,.24-3.06,.46-.88,.19-1.18-.09-1.34-.58-.32-.94-.85-1.48-2.61-1.2-.96,.14-2.72,.27-2.21-1.19,.13-.36-.36-.28-.66-.27-1.81,.02-1.32-.98-1.45-1.65Zm50.71-29.92l.19-.3c-.07,.05-.14,.09-.21,.15-.01,.01,0,.1,.02,.16Zm.63,10.06l.13,.08-.07-.17-.06,.08Zm.52,4.8v-.34s-.08,.33-.08,.33h.08Zm.52,5.58l.05-.48-.15,.4,.1,.07Zm-22.78,13.28l.06,.04v-.02s-.04-.01-.06-.02Z"/></g></g><g><polygon class="cls-13" points="204.15 402.4 204.14 402.38 204.14 402.38 204.15 402.4"/><polygon class="cls-13" points="195.59 404.08 195.6 404.08 195.61 404.08 195.59 404.08"/><path class="cls-13" d="M146.1,355.78c-.14-.63,.18-1.1,1.89-1.22,4.59-.28,9.12,.02,13.69,.01h0s.27-.01,.27-.01h0c2.99,.11,5.98-.2,8.94-.06,5.25,.25,10.43,.2,15.73,.88,1.51,.21,3.1,.45,4.74,.91,1.63,.47,3.35,1.19,4.83,2.43,1.51,1.23,2.57,2.9,3.22,4.48,.67,1.59,1.04,3.14,1.36,4.59,1.49,6.87,3.25,13.65,5.03,20.43l2.18,8.1,1.09,4.05c.09,.32,.19,.72,.28,1.14,.04,.21,.09,.44,.12,.67,.04,.29,.08,.64,.09,.96,.05,1.29-.27,2.58-1.03,3.61-.38,.5-.84,.95-1.38,1.29-.79,.52-1.72,.81-2.68,.96-.79,.11-1.37,.12-1.94,.12h-3.1s-6.2-.06-6.2-.06c-1.51,0-3.02,.1-4.52,.1-1.82,0-3.51,.17-5.42-.33-1.59-.42-4.01-.04-6.05-.03-2.84,0-5.7-.12-8.52,.01-2.9,.13-5.85-.11-8.7,.39h.02c-1.69,.01-3.4-.08-5.05,.06-1.87,.15-3.73,.15-5.58,.1l-1.39-.04c-.49-.02-1.01-.05-1.55-.11-.54-.07-1.11-.17-1.71-.35-.58-.18-1.3-.52-1.83-.95-.79-.61-1.35-1.48-1.62-2.43-.27-.95-.26-1.73-.24-2.47,.03-.74,.1-1.36,.15-2.01l.16-1.94,.57-7.75c.35-5.17,.64-10.34,.88-15.52,.19-3.97,.18-7.94,.26-11.9v.02c.11-3.09,1.36-4.8,2.46-6.46,1.2-1.81,1.95-.95,1.97,1.81,.03,5.24,.06,10.49-.27,15.75-.3,4.78-.83,9.53-1.07,14.32-.12,2.46-.35,4.92-.53,7.37h0c-.11,.07-.1,.16-.01,.25h0c-.28,1.69-.41,3.4-.5,5.11-.05,.85-.05,1.55,.05,1.99,.07,.32,.18,.44,.36,.6,.09,.1,.63,.31,1.36,.4,.36,.05,.76,.09,1.2,.12l1.39,.11c1.26,.11,3.02-.21,4.57-.24l14.36-.26,3.34-.03h0c1.37,.25,2.74-.03,4.11-.06,.83-.02,1.66,.02,2.48,0,1.02-.02,2.07-.01,3.06-.13,2.18-.26,4.31-.19,6.46-.01,.23,.02,.5-.09,.75-.13h-.02s1.33-.12,1.33-.12c.03,0,.07-.02,.1-.03l.04,.09c1.88,.12,3.72-.12,5.57-.24l.8,.15h.02s-.03-.01-.03-.01h.04s.02-.02,.04-.02c0,0,.03,.01,.05,.02,1.24-.04,2.48-.14,3.72-.21,1.19-.08,2.65-.06,3.41-.06h0c.24-.02,.52-.1,.7-.3,.12-.14,.18-.33,.19-.53h-.01c.1-.05,.2-.18-.02-.22h.01s-.18-.42-.18-.42l-.21-.1c-.08-.38-.22-.91-.31-1.39-.09-.49-.14-.97-.12-1.45l.02,.02c-.14-.2-.3-.38-.17-.66l.02,.03-.03-.05-.96-3.36h0c-.31-.72-.55-1.33-.34-2.14,.16-.61-.71-1.18-.59-2.01h0c0-.08-.03-.15-.05-.21h0s-2.39-9.55-2.39-9.55v-.02c-.35-4.17-1.69-8.2-2.69-12.27-.54-2.22-1.09-4.28-2.1-5.74-.96-1.44-2.45-2.26-4.37-2.74-1.52-.37-3.21-.48-4.99-.55h0c-.24,.08-.48,.11-.71-.05l.03-.02h-.02c-1.47-.11-3.17-.23-4.36-.16-2.09,.13-4.12,0-6.16,.01-4.31,0-8.64-.03-12.95,.12-1.36,.05-2.73,.22-4.05,.43-1.16,.18-1.55-.09-1.75-.58-.39-.94-1.07-1.49-3.4-1.2-1.27,.16-3.58,.28-2.87-1.18,.18-.36-.47-.28-.85-.27-2.38,.04-1.71-.97-1.86-1.63Zm44.34,48.74l-.4-.19c.06,.07,.12,.14,.19,.21,.01,.01,.14,0,.21-.02Zm13.16-.43s.05-.09,.05-.13c-.01,.02-.09,.05-.13,.08l.08,.05Zm.68-2.05l.06,.38,.02-.38h-.08Zm-1.72-7.22l.04,.63,.07-.54-.11-.08Zm-17.6-34.6l.08,.04s0-.01-.01-.02c-.01-.01-.04-.02-.06-.02Z"/></g><g><polygon class="cls-13" points="205.11 486 205.11 485.98 205.11 485.98 205.11 486"/><polygon class="cls-13" points="204.18 497.13 204.19 497.13 204.19 497.13 204.18 497.13"/><path class="cls-13" d="M145.31,452.3c-.11-.64,.22-1.1,1.89-1.13,4.48-.08,8.87,.37,13.32,.44h0s.26-.01,.26-.01h0c2.91,.16,5.82-.11,8.7,.03,5.09,.25,10.18,.14,15.3,.66,5.67,.57,11.48,.66,17.19,1.2,.86,.08,1.87,.16,3.01,.48,1.11,.3,2.49,1.03,3.35,2.19,.87,1.14,1.21,2.39,1.38,3.45,.17,1.07,.17,2.05,.18,2.92,.02,3.43,.09,6.86,.16,10.29,.12,5.81,.34,11.62,.39,17.44v3.03c-.03,1.02-.04,2.23-.37,3.63-.17,.69-.44,1.44-.88,2.16-.44,.72-1.04,1.38-1.7,1.87-1.35,.99-2.75,1.34-3.95,1.55-.89,.15-1.71,.22-2.47,.29-.74,.06-1.47,.13-2.21,.17-1.78,.1-3.42,.35-5.32-.05-1.58-.34-3.92,.17-5.92,.29-2.78,.16-5.57,.18-8.33,.46-2.83,.28-5.72,.19-8.48,.84h.02c-1.65,.1-3.33,.1-4.93,.32-1.82,.25-3.64,.34-5.45,.39-1.79,.04-3.65,.1-5.63-.04-1.38-.1-2.84-.34-4.26-.94-1.41-.59-2.74-1.62-3.62-2.91-.9-1.28-1.37-2.71-1.66-4.07-.29-1.37-.39-2.71-.45-4.02-.19-5.11-.41-10.15-.69-15.22-.21-3.88-.62-7.74-.94-11.62v.02c-.2-3.02,.87-4.81,1.8-6.54,1.01-1.89,1.85-1.12,2.14,1.57,.55,5.1,1.12,10.2,1.31,15.36,.18,4.68,.13,9.36,.37,14.05,.12,2.44,.11,4.68,.67,6.47h-.01c-.08,.09-.04,.15,.06,.18h0c.26,1.25,.89,2.15,1.83,2.69,.95,.55,2.27,.76,3.73,.82,1.56,.07,3.32,.02,5.16,.09,1.24,.05,2.94-.37,4.45-.48l14.02-1.02,3.26-.21h0c1.36,.18,2.67-.17,4.01-.28,.81-.07,1.62-.07,2.43-.13,1-.08,2.02-.12,2.99-.29,2.12-.37,4.21-.42,6.32-.35,.22,0,.48-.11,.72-.17h-.02s1.3-.19,1.3-.19c.03,0,.06-.02,.09-.04l.05,.09c.94,0,1.8-.05,2.54-.22,.74-.16,1.37-.41,1.74-.68,.14-.02,.27-.04,.4-.08h0s-.01,0-.01,0h.01s0-.03,0-.04c0,0,.02,0,.03,0,.37-.34,.53-.89,.59-1.84,.06-.9,0-2.16,.12-3.39h0s.09-4.34,.09-4.34h-.01c.1-.23,.21-.47,0-.7h.01s-.11-.6-.11-.6l-.18-.17c0-.98-.04-1.98,.25-2.87v.02c-.07-.22-.19-.43,0-.66v.03s0-.05,0-.05l-.14-3.42h0c-.14-.76-.23-1.4,.17-2.11,.3-.54-.41-1.28-.1-2.05h0c0-.08,0-.15,0-.22h0s-.08-9.63-.08-9.63v-.02c.16-1,.26-2.05,.31-3.03,.05-.95,0-1.82-.21-2.46-.22-.65-.49-.91-.94-1.13-.48-.23-1.28-.34-2.24-.4-4.43-.3-8.91-.47-13.37-.61-1.78-.06-3.56-.08-5.33-.11h0c-.24,.09-.47,.12-.7-.03l.03-.02h-.02c-1.44-.08-3.12-.16-4.29-.07-2.05,.15-4.05,.06-6.06,.07-4.24,.02-8.5-.05-12.74,.02-1.34,.03-2.69,.16-3.99,.33-1.15,.15-1.52-.14-1.71-.63-.35-.95-1-1.52-3.3-1.32-1.25,.11-3.52,.14-2.76-1.29,.19-.35-.44-.29-.82-.3-2.33-.07-1.62-1.05-1.74-1.72Zm55.01,45.91l-.4-.17c.06,.07,.12,.14,.2,.2,.01,.01,.13-.02,.2-.03Zm5.15-6.29l-.12-.12,.06,.22,.06-.1Zm-.14-6.29l-.02,.44,.1-.42-.08-.02Zm.03-7.28l-.11,.61,.2-.5-.09-.11Zm-22.03-21.16l.08,.04s0-.01-.01-.02c-.01,0-.04-.01-.06-.02Z"/></g><g><polygon class="cls-13" points="305.38 259.28 305.39 259.27 305.39 259.27 305.38 259.28"/><polygon class="cls-13" points="296.34 259.79 296.35 259.8 296.36 259.79 296.34 259.79"/><path class="cls-13" d="M364.08,259.62c.13,.63-.05,1.1-1.12,1.21-2.88,.29-5.75,.11-8.63,.32h0s-.17,.03-.17,.03h0c-1.89,.02-3.74,.5-5.6,.58-3.3,.13-6.56,.65-9.89,.62-3.7-.06-7.43,.47-11.15,.56-4.47,.13-8.91,.48-13.35,.86-3.77,.29-7.53,.73-11.3,.92-2.62,.14-5.26,.06-7.89,.08-.96,0-1.92,.11-2.88,.12-1.16,.01-2.23,.19-3.46-.31-1.02-.42-2.55-.04-3.85-.03-1.81,0-3.62-.11-5.42,0-1.84,.12-3.72-.14-5.53,.35h.01c-1.07,.01-2.16-.1-3.21,.02-2.38,.27-4.73-.08-7.07-.18-6.59-.28-13.17-.28-19.76-.2-2.52,.04-5.04,.27-7.57,.39h.01c-1.97,.05-3.08-1.11-4.16-2.12-1.18-1.1-.64-1.9,1.11-2.06,3.32-.3,6.63-.6,9.97-.57,3.03,.04,6.05,.29,9.09,.23,1.56-.03,3.12,.05,4.68,.07h0c.06,.12,.11,.1,.17,0h0c2.17,.32,4.35,.07,6.52,.09,1.17,.01,2.32,.1,3.5,.29,.8,.13,1.91-.18,2.89-.2l9.09-.18,2.12-.02h0c.87,.25,1.73-.03,2.6-.06,.52-.02,1.05,.02,1.57,0,.65-.02,1.31-.01,1.94-.13,1.38-.26,2.73-.19,4.09-.03,.14,.02,.31-.09,.47-.14h-.01s.84-.13,.84-.13c.02,0,.04-.02,.06-.03l.03,.09c1.19,.11,2.35-.14,3.52-.26l.51,.15h.01s-.02-.01-.02-.01h.02s.01-.02,.02-.02c0,0,.02,0,.03,.02,1.57-.09,3.13-.44,4.71-.28h0s2.8-.04,2.8-.04h0c.16,.08,.32,.19,.46-.04h0s.39-.11,.39-.11l.1-.19c.63-.02,1.27-.09,1.87,.16h-.01c.14-.08,.27-.21,.43-.02h-.02s.03,0,.03,0l2.2-.25h0c.48-.16,.88-.27,1.37,.1,.36,.28,.81-.45,1.32-.16h0s.09,0,.14,0h0s6.23-.41,6.23-.41h.01c2.65,.5,5.31-.01,7.96-.2,2.89-.2,5.78-.5,8.67-.79l3.44-.39h0c.14-.11,.29-.16,.46-.03l-.02,.02h.01c.94-.06,2.03-.13,2.77-.32,1.31-.33,2.61-.4,3.9-.56,2.74-.35,5.49-.59,8.23-.92,.86-.1,1.72-.32,2.55-.57,.73-.22,1,.05,1.16,.53,.32,.93,.79,1.45,2.25,1.13,.8-.18,2.27-.32,1.9,1.14-.09,.36,.31,.27,.56,.26,1.51-.04,1.14,.96,1.28,1.63Zm-70.98,.64l-.26-.19c.04,.07,.08,.14,.13,.2,0,.01,.09-.01,.13-.02Zm8.47-.48l.07-.12-.14,.07,.07,.06Zm4.06-.31h-.29s.28,.08,.28,.08v-.08Zm4.72-.2l-.4-.09,.33,.18,.06-.09Zm28.76-1.91l-.05-.03v.02s.04,.01,.05,.02Z"/></g><g><polygon class="cls-13" points="298.6 279.65 298.61 279.65 298.61 279.65 298.6 279.65"/><polygon class="cls-13" points="290.37 279.82 290.38 279.83 290.38 279.82 290.37 279.82"/><path class="cls-13" d="M351.69,283.99c.06,.64-.13,1.09-1.11,1.11-2.62,.04-5.19-.42-7.8-.45h0c-.05,.01-.1,.01-.16,.01h0c-1.71-.13-3.41,.19-5.1,.11-2.99-.14-5.96,.15-8.96-.13-3.33-.31-6.73-.05-10.09-.18-4.04-.16-8.07-.03-12.1,.11-3.42,.12-6.83,.36-10.25,.42-2.38,.04-4.76-.15-7.14-.21-.87-.02-1.74,.05-2.6,.03-1.05-.02-2.02,.12-3.12-.42-.91-.44-2.3-.1-3.48-.12-1.64-.04-3.28-.2-4.9-.12-1.67,.09-3.37-.21-5.01,.25h.01c-.97-.01-1.96-.13-2.91-.02-2.16,.25-4.28-.14-6.4-.24-5.97-.3-11.93-.3-17.9-.13-2.28,.07-4.56,.33-6.84,.51h.01c-1.78,.09-2.81-1.05-3.81-2.04-1.09-1.08-.62-1.89,.96-2.08,3.01-.36,6.02-.74,9.05-.74,2.75,0,5.5,.21,8.26,.15,1.42-.03,2.84,.03,4.25,.05h0c.05,.12,.1,.1,.15,0h0c1.97,.33,3.95,.08,5.93,.1,1.06,0,2.11,.12,3.18,.32,.73,.13,1.74-.17,2.63-.17,2.75-.02,5.51-.03,8.26-.04,.64,0,1.28,.01,1.92,.02h0c.79,.28,1.58,.02,2.36,0,.48,0,.95,.05,1.43,.04,.59,0,1.19,.02,1.76-.08,1.26-.22,2.48-.12,3.72,.09,.13,.02,.29-.08,.43-.12h0c.26-.03,.51-.06,.77-.1,.02,0,.04-.02,.06-.03,0,.03,.02,.06,.02,.09,1.08,.15,2.14-.07,3.21-.15,.15,.05,.31,.11,.46,.16,0,0,0,0,.01-.01h-.02s.01,0,.02,0c0,0,.01-.02,.02-.02,0,0,.02,.01,.03,.02,1.43-.04,2.85-.32,4.29-.1,0,0,0,0,0,0,.85,.03,1.7,.06,2.55,.08h0c.14,.08,.28,.2,.42-.02,0,0,0,.01,0,.01,.12-.04,.24-.07,.36-.11,.03-.06,.06-.12,.1-.18,.58,0,1.16-.04,1.69,.24,0,0-.01,.01-.01,.01,.13-.09,.25-.21,.39-.01,0,0-.01,0-.02,.01,.01,0,.02-.01,.03-.02,.67-.05,1.34-.1,2.01-.14,0,0,0,0,0,0,.44-.14,.81-.23,1.24,.16,.32,.29,.75-.41,1.21-.1h0s.08,0,.12,0h0c1.89-.03,3.78-.06,5.67-.09h.01c2.38,.64,4.81,.28,7.23,.26,2.63-.03,5.27-.14,7.9-.22,1.05-.03,2.1-.1,3.15-.15,0,0,0,0,0,0,.14-.1,.27-.14,.42,0,0,0-.02,.02-.02,.02h.01c.85,0,1.84,.03,2.53-.1,1.21-.23,2.39-.2,3.57-.27,2.5-.14,5.02-.14,7.52-.24,.79-.03,1.59-.18,2.36-.35,.68-.15,.9,.14,1.01,.63,.21,.95,.6,1.52,1.95,1.33,.74-.1,2.08-.11,1.62,1.31-.11,.35,.26,.3,.48,.31,1.37,.1,.95,1.06,1.01,1.74Zm-64.28-3.8c-.08-.07-.15-.13-.23-.2,.04,.07,.07,.14,.11,.21,0,.01,.08,0,.12-.01Zm7.71-.18l.07-.12s-.09,.04-.13,.06c.02,.02,.04,.04,.06,.06Zm3.69-.15c-.09,0-.17-.01-.26-.02,.08,.03,.17,.06,.25,.1,0-.03,0-.05,.01-.08Zm4.28,.02c-.12-.04-.24-.07-.36-.11,.1,.07,.2,.13,.3,.2,.02-.03,.04-.06,.06-.09Zm26.19-.2s-.03-.02-.05-.03c0,0,0,.01,0,.02,0,0,.02,.01,.04,.02Z"/></g><g><polygon class="cls-13" points="268.43 299.5 268.43 299.5 268.43 299.5 268.43 299.5"/><polygon class="cls-13" points="263.9 299.67 263.9 299.67 263.9 299.67 263.9 299.67"/><path class="cls-13" d="M297.71,303.86c.04,.64-.07,1.09-.6,1.11-1.44,.03-2.86-.42-4.3-.45h0s-.06,.01-.09,.01h0c-.94-.13-1.88,.19-2.81,.11-1.65-.14-3.28,.14-4.94-.13-1.84-.31-3.71-.05-5.56-.19-2.23-.16-4.45-.04-6.67,.11-1.88,.12-3.76,.36-5.65,.41-1.31,.04-2.62-.15-3.93-.21-.48-.02-.96,.05-1.43,.03-.58-.02-1.11,.11-1.72-.42-.51-.44-1.27-.1-1.92-.13-.9-.04-1.81-.21-2.7-.12-.92,.09-1.86-.21-2.76,.25h0c-.53-.01-1.08-.13-1.6-.02-1.19,.25-2.36-.14-3.53-.25-3.29-.3-6.58-.31-9.86-.13-1.26,.07-2.51,.33-3.77,.5h0c-.98,.09-1.56-1.05-2.11-2.04-.61-1.08-.36-1.89,.51-2.08,1.65-.36,3.31-.73,4.98-.74,1.52,0,3.03,.22,4.55,.15,.78-.03,1.56,.03,2.34,.05h0c.03,.12,.06,.1,.08,0h0c1.09,.33,2.18,.09,3.27,.1,.58,0,1.16,.12,1.75,.32,.4,.13,.96-.17,1.45-.17,1.52-.02,3.03-.03,4.55-.04,.35,0,.71,.01,1.06,.02h0c.44,.28,.87,.02,1.3,0,.26,0,.52,.05,.79,.04,.32,0,.66,.02,.97-.08,.69-.22,1.37-.12,2.05,.09,.07,.02,.16-.08,.24-.12h0c.14-.03,.28-.06,.42-.1,.01,0,.02-.02,.03-.03,0,.03,0,.06,.01,.09,.6,.15,1.18-.06,1.77-.15,.09,.05,.17,.11,.26,.16,0,0,0,0,0-.01,0,0,0,0-.01,0,0,0,0,0,.01,0,0,0,0-.02,.01-.02,0,0,.01,.01,.02,.02,.79-.04,1.57-.32,2.36-.1,0,0,0,0,0,0,.47,.03,.94,.06,1.4,.08h0c.08,.08,.16,.2,.23-.02h0c.07-.02,.13-.06,.2-.1,.02-.06,.03-.12,.05-.18,.32,0,.64-.04,.93,.24,0,0,0,.01,0,.01,.07-.09,.14-.21,.21-.01,0,0,0,0,0,.01,0,0,.01-.01,.02-.02,.37-.05,.74-.09,1.1-.14,0,0,0,0,0,0,.24-.14,.45-.23,.68,.16,.18,.29,.41-.41,.66-.1h0s.05,0,.07,0h0c1.04-.03,2.08-.05,3.12-.08h0c1.32,.64,2.65,.29,3.98,.26,1.45-.03,2.9-.13,4.35-.22,.58-.03,1.15-.1,1.73-.15,0,0,0,0,0,0,.07-.1,.15-.14,.23,0v.02s0,0,0,0c.47,.02,1.02,.04,1.4-.09,.66-.23,1.31-.2,1.97-.27,1.38-.14,2.76-.14,4.14-.24,.44-.03,.87-.17,1.3-.35,.37-.15,.5,.14,.56,.63,.12,.95,.34,1.52,1.08,1.33,.41-.1,1.14-.11,.9,1.31-.06,.35,.15,.3,.27,.31,.76,.1,.53,1.06,.57,1.74Zm-35.44-3.82c-.04-.07-.08-.13-.13-.2,.02,.07,.04,.14,.06,.21,0,.01,.04,0,.07-.01Zm4.25-.18s.03-.08,.04-.12c-.02,.02-.05,.04-.07,.06,.01,.02,.02,.04,.03,.06Zm2.03-.15s-.1-.01-.14-.02c.05,.03,.09,.06,.14,.1,0-.03,0-.05,0-.08Zm2.36,.02c-.07-.04-.13-.07-.2-.11,.05,.06,.11,.13,.16,.2l.03-.09Zm14.43-.19s-.02-.02-.03-.03c0,0,0,.01,0,.02,0,0,.01,.01,.02,.02Z"/></g><g><polygon class="cls-13" points="305.38 354.67 305.39 354.67 305.39 354.67 305.38 354.67"/><polygon class="cls-13" points="296.34 355.19 296.35 355.19 296.36 355.19 296.34 355.19"/><path class="cls-13" d="M364.08,355.02c.13,.63-.05,1.1-1.12,1.21-2.88,.29-5.75,.11-8.63,.32h0s-.17,.03-.17,.03h0c-1.89,.02-3.74,.5-5.6,.58-3.3,.13-6.56,.65-9.89,.62-3.7-.06-7.43,.47-11.15,.56-4.47,.13-8.91,.48-13.35,.86-3.77,.29-7.53,.73-11.3,.92-2.62,.14-5.26,.06-7.89,.08-.96,0-1.92,.11-2.88,.12-1.16,.01-2.23,.19-3.46-.31-1.02-.42-2.55-.04-3.85-.03-1.81,0-3.62-.11-5.42,0-1.84,.12-3.72-.14-5.53,.35h.01c-1.07,.01-2.16-.1-3.21,.02-2.38,.27-4.73-.08-7.07-.18-6.59-.28-13.17-.28-19.76-.2-2.52,.04-5.04,.27-7.57,.39h.01c-1.97,.05-3.08-1.11-4.16-2.12-1.18-1.1-.64-1.9,1.11-2.06,3.32-.3,6.63-.6,9.97-.57,3.03,.04,6.05,.29,9.09,.23,1.56-.03,3.12,.05,4.68,.07h0c.06,.12,.11,.1,.17,0h0c2.17,.32,4.35,.07,6.52,.09,1.17,.01,2.32,.1,3.5,.29,.8,.13,1.91-.18,2.89-.2l9.09-.18,2.12-.02h0c.87,.26,1.73-.03,2.6-.06,.52-.02,1.05,.02,1.57,0,.65-.02,1.31-.01,1.94-.13,1.38-.26,2.73-.19,4.09-.03,.14,.02,.31-.09,.47-.14h-.01s.84-.13,.84-.13c.02,0,.04-.02,.06-.03l.03,.09c1.19,.11,2.35-.14,3.52-.26l.51,.15h.01s-.02-.01-.02-.01h.02s.01-.02,.02-.02c0,0,.02,0,.03,.02,1.57-.09,3.13-.44,4.71-.28h0s2.8-.04,2.8-.04h0c.16,.08,.32,.19,.46-.04h0s.39-.11,.39-.11l.1-.19c.63-.02,1.27-.09,1.87,.16h-.01c.14-.08,.27-.21,.43-.02h-.02s.03,0,.03,0l2.2-.25h0c.48-.16,.88-.27,1.37,.1,.36,.28,.81-.45,1.32-.16h0s.09,0,.14,0h0s6.23-.41,6.23-.41h.01c2.65,.5,5.31-.01,7.96-.2,2.89-.2,5.78-.5,8.67-.79l3.44-.39h0c.14-.11,.29-.16,.46-.03l-.02,.02h.01c.94-.06,2.03-.13,2.77-.32,1.31-.33,2.61-.4,3.9-.56,2.74-.35,5.49-.59,8.23-.92,.86-.1,1.72-.32,2.55-.57,.73-.22,1,.05,1.16,.53,.32,.93,.79,1.45,2.25,1.13,.8-.18,2.27-.32,1.9,1.14-.09,.36,.31,.27,.56,.26,1.51-.04,1.14,.96,1.28,1.63Zm-70.98,.64l-.26-.19c.04,.07,.08,.14,.13,.2,0,.01,.09-.01,.13-.02Zm8.47-.48l.07-.12-.14,.07,.07,.06Zm4.06-.31h-.29s.28,.08,.28,.08v-.08Zm4.72-.2l-.4-.09,.33,.18,.06-.09Zm28.76-1.91l-.05-.03h.01s.03,.03,.04,.03Z"/></g><g><polygon class="cls-13" points="298.6 375.05 298.61 375.05 298.61 375.05 298.6 375.05"/><polygon class="cls-13" points="290.37 375.22 290.38 375.22 290.38 375.22 290.37 375.22"/><path class="cls-13" d="M351.69,379.39c.06,.64-.13,1.09-1.11,1.11-2.62,.03-5.19-.42-7.8-.45h0c-.05,.01-.1,.01-.16,.01h0c-1.71-.13-3.41,.19-5.1,.11-2.99-.14-5.96,.15-8.96-.13-3.33-.31-6.73-.05-10.09-.18-4.04-.16-8.07-.03-12.1,.11-3.42,.12-6.83,.36-10.25,.42-2.38,.04-4.76-.15-7.14-.21-.87-.02-1.74,.05-2.6,.03-1.05-.02-2.02,.12-3.12-.42-.91-.44-2.3-.1-3.48-.12-1.64-.04-3.28-.2-4.9-.12-1.67,.09-3.37-.21-5.01,.25h.01c-.97-.01-1.96-.13-2.91-.02-2.16,.25-4.28-.14-6.4-.24-5.97-.3-11.93-.3-17.9-.13-2.28,.07-4.56,.33-6.84,.51h.01c-1.78,.09-2.81-1.05-3.81-2.04-1.09-1.08-.62-1.89,.96-2.08,3.01-.36,6.02-.74,9.05-.74,2.75,0,5.5,.21,8.26,.15,1.42-.03,2.84,.03,4.25,.05h0c.05,.12,.1,.1,.15,0h0c1.97,.33,3.95,.08,5.93,.1,1.06,0,2.11,.12,3.18,.32,.73,.13,1.74-.17,2.63-.17,2.75-.02,5.51-.03,8.26-.04,.64,0,1.28,.01,1.92,.02h0c.79,.28,1.58,.02,2.36,0,.48,0,.95,.05,1.43,.04,.59,0,1.19,.02,1.76-.08,1.26-.22,2.48-.12,3.72,.09,.13,.02,.29-.08,.43-.12h0c.26-.03,.51-.06,.77-.1,.02,0,.04-.02,.06-.03,0,.03,.02,.06,.02,.09,1.08,.15,2.14-.07,3.21-.15,.15,.05,.31,.11,.46,.16,0,0,0,0,.01-.01h-.02s.01,0,.02,0c0,0,.01-.02,.02-.02,0,0,.02,.01,.03,.02,1.43-.04,2.85-.32,4.29-.1,0,0,0,0,0,0,.85,.03,1.7,.06,2.55,.08h0c.14,.08,.28,.2,.42-.02h0c.12-.02,.24-.06,.36-.1,.03-.06,.06-.12,.1-.18,.58,0,1.16-.04,1.69,.24,0,0-.01,.01-.01,.01,.13-.09,.25-.21,.39-.01,0,0-.01,0-.02,.01,.01,0,.02-.01,.03-.02,.67-.05,1.34-.1,2.01-.14,0,0,0,0,0,0,.44-.14,.81-.23,1.24,.16,.32,.29,.75-.41,1.21-.1h0s.08,0,.12,0h0c1.89-.03,3.78-.06,5.67-.09h.01c2.38,.64,4.81,.28,7.23,.26,2.63-.03,5.27-.14,7.9-.22,1.05-.03,2.1-.1,3.15-.15,0,0,0,0,0,0,.14-.1,.27-.14,.42,0,0,0-.02,.02-.02,.02h.01c.85,0,1.84,.03,2.53-.1,1.21-.23,2.39-.2,3.57-.27,2.5-.14,5.02-.14,7.52-.24,.79-.03,1.59-.18,2.36-.35,.68-.15,.9,.14,1.01,.63,.21,.95,.6,1.52,1.95,1.33,.74-.1,2.08-.11,1.62,1.31-.11,.35,.26,.3,.48,.31,1.37,.1,.95,1.06,1.01,1.74Zm-64.28-3.8c-.08-.07-.15-.13-.23-.2,.04,.07,.07,.14,.11,.21,0,.01,.08,0,.12-.01Zm7.71-.18s.05-.08,.07-.12c-.04,.02-.09,.04-.13,.06,.02,.02,.04,.04,.06,.06Zm3.69-.15c-.09,0-.17-.01-.26-.02,.08,.03,.17,.06,.25,.1,0-.03,0-.05,.01-.08Zm4.28,.02c-.12-.04-.24-.07-.36-.11,.1,.07,.2,.13,.3,.2,.02-.03,.04-.06,.06-.09Zm26.19-.2s-.03-.02-.05-.03c0,0,0,.01,0,.02,0,0,.02,.01,.04,.02Z"/></g><g><polygon class="cls-13" points="268.43 394.9 268.43 394.9 268.43 394.9 268.43 394.9"/><polygon class="cls-13" points="263.9 395.07 263.9 395.07 263.9 395.07 263.9 395.07"/><path class="cls-13" d="M297.71,399.26c.04,.64-.07,1.09-.6,1.11-1.44,.03-2.86-.42-4.3-.45h0s-.06,.01-.09,.01h0c-.94-.13-1.88,.19-2.81,.11-1.65-.14-3.28,.15-4.94-.13-1.84-.31-3.71-.05-5.56-.19-2.23-.16-4.45-.04-6.67,.11-1.88,.12-3.76,.36-5.65,.41-1.31,.04-2.62-.15-3.93-.21-.48-.02-.96,.05-1.43,.03-.58-.02-1.11,.11-1.72-.42-.51-.44-1.27-.1-1.92-.13-.9-.04-1.81-.21-2.7-.12-.92,.09-1.86-.21-2.76,.25h0c-.53-.01-1.08-.13-1.6-.02-1.19,.25-2.36-.14-3.53-.25-3.29-.3-6.58-.31-9.86-.13-1.26,.07-2.51,.33-3.77,.5h0c-.98,.09-1.56-1.05-2.11-2.04-.61-1.08-.36-1.89,.51-2.08,1.65-.36,3.31-.73,4.98-.74,1.52,0,3.03,.22,4.55,.15,.78-.03,1.56,.03,2.34,.05h0c.03,.12,.06,.1,.08,0h0c1.09,.33,2.18,.09,3.27,.1,.58,0,1.16,.12,1.75,.32,.4,.13,.96-.17,1.45-.17,1.52-.02,3.03-.03,4.55-.04,.35,0,.71,.01,1.06,.02h0c.44,.28,.87,.02,1.3,0,.26,0,.52,.05,.79,.04,.32,0,.66,.02,.97-.08,.69-.22,1.37-.12,2.05,.09,.07,.02,.16-.08,.24-.12h0c.14-.03,.28-.06,.42-.1,.01,0,.02-.02,.03-.03,0,.03,0,.06,.01,.09,.6,.15,1.18-.06,1.77-.15,.09,.05,.17,.11,.26,.16,0,0,0,0,0-.01h-.01s0,0,.01,0c0,0,0-.02,.01-.02,0,0,.01,.01,.02,.02,.79-.04,1.57-.32,2.36-.1,0,0,0,0,0,0,.47,.03,.94,.06,1.4,.08h0c.08,.08,.16,.2,.23-.02h0c.07-.02,.13-.06,.2-.1,.02-.06,.03-.12,.05-.18,.32,0,.64-.04,.93,.24,0,0,0,.01,0,.01,.07-.09,.14-.21,.21-.01,0,0,0,0,0,.01,0,0,.01-.01,.02-.02,.37-.05,.74-.09,1.1-.14,0,0,0,0,0,0,.24-.14,.45-.23,.68,.16,.18,.29,.41-.41,.66-.1h0s.05,0,.07,0h0c1.04-.03,2.08-.05,3.12-.08h0c1.32,.64,2.65,.29,3.98,.26,1.45-.03,2.9-.13,4.35-.22,.58-.03,1.15-.1,1.73-.15,0,0,0,0,0,0,.07-.1,.15-.14,.23,0,0,0-.01,.02-.01,.02h0c.47,.01,1.02,.03,1.4-.1,.66-.23,1.31-.2,1.97-.27,1.38-.14,2.76-.14,4.14-.24,.44-.03,.87-.17,1.3-.35,.37-.15,.5,.14,.56,.63,.12,.95,.34,1.52,1.08,1.33,.41-.1,1.14-.11,.9,1.31-.06,.35,.15,.3,.27,.31,.76,.1,.53,1.06,.57,1.74Zm-35.44-3.82c-.04-.07-.08-.13-.13-.2,.02,.07,.04,.14,.06,.21,0,.01,.04,0,.07-.01Zm4.25-.18l.04-.12s-.05,.04-.07,.06c.01,.02,.02,.04,.03,.06Zm2.03-.15s-.1-.01-.14-.02c.05,.03,.09,.06,.14,.1,0-.03,0-.05,0-.08Zm2.36,.02c-.07-.04-.13-.07-.2-.11,.05,.07,.11,.13,.16,.2l.03-.09Zm14.43-.19s-.02-.02-.03-.03c0,0,0,.01,0,.02,0,0,.01,.01,.02,.02Z"/></g><g><polygon class="cls-13" points="305.38 454.6 305.39 454.6 305.39 454.6 305.38 454.6"/><polygon class="cls-13" points="296.34 455.12 296.35 455.12 296.36 455.12 296.34 455.12"/><path class="cls-13" d="M364.08,454.95c.13,.63-.05,1.1-1.12,1.21-2.88,.29-5.75,.11-8.63,.32h0s-.17,.03-.17,.03h0c-1.89,.02-3.74,.5-5.6,.58-3.3,.13-6.56,.65-9.89,.62-3.7-.06-7.43,.47-11.15,.56-4.47,.13-8.91,.48-13.35,.86-3.77,.29-7.53,.73-11.3,.92-2.62,.14-5.26,.06-7.89,.08-.96,0-1.92,.11-2.88,.12-1.16,.01-2.23,.19-3.46-.31-1.02-.42-2.55-.04-3.85-.03-1.81,0-3.62-.11-5.42,0-1.84,.12-3.72-.14-5.53,.35h.01c-1.07,.01-2.16-.1-3.21,.02-2.38,.27-4.73-.08-7.07-.18-6.59-.28-13.17-.28-19.76-.2-2.52,.04-5.04,.27-7.57,.39h.01c-1.97,.05-3.08-1.11-4.16-2.12-1.18-1.1-.64-1.9,1.11-2.06,3.32-.3,6.63-.6,9.97-.57,3.03,.04,6.05,.29,9.09,.23,1.56-.03,3.12,.05,4.68,.07h0c.06,.12,.11,.1,.17,0h0c2.17,.32,4.35,.07,6.52,.09,1.17,.01,2.32,.1,3.5,.29,.8,.13,1.91-.18,2.89-.2l9.09-.18,2.12-.02h0c.87,.25,1.73-.03,2.6-.06,.52-.02,1.05,.02,1.57,0,.65-.02,1.31-.01,1.94-.13,1.38-.26,2.73-.19,4.09-.03,.14,.02,.31-.09,.47-.14h-.01s.84-.13,.84-.13c.02,0,.04-.02,.06-.03l.03,.09c1.19,.11,2.35-.14,3.52-.26l.51,.15h.01s-.02-.01-.02-.01h.02s.01-.02,.02-.02c0,0,.02,0,.03,.02,1.57-.09,3.13-.44,4.71-.28h0s2.8-.04,2.8-.04h0c.16,.08,.32,.19,.46-.04h0s.39-.11,.39-.11l.1-.19c.63-.02,1.27-.09,1.87,.16h-.01c.14-.08,.27-.21,.43-.02h-.02s.03,0,.03,0l2.2-.25h0c.48-.16,.88-.27,1.37,.1,.36,.28,.81-.45,1.32-.16h0s.09,0,.14,0h0s6.23-.41,6.23-.41h.01c2.65,.5,5.31-.01,7.96-.2,2.89-.2,5.78-.5,8.67-.79l3.44-.39h0c.14-.11,.29-.16,.46-.03l-.02,.02h.01c.94-.06,2.03-.13,2.77-.32,1.31-.33,2.61-.4,3.9-.56,2.74-.35,5.49-.59,8.23-.92,.86-.1,1.72-.32,2.55-.57,.73-.22,1,.05,1.16,.53,.32,.93,.79,1.45,2.25,1.13,.8-.18,2.27-.32,1.9,1.14-.09,.36,.31,.27,.56,.26,1.51-.04,1.14,.96,1.28,1.63Zm-70.98,.64l-.26-.19c.04,.07,.08,.14,.13,.2,0,.01,.09-.01,.13-.02Zm8.47-.48l.07-.12-.14,.07,.07,.06Zm4.06-.31h-.29s.28,.08,.28,.08v-.08Zm4.72-.2l-.4-.09,.33,.18,.06-.09Zm28.76-1.91l-.05-.03v.02s.04,.01,.05,.02Z"/></g><g><polygon class="cls-13" points="298.6 474.98 298.61 474.98 298.61 474.98 298.6 474.98"/><polygon class="cls-13" points="290.37 475.15 290.38 475.15 290.38 475.15 290.37 475.15"/><path class="cls-13" d="M351.69,479.32c.06,.64-.13,1.09-1.11,1.11-2.62,.04-5.19-.42-7.8-.45h0c-.05,.01-.1,.01-.16,.01h0c-1.71-.13-3.41,.19-5.1,.11-2.99-.14-5.96,.15-8.96-.13-3.33-.31-6.73-.05-10.09-.18-4.04-.16-8.07-.03-12.1,.11-3.42,.12-6.83,.36-10.25,.42-2.38,.04-4.76-.15-7.14-.21-.87-.02-1.74,.05-2.6,.03-1.05-.02-2.02,.12-3.12-.42-.91-.44-2.3-.1-3.48-.12-1.64-.04-3.28-.2-4.9-.12-1.67,.09-3.37-.21-5.01,.25h.01c-.97-.01-1.96-.13-2.91-.02-2.16,.25-4.28-.14-6.4-.24-5.97-.3-11.93-.3-17.9-.13-2.28,.07-4.56,.33-6.84,.51h.01c-1.78,.09-2.81-1.05-3.81-2.04-1.09-1.08-.62-1.89,.96-2.08,3.01-.36,6.02-.74,9.05-.74,2.75,0,5.5,.21,8.26,.15,1.42-.03,2.84,.03,4.25,.05h0c.05,.12,.1,.1,.15,0h0c1.97,.33,3.95,.08,5.93,.1,1.06,0,2.11,.12,3.18,.32,.73,.13,1.74-.17,2.63-.17,2.75-.02,5.51-.03,8.26-.04,.64,0,1.28,.01,1.92,.02h0c.79,.28,1.58,.02,2.36,0,.48,0,.95,.05,1.43,.04,.59,0,1.19,.02,1.76-.08,1.26-.22,2.48-.12,3.72,.09,.13,.02,.29-.08,.43-.12h0c.26-.03,.51-.06,.77-.1,.02,0,.04-.02,.06-.03,0,.03,.02,.06,.02,.09,1.08,.15,2.14-.07,3.21-.15,.15,.05,.31,.11,.46,.16,0,0,0,0,.01-.01h-.02s.01,0,.02,0c0,0,.01-.02,.02-.02,0,0,.02,.01,.03,.02,1.43-.04,2.85-.32,4.29-.1,0,0,0,0,0,0,.85,.03,1.7,.06,2.55,.08h0c.14,.08,.28,.2,.42-.02,0,0,0,.01,0,.01,.12-.04,.24-.07,.36-.11,.03-.06,.06-.12,.1-.18,.58,0,1.16-.04,1.69,.24,0,0-.01,.01-.01,.01,.13-.09,.25-.21,.39-.01,0,0-.01,0-.02,.01,.01,0,.02-.01,.03-.02,.67-.05,1.34-.1,2.01-.14,0,0,0,0,0,0,.44-.14,.81-.23,1.24,.16,.32,.29,.75-.41,1.21-.1h0s.08,0,.12,0h0c1.89-.03,3.78-.06,5.67-.09h.01c2.38,.64,4.81,.28,7.23,.26,2.63-.03,5.27-.14,7.9-.22,1.05-.03,2.1-.1,3.15-.15,0,0,0,0,0,0,.14-.1,.27-.14,.42,0,0,0-.02,.02-.02,.02h.01c.85,0,1.84,.03,2.53-.1,1.21-.23,2.39-.2,3.57-.27,2.5-.14,5.02-.14,7.52-.24,.79-.03,1.59-.18,2.36-.35,.68-.15,.9,.14,1.01,.63,.21,.95,.6,1.52,1.95,1.33,.74-.1,2.08-.11,1.62,1.31-.11,.35,.26,.3,.48,.31,1.37,.1,.95,1.06,1.01,1.74Zm-64.28-3.8c-.08-.07-.15-.13-.23-.2,.04,.07,.07,.14,.11,.21,0,.01,.08,0,.12-.01Zm7.71-.18l.07-.12s-.09,.04-.13,.06c.02,.02,.04,.04,.06,.06Zm3.69-.15c-.09,0-.17-.01-.26-.02,.08,.03,.17,.06,.25,.1,0-.03,0-.05,.01-.08Zm4.28,.02c-.12-.04-.24-.07-.36-.11,.1,.07,.2,.13,.3,.2,.02-.03,.04-.06,.06-.09Zm26.19-.2s-.03-.02-.05-.03c0,0,0,.01,0,.02,0,0,.02,.01,.04,.02Z"/></g><g><polygon class="cls-13" points="268.43 494.83 268.43 494.83 268.43 494.83 268.43 494.83"/><polygon class="cls-13" points="263.9 495 263.9 495 263.9 495 263.9 495"/><path class="cls-13" d="M297.71,499.19c.04,.64-.07,1.09-.6,1.11-1.44,.03-2.86-.42-4.3-.45h0s-.06,.01-.09,.01h0c-.94-.13-1.88,.19-2.81,.11-1.65-.14-3.28,.14-4.94-.13-1.84-.31-3.71-.05-5.56-.19-2.23-.16-4.45-.04-6.67,.11-1.88,.12-3.76,.36-5.65,.41-1.31,.04-2.62-.15-3.93-.21-.48-.02-.96,.05-1.43,.03-.58-.02-1.11,.11-1.72-.42-.51-.44-1.27-.1-1.92-.13-.9-.04-1.81-.21-2.7-.12-.92,.09-1.86-.21-2.76,.25h0c-.53-.01-1.08-.13-1.6-.02-1.19,.25-2.36-.14-3.53-.25-3.29-.3-6.58-.31-9.86-.13-1.26,.07-2.51,.33-3.77,.5h0c-.98,.09-1.56-1.05-2.11-2.04-.61-1.08-.36-1.89,.51-2.08,1.65-.36,3.31-.73,4.98-.74,1.52,0,3.03,.22,4.55,.15,.78-.03,1.56,.03,2.34,.05h0c.03,.12,.06,.1,.08,0h0c1.09,.33,2.18,.09,3.27,.1,.58,0,1.16,.12,1.75,.32,.4,.13,.96-.17,1.45-.17,1.52-.02,3.03-.03,4.55-.04,.35,0,.71,.01,1.06,.02h0c.44,.28,.87,.02,1.3,0,.26,0,.52,.05,.79,.04,.32,0,.66,.02,.97-.08,.69-.22,1.37-.12,2.05,.09,.07,.02,.16-.08,.24-.12h0c.14-.03,.28-.06,.42-.1,.01,0,.02-.02,.03-.03,0,.03,0,.06,.01,.09,.6,.15,1.18-.06,1.77-.15,.09,.05,.17,.11,.26,.16,0,0,0,0,0-.01,0,0,0,0-.01,0,0,0,0,0,.01,0,0,0,0-.02,.01-.02,0,0,.01,.01,.02,.02,.79-.04,1.57-.32,2.36-.1,0,0,0,0,0,0,.47,.03,.94,.06,1.4,.08h0c.08,.08,.16,.2,.23-.02h0c.07-.02,.13-.06,.2-.1,.02-.06,.03-.12,.05-.18,.32,0,.64-.04,.93,.24,0,0,0,.01,0,.01,.07-.09,.14-.21,.21-.01,0,0,0,0,0,.01,0,0,.01-.01,.02-.02,.37-.05,.74-.09,1.1-.14,0,0,0,0,0,0,.24-.14,.45-.23,.68,.16,.18,.29,.41-.41,.66-.1h0s.05,0,.07,0h0c1.04-.03,2.08-.05,3.12-.08h0c1.32,.64,2.65,.29,3.98,.26,1.45-.03,2.9-.13,4.35-.22,.58-.03,1.15-.1,1.73-.15,0,0,0,0,0,0,.07-.1,.15-.14,.23,0v.02s0,0,0,0c.47,.02,1.02,.04,1.4-.09,.66-.23,1.31-.2,1.97-.27,1.38-.14,2.76-.14,4.14-.24,.44-.03,.87-.17,1.3-.35,.37-.15,.5,.14,.56,.63,.12,.95,.34,1.52,1.08,1.33,.41-.1,1.14-.11,.9,1.31-.06,.35,.15,.3,.27,.31,.76,.1,.53,1.06,.57,1.74Zm-35.44-3.82c-.04-.07-.08-.13-.13-.2,.02,.07,.04,.14,.06,.21,0,.01,.04,0,.07-.01Zm4.25-.18s.03-.08,.04-.12c-.02,.02-.05,.04-.07,.06,.01,.02,.02,.04,.03,.06Zm2.03-.15s-.1-.01-.14-.02c.05,.03,.09,.06,.14,.1,0-.03,0-.05,0-.08Zm2.36,.02c-.07-.04-.13-.07-.2-.11,.05,.06,.11,.13,.16,.2l.03-.09Zm14.43-.19s-.02-.02-.03-.03c0,0,0,.01,0,.02,0,0,.01,.01,.02,.02Z"/></g></g><g class="cls-29"><g><circle class="cls-13" cx="385.86" cy="73.26" r="2.08"/><circle class="cls-13" cx="363.81" cy="73.26" r="2.08"/><circle class="cls-13" cx="341.76" cy="73.26" r="2.08"/><circle class="cls-13" cx="319.71" cy="73.26" r="2.08"/><circle class="cls-13" cx="297.65" cy="73.26" r="2.08"/><circle class="cls-13" cx="275.6" cy="73.26" r="2.08"/><circle class="cls-13" cx="253.55" cy="73.26" r="2.08"/><circle class="cls-13" cx="231.5" cy="73.26" r="2.08"/><circle class="cls-13" cx="209.45" cy="73.26" r="2.08"/><circle class="cls-13" cx="187.39" cy="73.26" r="2.08"/><circle class="cls-13" cx="165.34" cy="73.26" r="2.08"/><circle class="cls-13" cx="143.29" cy="73.26" r="2.08"/><circle class="cls-13" cx="385.86" cy="95.98" r="2.08"/><circle class="cls-13" cx="363.81" cy="95.98" r="2.08"/><circle class="cls-13" cx="341.76" cy="95.98" r="2.08"/><circle class="cls-13" cx="319.71" cy="95.98" r="2.08"/><circle class="cls-13" cx="297.65" cy="95.98" r="2.08"/><circle class="cls-13" cx="275.6" cy="95.98" r="2.08"/><circle class="cls-13" cx="253.55" cy="95.98" r="2.08"/><circle class="cls-13" cx="231.5" cy="95.98" r="2.08"/><circle class="cls-13" cx="209.45" cy="95.98" r="2.08"/><circle class="cls-13" cx="187.39" cy="95.98" r="2.08"/><circle class="cls-13" cx="165.34" cy="95.98" r="2.08"/><circle class="cls-13" cx="143.29" cy="95.98" r="2.08"/><circle class="cls-13" cx="385.86" cy="118.03" r="2.08"/><circle class="cls-13" cx="363.81" cy="118.03" r="2.08"/><circle class="cls-13" cx="341.76" cy="118.03" r="2.08"/><circle class="cls-13" cx="319.71" cy="118.03" r="2.08"/><circle class="cls-13" cx="297.65" cy="118.03" r="2.08"/><circle class="cls-13" cx="275.6" cy="118.03" r="2.08"/><circle class="cls-13" cx="253.55" cy="118.03" r="2.08"/><circle class="cls-13" cx="231.5" cy="118.03" r="2.08"/><circle class="cls-13" cx="209.45" cy="118.03" r="2.08"/><circle class="cls-13" cx="187.39" cy="118.03" r="2.08"/><circle class="cls-13" cx="165.34" cy="118.03" r="2.08"/><circle class="cls-13" cx="143.29" cy="118.03" r="2.08"/><circle class="cls-13" cx="385.86" cy="140.74" r="2.08"/><circle class="cls-13" cx="363.81" cy="140.74" r="2.08"/><circle class="cls-13" cx="341.76" cy="140.74" r="2.08"/><circle class="cls-13" cx="319.71" cy="140.74" r="2.08"/><circle class="cls-13" cx="297.65" cy="140.74" r="2.08"/><circle class="cls-13" cx="275.6" cy="140.74" r="2.08"/><circle class="cls-13" cx="253.55" cy="140.74" r="2.08"/><circle class="cls-13" cx="231.5" cy="140.74" r="2.08"/><circle class="cls-13" cx="209.45" cy="140.74" r="2.08"/><circle class="cls-13" cx="187.39" cy="140.74" r="2.08"/><circle class="cls-13" cx="165.34" cy="140.74" r="2.08"/><circle class="cls-13" cx="143.29" cy="140.74" r="2.08"/><circle class="cls-13" cx="385.86" cy="162.8" r="2.08"/><circle class="cls-13" cx="363.81" cy="162.8" r="2.08"/><circle class="cls-13" cx="341.76" cy="162.8" r="2.08"/><circle class="cls-13" cx="319.71" cy="162.8" r="2.08"/><circle class="cls-13" cx="297.65" cy="162.8" r="2.08"/><circle class="cls-13" cx="275.6" cy="162.8" r="2.08"/><circle class="cls-13" cx="253.55" cy="162.8" r="2.08"/><circle class="cls-13" cx="231.5" cy="162.8" r="2.08"/><circle class="cls-13" cx="209.45" cy="162.8" r="2.08"/><circle class="cls-13" cx="187.39" cy="162.8" r="2.08"/><circle class="cls-13" cx="165.34" cy="162.8" r="2.08"/><circle class="cls-13" cx="143.29" cy="162.8" r="2.08"/></g><g><circle class="cls-13" cx="385.86" cy="162.8" r="2.08"/><circle class="cls-13" cx="363.81" cy="162.8" r="2.08"/><circle class="cls-13" cx="341.76" cy="162.8" r="2.08"/><circle class="cls-13" cx="319.71" cy="162.8" r="2.08"/><circle class="cls-13" cx="297.65" cy="162.8" r="2.08"/><circle class="cls-13" cx="275.6" cy="162.8" r="2.08"/><circle class="cls-13" cx="253.55" cy="162.8" r="2.08"/><circle class="cls-13" cx="231.5" cy="162.8" r="2.08"/><circle class="cls-13" cx="209.45" cy="162.8" r="2.08"/><circle class="cls-13" cx="187.39" cy="162.8" r="2.08"/><circle class="cls-13" cx="165.34" cy="162.8" r="2.08"/><circle class="cls-13" cx="143.29" cy="162.8" r="2.08"/><circle class="cls-13" cx="385.86" cy="185.51" r="2.08"/><circle class="cls-13" cx="363.81" cy="185.51" r="2.08"/><circle class="cls-13" cx="341.76" cy="185.51" r="2.08"/><circle class="cls-13" cx="319.71" cy="185.51" r="2.08"/><circle class="cls-13" cx="297.65" cy="185.51" r="2.08"/><circle class="cls-13" cx="275.6" cy="185.51" r="2.08"/><circle class="cls-13" cx="253.55" cy="185.51" r="2.08"/><circle class="cls-13" cx="231.5" cy="185.51" r="2.08"/><circle class="cls-13" cx="209.45" cy="185.51" r="2.08"/><circle class="cls-13" cx="187.39" cy="185.51" r="2.08"/><circle class="cls-13" cx="165.34" cy="185.51" r="2.08"/><circle class="cls-13" cx="143.29" cy="185.51" r="2.08"/><circle class="cls-13" cx="385.86" cy="207.56" r="2.08"/><circle class="cls-13" cx="363.81" cy="207.56" r="2.08"/><circle class="cls-13" cx="341.76" cy="207.56" r="2.08"/><circle class="cls-13" cx="319.71" cy="207.56" r="2.08"/><circle class="cls-13" cx="297.65" cy="207.56" r="2.08"/><circle class="cls-13" cx="275.6" cy="207.56" r="2.08"/><circle class="cls-13" cx="253.55" cy="207.56" r="2.08"/><circle class="cls-13" cx="231.5" cy="207.56" r="2.08"/><circle class="cls-13" cx="209.45" cy="207.56" r="2.08"/><circle class="cls-13" cx="187.39" cy="207.56" r="2.08"/><circle class="cls-13" cx="165.34" cy="207.56" r="2.08"/><circle class="cls-13" cx="143.29" cy="207.56" r="2.08"/><circle class="cls-13" cx="385.86" cy="230.28" r="2.08"/><circle class="cls-13" cx="363.81" cy="230.28" r="2.08"/><circle class="cls-13" cx="341.76" cy="230.28" r="2.08"/><circle class="cls-13" cx="319.71" cy="230.28" r="2.08"/><circle class="cls-13" cx="297.65" cy="230.28" r="2.08"/><circle class="cls-13" cx="275.6" cy="230.28" r="2.08"/><circle class="cls-13" cx="253.55" cy="230.28" r="2.08"/><circle class="cls-13" cx="231.5" cy="230.28" r="2.08"/><circle class="cls-13" cx="209.45" cy="230.28" r="2.08"/><circle class="cls-13" cx="187.39" cy="230.28" r="2.08"/><circle class="cls-13" cx="165.34" cy="230.28" r="2.08"/><circle class="cls-13" cx="143.29" cy="230.28" r="2.08"/><circle class="cls-13" cx="385.86" cy="252.33" r="2.08"/><circle class="cls-13" cx="363.81" cy="252.33" r="2.08"/><circle class="cls-13" cx="341.76" cy="252.33" r="2.08"/><circle class="cls-13" cx="319.71" cy="252.33" r="2.08"/><circle class="cls-13" cx="297.65" cy="252.33" r="2.08"/><circle class="cls-13" cx="275.6" cy="252.33" r="2.08"/><circle class="cls-13" cx="253.55" cy="252.33" r="2.08"/><circle class="cls-13" cx="231.5" cy="252.33" r="2.08"/><circle class="cls-13" cx="209.45" cy="252.33" r="2.08"/><circle class="cls-13" cx="187.39" cy="252.33" r="2.08"/><circle class="cls-13" cx="165.34" cy="252.33" r="2.08"/><circle class="cls-13" cx="143.29" cy="252.33" r="2.08"/></g></g><g><g><path class="cls-11" d="M275.23,183.74c-1.18,.02-15.48,.4-16.65,.41-3.31,.02-6.62,.03-9.93,.07-1.25,.01-2.5,.13-3.75,.14-1.54,.02-3.08-.03-4.63-.04-2.41-.02-4.83-.03-7.24-.04-1.64,0-3.28-.02-4.93-.02-1.31,0-2.62,.07-3.92,.04-1.52-.03-3.03-.14-4.54-.18-.47-.01-.95,.05-1.42,.09-.35,.04-.47-.04-.48-.39-.01-.58,0-1.15-.03-1.73-.09-1.71-.19-3.42-.29-5.13-.06-1-.14-2-.18-3-.1-2.2-.2-4.4-.27-6.6-.04-1.17-.09-2.35,0-3.52,.09-1.11,.38-2.21,.54-3.32,.21-1.44,.87-2.68,1.54-3.94,.81-1.53,2.08-2.57,3.49-3.49,1.49-.97,3.1-1.72,4.73-2.41,1.36-.57,2.73-1.16,4.14-1.61,2.97-.94,5.96-1.84,9.02-2.45,1.07-.21,2.17-.33,3.25-.5,.92-.14,1.83-.3,2.74-.44,.23-.04,.47,0,.69-.06,.83-.23,1.7-.13,2.54-.22,.73-.08,1.49,.04,2.23,.07,.46,.02,.93,.05,1.39,.06,1.03,.04,2.05,.07,3.08,.11,.87,.03,1.74,.07,2.6,.08,.45,0,.89-.06,1.34-.05,1.04,.02,2.08,.03,3.12,.11,1.5,.11,2.99,.26,4.48,.44,1.57,.19,3.15,.38,4.7,.68,2.23,.42,4.43,.99,6.57,1.8,2.54,.96,4.95,2.17,7.4,3.31,1.75,.81,3.19,2.03,4.36,3.57,.61,.81,1.3,1.56,1.89,2.38,.79,1.11,1.43,2.31,1.86,3.61,.63,1.9,1.11,3.84,1.36,5.84,.14,1.12,.21,2.24,.23,3.36,.03,1.61,.08,3.22,.06,4.83-.02,1.27-.15,2.54-.22,3.81-.03,.59-.02,1.17-.06,1.76-.05,.77-.12,1.53-.2,2.3-.01,.09-.18,.24-.28,.24-1.17,0-2.35-.04-3.52-.07-.13,0-.27,0-.4,0-2.32,.04-4.63,.09-6.95,.13-.84,.01-1.68,0-2.52,0-.4,0-.81,.07-1.21,.08-3.84,.03-7.68,.05-11.51,.08-.97,0-1.94,.04-2.91,.05-1.48,.02-2.96,.04-4.45,.06,0,.03,13.12-.31,13.12-.29Z"/><path class="cls-13" d="M276.5,145.68c3.16,.82,6.14,2.21,8.92,3.48,1.05,.5,1.99,.84,3.26,1.56,1.17,.68,2.22,1.56,3.12,2.54,.92,1.06,1.54,1.91,2.28,2.83l.54,.69c.19,.26,.37,.54,.54,.81,.35,.56,.66,1.14,.93,1.74,.27,.59,.52,1.26,.69,1.83,.18,.57,.35,1.15,.5,1.73,.31,1.17,.56,2.36,.73,3.57,.17,1.21,.18,2.42,.27,3.63,.07,1.21,.03,2.32,.05,3.48,.11,2.43-.23,4.91-.27,7.33-.02,.17,.01,.26-.04,.5l-.15,.71-.3,1.41c-.1,.47-.19,.95-.31,1.4-.35,.4-.68,.54-1.14,.69-.45,.16-1.04,.09-1.58,.09l-1.37-.03-.91-.02c-.35,0-.48-.02-.82,0l-7.22,.12h-1.81c-.6,0-1.21,.08-1.81,.07h-3.61c-4.96-.02-9.93-.03-14.88-.04v-1.77c.56,0,1.14-.07,1.7-.19,.1-.08,.02-.14,.03-.21-.03-.15-.08-.32-.17-.49-.18-.35-.55-.66-.87-.77-.16-.06-.3-.09-.42-.1-.06,0-.11,0-.16,0h.01s.05,0,.05,0h.21s.42,0,.42,0h.85s1.71,.03,1.71,.03l3.41,.07c1.43,.04,2.9-.11,4.36-.16,.59-.02,1.38-.09,1.45,.25,.05,.26,.14,.51,.22,.76l.13,.38c.05,.12,.08,.29-.07,.31-.14,.02-.27-.08-.39-.12-.01,0-.04-.01-.04-.02l.36-.02h.31s-.28,0-.28,0l-.37,.02c-.12,0-.42,.04-.36,.05-.06,.05-.14,.15-.15,.35-.02,.19,.08,.53,.38,.79,.14,.13,.32,.21,.47,.27,.06,.03,.19,.04,.18,.06l-.02,.05c-.03,.07-.06,.13-.1,.2-.26,.44-.94,.62-1.9,.63l-5.45,.04-2.73,.02h-1.37s-.69,.01-.69,.01h-.35s-.18,0-.18,0h-.02c-.06,0-.22,0-.35-.02-.28-.04-.65-.14-1.01-.39-.36-.24-.65-.61-.79-.94-.15-.33-.2-.62-.21-.83l-.18-2.22h2.35c4.29,.02,8.62,.01,12.9,.09,1.82,.02,3.64,.1,5.46,.16,1.8-.05,3.62,.07,5.42-.01l4.91-.15c.42,0,.78-.03,1.3-.01l1.22,.02h.58c.12,0,.24,.04,.35,0,.1-.23,.08-.57,.12-.86,.04-.7,.05-1.6,.11-2.37,.09-1.61,.25-3.21,.17-4.83-.03-2.61-.1-5.08-.51-7.47-.23-1.2-.55-2.39-.93-3.57-.2-.62-.38-1.13-.61-1.63-.23-.51-.5-1-.81-1.47-.15-.24-.31-.47-.49-.7l-.61-.74-1.22-1.49c-.7-.9-1.47-1.66-2.37-2.27-.45-.31-.9-.56-1.41-.8l-1.77-.84c-1.17-.56-2.32-1.11-3.47-1.63-3.05-1.4-6.18-2.35-9.57-2.84-1.68-.26-3.35-.54-5.07-.69l-2.56-.26-2.53-.07c-.54-.03-1.12,.03-1.68,.05l-1.72-.03-3.41-.07-1.71-.05-.91-.04-.8-.05c-.23,0-.44,0-.6,.01l-.48,.04-.48,.02c-.61,.02-1,.03-1.3,.11-.2,.06-.4,.09-.6,.11l-.34,.02-.57,.09c-1.93,.32-3.8,.59-5.65,.92-1.83,.39-3.65,.88-5.47,1.43l-2.74,.86c-.89,.32-1.74,.69-2.61,1.02-1.73,.67-3.48,1.42-5,2.3-1.4,.82-2.71,1.76-3.43,2.79-.09,.13-.18,.27-.26,.4l-.27,.51c-.2,.38-.39,.75-.55,1.1-.33,.72-.53,1.28-.63,1.99-.16,1-.37,1.85-.48,2.6-.1,.7-.13,1.52-.13,2.36l.09,5.31c.01,2.39,.13,4.74,.23,7.14l.18,3.46,.02,.51c-.01,.11,.12,.11,.2,.09l.26-.03h.12c.07-.01-.01-.02,.18-.02h.83s1.66,.02,1.66,.02c.55,0,1.11,0,1.66-.02l1.65-.11c.84-.06,1.69,.19,2.5-.08h-.03s.58-.11,.58-.11h-.03c2.82,.21,5.61-.07,8.42-.05,2.93-.02,5.77,.02,8.67-.09,2.9-.18,5.82-.11,8.76,.02,2.86,.17,5.93,.13,9-.09,2.46-.18,5.44,.1,7.85-.28,2.97-.47,2.85,.34,3.41,1.03,.21,.26,.06,.5-.18,.75-.62,.65-1.91,1.17-1.59,2.02,.18,.48-1.38,.45-2.19,.5-3.45,.21-6.89,.38-10.34,.51-3.45,.15-6.89,.14-10.34,.19-1.72,0-3.45,.08-5.17,.14-1.73,.02-3.48-.03-5.22-.04l-10.34-.1c-1.72-.02-3.51,.01-5.27,.03-.88,0-1.75-.05-2.63-.08l-1.31-.05-.73-.03c-.46-.02-.88,.05-1.31,.07-.6-.12-1.25-.21-1.82-.35-.2-.11-.47-.33-.65-.55l-.12-.16c-.02-.07-.03-.16-.05-.23l-.09-.48-.34-1.93c-.02-.17-.07-.31-.07-.5l-.02-.45-.04-.55-.28-4.44c-.23-3-.32-5.97-.46-8.96-.04-1.14-.1-2.32-.03-3.64,.03-.64,.12-1.41,.24-2.01l.33-1.69,.06-.37c.03-.17,.06-.38,.1-.56,.08-.38,.18-.74,.3-1.09,.24-.69,.52-1.32,.81-1.89l.43-.82,.22-.4c.09-.17,.19-.33,.29-.49,.4-.65,.89-1.22,1.4-1.74,1.04-1.03,2.12-1.75,3.21-2.41,1.1-.65,2.22-1.2,3.32-1.69,1.09-.5,2.22-.91,3.33-1.36,1.12-.44,2.24-.92,3.34-1.25,2.41-.8,4.88-1.53,7.43-2.06,1.28-.26,2.54-.4,3.81-.59l1.85-.27,.92-.13c.08-.02,.65-.07,.71-.06h.03c.72-.16,1.42-.17,1.9-.17,.38,0,.63,0,.9-.01,.53-.04,1-.02,1.4,.01l1.03,.09,1.03,.07,4.2,.2c.7,.02,1.38,.07,2.09,.07l1.06-.03,1.1,.04,2.19,.1,2.14,.24c.89,.11,1.79,.19,2.68,.32l2.69,.41c1.8,.22,3.61,.55,5.43,.93h-.03Z"/></g><g><path class="cls-11" d="M264.13,91.8c1.44,.37,2.71,1.1,3.9,1.98,1.59,1.19,2.93,2.62,4.17,4.16,.48,.6,1.04,1.14,1.49,1.76,.94,1.29,1.53,2.78,2.18,4.23,.68,1.5,.95,3.1,1.28,4.69,.23,1.1,.23,2.21,.13,3.32-.07,.79-.14,1.58-.26,2.36-.16,1.05-.53,2.03-1.06,2.95-.83,1.44-1.61,2.92-2.53,4.3-.84,1.24-1.77,2.45-2.8,3.53-1.01,1.05-2.23,1.9-3.34,2.87-1.09,.95-2.42,1.4-3.72,1.92-1.68,.67-3.4,1.15-5.2,1.33-.84,.08-1.67,.26-2.51,.3-2.43,.11-4.66-.62-6.77-1.75-.93-.49-1.86-.99-2.75-1.54-.59-.36-1.13-.82-1.66-1.26-1.67-1.38-3-3.04-4.11-4.89-.92-1.53-1.95-3-2.6-4.68-.38-.99-.62-2.01-.72-3.06-.14-1.45-.25-2.9-.36-4.35-.11-1.51-.09-3.03,.07-4.54,.02-.18-.13-.38-.2-.56-.05-.13-.18-.3-.14-.37,.06-.11,.24-.16,.38-.22,.07-.03,.19-.03,.25,0,.38,.21,.44-.07,.5-.32,.23-.92,.67-1.72,1.23-2.48,.34-.46,.68-.93,.98-1.42,.81-1.29,1.84-2.39,3.03-3.32,1.31-1.02,2.66-2,4.02-2.93,.66-.45,1.4-.78,2.11-1.13,.84-.41,1.68-.84,2.54-1.18,1.71-.67,3.51-.82,5.34-.7,.55,.03,1.1-.02,1.65,0,.43,.02,.86,.11,1.3,.15l4.17,.84Z"/><path class="cls-13" d="M237.86,121.6c-.89-1.41-1.83-3.14-2.34-5.03-.28-.96-.42-2.06-.48-2.87l-.23-2.62c-.07-.85-.14-1.8-.13-2.74,0-.47,.01-.94,.04-1.41l.05-.7,.03-.35,.02-.12s.01-.07,0-.1v-.02s-.09-.19-.09-.19c-.03-.07-.07-.17-.11-.31-.02-.07-.05-.19-.06-.29-.02-.18-.03-.26,0-.53,.01-.12,.03-.22,.07-.36,.04-.15,.1-.3,.18-.44,.1-.17,.11-.18,.17-.27,.1-.13,.2-.24,.3-.33,.19-.17,.34-.26,.47-.33,.1-.06,.27-.13,.24-.12,.03-.02,.06,0,.09,.01,.04,0,.04-.04,.05-.06l.04-.09,.1-.22,.19-.38c.36-.71,.91-1.43,1.2-1.85l.51-.73c.16-.23,.39-.61,.61-.89,.87-1.21,1.95-2.3,3.1-3.17l3.2-2.33,.8-.58c.33-.23,.69-.43,1.02-.6,.33-.17,.65-.32,.94-.46l.89-.41,1.41-.62c.47-.2,.92-.43,1.5-.6,1.1-.35,2.24-.52,3.34-.55,1.09-.05,2.21,.1,3.11,.13l.71,.05,.77,.14,.38,.07,.28,.05c.1,.02,.2,.05,.24,.06l.7,.21c.73,.22,1.53,.27,2.3,.4,.31,.05,.74,.08,.7,.43-.1,1.02,.06,2.1-.5,3.04-.24,.4-.63,.49-1.13,.37l-1.55-.36-.77-.18-.39-.09-.19-.05s-.06-.01,.04,0l-.72-.11-.36-.06h-.41c-.52-.04-1.13-.03-1.58-.08-.93-.07-1.83-.07-2.68,.06-.43,.06-.84,.15-1.25,.28-.39,.12-.9,.37-1.34,.54-.86,.34-1.73,.68-2.6,1.02-.41,.18-.67,.3-1.1,.6-.39,.26-.78,.54-1.15,.84-.67,.53-1.36,1.05-2.05,1.56-.7,.5-1.22,.97-1.76,1.54-.54,.57-.94,1.11-1.43,1.84l-.81,1.15c-.25,.34-.43,.61-.6,.92-.09,.17-.15,.29-.23,.5-.14,.36-.21,.79-.39,1.12-.17,.33-.33,.62-.65,.82-.15,.08-.21,.08-.36,.13l-.27,.1-.15,.05-.08,.02h-.04s-.02,.01-.02,.01h0s0,0,0,0l-.07-.14h-.04s-.34-.73-.34-.73l-.12-.24c-.07-.13-.13-.21-.18-.27-.02-.03-.04-.04-.06-.06h-.01s-.13-.09-.13-.09c0,0,.01,0,.03,0,.06,0,.2-.02,.47-.14l.24-.11,.79-.4,.04,.07,.08,.15,.14,.3c.09,.2,.17,.41,.21,.63,.05,.22,.01,.44,.02,.66-.04,.48-.05,.66-.06,.9v.72c-.02,.48,0,.96,.03,1.43,.05,.93,.19,1.96,.29,2.97l.15,1.52c.05,.51,.08,1.03,.15,1.42,.13,.86,.36,1.68,.68,2.48,.3,.74,.69,1.49,1.15,2.27l1.39,2.38c.9,1.47,1.99,2.78,3.29,3.82l1.44,1.05c.54,.32,1.13,.6,1.69,.91,1.16,.63,2.22,1.15,3.32,1.51,.85,.29,1.71,.46,2.57,.51,.89,.06,1.59-.04,2.7-.22l.83-.11c.23-.03,.45-.06,.68-.1,.45-.08,.9-.18,1.35-.3,.9-.24,1.76-.55,2.68-.94,.91-.37,1.7-.68,2.29-1.05,.15-.09,.29-.18,.42-.28,.13-.1,.22-.18,.45-.37,.39-.33,.78-.64,1.15-.94,.75-.59,1.41-1.11,1.98-1.68,.61-.6,1.2-1.26,1.77-1.95,.28-.34,.55-.68,.82-1.04,.26-.37,.5-.76,.74-1.15,.49-.77,.97-1.55,1.43-2.34,.51-.84,.82-1.45,.99-2.19,.08-.38,.13-.67,.13-1.12,0-.45,0-.9,0-1.35,0-.44,.32-.86,.06-1.24h0s-.1-.25-.1-.25h0c.12-.62,.07-1.22-.08-1.76l-.29-1.04-.27-1.03c-.16-.69-.36-1.32-.61-1.88l-.95-1.99c-.32-.66-.62-1.25-.93-1.78-.17-.28-.3-.49-.47-.74l-.66-.9c-.23-.33-.47-.66-.71-1-.22-.3-.45-.6-.69-.88-.49-.56-1.03-1.09-1.63-1.52-.92-.69-1.9-1.82-2.97-1.98-1.26-.13-.93-.79-1-1.56-.03-.28,.1-.49,.29-.7,.47-.54,1.35-.73,1.49-1.59,.07-.51,.98-.06,1.44,.16,1.98,.91,3.61,2.19,5.05,3.62,.7,.69,1.4,1.49,1.96,2.16l.9,1.01c.35,.4,.74,.92,1.03,1.37,.6,.94,1.04,1.89,1.43,2.76l.55,1.26c.23,.52,.42,1.05,.58,1.56,.32,1.03,.51,2.02,.68,2.93l.13,.67c.06,.29,.1,.58,.14,.86,.07,.57,.09,1.14,.09,1.68-.03,1.54-.23,2.72-.37,4.13-.13,.81-.36,1.6-.67,2.33-.15,.37-.32,.72-.51,1.07l-.5,.88-1.95,3.39c-.67,1.13-1.51,2.24-2.41,3.29-.44,.51-.92,1.02-1.46,1.52-.53,.48-1.06,.9-1.55,1.28-.5,.39-.96,.74-1.38,1.09-.64,.54-1.37,.98-2.05,1.3-.68,.32-1.32,.56-1.9,.78-.53,.2-1.21,.46-1.84,.67-1.29,.43-2.63,.77-4.02,.99l-2.19,.33c-.88,.12-1.81,.12-2.68,.03-1.77-.17-3.43-.74-4.89-1.48-.77-.39-1.47-.81-2.13-1.21-.68-.42-1.35-.78-2.03-1.23-.67-.53-1.37-1.04-2.01-1.59-.63-.56-1.23-1.17-1.77-1.81-.68-.8-1.28-1.65-1.84-2.51-.59-.9-1.04-1.61-1.66-2.38h0Z"/></g></g></g></g></svg>