<svg xmlns="http://www.w3.org/2000/svg" xmlns:xlink="http://www.w3.org/1999/xlink" viewBox="0 0 150 150">
	<path fill="#1a73e8" d="M89.77,10.4c-4.4-1.39-9.08-2.15-13.94-2.15c-14.18,0-26.87,6.41-35.33,16.48l21.8,18.34L89.77,10.4z"/>
	<path fill="#ea4335" d="M40.49,24.73c-6.74,8.02-10.81,18.37-10.81,29.66c0,8.68,1.73,15.71,4.57,22.01l28.04-33.33L40.49,24.73z"/>
	<path fill="#4285f4" d="M75.83,36.75c9.75,0,17.65,7.9,17.65,17.65c0,4.34-1.57,8.32-4.17,11.39c0,0,13.94-16.58,27.47-32.66
		c-5.59-10.75-15.28-19.02-27-22.73L62.29,43.07C65.53,39.2,70.39,36.75,75.83,36.75"/>
	<path fill="#fbbc04" d="M75.83,72.04c-9.75,0-17.65-7.9-17.65-17.65c0-4.31,1.55-8.26,4.11-11.33L34.25,76.4
		c4.79,10.63,12.76,19.16,20.97,29.91L89.3,65.79C86.07,69.61,81.23,72.04,75.83,72.04"/>
	<path fill="#34a853" d="M88.63,117.37c15.39-24.07,33.34-35,33.34-62.98c0-7.67-1.88-14.9-5.19-21.26l-61.55,73.18
		c2.61,3.42,5.24,7.06,7.81,11.07c9.36,14.46,6.76,23.13,12.8,23.13C81.86,140.51,79.27,131.83,88.63,117.37"/>
</svg>
